<?xml version="1.0" encoding="utf-8" standalone="no"?>
<!DOCTYPE svg PUBLIC "-//W3C//DTD SVG 1.1//EN"
  "http://www.w3.org/Graphics/SVG/1.1/DTD/svg11.dtd">
<svg xmlns:xlink="http://www.w3.org/1999/xlink" width="1005.12pt" height="506.16pt" viewBox="0 0 1005.12 506.16" xmlns="http://www.w3.org/2000/svg" version="1.1">
 <metadata>
  <rdf:RDF xmlns:dc="http://purl.org/dc/elements/1.1/" xmlns:cc="http://creativecommons.org/ns#" xmlns:rdf="http://www.w3.org/1999/02/22-rdf-syntax-ns#">
   <cc:Work>
    <dc:type rdf:resource="http://purl.org/dc/dcmitype/StillImage"/>
    <dc:date>2026-07-20T17:37:57.269511</dc:date>
    <dc:format>image/svg+xml</dc:format>
    <dc:creator>
     <cc:Agent>
      <dc:title>Matplotlib v3.11.1, https://matplotlib.org/</dc:title>
     </cc:Agent>
    </dc:creator>
   </cc:Work>
  </rdf:RDF>
 </metadata>
 <defs>
  <style type="text/css">*{stroke-linejoin: round; stroke-linecap: butt}</style>
 </defs>
 <g id="figure_1">
  <g id="patch_1">
   <path d="M 0 506.16
L 1005.12 506.16
L 1005.12 0
L 0 0
z
" style="fill: #ffffff"/>
  </g>
  <g id="axes_1">
   <g id="patch_2">
    <path d="M 40.404844 434.834597
L 993.6 434.834597
L 993.6 14.04
L 40.404844 14.04
z
" style="fill: #ffffff"/>
   </g>
   <g id="matplotlib.axis_1">
    <g id="xtick_1">
     <g id="line2d_1">
      <path d="M 83.731896 434.834597
L 83.731896 14.04
" clip-path="url(#pd0b4ff7236)" style="fill: none; stroke: #b0b0b0; stroke-opacity: 0.3; stroke-width: 0.8; stroke-linecap: square"/>
     </g>
     <g id="line2d_2">
      <defs>
       <path id="m100920f756" d="M 0 0
L 0 -3.5
" style="stroke: #000000; stroke-width: 0.8"/>
      </defs>
      <g>
       <use xlink:href="#m100920f756" x="83.731896" y="434.834597" style="stroke: #000000; stroke-width: 0.8"/>
      </g>
     </g>
     <g id="text_1">
      <!-- 0 -->
      <g transform="translate(81.231896 445.268191) scale(0.1 -0.1)">
       <defs>
        <path id="TimesNewRomanPSMT-13" d="M 231 2094
Q 231 2819 450 3342
Q 669 3866 1031 4122
Q 1313 4325 1613 4325
Q 2100 4325 2488 3828
Q 2972 3213 2972 2159
Q 2972 1422 2759 906
Q 2547 391 2217 158
Q 1888 -75 1581 -75
Q 975 -75 572 641
Q 231 1244 231 2094
z
M 844 2016
Q 844 1141 1059 588
Q 1238 122 1591 122
Q 1759 122 1940 273
Q 2122 425 2216 781
Q 2359 1319 2359 2297
Q 2359 3022 2209 3506
Q 2097 3866 1919 4016
Q 1791 4119 1609 4119
Q 1397 4119 1231 3928
Q 1006 3669 925 3112
Q 844 2556 844 2016
z
" transform="scale(0.015625)"/>
       </defs>
       <use xlink:href="#TimesNewRomanPSMT-13"/>
      </g>
     </g>
    </g>
    <g id="xtick_2">
     <g id="line2d_3">
      <path d="M 204.08482 434.834597
L 204.08482 14.04
" clip-path="url(#pd0b4ff7236)" style="fill: none; stroke: #b0b0b0; stroke-opacity: 0.3; stroke-width: 0.8; stroke-linecap: square"/>
     </g>
     <g id="line2d_4">
      <g>
       <use xlink:href="#m100920f756" x="204.08482" y="434.834597" style="stroke: #000000; stroke-width: 0.8"/>
      </g>
     </g>
     <g id="text_2">
      <!-- 500 -->
      <g transform="translate(196.58482 445.268191) scale(0.1 -0.1)">
       <defs>
        <path id="TimesNewRomanPSMT-18" d="M 2778 4238
L 2534 3706
L 1259 3706
L 981 3138
Q 1809 3016 2294 2522
Q 2709 2097 2709 1522
Q 2709 1188 2573 903
Q 2438 619 2231 419
Q 2025 219 1772 97
Q 1413 -75 1034 -75
Q 653 -75 479 54
Q 306 184 306 341
Q 306 428 378 495
Q 450 563 559 563
Q 641 563 702 538
Q 763 513 909 409
Q 1144 247 1384 247
Q 1750 247 2026 523
Q 2303 800 2303 1197
Q 2303 1581 2056 1914
Q 1809 2247 1375 2428
Q 1034 2569 447 2591
L 1259 4238
L 2778 4238
z
" transform="scale(0.015625)"/>
       </defs>
       <use xlink:href="#TimesNewRomanPSMT-18"/>
       <use xlink:href="#TimesNewRomanPSMT-13" transform="translate(50 0)"/>
       <use xlink:href="#TimesNewRomanPSMT-13" transform="translate(100 0)"/>
      </g>
     </g>
    </g>
    <g id="xtick_3">
     <g id="line2d_5">
      <path d="M 324.437744 434.834597
L 324.437744 14.04
" clip-path="url(#pd0b4ff7236)" style="fill: none; stroke: #b0b0b0; stroke-opacity: 0.3; stroke-width: 0.8; stroke-linecap: square"/>
     </g>
     <g id="line2d_6">
      <g>
       <use xlink:href="#m100920f756" x="324.437744" y="434.834597" style="stroke: #000000; stroke-width: 0.8"/>
      </g>
     </g>
     <g id="text_3">
      <!-- 1000 -->
      <g transform="translate(314.437744 445.268191) scale(0.1 -0.1)">
       <defs>
        <path id="TimesNewRomanPSMT-14" d="M 750 3822
L 1781 4325
L 1884 4325
L 1884 747
Q 1884 391 1914 303
Q 1944 216 2037 169
Q 2131 122 2419 116
L 2419 0
L 825 0
L 825 116
Q 1125 122 1212 167
Q 1300 213 1334 289
Q 1369 366 1369 747
L 1369 3034
Q 1369 3497 1338 3628
Q 1316 3728 1258 3775
Q 1200 3822 1119 3822
Q 1003 3822 797 3725
L 750 3822
z
" transform="scale(0.015625)"/>
       </defs>
       <use xlink:href="#TimesNewRomanPSMT-14"/>
       <use xlink:href="#TimesNewRomanPSMT-13" transform="translate(50 0)"/>
       <use xlink:href="#TimesNewRomanPSMT-13" transform="translate(100 0)"/>
       <use xlink:href="#TimesNewRomanPSMT-13" transform="translate(150 0)"/>
      </g>
     </g>
    </g>
    <g id="xtick_4">
     <g id="line2d_7">
      <path d="M 444.790668 434.834597
L 444.790668 14.04
" clip-path="url(#pd0b4ff7236)" style="fill: none; stroke: #b0b0b0; stroke-opacity: 0.3; stroke-width: 0.8; stroke-linecap: square"/>
     </g>
     <g id="line2d_8">
      <g>
       <use xlink:href="#m100920f756" x="444.790668" y="434.834597" style="stroke: #000000; stroke-width: 0.8"/>
      </g>
     </g>
     <g id="text_4">
      <!-- 1500 -->
      <g transform="translate(434.790668 445.268191) scale(0.1 -0.1)">
       <use xlink:href="#TimesNewRomanPSMT-14"/>
       <use xlink:href="#TimesNewRomanPSMT-18" transform="translate(50 0)"/>
       <use xlink:href="#TimesNewRomanPSMT-13" transform="translate(100 0)"/>
       <use xlink:href="#TimesNewRomanPSMT-13" transform="translate(150 0)"/>
      </g>
     </g>
    </g>
    <g id="xtick_5">
     <g id="line2d_9">
      <path d="M 565.143591 434.834597
L 565.143591 14.04
" clip-path="url(#pd0b4ff7236)" style="fill: none; stroke: #b0b0b0; stroke-opacity: 0.3; stroke-width: 0.8; stroke-linecap: square"/>
     </g>
     <g id="line2d_10">
      <g>
       <use xlink:href="#m100920f756" x="565.143591" y="434.834597" style="stroke: #000000; stroke-width: 0.8"/>
      </g>
     </g>
     <g id="text_5">
      <!-- 2000 -->
      <g transform="translate(555.143591 445.268191) scale(0.1 -0.1)">
       <defs>
        <path id="TimesNewRomanPSMT-15" d="M 2934 816
L 2638 0
L 138 0
L 138 116
Q 1241 1122 1691 1759
Q 2141 2397 2141 2925
Q 2141 3328 1894 3587
Q 1647 3847 1303 3847
Q 991 3847 742 3664
Q 494 3481 375 3128
L 259 3128
Q 338 3706 661 4015
Q 984 4325 1469 4325
Q 1984 4325 2329 3994
Q 2675 3663 2675 3213
Q 2675 2891 2525 2569
Q 2294 2063 1775 1497
Q 997 647 803 472
L 1909 472
Q 2247 472 2383 497
Q 2519 522 2628 598
Q 2738 675 2819 816
L 2934 816
z
" transform="scale(0.015625)"/>
       </defs>
       <use xlink:href="#TimesNewRomanPSMT-15"/>
       <use xlink:href="#TimesNewRomanPSMT-13" transform="translate(50 0)"/>
       <use xlink:href="#TimesNewRomanPSMT-13" transform="translate(100 0)"/>
       <use xlink:href="#TimesNewRomanPSMT-13" transform="translate(150 0)"/>
      </g>
     </g>
    </g>
    <g id="xtick_6">
     <g id="line2d_11">
      <path d="M 685.496515 434.834597
L 685.496515 14.04
" clip-path="url(#pd0b4ff7236)" style="fill: none; stroke: #b0b0b0; stroke-opacity: 0.3; stroke-width: 0.8; stroke-linecap: square"/>
     </g>
     <g id="line2d_12">
      <g>
       <use xlink:href="#m100920f756" x="685.496515" y="434.834597" style="stroke: #000000; stroke-width: 0.8"/>
      </g>
     </g>
     <g id="text_6">
      <!-- 2500 -->
      <g transform="translate(675.496515 445.268191) scale(0.1 -0.1)">
       <use xlink:href="#TimesNewRomanPSMT-15"/>
       <use xlink:href="#TimesNewRomanPSMT-18" transform="translate(50 0)"/>
       <use xlink:href="#TimesNewRomanPSMT-13" transform="translate(100 0)"/>
       <use xlink:href="#TimesNewRomanPSMT-13" transform="translate(150 0)"/>
      </g>
     </g>
    </g>
    <g id="xtick_7">
     <g id="line2d_13">
      <path d="M 805.849439 434.834597
L 805.849439 14.04
" clip-path="url(#pd0b4ff7236)" style="fill: none; stroke: #b0b0b0; stroke-opacity: 0.3; stroke-width: 0.8; stroke-linecap: square"/>
     </g>
     <g id="line2d_14">
      <g>
       <use xlink:href="#m100920f756" x="805.849439" y="434.834597" style="stroke: #000000; stroke-width: 0.8"/>
      </g>
     </g>
     <g id="text_7">
      <!-- 3000 -->
      <g transform="translate(795.849439 445.268191) scale(0.1 -0.1)">
       <defs>
        <path id="TimesNewRomanPSMT-16" d="M 325 3431
Q 506 3859 782 4092
Q 1059 4325 1472 4325
Q 1981 4325 2253 3994
Q 2459 3747 2459 3466
Q 2459 3003 1878 2509
Q 2269 2356 2469 2072
Q 2669 1788 2669 1403
Q 2669 853 2319 450
Q 1863 -75 997 -75
Q 569 -75 414 31
Q 259 138 259 259
Q 259 350 332 419
Q 406 488 509 488
Q 588 488 669 463
Q 722 447 909 348
Q 1097 250 1169 231
Q 1284 197 1416 197
Q 1734 197 1970 444
Q 2206 691 2206 1028
Q 2206 1275 2097 1509
Q 2016 1684 1919 1775
Q 1784 1900 1550 2001
Q 1316 2103 1072 2103
L 972 2103
L 972 2197
Q 1219 2228 1467 2375
Q 1716 2522 1828 2728
Q 1941 2934 1941 3181
Q 1941 3503 1739 3701
Q 1538 3900 1238 3900
Q 753 3900 428 3381
L 325 3431
z
" transform="scale(0.015625)"/>
       </defs>
       <use xlink:href="#TimesNewRomanPSMT-16"/>
       <use xlink:href="#TimesNewRomanPSMT-13" transform="translate(50 0)"/>
       <use xlink:href="#TimesNewRomanPSMT-13" transform="translate(100 0)"/>
       <use xlink:href="#TimesNewRomanPSMT-13" transform="translate(150 0)"/>
      </g>
     </g>
    </g>
    <g id="xtick_8">
     <g id="line2d_15">
      <path d="M 926.202363 434.834597
L 926.202363 14.04
" clip-path="url(#pd0b4ff7236)" style="fill: none; stroke: #b0b0b0; stroke-opacity: 0.3; stroke-width: 0.8; stroke-linecap: square"/>
     </g>
     <g id="line2d_16">
      <g>
       <use xlink:href="#m100920f756" x="926.202363" y="434.834597" style="stroke: #000000; stroke-width: 0.8"/>
      </g>
     </g>
     <g id="text_8">
      <!-- 3500 -->
      <g transform="translate(916.202363 445.268191) scale(0.1 -0.1)">
       <use xlink:href="#TimesNewRomanPSMT-16"/>
       <use xlink:href="#TimesNewRomanPSMT-18" transform="translate(50 0)"/>
       <use xlink:href="#TimesNewRomanPSMT-13" transform="translate(100 0)"/>
       <use xlink:href="#TimesNewRomanPSMT-13" transform="translate(150 0)"/>
      </g>
     </g>
    </g>
    <g id="text_9">
     <!-- Time (s) -->
     <g transform="translate(495.949922 463.560144) scale(0.12 -0.12)">
      <defs>
       <path id="TimesNewRomanPS-BoldMT-37" d="M 4038 4238
L 4038 3091
L 3925 3091
Q 3825 3488 3703 3661
Q 3581 3834 3369 3938
Q 3250 3994 2953 3994
L 2638 3994
L 2638 725
Q 2638 400 2673 319
Q 2709 238 2814 177
Q 2919 116 3100 116
L 3241 116
L 3241 0
L 1022 0
L 1022 116
L 1163 116
Q 1347 116 1459 181
Q 1541 225 1588 331
Q 1622 406 1622 725
L 1622 3994
L 1316 3994
Q 888 3994 694 3813
Q 422 3559 350 3091
L 231 3091
L 231 4238
L 4038 4238
z
" transform="scale(0.015625)"/>
       <path id="TimesNewRomanPS-BoldMT-4c" d="M 919 4338
Q 1122 4338 1262 4195
Q 1403 4053 1403 3853
Q 1403 3653 1261 3512
Q 1119 3372 919 3372
Q 719 3372 578 3512
Q 438 3653 438 3853
Q 438 4053 578 4195
Q 719 4338 919 4338
z
M 1356 2922
L 1356 606
Q 1356 297 1428 211
Q 1500 125 1709 113
L 1709 0
L 131 0
L 131 113
Q 325 119 419 225
Q 481 297 481 606
L 481 2313
Q 481 2622 409 2708
Q 338 2794 131 2806
L 131 2922
L 1356 2922
z
" transform="scale(0.015625)"/>
       <path id="TimesNewRomanPS-BoldMT-50" d="M 1428 2922
L 1428 2538
Q 1669 2800 1873 2904
Q 2078 3009 2322 3009
Q 2603 3009 2793 2878
Q 2984 2747 3088 2478
Q 3338 2759 3567 2884
Q 3797 3009 4047 3009
Q 4350 3009 4529 2870
Q 4709 2731 4779 2517
Q 4850 2303 4850 1834
L 4850 638
Q 4850 300 4911 219
Q 4972 138 5166 113
L 5166 0
L 3656 0
L 3656 113
Q 3834 128 3919 250
Q 3975 334 3975 638
L 3975 1894
Q 3975 2284 3944 2390
Q 3913 2497 3845 2548
Q 3778 2600 3688 2600
Q 3553 2600 3415 2501
Q 3278 2403 3138 2206
L 3138 638
Q 3138 322 3191 241
Q 3263 125 3466 113
L 3466 0
L 1953 0
L 1953 113
Q 2075 119 2145 173
Q 2216 228 2239 304
Q 2263 381 2263 638
L 2263 1894
Q 2263 2291 2231 2391
Q 2200 2491 2126 2547
Q 2053 2603 1969 2603
Q 1844 2603 1741 2538
Q 1594 2441 1428 2206
L 1428 638
Q 1428 328 1489 229
Q 1550 131 1744 113
L 1744 0
L 238 0
L 238 113
Q 422 131 500 231
Q 553 300 553 638
L 553 2288
Q 553 2619 492 2700
Q 431 2781 238 2806
L 238 2922
L 1428 2922
z
" transform="scale(0.015625)"/>
       <path id="TimesNewRomanPS-BoldMT-48" d="M 2691 1566
L 1088 1566
Q 1116 984 1397 647
Q 1613 388 1916 388
Q 2103 388 2256 492
Q 2409 597 2584 869
L 2691 800
Q 2453 316 2165 114
Q 1878 -88 1500 -88
Q 850 -88 516 413
Q 247 816 247 1413
Q 247 2144 642 2576
Q 1038 3009 1569 3009
Q 2013 3009 2339 2645
Q 2666 2281 2691 1566
z
M 1922 1775
Q 1922 2278 1867 2465
Q 1813 2653 1697 2750
Q 1631 2806 1522 2806
Q 1359 2806 1256 2647
Q 1072 2369 1072 1884
L 1072 1775
L 1922 1775
z
" transform="scale(0.015625)"/>
       <path id="TimesNewRomanPS-BoldMT-3" transform="scale(0.015625)"/>
       <path id="TimesNewRomanPS-BoldMT-b" d="M 2056 4334
L 2056 4191
Q 1731 3978 1578 3775
Q 1366 3494 1247 3053
Q 1097 2506 1097 1525
Q 1097 600 1233 87
Q 1369 -425 1603 -741
Q 1766 -959 2056 -1125
L 2056 -1281
Q 1303 -1028 779 -248
Q 256 531 256 1544
Q 256 2544 778 3314
Q 1300 4084 2056 4334
z
" transform="scale(0.015625)"/>
       <path id="TimesNewRomanPS-BoldMT-56" d="M 2063 3003
L 2109 2006
L 2003 2006
Q 1813 2450 1608 2612
Q 1403 2775 1200 2775
Q 1072 2775 981 2689
Q 891 2603 891 2491
Q 891 2406 953 2328
Q 1053 2200 1512 1889
Q 1972 1578 2117 1361
Q 2263 1144 2263 875
Q 2263 631 2141 397
Q 2019 163 1797 37
Q 1575 -88 1306 -88
Q 1097 -88 747 44
Q 653 78 619 78
Q 516 78 447 -78
L 344 -78
L 294 972
L 400 972
Q 541 559 786 353
Q 1031 147 1250 147
Q 1400 147 1495 239
Q 1591 331 1591 463
Q 1591 613 1497 722
Q 1403 831 1078 1053
Q 600 1384 459 1559
Q 253 1816 253 2125
Q 253 2463 486 2736
Q 719 3009 1159 3009
Q 1397 3009 1619 2894
Q 1703 2847 1756 2847
Q 1813 2847 1847 2870
Q 1881 2894 1956 3003
L 2063 3003
z
" transform="scale(0.015625)"/>
       <path id="TimesNewRomanPS-BoldMT-c" d="M 78 -1281
L 78 -1138
Q 403 -922 556 -719
Q 766 -438 888 0
Q 1038 550 1038 1531
Q 1038 2456 902 2967
Q 766 3478 531 3794
Q 369 4013 78 4178
L 78 4334
Q 831 4081 1354 3301
Q 1878 2522 1878 1509
Q 1878 513 1354 -257
Q 831 -1028 78 -1281
z
" transform="scale(0.015625)"/>
      </defs>
      <use xlink:href="#TimesNewRomanPS-BoldMT-37"/>
      <use xlink:href="#TimesNewRomanPS-BoldMT-4c" transform="translate(64.890625 0)"/>
      <use xlink:href="#TimesNewRomanPS-BoldMT-50" transform="translate(92.671875 0)"/>
      <use xlink:href="#TimesNewRomanPS-BoldMT-48" transform="translate(175.96875 0)"/>
      <use xlink:href="#TimesNewRomanPS-BoldMT-3" transform="translate(220.359375 0)"/>
      <use xlink:href="#TimesNewRomanPS-BoldMT-b" transform="translate(245.359375 0)"/>
      <use xlink:href="#TimesNewRomanPS-BoldMT-56" transform="translate(278.65625 0)"/>
      <use xlink:href="#TimesNewRomanPS-BoldMT-c" transform="translate(317.578125 0)"/>
     </g>
    </g>
   </g>
   <g id="matplotlib.axis_2">
    <g id="ytick_1">
     <g id="line2d_17">
      <path d="M 40.404844 415.70032
L 993.6 415.70032
" clip-path="url(#pd0b4ff7236)" style="fill: none; stroke: #b0b0b0; stroke-opacity: 0.3; stroke-width: 0.8; stroke-linecap: square"/>
     </g>
     <g id="line2d_18">
      <defs>
       <path id="m2f81acf77c" d="M 0 0
L 3.5 0
" style="stroke: #000000; stroke-width: 0.8"/>
      </defs>
      <g>
       <use xlink:href="#m2f81acf77c" x="40.404844" y="415.70032" style="stroke: #000000; stroke-width: 0.8"/>
      </g>
     </g>
     <g id="text_10">
      <!-- 50 -->
      <g transform="translate(26.904844 419.167117) scale(0.1 -0.1)">
       <use xlink:href="#TimesNewRomanPSMT-18"/>
       <use xlink:href="#TimesNewRomanPSMT-13" transform="translate(50 0)"/>
      </g>
     </g>
    </g>
    <g id="ytick_2">
     <g id="line2d_19">
      <path d="M 40.404844 343.200027
L 993.6 343.200027
" clip-path="url(#pd0b4ff7236)" style="fill: none; stroke: #b0b0b0; stroke-opacity: 0.3; stroke-width: 0.8; stroke-linecap: square"/>
     </g>
     <g id="line2d_20">
      <g>
       <use xlink:href="#m2f81acf77c" x="40.404844" y="343.200027" style="stroke: #000000; stroke-width: 0.8"/>
      </g>
     </g>
     <g id="text_11">
      <!-- 52 -->
      <g transform="translate(26.904844 346.666824) scale(0.1 -0.1)">
       <use xlink:href="#TimesNewRomanPSMT-18"/>
       <use xlink:href="#TimesNewRomanPSMT-15" transform="translate(50 0)"/>
      </g>
     </g>
    </g>
    <g id="ytick_3">
     <g id="line2d_21">
      <path d="M 40.404844 270.699735
L 993.6 270.699735
" clip-path="url(#pd0b4ff7236)" style="fill: none; stroke: #b0b0b0; stroke-opacity: 0.3; stroke-width: 0.8; stroke-linecap: square"/>
     </g>
     <g id="line2d_22">
      <g>
       <use xlink:href="#m2f81acf77c" x="40.404844" y="270.699735" style="stroke: #000000; stroke-width: 0.8"/>
      </g>
     </g>
     <g id="text_12">
      <!-- 54 -->
      <g transform="translate(26.904844 274.166532) scale(0.1 -0.1)">
       <defs>
        <path id="TimesNewRomanPSMT-17" d="M 2978 1563
L 2978 1119
L 2409 1119
L 2409 0
L 1894 0
L 1894 1119
L 100 1119
L 100 1519
L 2066 4325
L 2409 4325
L 2409 1563
L 2978 1563
z
M 1894 1563
L 1894 3666
L 406 1563
L 1894 1563
z
" transform="scale(0.015625)"/>
       </defs>
       <use xlink:href="#TimesNewRomanPSMT-18"/>
       <use xlink:href="#TimesNewRomanPSMT-17" transform="translate(50 0)"/>
      </g>
     </g>
    </g>
    <g id="ytick_4">
     <g id="line2d_23">
      <path d="M 40.404844 198.199443
L 993.6 198.199443
" clip-path="url(#pd0b4ff7236)" style="fill: none; stroke: #b0b0b0; stroke-opacity: 0.3; stroke-width: 0.8; stroke-linecap: square"/>
     </g>
     <g id="line2d_24">
      <g>
       <use xlink:href="#m2f81acf77c" x="40.404844" y="198.199443" style="stroke: #000000; stroke-width: 0.8"/>
      </g>
     </g>
     <g id="text_13">
      <!-- 56 -->
      <g transform="translate(26.904844 201.66624) scale(0.1 -0.1)">
       <defs>
        <path id="TimesNewRomanPSMT-19" d="M 2869 4325
L 2869 4209
Q 2456 4169 2195 4045
Q 1934 3922 1679 3669
Q 1425 3416 1258 3105
Q 1091 2794 978 2366
Q 1428 2675 1881 2675
Q 2316 2675 2634 2325
Q 2953 1975 2953 1425
Q 2953 894 2631 456
Q 2244 -75 1606 -75
Q 1172 -75 869 213
Q 275 772 275 1663
Q 275 2231 503 2743
Q 731 3256 1154 3653
Q 1578 4050 1965 4187
Q 2353 4325 2688 4325
L 2869 4325
z
M 925 2138
Q 869 1716 869 1456
Q 869 1156 980 804
Q 1091 453 1309 247
Q 1469 100 1697 100
Q 1969 100 2183 356
Q 2397 613 2397 1088
Q 2397 1622 2184 2012
Q 1972 2403 1581 2403
Q 1463 2403 1327 2353
Q 1191 2303 925 2138
z
" transform="scale(0.015625)"/>
       </defs>
       <use xlink:href="#TimesNewRomanPSMT-18"/>
       <use xlink:href="#TimesNewRomanPSMT-19" transform="translate(50 0)"/>
      </g>
     </g>
    </g>
    <g id="ytick_5">
     <g id="line2d_25">
      <path d="M 40.404844 125.69915
L 993.6 125.69915
" clip-path="url(#pd0b4ff7236)" style="fill: none; stroke: #b0b0b0; stroke-opacity: 0.3; stroke-width: 0.8; stroke-linecap: square"/>
     </g>
     <g id="line2d_26">
      <g>
       <use xlink:href="#m2f81acf77c" x="40.404844" y="125.69915" style="stroke: #000000; stroke-width: 0.8"/>
      </g>
     </g>
     <g id="text_14">
      <!-- 58 -->
      <g transform="translate(26.904844 129.165947) scale(0.1 -0.1)">
       <defs>
        <path id="TimesNewRomanPSMT-1b" d="M 1228 2134
Q 725 2547 579 2797
Q 434 3047 434 3316
Q 434 3728 753 4026
Q 1072 4325 1600 4325
Q 2113 4325 2425 4047
Q 2738 3769 2738 3413
Q 2738 3175 2569 2928
Q 2400 2681 1866 2347
Q 2416 1922 2594 1678
Q 2831 1359 2831 1006
Q 2831 559 2490 242
Q 2150 -75 1597 -75
Q 994 -75 656 303
Q 388 606 388 966
Q 388 1247 577 1523
Q 766 1800 1228 2134
z
M 1719 2469
Q 2094 2806 2194 3001
Q 2294 3197 2294 3444
Q 2294 3772 2109 3958
Q 1925 4144 1606 4144
Q 1288 4144 1088 3959
Q 888 3775 888 3528
Q 888 3366 970 3203
Q 1053 3041 1206 2894
L 1719 2469
z
M 1375 2016
Q 1116 1797 991 1539
Q 866 1281 866 981
Q 866 578 1086 336
Q 1306 94 1647 94
Q 1984 94 2187 284
Q 2391 475 2391 747
Q 2391 972 2272 1150
Q 2050 1481 1375 2016
z
" transform="scale(0.015625)"/>
       </defs>
       <use xlink:href="#TimesNewRomanPSMT-18"/>
       <use xlink:href="#TimesNewRomanPSMT-1b" transform="translate(50 0)"/>
      </g>
     </g>
    </g>
    <g id="ytick_6">
     <g id="line2d_27">
      <path d="M 40.404844 53.198858
L 993.6 53.198858
" clip-path="url(#pd0b4ff7236)" style="fill: none; stroke: #b0b0b0; stroke-opacity: 0.3; stroke-width: 0.8; stroke-linecap: square"/>
     </g>
     <g id="line2d_28">
      <g>
       <use xlink:href="#m2f81acf77c" x="40.404844" y="53.198858" style="stroke: #000000; stroke-width: 0.8"/>
      </g>
     </g>
     <g id="text_15">
      <!-- 60 -->
      <g transform="translate(26.904844 56.665655) scale(0.1 -0.1)">
       <use xlink:href="#TimesNewRomanPSMT-19"/>
       <use xlink:href="#TimesNewRomanPSMT-13" transform="translate(50 0)"/>
      </g>
     </g>
    </g>
    <g id="text_16">
     <!-- Controller Output (%CO) -->
     <g transform="translate(20.315 291.879173) rotate(-90) scale(0.12 -0.12)">
      <defs>
       <path id="TimesNewRomanPS-BoldMT-26" d="M 4272 4334
L 4272 2866
L 4150 2866
Q 4013 3441 3638 3747
Q 3263 4053 2788 4053
Q 2391 4053 2059 3825
Q 1728 3597 1575 3228
Q 1378 2756 1378 2178
Q 1378 1609 1522 1142
Q 1666 675 1972 436
Q 2278 197 2766 197
Q 3166 197 3498 372
Q 3831 547 4200 975
L 4200 609
Q 3844 238 3458 70
Q 3072 -97 2556 -97
Q 1878 -97 1351 175
Q 825 447 539 956
Q 253 1466 253 2041
Q 253 2647 570 3190
Q 888 3734 1427 4034
Q 1966 4334 2572 4334
Q 3019 4334 3516 4141
Q 3803 4028 3881 4028
Q 3981 4028 4054 4101
Q 4128 4175 4150 4334
L 4272 4334
z
" transform="scale(0.015625)"/>
       <path id="TimesNewRomanPS-BoldMT-52" d="M 1594 3009
Q 1975 3009 2303 2812
Q 2631 2616 2801 2253
Q 2972 1891 2972 1459
Q 2972 838 2656 419
Q 2275 -88 1603 -88
Q 944 -88 587 375
Q 231 838 231 1447
Q 231 2075 595 2542
Q 959 3009 1594 3009
z
M 1606 2788
Q 1447 2788 1333 2667
Q 1219 2547 1183 2192
Q 1147 1838 1147 1206
Q 1147 872 1191 581
Q 1225 359 1337 243
Q 1450 128 1594 128
Q 1734 128 1828 206
Q 1950 313 1991 503
Q 2053 800 2053 1703
Q 2053 2234 1993 2432
Q 1934 2631 1819 2722
Q 1738 2788 1606 2788
z
" transform="scale(0.015625)"/>
       <path id="TimesNewRomanPS-BoldMT-51" d="M 1409 2922
L 1409 2544
Q 1634 2788 1840 2898
Q 2047 3009 2284 3009
Q 2569 3009 2756 2851
Q 2944 2694 3006 2459
Q 3056 2281 3056 1775
L 3056 638
Q 3056 300 3117 217
Q 3178 134 3372 113
L 3372 0
L 1894 0
L 1894 113
Q 2059 134 2131 250
Q 2181 328 2181 638
L 2181 1938
Q 2181 2297 2153 2390
Q 2125 2484 2058 2536
Q 1991 2588 1909 2588
Q 1641 2588 1409 2203
L 1409 638
Q 1409 309 1470 221
Q 1531 134 1697 113
L 1697 0
L 219 0
L 219 113
Q 403 131 481 231
Q 534 300 534 638
L 534 2288
Q 534 2619 473 2700
Q 413 2781 219 2806
L 219 2922
L 1409 2922
z
" transform="scale(0.015625)"/>
       <path id="TimesNewRomanPS-BoldMT-57" d="M 1375 3991
L 1375 2922
L 2069 2922
L 2069 2613
L 1375 2613
L 1375 809
Q 1375 556 1398 482
Q 1422 409 1481 364
Q 1541 319 1591 319
Q 1794 319 1975 628
L 2069 559
Q 1816 -41 1247 -41
Q 969 -41 776 114
Q 584 269 531 459
Q 500 566 500 1034
L 500 2613
L 119 2613
L 119 2722
Q 513 3000 789 3306
Q 1066 3613 1272 3991
L 1375 3991
z
" transform="scale(0.015625)"/>
       <path id="TimesNewRomanPS-BoldMT-55" d="M 1428 2922
L 1428 2259
Q 1719 2713 1937 2861
Q 2156 3009 2359 3009
Q 2534 3009 2639 2901
Q 2744 2794 2744 2597
Q 2744 2388 2642 2272
Q 2541 2156 2397 2156
Q 2231 2156 2109 2262
Q 1988 2369 1966 2381
Q 1934 2400 1894 2400
Q 1803 2400 1722 2331
Q 1594 2225 1528 2028
Q 1428 1725 1428 1359
L 1428 688
L 1431 513
Q 1431 334 1453 284
Q 1491 200 1564 161
Q 1638 122 1813 113
L 1813 0
L 234 0
L 234 113
Q 425 128 492 217
Q 559 306 559 688
L 559 2303
Q 559 2553 534 2622
Q 503 2709 443 2750
Q 384 2791 234 2806
L 234 2922
L 1428 2922
z
" transform="scale(0.015625)"/>
       <path id="TimesNewRomanPS-BoldMT-4f" d="M 1359 4238
L 1359 606
Q 1359 297 1431 211
Q 1503 125 1713 113
L 1713 0
L 134 0
L 134 113
Q 328 119 422 225
Q 484 297 484 606
L 484 3631
Q 484 3938 412 4023
Q 341 4109 134 4122
L 134 4238
L 1359 4238
z
" transform="scale(0.015625)"/>
       <path id="TimesNewRomanPS-BoldMT-32" d="M 2472 4297
Q 3484 4334 4117 3706
Q 4750 3078 4750 2134
Q 4750 1328 4278 716
Q 3653 -97 2513 -97
Q 1369 -97 744 678
Q 250 1291 250 2131
Q 250 3075 892 3704
Q 1534 4334 2472 4297
z
M 2509 4097
Q 1928 4097 1625 3503
Q 1378 3016 1378 2103
Q 1378 1019 1759 500
Q 2025 138 2503 138
Q 2825 138 3041 294
Q 3316 494 3469 933
Q 3622 1372 3622 2078
Q 3622 2919 3465 3336
Q 3309 3753 3067 3925
Q 2825 4097 2509 4097
z
" transform="scale(0.015625)"/>
       <path id="TimesNewRomanPS-BoldMT-58" d="M 3038 2922
L 3038 634
Q 3038 300 3100 217
Q 3163 134 3353 113
L 3353 0
L 2163 0
L 2163 391
Q 1953 141 1743 26
Q 1534 -88 1275 -88
Q 1028 -88 836 64
Q 644 216 578 419
Q 513 622 513 1128
L 513 2288
Q 513 2619 452 2700
Q 391 2781 197 2806
L 197 2922
L 1388 2922
L 1388 925
Q 1388 613 1417 522
Q 1447 431 1511 384
Q 1575 338 1659 338
Q 1772 338 1863 397
Q 1988 478 2163 725
L 2163 2288
Q 2163 2619 2102 2700
Q 2041 2781 1847 2806
L 1847 2922
L 3038 2922
z
" transform="scale(0.015625)"/>
       <path id="TimesNewRomanPS-BoldMT-53" d="M 1347 297
L 1347 -791
Q 1347 -1016 1383 -1097
Q 1419 -1178 1494 -1215
Q 1569 -1253 1788 -1253
L 1788 -1369
L 122 -1369
L 122 -1253
Q 316 -1247 409 -1144
Q 472 -1072 472 -772
L 472 2313
Q 472 2622 400 2708
Q 328 2794 122 2806
L 122 2922
L 1347 2922
L 1347 2538
Q 1500 2763 1659 2863
Q 1888 3009 2156 3009
Q 2478 3009 2742 2806
Q 3006 2603 3143 2245
Q 3281 1888 3281 1475
Q 3281 1031 3139 664
Q 2997 297 2726 104
Q 2456 -88 2125 -88
Q 1884 -88 1675 19
Q 1519 100 1347 297
z
M 1347 613
Q 1616 231 1922 231
Q 2091 231 2200 409
Q 2363 672 2363 1409
Q 2363 2166 2184 2444
Q 2066 2628 1866 2628
Q 1550 2628 1347 2172
L 1347 613
z
" transform="scale(0.015625)"/>
       <path id="TimesNewRomanPS-BoldMT-8" d="M 4916 4334
L 1906 -178
L 1488 -178
L 4494 4334
L 4916 4334
z
M 1494 4334
Q 1938 4334 2242 4020
Q 2547 3706 2547 3209
Q 2547 2700 2240 2383
Q 1934 2066 1481 2066
Q 1034 2066 739 2372
Q 444 2678 444 3178
Q 444 3694 747 4014
Q 1050 4334 1494 4334
z
M 1494 4169
Q 1425 4169 1381 4128
Q 1303 4056 1264 3879
Q 1225 3703 1225 3150
Q 1225 2709 1278 2469
Q 1309 2331 1384 2263
Q 1431 2222 1494 2222
Q 1563 2222 1603 2259
Q 1675 2325 1709 2472
Q 1763 2709 1763 3138
Q 1763 3663 1713 3897
Q 1678 4059 1600 4134
Q 1563 4169 1494 4169
z
M 4894 2097
Q 5347 2097 5651 1786
Q 5956 1475 5956 972
Q 5956 463 5647 144
Q 5338 -175 4900 -175
Q 4466 -175 4161 144
Q 3856 463 3856 963
Q 3856 1466 4153 1781
Q 4450 2097 4894 2097
z
M 4903 1934
Q 4841 1934 4797 1897
Q 4722 1828 4681 1658
Q 4641 1488 4641 1006
Q 4641 494 4688 269
Q 4722 109 4803 38
Q 4844 0 4909 0
Q 4969 0 5006 34
Q 5084 106 5122 269
Q 5175 497 5175 959
Q 5175 1447 5125 1672
Q 5088 1834 5013 1900
Q 4975 1934 4903 1934
z
" transform="scale(0.015625)"/>
      </defs>
      <use xlink:href="#TimesNewRomanPS-BoldMT-26"/>
      <use xlink:href="#TimesNewRomanPS-BoldMT-52" transform="translate(72.21875 0)"/>
      <use xlink:href="#TimesNewRomanPS-BoldMT-51" transform="translate(122.21875 0)"/>
      <use xlink:href="#TimesNewRomanPS-BoldMT-57" transform="translate(177.828125 0)"/>
      <use xlink:href="#TimesNewRomanPS-BoldMT-55" transform="translate(211.125 0)"/>
      <use xlink:href="#TimesNewRomanPS-BoldMT-52" transform="translate(253.703125 0)"/>
      <use xlink:href="#TimesNewRomanPS-BoldMT-4f" transform="translate(303.703125 0)"/>
      <use xlink:href="#TimesNewRomanPS-BoldMT-4f" transform="translate(331.484375 0)"/>
      <use xlink:href="#TimesNewRomanPS-BoldMT-48" transform="translate(359.265625 0)"/>
      <use xlink:href="#TimesNewRomanPS-BoldMT-55" transform="translate(403.65625 0)"/>
      <use xlink:href="#TimesNewRomanPS-BoldMT-3" transform="translate(446.234375 0)"/>
      <use xlink:href="#TimesNewRomanPS-BoldMT-32" transform="translate(471.234375 0)"/>
      <use xlink:href="#TimesNewRomanPS-BoldMT-58" transform="translate(549.015625 0)"/>
      <use xlink:href="#TimesNewRomanPS-BoldMT-57" transform="translate(604.625 0)"/>
      <use xlink:href="#TimesNewRomanPS-BoldMT-53" transform="translate(637.921875 0)"/>
      <use xlink:href="#TimesNewRomanPS-BoldMT-58" transform="translate(693.53125 0)"/>
      <use xlink:href="#TimesNewRomanPS-BoldMT-57" transform="translate(749.140625 0)"/>
      <use xlink:href="#TimesNewRomanPS-BoldMT-3" transform="translate(782.4375 0)"/>
      <use xlink:href="#TimesNewRomanPS-BoldMT-b" transform="translate(807.4375 0)"/>
      <use xlink:href="#TimesNewRomanPS-BoldMT-8" transform="translate(840.734375 0)"/>
      <use xlink:href="#TimesNewRomanPS-BoldMT-26" transform="translate(940.734375 0)"/>
      <use xlink:href="#TimesNewRomanPS-BoldMT-32" transform="translate(1012.953125 0)"/>
      <use xlink:href="#TimesNewRomanPS-BoldMT-c" transform="translate(1090.734375 0)"/>
     </g>
    </g>
   </g>
   <g id="line2d_29">
    <path d="M 83.731896 415.70032
L 228.035052 415.601858
L 228.155405 293.386186
L 229.719993 254.015434
L 231.164228 223.209284
L 232.608463 197.084093
L 234.052698 175.055764
L 235.496933 156.572565
L 236.941168 140.989159
L 238.385403 127.98703
L 239.949991 115.966821
L 241.394226 106.756407
L 242.958814 98.165899
L 244.40305 91.550201
L 245.967638 85.401546
L 247.171167 81.380663
L 248.735755 76.906072
L 250.300343 73.112682
L 251.864931 69.960359
L 253.549872 67.088233
L 255.11446 64.892032
L 256.799401 62.889504
L 258.363989 61.356077
L 260.289635 59.783554
L 261.733871 58.850784
L 263.77987 57.776668
L 266.427635 56.651721
L 269.075399 55.881486
L 272.80634 55.048774
L 277.018692 54.450958
L 281.231044 54.032405
L 287.609749 53.642695
L 296.395513 53.357206
L 306.866217 53.218735
L 322.271391 53.200731
L 362.950679 53.23353
L 457.909136 53.19779
L 950.272947 53.198829
L 950.272947 53.198829
" clip-path="url(#pd0b4ff7236)" style="fill: none; stroke: #0055cc; stroke-width: 2; stroke-linecap: square"/>
   </g>
   <g id="line2d_30">
    <path d="M 83.731896 415.70757
L 228.035052 415.703945
L 228.155405 286.109672
L 228.275758 286.109672
L 228.396111 278.109265
L 228.516464 278.109265
L 228.636817 271.95399
L 228.757169 271.95399
L 228.877522 265.990841
L 228.997875 265.990841
L 229.118228 260.183568
L 229.238581 260.183568
L 229.358934 254.528545
L 229.479287 254.528545
L 229.59964 249.025773
L 229.719993 249.025773
L 229.840346 243.671626
L 229.960699 243.671626
L 230.081052 238.473355
L 230.201405 238.473355
L 230.321757 233.40921
L 230.44211 233.40921
L 230.562463 228.47919
L 230.682816 228.47919
L 230.803169 223.67967
L 230.923522 223.67967
L 231.043875 219.007027
L 231.164228 219.007027
L 231.284581 214.483008
L 231.404934 214.483008
L 231.525287 210.074991
L 231.64564 210.074991
L 231.765993 205.775723
L 231.886345 205.775723
L 232.006698 201.588831
L 232.127051 201.588831
L 232.247404 197.51069
L 232.367757 197.51069
L 232.48811 193.577549
L 232.608463 193.577549
L 232.728816 189.738659
L 232.849169 189.738659
L 232.969522 185.990393
L 233.089875 185.990393
L 233.210228 182.340004
L 233.330581 182.340004
L 233.450933 178.780239
L 233.571286 178.780239
L 233.691639 175.358226
L 233.811992 175.358226
L 233.932345 172.015962
L 234.052698 172.015962
L 234.173051 168.753449
L 234.293404 168.753449
L 234.413757 165.567061
L 234.53411 165.567061
L 234.654463 162.460424
L 234.774816 162.460424
L 234.895169 159.487912
L 235.015521 159.487912
L 235.135874 156.577025
L 235.256227 156.577025
L 235.37658 153.735013
L 235.496933 153.735013
L 235.617286 150.954627
L 235.737639 150.954627
L 235.857992 148.243116
L 235.978345 148.243116
L 236.098698 145.662106
L 236.219051 145.662106
L 236.339404 143.131846
L 236.459757 143.131846
L 236.580109 140.652336
L 236.700462 140.652336
L 236.820815 138.230826
L 236.941168 138.230826
L 237.061521 135.863691
L 237.181874 135.863691
L 237.302227 133.623432
L 237.42258 133.623432
L 237.542933 131.419423
L 237.663286 131.419423
L 237.783639 129.26254
L 237.903992 129.26254
L 238.024345 127.149156
L 238.144698 127.149156
L 238.26505 125.082898
L 238.385403 125.082898
L 238.505756 123.13989
L 238.626109 123.13989
L 238.746462 121.225882
L 238.866815 121.225882
L 238.987168 119.3445
L 239.107521 119.3445
L 239.227874 117.502992
L 239.348227 117.502992
L 239.46858 115.697735
L 239.588933 115.697735
L 239.709286 114.012103
L 239.829638 114.012103
L 239.949991 112.351846
L 240.070344 112.351846
L 240.190697 110.71334
L 240.31105 110.71334
L 240.431403 109.103833
L 240.551756 109.103833
L 240.672109 107.530577
L 240.792462 107.530577
L 240.912815 106.069696
L 241.033168 106.069696
L 241.153521 104.62694
L 241.273874 104.62694
L 241.394226 103.198685
L 241.514579 103.198685
L 241.634932 101.795804
L 241.755285 101.795804
L 241.875638 100.418298
L 241.995991 100.418298
L 242.116344 99.156793
L 242.236697 99.156793
L 242.35705 97.902538
L 242.477403 97.902538
L 242.597756 96.662783
L 242.718109 96.662783
L 242.838462 95.437528
L 242.958814 95.437528
L 243.079167 94.234023
L 243.19952 94.234023
L 243.319873 93.142894
L 243.440226 93.142894
L 243.560579 92.05539
L 243.680932 92.05539
L 243.801285 90.975135
L 243.921638 90.975135
L 244.041991 89.905756
L 244.162344 89.905756
L 244.282697 88.854502
L 244.40305 88.854502
L 244.523402 87.911998
L 244.643755 87.911998
L 244.764108 86.969494
L 244.884461 86.969494
L 245.004814 86.02699
L 245.125167 86.02699
L 245.24552 85.095362
L 245.365873 85.095362
L 245.486226 84.174608
L 245.606579 84.174608
L 245.726932 83.362605
L 245.847285 83.362605
L 245.967638 82.543351
L 246.08799 82.543351
L 246.208343 81.724098
L 246.328696 81.724098
L 246.449049 80.90847
L 246.569402 80.90847
L 246.689755 80.103716
L 246.810108 80.103716
L 246.930461 79.407714
L 247.050814 79.407714
L 247.171167 78.697211
L 247.29152 78.697211
L 247.411873 77.983083
L 247.532226 77.983083
L 247.652578 77.27258
L 247.772931 77.27258
L 247.893284 76.565702
L 248.013637 76.565702
L 248.13399 75.967575
L 248.254343 75.967575
L 248.374696 75.351322
L 248.495049 75.351322
L 248.615402 74.731445
L 248.735755 74.731445
L 248.856108 74.107942
L 248.976461 74.107942
L 249.096814 73.488065
L 249.217166 73.488065
L 249.337519 72.973313
L 249.457872 72.973313
L 249.578225 72.444061
L 249.698578 72.444061
L 249.818931 71.903933
L 249.939284 71.903933
L 250.059637 71.360181
L 250.17999 71.360181
L 250.300343 70.812804
L 250.420696 70.812804
L 250.541049 70.374177
L 250.661402 70.374177
L 250.781754 69.917425
L 250.902107 69.917425
L 251.02246 69.446173
L 251.142813 69.446173
L 251.263166 68.967671
L 251.383519 68.967671
L 251.503872 68.48917
L 251.624225 68.48917
L 251.744578 68.115793
L 251.864931 68.115793
L 251.985284 67.720666
L 252.105637 67.720666
L 252.22599 67.31104
L 252.346343 67.31104
L 252.466695 66.890538
L 252.587048 66.890538
L 252.707401 66.466411
L 252.827754 66.466411
L 252.948107 66.151035
L 253.06846 66.151035
L 253.188813 65.810284
L 253.309166 65.810284
L 253.429519 65.451407
L 253.549872 65.451407
L 253.670225 65.085281
L 253.790578 65.085281
L 253.910931 64.711904
L 254.031283 64.711904
L 254.392342 64.150027
L 254.512695 64.150027
L 254.633048 63.838276
L 254.753401 63.838276
L 254.873754 63.51565
L 254.994107 63.51565
L 255.11446 63.185773
L 255.234813 63.185773
L 255.595871 62.707271
L 255.716224 62.707271
L 256.077283 62.152644
L 256.197636 62.152644
L 256.317989 61.859018
L 256.438342 61.859018
L 256.799401 61.453016
L 256.919754 61.453016
L 257.280812 60.963639
L 257.401165 60.963639
L 257.641871 60.702638
L 258.00293 60.361887
L 258.123283 60.361887
L 258.484342 59.934135
L 258.604695 59.934135
L 258.8454 59.698509
L 259.206459 59.412133
L 259.326812 59.412133
L 259.687871 59.035131
L 259.808224 59.035131
L 260.04893 58.824881
L 260.409988 58.58563
L 260.530341 58.58563
L 260.8914 58.252128
L 261.011753 58.252128
L 261.252459 58.067253
L 261.854223 57.730126
L 261.974576 57.730126
L 262.335635 57.403875
L 262.696694 57.338625
L 263.057753 57.117499
L 263.178106 57.117499
L 263.539164 56.823873
L 263.900223 56.776747
L 264.261282 56.584622
L 264.381635 56.584622
L 264.742694 56.319995
L 265.344458 56.21487
L 265.705517 56.004619
L 265.82587 56.004619
L 266.066576 55.877744
L 266.788693 55.710993
L 267.149752 55.489867
L 267.751517 55.428242
L 268.353281 55.152741
L 268.955046 55.105616
L 269.556811 54.85549
L 270.399281 54.764864
L 270.76034 54.590864
L 271.60281 54.518363
L 271.963869 54.358863
L 272.80634 54.304487
L 273.287751 54.152237
L 273.769163 54.155862
L 274.49128 53.967361
L 274.972692 53.978236
L 275.69481 53.804235
L 276.176221 53.82236
L 277.018692 53.68461
L 277.861162 53.590359
L 278.101868 53.521484
L 278.58328 53.550484
L 279.42575 53.434484
L 280.268221 53.354734
L 280.508927 53.289483
L 280.869985 53.329358
L 281.47175 53.253233
L 281.712456 53.187983
L 282.193868 53.231483
L 283.156691 53.137233
L 283.878809 53.068357
L 284.119514 53.010357
L 284.600926 53.053857
L 285.563749 52.970482
L 286.285867 52.908857
L 286.526573 52.850857
L 286.887632 52.901607
L 287.489396 52.836356
L 287.730102 52.778356
L 288.091161 52.829106
L 288.692925 52.767481
L 288.933631 52.709481
L 289.29469 52.763856
L 289.896455 52.702231
L 290.137161 52.644231
L 290.498219 52.698606
L 291.099984 52.636981
L 291.34069 52.582605
L 291.701749 52.636981
L 292.303513 52.57898
L 292.544219 52.52098
L 292.905278 52.575355
L 293.507042 52.517355
L 293.747748 52.46298
L 294.108807 52.517355
L 294.710572 52.46298
L 294.951278 52.40498
L 295.312336 52.46298
L 295.914101 52.40498
L 296.154807 52.350604
L 296.515866 52.408605
L 297.11763 52.350604
L 297.358336 52.296229
L 297.719395 52.35423
L 298.321159 52.296229
L 298.561865 52.241854
L 298.922924 52.299854
L 300.728218 52.191104
L 300.968924 52.140354
L 301.329982 52.194729
L 303.135276 52.089603
L 303.375982 52.038853
L 303.737041 52.096853
L 305.542335 51.991728
L 305.783041 51.937353
L 306.144099 51.995353
L 307.949393 51.893853
L 308.190099 51.839477
L 308.551158 51.897478
L 310.356452 51.795977
L 310.597158 51.741602
L 310.958216 51.803227
L 312.76351 51.701727
L 313.004216 51.647352
L 313.365275 51.705352
L 315.170569 51.603851
L 315.411275 51.553101
L 315.772333 51.611102
L 317.577627 51.509601
L 317.818333 51.458851
L 318.179392 51.516851
L 319.984686 51.415351
L 320.225392 51.364601
L 320.58645 51.422601
L 322.391744 51.324725
L 322.63245 51.27035
L 322.993509 51.32835
L 324.798803 51.230475
L 325.039508 51.179725
L 325.400567 51.237725
L 327.205861 51.13985
L 327.446567 51.089099
L 327.807626 51.143475
L 329.61292 51.045599
L 329.853625 50.994849
L 330.214684 51.052849
L 332.019978 50.954974
L 332.260684 50.904224
L 332.621743 50.962224
L 334.427037 50.864348
L 334.667742 50.813598
L 335.028801 50.871599
L 336.834095 50.773723
L 337.074801 50.722973
L 337.43586 50.780973
L 339.241153 50.683098
L 339.481859 50.632348
L 339.842918 50.690348
L 341.648212 50.592472
L 341.888918 50.541722
L 342.249977 50.599722
L 344.05527 50.501847
L 344.295976 50.451097
L 344.657035 50.509097
L 346.462329 50.411222
L 346.703035 50.364096
L 347.064094 50.418472
L 348.869387 50.324221
L 349.110093 50.273471
L 349.471152 50.327846
L 351.276446 50.233596
L 351.517152 50.182846
L 351.87821 50.240846
L 353.683504 50.146596
L 353.92421 50.095845
L 354.285269 50.150221
L 356.090563 50.05597
L 356.331269 50.008845
L 356.692327 50.06322
L 358.497621 49.96897
L 358.738327 49.91822
L 359.099386 49.972595
L 360.90468 49.878345
L 361.145386 49.831219
L 361.506444 49.885595
L 363.311738 49.791344
L 363.552444 49.744219
L 363.913503 49.798594
L 365.718797 49.704344
L 365.959503 49.653594
L 366.320561 49.707969
L 368.125855 49.617343
L 368.366561 49.566593
L 368.72762 49.620968
L 370.532914 49.526718
L 370.773619 49.479593
L 371.134678 49.533968
L 372.939972 49.439718
L 373.180678 49.392593
L 373.541737 49.446968
L 375.347031 49.352717
L 375.587736 49.305592
L 375.948795 49.359967
L 377.754089 49.265717
L 377.994795 49.218592
L 378.355854 49.269342
L 380.161148 49.178717
L 380.401853 49.131592
L 380.762912 49.182342
L 382.568206 49.091716
L 382.808912 49.044591
L 383.169971 49.095341
L 384.975265 49.004716
L 385.21597 48.957591
L 385.577029 49.008341
L 387.382323 48.917716
L 387.623029 48.87059
L 387.984088 48.924966
L 389.789381 48.830715
L 390.030087 48.78359
L 390.391146 48.837965
L 392.19644 48.743715
L 392.437146 48.69659
L 392.798205 48.750965
L 394.603498 48.66034
L 394.844204 48.613214
L 395.325616 48.663965
L 396.649498 48.605964
L 398.214086 48.529839
L 398.454792 48.482714
L 398.815851 48.533464
L 400.621145 48.442839
L 400.86185 48.395714
L 401.222909 48.450089
L 403.028203 48.359463
L 403.268909 48.312338
L 403.750321 48.363088
L 405.074203 48.305088
L 406.638791 48.228963
L 406.879497 48.181838
L 407.240555 48.232588
L 409.045849 48.141963
L 409.286555 48.098462
L 409.767967 48.149213
L 411.091849 48.091212
L 412.656437 48.015087
L 412.897143 47.967962
L 413.258202 48.018712
L 415.063495 47.931712
L 415.304201 47.884586
L 415.785613 47.935337
L 417.109495 47.877336
L 418.674083 47.801211
L 418.914789 47.757711
L 419.396201 47.804836
L 420.720083 47.750461
L 422.284671 47.674336
L 422.525377 47.630835
L 423.006788 47.677961
L 424.330671 47.623585
L 425.895259 47.54746
L 426.135964 47.500335
L 426.497023 47.551085
L 428.302317 47.464085
L 428.543023 47.41696
L 429.024435 47.46771
L 430.348317 47.40971
L 431.912905 47.337209
L 432.153611 47.290084
L 432.635022 47.340834
L 433.958904 47.282834
L 435.523492 47.210334
L 435.764198 47.163209
L 436.24561 47.213959
L 437.569492 47.155959
L 439.13408 47.083458
L 439.374786 47.039958
L 439.856198 47.087083
L 441.18008 47.029083
L 442.744668 46.956583
L 442.985374 46.913083
L 443.466785 46.960208
L 444.790668 46.905833
L 446.355256 46.833332
L 446.595961 46.786207
L 447.077373 46.833332
L 449.243726 46.742707
L 449.965843 46.706457
L 450.206549 46.662957
L 450.687961 46.710082
L 452.011843 46.652082
L 453.576431 46.579581
L 453.817137 46.536081
L 454.298549 46.583206
L 455.622431 46.528831
L 457.187019 46.456331
L 457.427725 46.412831
L 457.909136 46.459956
L 459.233018 46.405581
L 460.797606 46.33308
L 461.038312 46.28958
L 461.519724 46.33308
L 463.686077 46.242455
L 464.408194 46.206205
L 464.6489 46.162705
L 465.130312 46.20983
L 466.454194 46.155455
L 468.018782 46.082954
L 468.259488 46.039454
L 468.740899 46.086579
L 470.064782 46.032204
L 471.62937 45.959704
L 471.870075 45.916204
L 472.351487 45.963329
L 473.675369 45.908954
L 475.239957 45.836453
L 475.480663 45.792953
L 475.962075 45.840078
L 477.285957 45.785703
L 478.850545 45.713203
L 479.091251 45.669703
L 479.572663 45.716828
L 480.896545 45.662453
L 482.461133 45.589952
L 482.701839 45.546452
L 483.18325 45.593577
L 484.507132 45.539202
L 486.07172 45.466702
L 486.432779 45.463077
L 488.478779 45.386951
L 488.719485 45.343451
L 489.200896 45.390576
L 490.524779 45.336201
L 492.089367 45.263701
L 492.450425 45.260076
L 494.496425 45.183951
L 494.737131 45.14045
L 495.218543 45.183951
L 497.384895 45.09695
L 498.107013 45.0607
L 498.468072 45.057075
L 500.514071 44.98095
L 500.87513 44.9737
L 502.92113 44.901199
L 503.161836 44.857699
L 503.643247 44.901199
L 505.8096 44.814199
L 506.531718 44.777949
L 506.892776 44.774324
L 508.938776 44.698199
L 509.299835 44.694574
L 511.345834 44.618448
L 511.706893 44.614823
L 513.752893 44.538698
L 514.113952 44.535073
L 516.159951 44.458948
L 516.52101 44.455323
L 518.56701 44.379197
L 518.928069 44.375572
L 520.974068 44.299447
L 521.335127 44.295822
L 523.381127 44.219697
L 523.742186 44.216072
L 525.788185 44.143571
L 526.028891 44.100071
L 526.510303 44.143571
L 528.676655 44.056571
L 529.398773 44.023946
L 529.759832 44.016696
L 531.805831 43.944196
L 532.16689 43.940571
L 534.21289 43.864445
L 534.573949 43.86082
L 536.619948 43.78832
L 536.981007 43.78107
L 539.027007 43.70857
L 539.388066 43.704945
L 541.434065 43.632444
L 541.795124 43.625194
L 543.841124 43.552694
L 544.202183 43.549069
L 546.248182 43.476569
L 546.609241 43.469319
L 548.655241 43.396818
L 549.0163 43.393193
L 551.062299 43.320693
L 551.423358 43.313443
L 554.672887 43.204693
L 555.033946 43.197443
L 558.283475 43.088692
L 558.644533 43.085067
L 560.690533 43.012567
L 561.051592 43.005317
L 564.301121 42.896566
L 564.66218 42.892941
L 567.911709 42.784191
L 568.272767 42.776941
L 571.522296 42.66819
L 571.883355 42.664565
L 575.132884 42.555815
L 575.493943 42.548565
L 578.743472 42.44344
L 579.104531 42.43619
L 582.354059 42.327439
L 582.715118 42.323814
L 585.964647 42.215064
L 586.325706 42.211439
L 589.575235 42.102688
L 589.936294 42.099063
L 593.185823 41.993938
L 593.546881 41.986688
L 596.79641 41.881562
L 597.157469 41.874312
L 600.406998 41.769187
L 600.768057 41.765562
L 604.017586 41.660436
L 604.378645 41.653186
L 607.628173 41.551686
L 607.989232 41.544436
L 611.238761 41.43931
L 611.59982 41.435685
L 614.849349 41.33056
L 615.210408 41.326935
L 618.459937 41.22181
L 618.820995 41.218185
L 622.070524 41.113059
L 622.431583 41.109434
L 625.681112 41.007934
L 626.042171 41.000684
L 629.2917 40.899183
L 629.652759 40.895558
L 632.902287 40.794058
L 633.263346 40.786808
L 636.512875 40.685307
L 636.873934 40.681682
L 640.123463 40.580182
L 640.484522 40.576557
L 643.734051 40.475057
L 644.095109 40.467807
L 647.344638 40.369931
L 647.705697 40.362681
L 650.955226 40.264806
L 651.316285 40.261181
L 654.565814 40.15968
L 654.926873 40.156055
L 658.176401 40.05818
L 658.53746 40.05093
L 661.786989 39.953054
L 662.148048 39.949429
L 665.397577 39.851554
L 665.758636 39.844304
L 669.008165 39.746429
L 669.369223 39.742804
L 672.618752 39.644928
L 672.979811 39.641303
L 676.22934 39.543428
L 676.590399 39.539803
L 679.839928 39.441927
L 680.200987 39.438302
L 683.450515 39.344052
L 683.811574 39.336802
L 687.061103 39.242552
L 687.422162 39.238927
L 690.671691 39.144676
L 691.03275 39.137426
L 694.282279 39.043176
L 694.643337 39.039551
L 697.892866 38.9453
L 698.253925 38.941675
L 701.503454 38.847425
L 701.864513 38.8438
L 705.114042 38.74955
L 705.4751 38.745925
L 708.724629 38.651674
L 709.085688 38.648049
L 712.335217 38.553799
L 712.816629 38.550174
L 713.659099 38.492174
L 718.352863 38.394298
L 718.713922 38.390673
L 721.963451 38.300048
L 722.32451 38.292798
L 725.574039 38.202172
L 726.05545 38.198547
L 726.897921 38.140547
L 731.591685 38.046297
L 731.952744 38.042672
L 735.202273 37.952046
L 735.683684 37.948421
L 737.368625 37.912171
L 738.090743 37.886796
L 739.775684 37.850546
L 740.497801 37.821546
L 741.340272 37.767171
L 746.034036 37.67292
L 746.515448 37.669295
L 748.200388 37.633045
L 748.922506 37.60767
L 750.607447 37.57142
L 751.329564 37.546045
L 752.172035 37.49167
L 756.865799 37.397419
L 757.347211 37.393794
L 758.189681 37.339419
L 762.883445 37.248794
L 763.364857 37.245169
L 765.049798 37.208918
L 765.771915 37.183543
L 767.577209 37.129168
L 771.30815 37.038543
L 771.789561 37.034918
L 773.594855 36.980543
L 777.325796 36.889917
L 777.807208 36.886292
L 778.649678 36.831917
L 783.343442 36.744917
L 783.824854 36.741292
L 785.630148 36.686916
L 789.361088 36.599916
L 789.8425 36.596291
L 791.647794 36.541916
L 795.378735 36.454915
L 795.860146 36.45129
L 797.304381 36.42954
L 799.230028 36.34254
L 799.831793 36.360665
L 803.803439 36.25554
L 804.284851 36.251915
L 805.729086 36.230164
L 807.654733 36.143164
L 808.256497 36.164914
L 812.228144 36.059789
L 812.709556 36.056164
L 814.635202 36.005414
L 815.116614 36.001789
L 816.921908 35.947413
L 821.856378 35.838663
L 822.337789 35.835038
L 824.263436 35.784288
L 824.744848 35.780663
L 826.670495 35.729912
L 827.151906 35.726287
L 829.077553 35.675537
L 829.558965 35.671912
L 831.484612 35.621162
L 831.966023 35.617537
L 833.89167 35.566787
L 834.373082 35.563162
L 836.298729 35.512412
L 836.78014 35.508787
L 838.705787 35.458036
L 839.187199 35.454411
L 841.112846 35.403661
L 841.594257 35.400036
L 843.038492 35.378286
L 846.167668 35.273161
L 846.889786 35.291286
L 847.732256 35.273161
L 851.944609 35.16441
L 852.42602 35.160785
L 853.870256 35.14266
L 855.795902 35.06291
L 856.51802 35.081035
L 857.36049 35.06291
L 861.572843 34.957784
L 862.054254 34.954159
L 863.979901 34.907034
L 864.461313 34.903409
L 866.38696 34.852659
L 866.868371 34.849034
L 868.312606 34.830909
L 870.238253 34.751159
L 870.960371 34.769284
L 871.802841 34.751159
L 876.015193 34.649658
L 876.496605 34.646033
L 878.422252 34.598908
L 878.903664 34.595283
L 880.347899 34.577158
L 882.273546 34.497407
L 882.995663 34.515533
L 883.717781 34.493782
L 885.162016 34.475657
L 888.291192 34.374157
L 889.013309 34.392282
L 889.85578 34.374157
L 894.068132 34.276282
L 894.549544 34.272657
L 896.475191 34.225531
L 896.956602 34.221906
L 898.400837 34.203781
L 901.530013 34.105906
L 902.252131 34.120406
L 903.335307 34.098656
L 907.306954 34.008031
L 907.788365 34.004406
L 909.714012 33.960905
L 910.195424 33.95728
L 912.121071 33.910155
L 912.722835 33.91378
L 916.935188 33.815905
L 917.416599 33.81228
L 919.342246 33.76878
L 919.823658 33.765155
L 921.749305 33.721654
L 922.230716 33.718029
L 924.156363 33.674529
L 924.637775 33.670904
L 926.563421 33.627404
L 927.165186 33.627404
L 931.377538 33.533154
L 931.979303 33.536779
L 936.191655 33.442528
L 936.673067 33.438903
L 938.598714 33.395403
L 939.200478 33.395403
L 943.412831 33.304778
L 943.894242 33.301153
L 945.819889 33.257652
L 946.421654 33.261278
L 950.272947 33.185152
L 950.272947 33.185152
" clip-path="url(#pd0b4ff7236)" style="fill: none; stroke: #d65a00; stroke-width: 2; stroke-linecap: square"/>
   </g>
   <g id="patch_3">
    <path d="M 40.404844 434.834597
L 40.404844 14.04
" style="fill: none; stroke: #1a1a1a; stroke-linejoin: miter; stroke-linecap: square"/>
   </g>
   <g id="patch_4">
    <path d="M 993.6 434.834597
L 993.6 14.04
" style="fill: none; stroke: #1a1a1a; stroke-linejoin: miter; stroke-linecap: square"/>
   </g>
   <g id="patch_5">
    <path d="M 40.404844 434.834597
L 993.6 434.834597
" style="fill: none; stroke: #1a1a1a; stroke-linejoin: miter; stroke-linecap: square"/>
   </g>
   <g id="patch_6">
    <path d="M 40.404844 14.04
L 993.6 14.04
" style="fill: none; stroke: #1a1a1a; stroke-linejoin: miter; stroke-linecap: square"/>
   </g>
   <g id="legend_1">
    <g id="patch_7">
     <path d="M 446.439141 494.864314
L 587.565703 494.864314
Q 589.565703 494.864314 589.565703 492.864314
L 589.565703 479.706111
Q 589.565703 477.706111 587.565703 477.706111
L 446.439141 477.706111
Q 444.439141 477.706111 444.439141 479.706111
L 444.439141 492.864314
Q 444.439141 494.864314 446.439141 494.864314
z
" style="fill: #ffffff; opacity: 0.95; stroke: #808080; stroke-linejoin: miter"/>
    </g>
    <g id="line2d_31">
     <path d="M 448.439141 485.206111
L 458.439141 485.206111
L 468.439141 485.206111
" style="fill: none; stroke: #0055cc; stroke-width: 2; stroke-linecap: square"/>
    </g>
    <g id="text_17">
     <!-- Python -->
     <g transform="translate(476.439141 488.706111) scale(0.1 -0.1)">
      <defs>
       <path id="TimesNewRomanPSMT-33" d="M 1313 1984
L 1313 750
Q 1313 350 1400 253
Q 1519 116 1759 116
L 1922 116
L 1922 0
L 106 0
L 106 116
L 266 116
Q 534 116 650 291
Q 713 388 713 750
L 713 3488
Q 713 3888 628 3984
Q 506 4122 266 4122
L 106 4122
L 106 4238
L 1659 4238
Q 2228 4238 2556 4120
Q 2884 4003 3109 3725
Q 3334 3447 3334 3066
Q 3334 2547 2992 2222
Q 2650 1897 2025 1897
Q 1872 1897 1694 1919
Q 1516 1941 1313 1984
z
M 1313 2163
Q 1478 2131 1606 2115
Q 1734 2100 1825 2100
Q 2150 2100 2386 2351
Q 2622 2603 2622 3003
Q 2622 3278 2509 3514
Q 2397 3750 2190 3867
Q 1984 3984 1722 3984
Q 1563 3984 1313 3925
L 1313 2163
z
" transform="scale(0.015625)"/>
       <path id="TimesNewRomanPSMT-5c" d="M 38 2863
L 1372 2863
L 1372 2747
L 1306 2747
Q 1166 2747 1095 2686
Q 1025 2625 1025 2534
Q 1025 2413 1128 2197
L 1825 753
L 2466 2334
Q 2519 2463 2519 2588
Q 2519 2644 2497 2672
Q 2472 2706 2419 2726
Q 2366 2747 2231 2747
L 2231 2863
L 3163 2863
L 3163 2747
Q 3047 2734 2984 2696
Q 2922 2659 2847 2556
Q 2819 2513 2741 2316
L 1575 -541
Q 1406 -956 1132 -1168
Q 859 -1381 606 -1381
Q 422 -1381 303 -1275
Q 184 -1169 184 -1031
Q 184 -900 270 -820
Q 356 -741 506 -741
Q 609 -741 788 -809
Q 913 -856 944 -856
Q 1038 -856 1148 -759
Q 1259 -663 1372 -384
L 1575 113
L 547 2272
Q 500 2369 397 2513
Q 319 2622 269 2659
Q 197 2709 38 2747
L 38 2863
z
" transform="scale(0.015625)"/>
       <path id="TimesNewRomanPSMT-57" d="M 1031 3803
L 1031 2863
L 1700 2863
L 1700 2644
L 1031 2644
L 1031 788
Q 1031 509 1111 412
Q 1191 316 1316 316
Q 1419 316 1516 380
Q 1613 444 1666 569
L 1788 569
Q 1678 263 1478 108
Q 1278 -47 1066 -47
Q 922 -47 784 33
Q 647 113 581 261
Q 516 409 516 719
L 516 2644
L 63 2644
L 63 2747
Q 234 2816 414 2980
Q 594 3144 734 3369
Q 806 3488 934 3803
L 1031 3803
z
" transform="scale(0.015625)"/>
       <path id="TimesNewRomanPSMT-4b" d="M 1041 4444
L 1041 2350
Q 1388 2731 1591 2839
Q 1794 2947 1997 2947
Q 2241 2947 2416 2812
Q 2591 2678 2675 2391
Q 2734 2191 2734 1659
L 2734 647
Q 2734 375 2778 275
Q 2809 200 2884 156
Q 2959 113 3159 113
L 3159 0
L 1753 0
L 1753 113
L 1819 113
Q 2019 113 2097 173
Q 2175 234 2206 353
Q 2216 403 2216 647
L 2216 1659
Q 2216 2128 2167 2275
Q 2119 2422 2012 2495
Q 1906 2569 1756 2569
Q 1603 2569 1437 2487
Q 1272 2406 1041 2159
L 1041 647
Q 1041 353 1073 281
Q 1106 209 1195 161
Q 1284 113 1503 113
L 1503 0
L 84 0
L 84 113
Q 275 113 384 172
Q 447 203 484 290
Q 522 378 522 647
L 522 3238
Q 522 3728 498 3840
Q 475 3953 426 3993
Q 378 4034 297 4034
Q 231 4034 84 3984
L 41 4094
L 897 4444
L 1041 4444
z
" transform="scale(0.015625)"/>
       <path id="TimesNewRomanPSMT-52" d="M 1600 2947
Q 2250 2947 2644 2453
Q 2978 2031 2978 1484
Q 2978 1100 2793 706
Q 2609 313 2286 112
Q 1963 -88 1566 -88
Q 919 -88 538 428
Q 216 863 216 1403
Q 216 1797 411 2186
Q 606 2575 925 2761
Q 1244 2947 1600 2947
z
M 1503 2744
Q 1338 2744 1170 2645
Q 1003 2547 900 2300
Q 797 2053 797 1666
Q 797 1041 1045 587
Q 1294 134 1700 134
Q 2003 134 2200 384
Q 2397 634 2397 1244
Q 2397 2006 2069 2444
Q 1847 2744 1503 2744
z
" transform="scale(0.015625)"/>
       <path id="TimesNewRomanPSMT-51" d="M 1034 2341
Q 1538 2947 1994 2947
Q 2228 2947 2397 2830
Q 2566 2713 2666 2444
Q 2734 2256 2734 1869
L 2734 647
Q 2734 375 2778 278
Q 2813 200 2889 156
Q 2966 113 3172 113
L 3172 0
L 1756 0
L 1756 113
L 1816 113
Q 2016 113 2095 173
Q 2175 234 2206 353
Q 2219 400 2219 647
L 2219 1819
Q 2219 2209 2117 2386
Q 2016 2563 1775 2563
Q 1403 2563 1034 2156
L 1034 647
Q 1034 356 1069 288
Q 1113 197 1189 155
Q 1266 113 1500 113
L 1500 0
L 84 0
L 84 113
L 147 113
Q 366 113 442 223
Q 519 334 519 647
L 519 1709
Q 519 2225 495 2337
Q 472 2450 423 2490
Q 375 2531 294 2531
Q 206 2531 84 2484
L 38 2597
L 900 2947
L 1034 2947
L 1034 2341
z
" transform="scale(0.015625)"/>
      </defs>
      <use xlink:href="#TimesNewRomanPSMT-33"/>
      <use xlink:href="#TimesNewRomanPSMT-5c" transform="translate(55.609375 0)"/>
      <use xlink:href="#TimesNewRomanPSMT-57" transform="translate(105.609375 0)"/>
      <use xlink:href="#TimesNewRomanPSMT-4b" transform="translate(133.390625 0)"/>
      <use xlink:href="#TimesNewRomanPSMT-52" transform="translate(183.390625 0)"/>
      <use xlink:href="#TimesNewRomanPSMT-51" transform="translate(233.390625 0)"/>
     </g>
    </g>
    <g id="line2d_32">
     <path d="M 524.778203 485.206111
L 534.778203 485.206111
L 544.778203 485.206111
" style="fill: none; stroke: #d65a00; stroke-width: 2; stroke-linecap: square"/>
    </g>
    <g id="text_18">
     <!-- HYSYS -->
     <g transform="translate(552.778203 488.706111) scale(0.1 -0.1)">
      <defs>
       <path id="TimesNewRomanPSMT-2b" d="M 1316 2272
L 3284 2272
L 3284 3484
Q 3284 3809 3244 3913
Q 3213 3991 3113 4047
Q 2978 4122 2828 4122
L 2678 4122
L 2678 4238
L 4491 4238
L 4491 4122
L 4341 4122
Q 4191 4122 4056 4050
Q 3956 4000 3920 3898
Q 3884 3797 3884 3484
L 3884 750
Q 3884 428 3925 325
Q 3956 247 4053 191
Q 4191 116 4341 116
L 4491 116
L 4491 0
L 2678 0
L 2678 116
L 2828 116
Q 3088 116 3206 269
Q 3284 369 3284 750
L 3284 2041
L 1316 2041
L 1316 750
Q 1316 428 1356 325
Q 1388 247 1488 191
Q 1622 116 1772 116
L 1925 116
L 1925 0
L 109 0
L 109 116
L 259 116
Q 522 116 641 269
Q 716 369 716 750
L 716 3484
Q 716 3809 675 3913
Q 644 3991 547 4047
Q 409 4122 259 4122
L 109 4122
L 109 4238
L 1925 4238
L 1925 4122
L 1772 4122
Q 1622 4122 1488 4050
Q 1391 4000 1353 3898
Q 1316 3797 1316 3484
L 1316 2272
z
" transform="scale(0.015625)"/>
       <path id="TimesNewRomanPSMT-3c" d="M 3050 4238
L 4528 4238
L 4528 4122
L 4447 4122
Q 4366 4122 4209 4050
Q 4053 3978 3925 3843
Q 3797 3709 3609 3406
L 2588 1797
L 2588 734
Q 2588 344 2675 247
Q 2794 116 3050 116
L 3188 116
L 3188 0
L 1388 0
L 1388 116
L 1538 116
Q 1806 116 1919 278
Q 1988 378 1988 734
L 1988 1738
L 825 3513
Q 619 3825 545 3903
Q 472 3981 241 4091
Q 178 4122 59 4122
L 59 4238
L 1872 4238
L 1872 4122
L 1778 4122
Q 1631 4122 1507 4053
Q 1384 3984 1384 3847
Q 1384 3734 1575 3441
L 2459 2075
L 3291 3381
Q 3478 3675 3478 3819
Q 3478 3906 3433 3975
Q 3388 4044 3303 4083
Q 3219 4122 3050 4122
L 3050 4238
z
" transform="scale(0.015625)"/>
       <path id="TimesNewRomanPSMT-36" d="M 2934 4334
L 2934 2869
L 2819 2869
Q 2763 3291 2617 3541
Q 2472 3791 2203 3937
Q 1934 4084 1647 4084
Q 1322 4084 1109 3886
Q 897 3688 897 3434
Q 897 3241 1031 3081
Q 1225 2847 1953 2456
Q 2547 2138 2764 1967
Q 2981 1797 3098 1565
Q 3216 1334 3216 1081
Q 3216 600 2842 251
Q 2469 -97 1881 -97
Q 1697 -97 1534 -69
Q 1438 -53 1133 45
Q 828 144 747 144
Q 669 144 623 97
Q 578 50 556 -97
L 441 -97
L 441 1356
L 556 1356
Q 638 900 775 673
Q 913 447 1195 297
Q 1478 147 1816 147
Q 2206 147 2432 353
Q 2659 559 2659 841
Q 2659 997 2573 1156
Q 2488 1316 2306 1453
Q 2184 1547 1640 1851
Q 1097 2156 867 2337
Q 638 2519 519 2737
Q 400 2956 400 3219
Q 400 3675 750 4004
Q 1100 4334 1641 4334
Q 1978 4334 2356 4169
Q 2531 4091 2603 4091
Q 2684 4091 2736 4139
Q 2788 4188 2819 4334
L 2934 4334
z
" transform="scale(0.015625)"/>
      </defs>
      <use xlink:href="#TimesNewRomanPSMT-2b"/>
      <use xlink:href="#TimesNewRomanPSMT-3c" transform="translate(72.21875 0)"/>
      <use xlink:href="#TimesNewRomanPSMT-36" transform="translate(144.4375 0)"/>
      <use xlink:href="#TimesNewRomanPSMT-3c" transform="translate(200.046875 0)"/>
      <use xlink:href="#TimesNewRomanPSMT-36" transform="translate(272.265625 0)"/>
     </g>
    </g>
   </g>
  </g>
  <g id="patch_8">
   <path d="M 3.6 502.56
L 1001.52 502.56
L 1001.52 3.6
L 3.6 3.6
L 3.6 502.56
z
" style="fill: none; stroke: #1a1a1a; stroke-width: 1.2; stroke-linejoin: miter"/>
  </g>
 </g>
 <defs>
  <clipPath id="pd0b4ff7236">
   <rect x="40.404844" y="14.04" width="953.195156" height="420.794597"/>
  </clipPath>
 </defs>
</svg>
