<?xml version="1.0" encoding="utf-8" standalone="no"?>
<!DOCTYPE svg PUBLIC "-//W3C//DTD SVG 1.1//EN"
  "http://www.w3.org/Graphics/SVG/1.1/DTD/svg11.dtd">
<svg xmlns:xlink="http://www.w3.org/1999/xlink" width="1005.12pt" height="506.16pt" viewBox="0 0 1005.12 506.16" xmlns="http://www.w3.org/2000/svg" version="1.1">
 <metadata>
  <rdf:RDF xmlns:dc="http://purl.org/dc/elements/1.1/" xmlns:cc="http://creativecommons.org/ns#" xmlns:rdf="http://www.w3.org/1999/02/22-rdf-syntax-ns#">
   <cc:Work>
    <dc:type rdf:resource="http://purl.org/dc/dcmitype/StillImage"/>
    <dc:date>2026-07-20T17:37:59.899760</dc:date>
    <dc:format>image/svg+xml</dc:format>
    <dc:creator>
     <cc:Agent>
      <dc:title>Matplotlib v3.11.1, https://matplotlib.org/</dc:title>
     </cc:Agent>
    </dc:creator>
   </cc:Work>
  </rdf:RDF>
 </metadata>
 <defs>
  <style type="text/css">*{stroke-linejoin: round; stroke-linecap: butt}</style>
 </defs>
 <g id="figure_1">
  <g id="patch_1">
   <path d="M 0 506.16
L 1005.12 506.16
L 1005.12 0
L 0 0
z
" style="fill: #ffffff"/>
  </g>
  <g id="axes_1">
   <g id="patch_2">
    <path d="M 40.404844 434.834597
L 993.6 434.834597
L 993.6 14.04
L 40.404844 14.04
z
" style="fill: #ffffff"/>
   </g>
   <g id="matplotlib.axis_1">
    <g id="xtick_1">
     <g id="line2d_1">
      <path d="M 83.731896 434.834597
L 83.731896 14.04
" clip-path="url(#p1cd2eb9268)" style="fill: none; stroke: #b0b0b0; stroke-opacity: 0.3; stroke-width: 0.8; stroke-linecap: square"/>
     </g>
     <g id="line2d_2">
      <defs>
       <path id="m522a89b39d" d="M 0 0
L 0 -3.5
" style="stroke: #000000; stroke-width: 0.8"/>
      </defs>
      <g>
       <use xlink:href="#m522a89b39d" x="83.731896" y="434.834597" style="stroke: #000000; stroke-width: 0.8"/>
      </g>
     </g>
     <g id="text_1">
      <!-- 0 -->
      <g transform="translate(81.231896 445.268191) scale(0.1 -0.1)">
       <defs>
        <path id="TimesNewRomanPSMT-13" d="M 231 2094
Q 231 2819 450 3342
Q 669 3866 1031 4122
Q 1313 4325 1613 4325
Q 2100 4325 2488 3828
Q 2972 3213 2972 2159
Q 2972 1422 2759 906
Q 2547 391 2217 158
Q 1888 -75 1581 -75
Q 975 -75 572 641
Q 231 1244 231 2094
z
M 844 2016
Q 844 1141 1059 588
Q 1238 122 1591 122
Q 1759 122 1940 273
Q 2122 425 2216 781
Q 2359 1319 2359 2297
Q 2359 3022 2209 3506
Q 2097 3866 1919 4016
Q 1791 4119 1609 4119
Q 1397 4119 1231 3928
Q 1006 3669 925 3112
Q 844 2556 844 2016
z
" transform="scale(0.015625)"/>
       </defs>
       <use xlink:href="#TimesNewRomanPSMT-13"/>
      </g>
     </g>
    </g>
    <g id="xtick_2">
     <g id="line2d_3">
      <path d="M 204.08482 434.834597
L 204.08482 14.04
" clip-path="url(#p1cd2eb9268)" style="fill: none; stroke: #b0b0b0; stroke-opacity: 0.3; stroke-width: 0.8; stroke-linecap: square"/>
     </g>
     <g id="line2d_4">
      <g>
       <use xlink:href="#m522a89b39d" x="204.08482" y="434.834597" style="stroke: #000000; stroke-width: 0.8"/>
      </g>
     </g>
     <g id="text_2">
      <!-- 500 -->
      <g transform="translate(196.58482 445.268191) scale(0.1 -0.1)">
       <defs>
        <path id="TimesNewRomanPSMT-18" d="M 2778 4238
L 2534 3706
L 1259 3706
L 981 3138
Q 1809 3016 2294 2522
Q 2709 2097 2709 1522
Q 2709 1188 2573 903
Q 2438 619 2231 419
Q 2025 219 1772 97
Q 1413 -75 1034 -75
Q 653 -75 479 54
Q 306 184 306 341
Q 306 428 378 495
Q 450 563 559 563
Q 641 563 702 538
Q 763 513 909 409
Q 1144 247 1384 247
Q 1750 247 2026 523
Q 2303 800 2303 1197
Q 2303 1581 2056 1914
Q 1809 2247 1375 2428
Q 1034 2569 447 2591
L 1259 4238
L 2778 4238
z
" transform="scale(0.015625)"/>
       </defs>
       <use xlink:href="#TimesNewRomanPSMT-18"/>
       <use xlink:href="#TimesNewRomanPSMT-13" transform="translate(50 0)"/>
       <use xlink:href="#TimesNewRomanPSMT-13" transform="translate(100 0)"/>
      </g>
     </g>
    </g>
    <g id="xtick_3">
     <g id="line2d_5">
      <path d="M 324.437744 434.834597
L 324.437744 14.04
" clip-path="url(#p1cd2eb9268)" style="fill: none; stroke: #b0b0b0; stroke-opacity: 0.3; stroke-width: 0.8; stroke-linecap: square"/>
     </g>
     <g id="line2d_6">
      <g>
       <use xlink:href="#m522a89b39d" x="324.437744" y="434.834597" style="stroke: #000000; stroke-width: 0.8"/>
      </g>
     </g>
     <g id="text_3">
      <!-- 1000 -->
      <g transform="translate(314.437744 445.268191) scale(0.1 -0.1)">
       <defs>
        <path id="TimesNewRomanPSMT-14" d="M 750 3822
L 1781 4325
L 1884 4325
L 1884 747
Q 1884 391 1914 303
Q 1944 216 2037 169
Q 2131 122 2419 116
L 2419 0
L 825 0
L 825 116
Q 1125 122 1212 167
Q 1300 213 1334 289
Q 1369 366 1369 747
L 1369 3034
Q 1369 3497 1338 3628
Q 1316 3728 1258 3775
Q 1200 3822 1119 3822
Q 1003 3822 797 3725
L 750 3822
z
" transform="scale(0.015625)"/>
       </defs>
       <use xlink:href="#TimesNewRomanPSMT-14"/>
       <use xlink:href="#TimesNewRomanPSMT-13" transform="translate(50 0)"/>
       <use xlink:href="#TimesNewRomanPSMT-13" transform="translate(100 0)"/>
       <use xlink:href="#TimesNewRomanPSMT-13" transform="translate(150 0)"/>
      </g>
     </g>
    </g>
    <g id="xtick_4">
     <g id="line2d_7">
      <path d="M 444.790668 434.834597
L 444.790668 14.04
" clip-path="url(#p1cd2eb9268)" style="fill: none; stroke: #b0b0b0; stroke-opacity: 0.3; stroke-width: 0.8; stroke-linecap: square"/>
     </g>
     <g id="line2d_8">
      <g>
       <use xlink:href="#m522a89b39d" x="444.790668" y="434.834597" style="stroke: #000000; stroke-width: 0.8"/>
      </g>
     </g>
     <g id="text_4">
      <!-- 1500 -->
      <g transform="translate(434.790668 445.268191) scale(0.1 -0.1)">
       <use xlink:href="#TimesNewRomanPSMT-14"/>
       <use xlink:href="#TimesNewRomanPSMT-18" transform="translate(50 0)"/>
       <use xlink:href="#TimesNewRomanPSMT-13" transform="translate(100 0)"/>
       <use xlink:href="#TimesNewRomanPSMT-13" transform="translate(150 0)"/>
      </g>
     </g>
    </g>
    <g id="xtick_5">
     <g id="line2d_9">
      <path d="M 565.143591 434.834597
L 565.143591 14.04
" clip-path="url(#p1cd2eb9268)" style="fill: none; stroke: #b0b0b0; stroke-opacity: 0.3; stroke-width: 0.8; stroke-linecap: square"/>
     </g>
     <g id="line2d_10">
      <g>
       <use xlink:href="#m522a89b39d" x="565.143591" y="434.834597" style="stroke: #000000; stroke-width: 0.8"/>
      </g>
     </g>
     <g id="text_5">
      <!-- 2000 -->
      <g transform="translate(555.143591 445.268191) scale(0.1 -0.1)">
       <defs>
        <path id="TimesNewRomanPSMT-15" d="M 2934 816
L 2638 0
L 138 0
L 138 116
Q 1241 1122 1691 1759
Q 2141 2397 2141 2925
Q 2141 3328 1894 3587
Q 1647 3847 1303 3847
Q 991 3847 742 3664
Q 494 3481 375 3128
L 259 3128
Q 338 3706 661 4015
Q 984 4325 1469 4325
Q 1984 4325 2329 3994
Q 2675 3663 2675 3213
Q 2675 2891 2525 2569
Q 2294 2063 1775 1497
Q 997 647 803 472
L 1909 472
Q 2247 472 2383 497
Q 2519 522 2628 598
Q 2738 675 2819 816
L 2934 816
z
" transform="scale(0.015625)"/>
       </defs>
       <use xlink:href="#TimesNewRomanPSMT-15"/>
       <use xlink:href="#TimesNewRomanPSMT-13" transform="translate(50 0)"/>
       <use xlink:href="#TimesNewRomanPSMT-13" transform="translate(100 0)"/>
       <use xlink:href="#TimesNewRomanPSMT-13" transform="translate(150 0)"/>
      </g>
     </g>
    </g>
    <g id="xtick_6">
     <g id="line2d_11">
      <path d="M 685.496515 434.834597
L 685.496515 14.04
" clip-path="url(#p1cd2eb9268)" style="fill: none; stroke: #b0b0b0; stroke-opacity: 0.3; stroke-width: 0.8; stroke-linecap: square"/>
     </g>
     <g id="line2d_12">
      <g>
       <use xlink:href="#m522a89b39d" x="685.496515" y="434.834597" style="stroke: #000000; stroke-width: 0.8"/>
      </g>
     </g>
     <g id="text_6">
      <!-- 2500 -->
      <g transform="translate(675.496515 445.268191) scale(0.1 -0.1)">
       <use xlink:href="#TimesNewRomanPSMT-15"/>
       <use xlink:href="#TimesNewRomanPSMT-18" transform="translate(50 0)"/>
       <use xlink:href="#TimesNewRomanPSMT-13" transform="translate(100 0)"/>
       <use xlink:href="#TimesNewRomanPSMT-13" transform="translate(150 0)"/>
      </g>
     </g>
    </g>
    <g id="xtick_7">
     <g id="line2d_13">
      <path d="M 805.849439 434.834597
L 805.849439 14.04
" clip-path="url(#p1cd2eb9268)" style="fill: none; stroke: #b0b0b0; stroke-opacity: 0.3; stroke-width: 0.8; stroke-linecap: square"/>
     </g>
     <g id="line2d_14">
      <g>
       <use xlink:href="#m522a89b39d" x="805.849439" y="434.834597" style="stroke: #000000; stroke-width: 0.8"/>
      </g>
     </g>
     <g id="text_7">
      <!-- 3000 -->
      <g transform="translate(795.849439 445.268191) scale(0.1 -0.1)">
       <defs>
        <path id="TimesNewRomanPSMT-16" d="M 325 3431
Q 506 3859 782 4092
Q 1059 4325 1472 4325
Q 1981 4325 2253 3994
Q 2459 3747 2459 3466
Q 2459 3003 1878 2509
Q 2269 2356 2469 2072
Q 2669 1788 2669 1403
Q 2669 853 2319 450
Q 1863 -75 997 -75
Q 569 -75 414 31
Q 259 138 259 259
Q 259 350 332 419
Q 406 488 509 488
Q 588 488 669 463
Q 722 447 909 348
Q 1097 250 1169 231
Q 1284 197 1416 197
Q 1734 197 1970 444
Q 2206 691 2206 1028
Q 2206 1275 2097 1509
Q 2016 1684 1919 1775
Q 1784 1900 1550 2001
Q 1316 2103 1072 2103
L 972 2103
L 972 2197
Q 1219 2228 1467 2375
Q 1716 2522 1828 2728
Q 1941 2934 1941 3181
Q 1941 3503 1739 3701
Q 1538 3900 1238 3900
Q 753 3900 428 3381
L 325 3431
z
" transform="scale(0.015625)"/>
       </defs>
       <use xlink:href="#TimesNewRomanPSMT-16"/>
       <use xlink:href="#TimesNewRomanPSMT-13" transform="translate(50 0)"/>
       <use xlink:href="#TimesNewRomanPSMT-13" transform="translate(100 0)"/>
       <use xlink:href="#TimesNewRomanPSMT-13" transform="translate(150 0)"/>
      </g>
     </g>
    </g>
    <g id="xtick_8">
     <g id="line2d_15">
      <path d="M 926.202363 434.834597
L 926.202363 14.04
" clip-path="url(#p1cd2eb9268)" style="fill: none; stroke: #b0b0b0; stroke-opacity: 0.3; stroke-width: 0.8; stroke-linecap: square"/>
     </g>
     <g id="line2d_16">
      <g>
       <use xlink:href="#m522a89b39d" x="926.202363" y="434.834597" style="stroke: #000000; stroke-width: 0.8"/>
      </g>
     </g>
     <g id="text_8">
      <!-- 3500 -->
      <g transform="translate(916.202363 445.268191) scale(0.1 -0.1)">
       <use xlink:href="#TimesNewRomanPSMT-16"/>
       <use xlink:href="#TimesNewRomanPSMT-18" transform="translate(50 0)"/>
       <use xlink:href="#TimesNewRomanPSMT-13" transform="translate(100 0)"/>
       <use xlink:href="#TimesNewRomanPSMT-13" transform="translate(150 0)"/>
      </g>
     </g>
    </g>
    <g id="text_9">
     <!-- Time (s) -->
     <g transform="translate(495.949922 463.560144) scale(0.12 -0.12)">
      <defs>
       <path id="TimesNewRomanPS-BoldMT-37" d="M 4038 4238
L 4038 3091
L 3925 3091
Q 3825 3488 3703 3661
Q 3581 3834 3369 3938
Q 3250 3994 2953 3994
L 2638 3994
L 2638 725
Q 2638 400 2673 319
Q 2709 238 2814 177
Q 2919 116 3100 116
L 3241 116
L 3241 0
L 1022 0
L 1022 116
L 1163 116
Q 1347 116 1459 181
Q 1541 225 1588 331
Q 1622 406 1622 725
L 1622 3994
L 1316 3994
Q 888 3994 694 3813
Q 422 3559 350 3091
L 231 3091
L 231 4238
L 4038 4238
z
" transform="scale(0.015625)"/>
       <path id="TimesNewRomanPS-BoldMT-4c" d="M 919 4338
Q 1122 4338 1262 4195
Q 1403 4053 1403 3853
Q 1403 3653 1261 3512
Q 1119 3372 919 3372
Q 719 3372 578 3512
Q 438 3653 438 3853
Q 438 4053 578 4195
Q 719 4338 919 4338
z
M 1356 2922
L 1356 606
Q 1356 297 1428 211
Q 1500 125 1709 113
L 1709 0
L 131 0
L 131 113
Q 325 119 419 225
Q 481 297 481 606
L 481 2313
Q 481 2622 409 2708
Q 338 2794 131 2806
L 131 2922
L 1356 2922
z
" transform="scale(0.015625)"/>
       <path id="TimesNewRomanPS-BoldMT-50" d="M 1428 2922
L 1428 2538
Q 1669 2800 1873 2904
Q 2078 3009 2322 3009
Q 2603 3009 2793 2878
Q 2984 2747 3088 2478
Q 3338 2759 3567 2884
Q 3797 3009 4047 3009
Q 4350 3009 4529 2870
Q 4709 2731 4779 2517
Q 4850 2303 4850 1834
L 4850 638
Q 4850 300 4911 219
Q 4972 138 5166 113
L 5166 0
L 3656 0
L 3656 113
Q 3834 128 3919 250
Q 3975 334 3975 638
L 3975 1894
Q 3975 2284 3944 2390
Q 3913 2497 3845 2548
Q 3778 2600 3688 2600
Q 3553 2600 3415 2501
Q 3278 2403 3138 2206
L 3138 638
Q 3138 322 3191 241
Q 3263 125 3466 113
L 3466 0
L 1953 0
L 1953 113
Q 2075 119 2145 173
Q 2216 228 2239 304
Q 2263 381 2263 638
L 2263 1894
Q 2263 2291 2231 2391
Q 2200 2491 2126 2547
Q 2053 2603 1969 2603
Q 1844 2603 1741 2538
Q 1594 2441 1428 2206
L 1428 638
Q 1428 328 1489 229
Q 1550 131 1744 113
L 1744 0
L 238 0
L 238 113
Q 422 131 500 231
Q 553 300 553 638
L 553 2288
Q 553 2619 492 2700
Q 431 2781 238 2806
L 238 2922
L 1428 2922
z
" transform="scale(0.015625)"/>
       <path id="TimesNewRomanPS-BoldMT-48" d="M 2691 1566
L 1088 1566
Q 1116 984 1397 647
Q 1613 388 1916 388
Q 2103 388 2256 492
Q 2409 597 2584 869
L 2691 800
Q 2453 316 2165 114
Q 1878 -88 1500 -88
Q 850 -88 516 413
Q 247 816 247 1413
Q 247 2144 642 2576
Q 1038 3009 1569 3009
Q 2013 3009 2339 2645
Q 2666 2281 2691 1566
z
M 1922 1775
Q 1922 2278 1867 2465
Q 1813 2653 1697 2750
Q 1631 2806 1522 2806
Q 1359 2806 1256 2647
Q 1072 2369 1072 1884
L 1072 1775
L 1922 1775
z
" transform="scale(0.015625)"/>
       <path id="TimesNewRomanPS-BoldMT-3" transform="scale(0.015625)"/>
       <path id="TimesNewRomanPS-BoldMT-b" d="M 2056 4334
L 2056 4191
Q 1731 3978 1578 3775
Q 1366 3494 1247 3053
Q 1097 2506 1097 1525
Q 1097 600 1233 87
Q 1369 -425 1603 -741
Q 1766 -959 2056 -1125
L 2056 -1281
Q 1303 -1028 779 -248
Q 256 531 256 1544
Q 256 2544 778 3314
Q 1300 4084 2056 4334
z
" transform="scale(0.015625)"/>
       <path id="TimesNewRomanPS-BoldMT-56" d="M 2063 3003
L 2109 2006
L 2003 2006
Q 1813 2450 1608 2612
Q 1403 2775 1200 2775
Q 1072 2775 981 2689
Q 891 2603 891 2491
Q 891 2406 953 2328
Q 1053 2200 1512 1889
Q 1972 1578 2117 1361
Q 2263 1144 2263 875
Q 2263 631 2141 397
Q 2019 163 1797 37
Q 1575 -88 1306 -88
Q 1097 -88 747 44
Q 653 78 619 78
Q 516 78 447 -78
L 344 -78
L 294 972
L 400 972
Q 541 559 786 353
Q 1031 147 1250 147
Q 1400 147 1495 239
Q 1591 331 1591 463
Q 1591 613 1497 722
Q 1403 831 1078 1053
Q 600 1384 459 1559
Q 253 1816 253 2125
Q 253 2463 486 2736
Q 719 3009 1159 3009
Q 1397 3009 1619 2894
Q 1703 2847 1756 2847
Q 1813 2847 1847 2870
Q 1881 2894 1956 3003
L 2063 3003
z
" transform="scale(0.015625)"/>
       <path id="TimesNewRomanPS-BoldMT-c" d="M 78 -1281
L 78 -1138
Q 403 -922 556 -719
Q 766 -438 888 0
Q 1038 550 1038 1531
Q 1038 2456 902 2967
Q 766 3478 531 3794
Q 369 4013 78 4178
L 78 4334
Q 831 4081 1354 3301
Q 1878 2522 1878 1509
Q 1878 513 1354 -257
Q 831 -1028 78 -1281
z
" transform="scale(0.015625)"/>
      </defs>
      <use xlink:href="#TimesNewRomanPS-BoldMT-37"/>
      <use xlink:href="#TimesNewRomanPS-BoldMT-4c" transform="translate(64.890625 0)"/>
      <use xlink:href="#TimesNewRomanPS-BoldMT-50" transform="translate(92.671875 0)"/>
      <use xlink:href="#TimesNewRomanPS-BoldMT-48" transform="translate(175.96875 0)"/>
      <use xlink:href="#TimesNewRomanPS-BoldMT-3" transform="translate(220.359375 0)"/>
      <use xlink:href="#TimesNewRomanPS-BoldMT-b" transform="translate(245.359375 0)"/>
      <use xlink:href="#TimesNewRomanPS-BoldMT-56" transform="translate(278.65625 0)"/>
      <use xlink:href="#TimesNewRomanPS-BoldMT-c" transform="translate(317.578125 0)"/>
     </g>
    </g>
   </g>
   <g id="matplotlib.axis_2">
    <g id="ytick_1">
     <g id="line2d_17">
      <path d="M 40.404844 415.70757
L 993.6 415.70757
" clip-path="url(#p1cd2eb9268)" style="fill: none; stroke: #b0b0b0; stroke-opacity: 0.3; stroke-width: 0.8; stroke-linecap: square"/>
     </g>
     <g id="line2d_18">
      <defs>
       <path id="m4373a4fd96" d="M 0 0
L 3.5 0
" style="stroke: #000000; stroke-width: 0.8"/>
      </defs>
      <g>
       <use xlink:href="#m4373a4fd96" x="40.404844" y="415.70757" style="stroke: #000000; stroke-width: 0.8"/>
      </g>
     </g>
     <g id="text_10">
      <!-- 50 -->
      <g transform="translate(26.904844 419.174367) scale(0.1 -0.1)">
       <use xlink:href="#TimesNewRomanPSMT-18"/>
       <use xlink:href="#TimesNewRomanPSMT-13" transform="translate(50 0)"/>
      </g>
     </g>
    </g>
    <g id="ytick_2">
     <g id="line2d_19">
      <path d="M 40.404844 339.202283
L 993.6 339.202283
" clip-path="url(#p1cd2eb9268)" style="fill: none; stroke: #b0b0b0; stroke-opacity: 0.3; stroke-width: 0.8; stroke-linecap: square"/>
     </g>
     <g id="line2d_20">
      <g>
       <use xlink:href="#m4373a4fd96" x="40.404844" y="339.202283" style="stroke: #000000; stroke-width: 0.8"/>
      </g>
     </g>
     <g id="text_11">
      <!-- 52 -->
      <g transform="translate(26.904844 342.669079) scale(0.1 -0.1)">
       <use xlink:href="#TimesNewRomanPSMT-18"/>
       <use xlink:href="#TimesNewRomanPSMT-15" transform="translate(50 0)"/>
      </g>
     </g>
    </g>
    <g id="ytick_3">
     <g id="line2d_21">
      <path d="M 40.404844 262.696995
L 993.6 262.696995
" clip-path="url(#p1cd2eb9268)" style="fill: none; stroke: #b0b0b0; stroke-opacity: 0.3; stroke-width: 0.8; stroke-linecap: square"/>
     </g>
     <g id="line2d_22">
      <g>
       <use xlink:href="#m4373a4fd96" x="40.404844" y="262.696995" style="stroke: #000000; stroke-width: 0.8"/>
      </g>
     </g>
     <g id="text_12">
      <!-- 54 -->
      <g transform="translate(26.904844 266.163792) scale(0.1 -0.1)">
       <defs>
        <path id="TimesNewRomanPSMT-17" d="M 2978 1563
L 2978 1119
L 2409 1119
L 2409 0
L 1894 0
L 1894 1119
L 100 1119
L 100 1519
L 2066 4325
L 2409 4325
L 2409 1563
L 2978 1563
z
M 1894 1563
L 1894 3666
L 406 1563
L 1894 1563
z
" transform="scale(0.015625)"/>
       </defs>
       <use xlink:href="#TimesNewRomanPSMT-18"/>
       <use xlink:href="#TimesNewRomanPSMT-17" transform="translate(50 0)"/>
      </g>
     </g>
    </g>
    <g id="ytick_4">
     <g id="line2d_23">
      <path d="M 40.404844 186.191708
L 993.6 186.191708
" clip-path="url(#p1cd2eb9268)" style="fill: none; stroke: #b0b0b0; stroke-opacity: 0.3; stroke-width: 0.8; stroke-linecap: square"/>
     </g>
     <g id="line2d_24">
      <g>
       <use xlink:href="#m4373a4fd96" x="40.404844" y="186.191708" style="stroke: #000000; stroke-width: 0.8"/>
      </g>
     </g>
     <g id="text_13">
      <!-- 56 -->
      <g transform="translate(26.904844 189.658505) scale(0.1 -0.1)">
       <defs>
        <path id="TimesNewRomanPSMT-19" d="M 2869 4325
L 2869 4209
Q 2456 4169 2195 4045
Q 1934 3922 1679 3669
Q 1425 3416 1258 3105
Q 1091 2794 978 2366
Q 1428 2675 1881 2675
Q 2316 2675 2634 2325
Q 2953 1975 2953 1425
Q 2953 894 2631 456
Q 2244 -75 1606 -75
Q 1172 -75 869 213
Q 275 772 275 1663
Q 275 2231 503 2743
Q 731 3256 1154 3653
Q 1578 4050 1965 4187
Q 2353 4325 2688 4325
L 2869 4325
z
M 925 2138
Q 869 1716 869 1456
Q 869 1156 980 804
Q 1091 453 1309 247
Q 1469 100 1697 100
Q 1969 100 2183 356
Q 2397 613 2397 1088
Q 2397 1622 2184 2012
Q 1972 2403 1581 2403
Q 1463 2403 1327 2353
Q 1191 2303 925 2138
z
" transform="scale(0.015625)"/>
       </defs>
       <use xlink:href="#TimesNewRomanPSMT-18"/>
       <use xlink:href="#TimesNewRomanPSMT-19" transform="translate(50 0)"/>
      </g>
     </g>
    </g>
    <g id="ytick_5">
     <g id="line2d_25">
      <path d="M 40.404844 109.686421
L 993.6 109.686421
" clip-path="url(#p1cd2eb9268)" style="fill: none; stroke: #b0b0b0; stroke-opacity: 0.3; stroke-width: 0.8; stroke-linecap: square"/>
     </g>
     <g id="line2d_26">
      <g>
       <use xlink:href="#m4373a4fd96" x="40.404844" y="109.686421" style="stroke: #000000; stroke-width: 0.8"/>
      </g>
     </g>
     <g id="text_14">
      <!-- 58 -->
      <g transform="translate(26.904844 113.153218) scale(0.1 -0.1)">
       <defs>
        <path id="TimesNewRomanPSMT-1b" d="M 1228 2134
Q 725 2547 579 2797
Q 434 3047 434 3316
Q 434 3728 753 4026
Q 1072 4325 1600 4325
Q 2113 4325 2425 4047
Q 2738 3769 2738 3413
Q 2738 3175 2569 2928
Q 2400 2681 1866 2347
Q 2416 1922 2594 1678
Q 2831 1359 2831 1006
Q 2831 559 2490 242
Q 2150 -75 1597 -75
Q 994 -75 656 303
Q 388 606 388 966
Q 388 1247 577 1523
Q 766 1800 1228 2134
z
M 1719 2469
Q 2094 2806 2194 3001
Q 2294 3197 2294 3444
Q 2294 3772 2109 3958
Q 1925 4144 1606 4144
Q 1288 4144 1088 3959
Q 888 3775 888 3528
Q 888 3366 970 3203
Q 1053 3041 1206 2894
L 1719 2469
z
M 1375 2016
Q 1116 1797 991 1539
Q 866 1281 866 981
Q 866 578 1086 336
Q 1306 94 1647 94
Q 1984 94 2187 284
Q 2391 475 2391 747
Q 2391 972 2272 1150
Q 2050 1481 1375 2016
z
" transform="scale(0.015625)"/>
       </defs>
       <use xlink:href="#TimesNewRomanPSMT-18"/>
       <use xlink:href="#TimesNewRomanPSMT-1b" transform="translate(50 0)"/>
      </g>
     </g>
    </g>
    <g id="ytick_6">
     <g id="line2d_27">
      <path d="M 40.404844 33.181134
L 993.6 33.181134
" clip-path="url(#p1cd2eb9268)" style="fill: none; stroke: #b0b0b0; stroke-opacity: 0.3; stroke-width: 0.8; stroke-linecap: square"/>
     </g>
     <g id="line2d_28">
      <g>
       <use xlink:href="#m4373a4fd96" x="40.404844" y="33.181134" style="stroke: #000000; stroke-width: 0.8"/>
      </g>
     </g>
     <g id="text_15">
      <!-- 60 -->
      <g transform="translate(26.904844 36.647931) scale(0.1 -0.1)">
       <use xlink:href="#TimesNewRomanPSMT-19"/>
       <use xlink:href="#TimesNewRomanPSMT-13" transform="translate(50 0)"/>
      </g>
     </g>
    </g>
    <g id="text_16">
     <!-- Controller Output (%CO) -->
     <g transform="translate(20.315 291.879173) rotate(-90) scale(0.12 -0.12)">
      <defs>
       <path id="TimesNewRomanPS-BoldMT-26" d="M 4272 4334
L 4272 2866
L 4150 2866
Q 4013 3441 3638 3747
Q 3263 4053 2788 4053
Q 2391 4053 2059 3825
Q 1728 3597 1575 3228
Q 1378 2756 1378 2178
Q 1378 1609 1522 1142
Q 1666 675 1972 436
Q 2278 197 2766 197
Q 3166 197 3498 372
Q 3831 547 4200 975
L 4200 609
Q 3844 238 3458 70
Q 3072 -97 2556 -97
Q 1878 -97 1351 175
Q 825 447 539 956
Q 253 1466 253 2041
Q 253 2647 570 3190
Q 888 3734 1427 4034
Q 1966 4334 2572 4334
Q 3019 4334 3516 4141
Q 3803 4028 3881 4028
Q 3981 4028 4054 4101
Q 4128 4175 4150 4334
L 4272 4334
z
" transform="scale(0.015625)"/>
       <path id="TimesNewRomanPS-BoldMT-52" d="M 1594 3009
Q 1975 3009 2303 2812
Q 2631 2616 2801 2253
Q 2972 1891 2972 1459
Q 2972 838 2656 419
Q 2275 -88 1603 -88
Q 944 -88 587 375
Q 231 838 231 1447
Q 231 2075 595 2542
Q 959 3009 1594 3009
z
M 1606 2788
Q 1447 2788 1333 2667
Q 1219 2547 1183 2192
Q 1147 1838 1147 1206
Q 1147 872 1191 581
Q 1225 359 1337 243
Q 1450 128 1594 128
Q 1734 128 1828 206
Q 1950 313 1991 503
Q 2053 800 2053 1703
Q 2053 2234 1993 2432
Q 1934 2631 1819 2722
Q 1738 2788 1606 2788
z
" transform="scale(0.015625)"/>
       <path id="TimesNewRomanPS-BoldMT-51" d="M 1409 2922
L 1409 2544
Q 1634 2788 1840 2898
Q 2047 3009 2284 3009
Q 2569 3009 2756 2851
Q 2944 2694 3006 2459
Q 3056 2281 3056 1775
L 3056 638
Q 3056 300 3117 217
Q 3178 134 3372 113
L 3372 0
L 1894 0
L 1894 113
Q 2059 134 2131 250
Q 2181 328 2181 638
L 2181 1938
Q 2181 2297 2153 2390
Q 2125 2484 2058 2536
Q 1991 2588 1909 2588
Q 1641 2588 1409 2203
L 1409 638
Q 1409 309 1470 221
Q 1531 134 1697 113
L 1697 0
L 219 0
L 219 113
Q 403 131 481 231
Q 534 300 534 638
L 534 2288
Q 534 2619 473 2700
Q 413 2781 219 2806
L 219 2922
L 1409 2922
z
" transform="scale(0.015625)"/>
       <path id="TimesNewRomanPS-BoldMT-57" d="M 1375 3991
L 1375 2922
L 2069 2922
L 2069 2613
L 1375 2613
L 1375 809
Q 1375 556 1398 482
Q 1422 409 1481 364
Q 1541 319 1591 319
Q 1794 319 1975 628
L 2069 559
Q 1816 -41 1247 -41
Q 969 -41 776 114
Q 584 269 531 459
Q 500 566 500 1034
L 500 2613
L 119 2613
L 119 2722
Q 513 3000 789 3306
Q 1066 3613 1272 3991
L 1375 3991
z
" transform="scale(0.015625)"/>
       <path id="TimesNewRomanPS-BoldMT-55" d="M 1428 2922
L 1428 2259
Q 1719 2713 1937 2861
Q 2156 3009 2359 3009
Q 2534 3009 2639 2901
Q 2744 2794 2744 2597
Q 2744 2388 2642 2272
Q 2541 2156 2397 2156
Q 2231 2156 2109 2262
Q 1988 2369 1966 2381
Q 1934 2400 1894 2400
Q 1803 2400 1722 2331
Q 1594 2225 1528 2028
Q 1428 1725 1428 1359
L 1428 688
L 1431 513
Q 1431 334 1453 284
Q 1491 200 1564 161
Q 1638 122 1813 113
L 1813 0
L 234 0
L 234 113
Q 425 128 492 217
Q 559 306 559 688
L 559 2303
Q 559 2553 534 2622
Q 503 2709 443 2750
Q 384 2791 234 2806
L 234 2922
L 1428 2922
z
" transform="scale(0.015625)"/>
       <path id="TimesNewRomanPS-BoldMT-4f" d="M 1359 4238
L 1359 606
Q 1359 297 1431 211
Q 1503 125 1713 113
L 1713 0
L 134 0
L 134 113
Q 328 119 422 225
Q 484 297 484 606
L 484 3631
Q 484 3938 412 4023
Q 341 4109 134 4122
L 134 4238
L 1359 4238
z
" transform="scale(0.015625)"/>
       <path id="TimesNewRomanPS-BoldMT-32" d="M 2472 4297
Q 3484 4334 4117 3706
Q 4750 3078 4750 2134
Q 4750 1328 4278 716
Q 3653 -97 2513 -97
Q 1369 -97 744 678
Q 250 1291 250 2131
Q 250 3075 892 3704
Q 1534 4334 2472 4297
z
M 2509 4097
Q 1928 4097 1625 3503
Q 1378 3016 1378 2103
Q 1378 1019 1759 500
Q 2025 138 2503 138
Q 2825 138 3041 294
Q 3316 494 3469 933
Q 3622 1372 3622 2078
Q 3622 2919 3465 3336
Q 3309 3753 3067 3925
Q 2825 4097 2509 4097
z
" transform="scale(0.015625)"/>
       <path id="TimesNewRomanPS-BoldMT-58" d="M 3038 2922
L 3038 634
Q 3038 300 3100 217
Q 3163 134 3353 113
L 3353 0
L 2163 0
L 2163 391
Q 1953 141 1743 26
Q 1534 -88 1275 -88
Q 1028 -88 836 64
Q 644 216 578 419
Q 513 622 513 1128
L 513 2288
Q 513 2619 452 2700
Q 391 2781 197 2806
L 197 2922
L 1388 2922
L 1388 925
Q 1388 613 1417 522
Q 1447 431 1511 384
Q 1575 338 1659 338
Q 1772 338 1863 397
Q 1988 478 2163 725
L 2163 2288
Q 2163 2619 2102 2700
Q 2041 2781 1847 2806
L 1847 2922
L 3038 2922
z
" transform="scale(0.015625)"/>
       <path id="TimesNewRomanPS-BoldMT-53" d="M 1347 297
L 1347 -791
Q 1347 -1016 1383 -1097
Q 1419 -1178 1494 -1215
Q 1569 -1253 1788 -1253
L 1788 -1369
L 122 -1369
L 122 -1253
Q 316 -1247 409 -1144
Q 472 -1072 472 -772
L 472 2313
Q 472 2622 400 2708
Q 328 2794 122 2806
L 122 2922
L 1347 2922
L 1347 2538
Q 1500 2763 1659 2863
Q 1888 3009 2156 3009
Q 2478 3009 2742 2806
Q 3006 2603 3143 2245
Q 3281 1888 3281 1475
Q 3281 1031 3139 664
Q 2997 297 2726 104
Q 2456 -88 2125 -88
Q 1884 -88 1675 19
Q 1519 100 1347 297
z
M 1347 613
Q 1616 231 1922 231
Q 2091 231 2200 409
Q 2363 672 2363 1409
Q 2363 2166 2184 2444
Q 2066 2628 1866 2628
Q 1550 2628 1347 2172
L 1347 613
z
" transform="scale(0.015625)"/>
       <path id="TimesNewRomanPS-BoldMT-8" d="M 4916 4334
L 1906 -178
L 1488 -178
L 4494 4334
L 4916 4334
z
M 1494 4334
Q 1938 4334 2242 4020
Q 2547 3706 2547 3209
Q 2547 2700 2240 2383
Q 1934 2066 1481 2066
Q 1034 2066 739 2372
Q 444 2678 444 3178
Q 444 3694 747 4014
Q 1050 4334 1494 4334
z
M 1494 4169
Q 1425 4169 1381 4128
Q 1303 4056 1264 3879
Q 1225 3703 1225 3150
Q 1225 2709 1278 2469
Q 1309 2331 1384 2263
Q 1431 2222 1494 2222
Q 1563 2222 1603 2259
Q 1675 2325 1709 2472
Q 1763 2709 1763 3138
Q 1763 3663 1713 3897
Q 1678 4059 1600 4134
Q 1563 4169 1494 4169
z
M 4894 2097
Q 5347 2097 5651 1786
Q 5956 1475 5956 972
Q 5956 463 5647 144
Q 5338 -175 4900 -175
Q 4466 -175 4161 144
Q 3856 463 3856 963
Q 3856 1466 4153 1781
Q 4450 2097 4894 2097
z
M 4903 1934
Q 4841 1934 4797 1897
Q 4722 1828 4681 1658
Q 4641 1488 4641 1006
Q 4641 494 4688 269
Q 4722 109 4803 38
Q 4844 0 4909 0
Q 4969 0 5006 34
Q 5084 106 5122 269
Q 5175 497 5175 959
Q 5175 1447 5125 1672
Q 5088 1834 5013 1900
Q 4975 1934 4903 1934
z
" transform="scale(0.015625)"/>
      </defs>
      <use xlink:href="#TimesNewRomanPS-BoldMT-26"/>
      <use xlink:href="#TimesNewRomanPS-BoldMT-52" transform="translate(72.21875 0)"/>
      <use xlink:href="#TimesNewRomanPS-BoldMT-51" transform="translate(122.21875 0)"/>
      <use xlink:href="#TimesNewRomanPS-BoldMT-57" transform="translate(177.828125 0)"/>
      <use xlink:href="#TimesNewRomanPS-BoldMT-55" transform="translate(211.125 0)"/>
      <use xlink:href="#TimesNewRomanPS-BoldMT-52" transform="translate(253.703125 0)"/>
      <use xlink:href="#TimesNewRomanPS-BoldMT-4f" transform="translate(303.703125 0)"/>
      <use xlink:href="#TimesNewRomanPS-BoldMT-4f" transform="translate(331.484375 0)"/>
      <use xlink:href="#TimesNewRomanPS-BoldMT-48" transform="translate(359.265625 0)"/>
      <use xlink:href="#TimesNewRomanPS-BoldMT-55" transform="translate(403.65625 0)"/>
      <use xlink:href="#TimesNewRomanPS-BoldMT-3" transform="translate(446.234375 0)"/>
      <use xlink:href="#TimesNewRomanPS-BoldMT-32" transform="translate(471.234375 0)"/>
      <use xlink:href="#TimesNewRomanPS-BoldMT-58" transform="translate(549.015625 0)"/>
      <use xlink:href="#TimesNewRomanPS-BoldMT-57" transform="translate(604.625 0)"/>
      <use xlink:href="#TimesNewRomanPS-BoldMT-53" transform="translate(637.921875 0)"/>
      <use xlink:href="#TimesNewRomanPS-BoldMT-58" transform="translate(693.53125 0)"/>
      <use xlink:href="#TimesNewRomanPS-BoldMT-57" transform="translate(749.140625 0)"/>
      <use xlink:href="#TimesNewRomanPS-BoldMT-3" transform="translate(782.4375 0)"/>
      <use xlink:href="#TimesNewRomanPS-BoldMT-b" transform="translate(807.4375 0)"/>
      <use xlink:href="#TimesNewRomanPS-BoldMT-8" transform="translate(840.734375 0)"/>
      <use xlink:href="#TimesNewRomanPS-BoldMT-26" transform="translate(940.734375 0)"/>
      <use xlink:href="#TimesNewRomanPS-BoldMT-32" transform="translate(1012.953125 0)"/>
      <use xlink:href="#TimesNewRomanPS-BoldMT-c" transform="translate(1090.734375 0)"/>
     </g>
    </g>
   </g>
   <g id="line2d_29">
    <path d="M 83.731896 415.70757
L 228.035052 415.603669
L 228.155405 286.63667
L 229.719993 245.091036
L 231.164228 212.583121
L 232.608463 185.014746
L 234.052698 161.7635
L 235.37658 143.771351
L 236.820815 127.074427
L 238.024345 115.35406
L 239.46858 103.318658
L 241.033168 92.140664
L 242.477403 83.638448
L 244.162344 75.090924
L 245.24552 70.433554
L 246.810108 64.607579
L 248.374696 59.592793
L 249.939284 55.435164
L 251.624225 51.615059
L 253.188813 48.690296
L 254.873754 46.030765
L 256.317989 44.117237
L 258.00293 42.246281
L 259.567518 40.805768
L 261.372812 39.485031
L 263.418811 38.267064
L 265.464811 37.27491
L 267.87187 36.427637
L 271.241752 35.492755
L 274.972692 34.817241
L 278.823986 34.305618
L 284.480573 33.827466
L 291.942454 33.469679
L 302.292806 33.240874
L 314.568804 33.178302
L 373.060325 33.215785
L 439.615492 33.172975
L 950.272947 33.181212
L 950.272947 33.181212
" clip-path="url(#p1cd2eb9268)" style="fill: none; stroke: #0055cc; stroke-width: 2; stroke-linecap: square"/>
   </g>
   <g id="line2d_30">
    <path d="M 83.731896 415.64254
L 228.035052 415.654016
L 228.155405 278.900815
L 228.275758 278.900815
L 228.396111 270.489059
L 228.516464 270.489059
L 228.636817 264.001411
L 228.757169 264.001411
L 228.877522 257.712676
L 228.997875 257.712676
L 229.118228 251.592253
L 229.238581 251.592253
L 229.358934 245.636316
L 229.479287 245.636316
L 229.59964 239.837216
L 229.719993 239.837216
L 229.840346 234.198776
L 229.960699 234.198776
L 230.081052 228.720997
L 230.201405 228.720997
L 230.321757 223.388579
L 230.44211 223.388579
L 230.562463 218.197695
L 230.682816 218.197695
L 230.803169 213.144521
L 230.923522 213.144521
L 231.043875 208.232881
L 231.164228 208.232881
L 231.284581 203.462777
L 231.404934 203.462777
L 231.525287 198.815081
L 231.64564 198.815081
L 231.765993 194.297443
L 231.886345 194.297443
L 232.006698 189.894564
L 232.127051 189.894564
L 232.247404 185.610268
L 232.367757 185.610268
L 232.48811 181.459856
L 232.608463 181.459856
L 232.728816 177.416552
L 232.849169 177.416552
L 232.969522 173.480355
L 233.089875 173.480355
L 233.210228 169.643615
L 233.330581 169.643615
L 233.450933 165.913982
L 233.571286 165.913982
L 233.691639 162.299107
L 233.811992 162.299107
L 233.932345 158.779864
L 234.052698 158.779864
L 234.173051 155.352427
L 234.293404 155.352427
L 234.413757 152.012971
L 234.53411 152.012971
L 234.654463 148.761496
L 234.774816 148.761496
L 234.895169 145.617129
L 235.015521 145.617129
L 235.135874 142.553092
L 235.256227 142.553092
L 235.37658 139.569386
L 235.496933 139.569386
L 235.617286 136.65836
L 235.737639 136.65836
L 235.857992 133.827664
L 235.978345 133.827664
L 236.098698 131.096426
L 236.219051 131.096426
L 236.339404 128.430216
L 236.459757 128.430216
L 236.580109 125.829037
L 236.700462 125.829037
L 236.820815 123.296712
L 236.941168 123.296712
L 237.061521 120.829416
L 237.181874 120.829416
L 237.302227 118.453927
L 237.42258 118.453927
L 237.542933 116.135817
L 237.663286 116.135817
L 237.783639 113.87126
L 237.903992 113.87126
L 238.024345 111.664083
L 238.144698 111.664083
L 238.26505 109.514284
L 238.385403 109.514284
L 238.505756 107.452467
L 238.626109 107.452467
L 238.746462 105.432727
L 238.866815 105.432727
L 238.987168 103.466541
L 239.107521 103.466541
L 239.227874 101.542433
L 239.348227 101.542433
L 239.46858 99.668054
L 239.588933 99.668054
L 239.709286 97.87783
L 239.829638 97.87783
L 239.949991 96.122034
L 240.070344 96.122034
L 240.190697 94.408315
L 240.31105 94.408315
L 240.431403 92.736675
L 240.551756 92.736675
L 240.672109 91.103287
L 240.792462 91.103287
L 240.912815 89.546404
L 241.033168 89.546404
L 241.153521 88.023949
L 241.273874 88.023949
L 241.394226 86.532096
L 241.514579 86.532096
L 241.634932 85.07467
L 241.755285 85.07467
L 241.875638 83.647847
L 241.995991 83.647847
L 242.116344 82.297528
L 242.236697 82.297528
L 242.35705 80.973987
L 242.477403 80.973987
L 242.597756 79.677222
L 242.718109 79.677222
L 242.838462 78.407234
L 242.958814 78.407234
L 243.079167 77.167849
L 243.19952 77.167849
L 243.319873 75.993493
L 243.440226 75.993493
L 243.560579 74.842088
L 243.680932 74.842088
L 243.801285 73.713635
L 243.921638 73.713635
L 244.041991 72.608134
L 244.162344 72.608134
L 244.282697 71.525584
L 244.40305 71.525584
L 244.523402 70.511889
L 244.643755 70.511889
L 244.764108 69.509669
L 244.884461 69.509669
L 245.004814 68.526577
L 245.125167 68.526577
L 245.24552 67.56261
L 245.365873 67.56261
L 245.486226 66.621595
L 245.606579 66.621595
L 245.726932 65.741784
L 245.847285 65.741784
L 245.967638 64.873449
L 246.08799 64.873449
L 246.208343 64.01659
L 246.328696 64.01659
L 246.449049 63.178857
L 246.569402 63.178857
L 246.689755 62.356425
L 246.810108 62.356425
L 246.930461 61.595198
L 247.050814 61.595198
L 247.171167 60.84162
L 247.29152 60.84162
L 247.411873 60.095694
L 247.532226 60.095694
L 247.652578 59.365068
L 247.772931 59.365068
L 247.893284 58.645919
L 248.013637 58.645919
L 248.13399 57.987973
L 248.254343 57.987973
L 248.374696 57.333853
L 248.495049 57.333853
L 248.615402 56.687383
L 248.735755 56.687383
L 248.856108 56.048564
L 248.976461 56.048564
L 249.096814 55.421221
L 249.217166 55.421221
L 249.337519 54.851256
L 249.457872 54.851256
L 249.578225 54.285117
L 249.698578 54.285117
L 249.818931 53.722803
L 249.939284 53.722803
L 250.059637 53.164315
L 250.17999 53.164315
L 250.300343 52.617302
L 250.420696 52.617302
L 250.541049 52.127668
L 250.661402 52.127668
L 250.781754 51.634209
L 250.902107 51.634209
L 251.02246 51.144575
L 251.142813 51.144575
L 251.263166 50.658767
L 251.383519 50.658767
L 251.503872 50.180609
L 251.624225 50.180609
L 251.744578 49.756004
L 251.864931 49.756004
L 251.985284 49.3314
L 252.105637 49.3314
L 252.22599 48.90297
L 252.346343 48.90297
L 252.466695 48.482191
L 252.587048 48.482191
L 252.707401 48.065237
L 252.827754 48.065237
L 252.948107 47.698012
L 253.06846 47.698012
L 253.188813 47.326961
L 253.309166 47.326961
L 253.429519 46.959736
L 253.549872 46.959736
L 253.670225 46.588685
L 253.790578 46.588685
L 253.910931 46.22146
L 254.031283 46.22146
L 254.151636 45.907788
L 254.271989 45.907788
L 254.392342 45.590291
L 254.512695 45.590291
L 254.633048 45.265144
L 254.753401 45.265144
L 254.873754 44.943822
L 254.994107 44.943822
L 255.11446 44.6225
L 255.234813 44.6225
L 255.595871 44.075487
L 255.716224 44.075487
L 256.077283 43.513173
L 256.197636 43.513173
L 256.438342 43.233929
L 256.799401 42.763421
L 256.919754 42.763421
L 257.280812 42.273787
L 257.401165 42.273787
L 257.641871 42.025145
L 258.00293 41.623492
L 258.123283 41.623492
L 258.484342 41.195063
L 258.604695 41.195063
L 258.8454 40.977023
L 259.206459 40.628924
L 259.326812 40.628924
L 259.687871 40.257873
L 259.808224 40.257873
L 260.04893 40.06661
L 260.409988 39.768239
L 260.530341 39.768239
L 260.8914 39.443092
L 261.011753 39.443092
L 261.252459 39.27478
L 261.613518 39.022313
L 261.733871 39.022313
L 262.094929 38.735418
L 262.215282 38.735418
L 262.455988 38.586232
L 262.817047 38.372018
L 262.9374 38.372018
L 263.298459 38.123375
L 263.418811 38.123375
L 263.659517 37.989491
L 264.020576 37.809704
L 264.381635 37.702596
L 264.742694 37.47308
L 265.103752 37.4004
L 265.464811 37.224438
L 265.82587 37.124981
L 266.066576 37.021699
L 266.66834 36.81131
L 267.029399 36.723329
L 267.390458 36.585619
L 267.751517 36.524415
L 268.353281 36.291074
L 268.955046 36.203093
L 269.556811 35.996528
L 270.158575 35.927674
L 270.76034 35.744061
L 271.60281 35.636954
L 272.084222 35.522196
L 279.42575 34.699764
L 281.231044 34.596482
L 281.832809 34.550578
L 283.878809 34.451122
L 284.36022 34.439646
L 287.489396 34.328713
L 287.970808 34.324888
L 292.303513 34.233082
L 292.784925 34.233082
L 294.710572 34.202479
L 295.191983 34.202479
L 296.756571 34.194829
L 360.182562 34.301936
L 361.506444 34.317237
L 390.270793 34.424345
L 391.594675 34.439646
L 419.155495 34.546753
L 420.840436 34.558229
L 421.923612 34.562054
L 448.040197 34.665336
L 449.364079 34.680637
L 476.924898 34.78392
L 478.24878 34.799221
L 507.013129 34.906328
L 508.818423 34.910153
L 534.694302 35.013435
L 536.018184 35.028737
L 565.986062 35.135844
L 567.671003 35.14732
L 568.754179 35.151145
L 599.684881 35.258252
L 601.490174 35.262078
L 630.976641 35.369185
L 632.781935 35.37301
L 663.47193 35.480118
L 665.277224 35.483943
L 697.170749 35.59105
L 698.85569 35.598701
L 700.540631 35.5834
L 701.262748 35.606351
L 702.947689 35.59105
L 703.669807 35.614002
L 705.354748 35.598701
L 706.076865 35.621653
L 707.761806 35.606351
L 708.483924 35.629303
L 710.168865 35.614002
L 710.890982 35.636954
L 712.575923 35.621653
L 713.298041 35.644604
L 714.982981 35.629303
L 715.705099 35.652255
L 717.39004 35.636954
L 718.112157 35.659905
L 719.797098 35.644604
L 720.759922 35.659905
L 721.843098 35.66373
L 757.347211 35.770838
L 759.152504 35.774663
L 797.063675 35.88177
L 798.868969 35.885596
L 839.187199 35.992703
L 840.992493 35.996528
L 886.124839 36.107461
L 889.374368 36.099811
L 931.85895 36.206918
L 933.664244 36.210743
L 950.272947 36.248996
L 950.272947 36.248996
" clip-path="url(#p1cd2eb9268)" style="fill: none; stroke: #d65a00; stroke-width: 2; stroke-linecap: square"/>
   </g>
   <g id="patch_3">
    <path d="M 40.404844 434.834597
L 40.404844 14.04
" style="fill: none; stroke: #1a1a1a; stroke-linejoin: miter; stroke-linecap: square"/>
   </g>
   <g id="patch_4">
    <path d="M 993.6 434.834597
L 993.6 14.04
" style="fill: none; stroke: #1a1a1a; stroke-linejoin: miter; stroke-linecap: square"/>
   </g>
   <g id="patch_5">
    <path d="M 40.404844 434.834597
L 993.6 434.834597
" style="fill: none; stroke: #1a1a1a; stroke-linejoin: miter; stroke-linecap: square"/>
   </g>
   <g id="patch_6">
    <path d="M 40.404844 14.04
L 993.6 14.04
" style="fill: none; stroke: #1a1a1a; stroke-linejoin: miter; stroke-linecap: square"/>
   </g>
   <g id="legend_1">
    <g id="patch_7">
     <path d="M 446.439141 494.864314
L 587.565703 494.864314
Q 589.565703 494.864314 589.565703 492.864314
L 589.565703 479.706111
Q 589.565703 477.706111 587.565703 477.706111
L 446.439141 477.706111
Q 444.439141 477.706111 444.439141 479.706111
L 444.439141 492.864314
Q 444.439141 494.864314 446.439141 494.864314
z
" style="fill: #ffffff; opacity: 0.95; stroke: #808080; stroke-linejoin: miter"/>
    </g>
    <g id="line2d_31">
     <path d="M 448.439141 485.206111
L 458.439141 485.206111
L 468.439141 485.206111
" style="fill: none; stroke: #0055cc; stroke-width: 2; stroke-linecap: square"/>
    </g>
    <g id="text_17">
     <!-- Python -->
     <g transform="translate(476.439141 488.706111) scale(0.1 -0.1)">
      <defs>
       <path id="TimesNewRomanPSMT-33" d="M 1313 1984
L 1313 750
Q 1313 350 1400 253
Q 1519 116 1759 116
L 1922 116
L 1922 0
L 106 0
L 106 116
L 266 116
Q 534 116 650 291
Q 713 388 713 750
L 713 3488
Q 713 3888 628 3984
Q 506 4122 266 4122
L 106 4122
L 106 4238
L 1659 4238
Q 2228 4238 2556 4120
Q 2884 4003 3109 3725
Q 3334 3447 3334 3066
Q 3334 2547 2992 2222
Q 2650 1897 2025 1897
Q 1872 1897 1694 1919
Q 1516 1941 1313 1984
z
M 1313 2163
Q 1478 2131 1606 2115
Q 1734 2100 1825 2100
Q 2150 2100 2386 2351
Q 2622 2603 2622 3003
Q 2622 3278 2509 3514
Q 2397 3750 2190 3867
Q 1984 3984 1722 3984
Q 1563 3984 1313 3925
L 1313 2163
z
" transform="scale(0.015625)"/>
       <path id="TimesNewRomanPSMT-5c" d="M 38 2863
L 1372 2863
L 1372 2747
L 1306 2747
Q 1166 2747 1095 2686
Q 1025 2625 1025 2534
Q 1025 2413 1128 2197
L 1825 753
L 2466 2334
Q 2519 2463 2519 2588
Q 2519 2644 2497 2672
Q 2472 2706 2419 2726
Q 2366 2747 2231 2747
L 2231 2863
L 3163 2863
L 3163 2747
Q 3047 2734 2984 2696
Q 2922 2659 2847 2556
Q 2819 2513 2741 2316
L 1575 -541
Q 1406 -956 1132 -1168
Q 859 -1381 606 -1381
Q 422 -1381 303 -1275
Q 184 -1169 184 -1031
Q 184 -900 270 -820
Q 356 -741 506 -741
Q 609 -741 788 -809
Q 913 -856 944 -856
Q 1038 -856 1148 -759
Q 1259 -663 1372 -384
L 1575 113
L 547 2272
Q 500 2369 397 2513
Q 319 2622 269 2659
Q 197 2709 38 2747
L 38 2863
z
" transform="scale(0.015625)"/>
       <path id="TimesNewRomanPSMT-57" d="M 1031 3803
L 1031 2863
L 1700 2863
L 1700 2644
L 1031 2644
L 1031 788
Q 1031 509 1111 412
Q 1191 316 1316 316
Q 1419 316 1516 380
Q 1613 444 1666 569
L 1788 569
Q 1678 263 1478 108
Q 1278 -47 1066 -47
Q 922 -47 784 33
Q 647 113 581 261
Q 516 409 516 719
L 516 2644
L 63 2644
L 63 2747
Q 234 2816 414 2980
Q 594 3144 734 3369
Q 806 3488 934 3803
L 1031 3803
z
" transform="scale(0.015625)"/>
       <path id="TimesNewRomanPSMT-4b" d="M 1041 4444
L 1041 2350
Q 1388 2731 1591 2839
Q 1794 2947 1997 2947
Q 2241 2947 2416 2812
Q 2591 2678 2675 2391
Q 2734 2191 2734 1659
L 2734 647
Q 2734 375 2778 275
Q 2809 200 2884 156
Q 2959 113 3159 113
L 3159 0
L 1753 0
L 1753 113
L 1819 113
Q 2019 113 2097 173
Q 2175 234 2206 353
Q 2216 403 2216 647
L 2216 1659
Q 2216 2128 2167 2275
Q 2119 2422 2012 2495
Q 1906 2569 1756 2569
Q 1603 2569 1437 2487
Q 1272 2406 1041 2159
L 1041 647
Q 1041 353 1073 281
Q 1106 209 1195 161
Q 1284 113 1503 113
L 1503 0
L 84 0
L 84 113
Q 275 113 384 172
Q 447 203 484 290
Q 522 378 522 647
L 522 3238
Q 522 3728 498 3840
Q 475 3953 426 3993
Q 378 4034 297 4034
Q 231 4034 84 3984
L 41 4094
L 897 4444
L 1041 4444
z
" transform="scale(0.015625)"/>
       <path id="TimesNewRomanPSMT-52" d="M 1600 2947
Q 2250 2947 2644 2453
Q 2978 2031 2978 1484
Q 2978 1100 2793 706
Q 2609 313 2286 112
Q 1963 -88 1566 -88
Q 919 -88 538 428
Q 216 863 216 1403
Q 216 1797 411 2186
Q 606 2575 925 2761
Q 1244 2947 1600 2947
z
M 1503 2744
Q 1338 2744 1170 2645
Q 1003 2547 900 2300
Q 797 2053 797 1666
Q 797 1041 1045 587
Q 1294 134 1700 134
Q 2003 134 2200 384
Q 2397 634 2397 1244
Q 2397 2006 2069 2444
Q 1847 2744 1503 2744
z
" transform="scale(0.015625)"/>
       <path id="TimesNewRomanPSMT-51" d="M 1034 2341
Q 1538 2947 1994 2947
Q 2228 2947 2397 2830
Q 2566 2713 2666 2444
Q 2734 2256 2734 1869
L 2734 647
Q 2734 375 2778 278
Q 2813 200 2889 156
Q 2966 113 3172 113
L 3172 0
L 1756 0
L 1756 113
L 1816 113
Q 2016 113 2095 173
Q 2175 234 2206 353
Q 2219 400 2219 647
L 2219 1819
Q 2219 2209 2117 2386
Q 2016 2563 1775 2563
Q 1403 2563 1034 2156
L 1034 647
Q 1034 356 1069 288
Q 1113 197 1189 155
Q 1266 113 1500 113
L 1500 0
L 84 0
L 84 113
L 147 113
Q 366 113 442 223
Q 519 334 519 647
L 519 1709
Q 519 2225 495 2337
Q 472 2450 423 2490
Q 375 2531 294 2531
Q 206 2531 84 2484
L 38 2597
L 900 2947
L 1034 2947
L 1034 2341
z
" transform="scale(0.015625)"/>
      </defs>
      <use xlink:href="#TimesNewRomanPSMT-33"/>
      <use xlink:href="#TimesNewRomanPSMT-5c" transform="translate(55.609375 0)"/>
      <use xlink:href="#TimesNewRomanPSMT-57" transform="translate(105.609375 0)"/>
      <use xlink:href="#TimesNewRomanPSMT-4b" transform="translate(133.390625 0)"/>
      <use xlink:href="#TimesNewRomanPSMT-52" transform="translate(183.390625 0)"/>
      <use xlink:href="#TimesNewRomanPSMT-51" transform="translate(233.390625 0)"/>
     </g>
    </g>
    <g id="line2d_32">
     <path d="M 524.778203 485.206111
L 534.778203 485.206111
L 544.778203 485.206111
" style="fill: none; stroke: #d65a00; stroke-width: 2; stroke-linecap: square"/>
    </g>
    <g id="text_18">
     <!-- HYSYS -->
     <g transform="translate(552.778203 488.706111) scale(0.1 -0.1)">
      <defs>
       <path id="TimesNewRomanPSMT-2b" d="M 1316 2272
L 3284 2272
L 3284 3484
Q 3284 3809 3244 3913
Q 3213 3991 3113 4047
Q 2978 4122 2828 4122
L 2678 4122
L 2678 4238
L 4491 4238
L 4491 4122
L 4341 4122
Q 4191 4122 4056 4050
Q 3956 4000 3920 3898
Q 3884 3797 3884 3484
L 3884 750
Q 3884 428 3925 325
Q 3956 247 4053 191
Q 4191 116 4341 116
L 4491 116
L 4491 0
L 2678 0
L 2678 116
L 2828 116
Q 3088 116 3206 269
Q 3284 369 3284 750
L 3284 2041
L 1316 2041
L 1316 750
Q 1316 428 1356 325
Q 1388 247 1488 191
Q 1622 116 1772 116
L 1925 116
L 1925 0
L 109 0
L 109 116
L 259 116
Q 522 116 641 269
Q 716 369 716 750
L 716 3484
Q 716 3809 675 3913
Q 644 3991 547 4047
Q 409 4122 259 4122
L 109 4122
L 109 4238
L 1925 4238
L 1925 4122
L 1772 4122
Q 1622 4122 1488 4050
Q 1391 4000 1353 3898
Q 1316 3797 1316 3484
L 1316 2272
z
" transform="scale(0.015625)"/>
       <path id="TimesNewRomanPSMT-3c" d="M 3050 4238
L 4528 4238
L 4528 4122
L 4447 4122
Q 4366 4122 4209 4050
Q 4053 3978 3925 3843
Q 3797 3709 3609 3406
L 2588 1797
L 2588 734
Q 2588 344 2675 247
Q 2794 116 3050 116
L 3188 116
L 3188 0
L 1388 0
L 1388 116
L 1538 116
Q 1806 116 1919 278
Q 1988 378 1988 734
L 1988 1738
L 825 3513
Q 619 3825 545 3903
Q 472 3981 241 4091
Q 178 4122 59 4122
L 59 4238
L 1872 4238
L 1872 4122
L 1778 4122
Q 1631 4122 1507 4053
Q 1384 3984 1384 3847
Q 1384 3734 1575 3441
L 2459 2075
L 3291 3381
Q 3478 3675 3478 3819
Q 3478 3906 3433 3975
Q 3388 4044 3303 4083
Q 3219 4122 3050 4122
L 3050 4238
z
" transform="scale(0.015625)"/>
       <path id="TimesNewRomanPSMT-36" d="M 2934 4334
L 2934 2869
L 2819 2869
Q 2763 3291 2617 3541
Q 2472 3791 2203 3937
Q 1934 4084 1647 4084
Q 1322 4084 1109 3886
Q 897 3688 897 3434
Q 897 3241 1031 3081
Q 1225 2847 1953 2456
Q 2547 2138 2764 1967
Q 2981 1797 3098 1565
Q 3216 1334 3216 1081
Q 3216 600 2842 251
Q 2469 -97 1881 -97
Q 1697 -97 1534 -69
Q 1438 -53 1133 45
Q 828 144 747 144
Q 669 144 623 97
Q 578 50 556 -97
L 441 -97
L 441 1356
L 556 1356
Q 638 900 775 673
Q 913 447 1195 297
Q 1478 147 1816 147
Q 2206 147 2432 353
Q 2659 559 2659 841
Q 2659 997 2573 1156
Q 2488 1316 2306 1453
Q 2184 1547 1640 1851
Q 1097 2156 867 2337
Q 638 2519 519 2737
Q 400 2956 400 3219
Q 400 3675 750 4004
Q 1100 4334 1641 4334
Q 1978 4334 2356 4169
Q 2531 4091 2603 4091
Q 2684 4091 2736 4139
Q 2788 4188 2819 4334
L 2934 4334
z
" transform="scale(0.015625)"/>
      </defs>
      <use xlink:href="#TimesNewRomanPSMT-2b"/>
      <use xlink:href="#TimesNewRomanPSMT-3c" transform="translate(72.21875 0)"/>
      <use xlink:href="#TimesNewRomanPSMT-36" transform="translate(144.4375 0)"/>
      <use xlink:href="#TimesNewRomanPSMT-3c" transform="translate(200.046875 0)"/>
      <use xlink:href="#TimesNewRomanPSMT-36" transform="translate(272.265625 0)"/>
     </g>
    </g>
   </g>
  </g>
  <g id="patch_8">
   <path d="M 3.6 502.56
L 1001.52 502.56
L 1001.52 3.6
L 3.6 3.6
L 3.6 502.56
z
" style="fill: none; stroke: #1a1a1a; stroke-width: 1.2; stroke-linejoin: miter"/>
  </g>
 </g>
 <defs>
  <clipPath id="p1cd2eb9268">
   <rect x="40.404844" y="14.04" width="953.195156" height="420.794597"/>
  </clipPath>
 </defs>
</svg>
