<?xml version="1.0" encoding="utf-8" standalone="no"?>
<!DOCTYPE svg PUBLIC "-//W3C//DTD SVG 1.1//EN"
  "http://www.w3.org/Graphics/SVG/1.1/DTD/svg11.dtd">
<svg xmlns:xlink="http://www.w3.org/1999/xlink" width="1005.12pt" height="506.16pt" viewBox="0 0 1005.12 506.16" xmlns="http://www.w3.org/2000/svg" version="1.1">
 <metadata>
  <rdf:RDF xmlns:dc="http://purl.org/dc/elements/1.1/" xmlns:cc="http://creativecommons.org/ns#" xmlns:rdf="http://www.w3.org/1999/02/22-rdf-syntax-ns#">
   <cc:Work>
    <dc:type rdf:resource="http://purl.org/dc/dcmitype/StillImage"/>
    <dc:date>2026-07-20T17:38:37.772446</dc:date>
    <dc:format>image/svg+xml</dc:format>
    <dc:creator>
     <cc:Agent>
      <dc:title>Matplotlib v3.11.1, https://matplotlib.org/</dc:title>
     </cc:Agent>
    </dc:creator>
   </cc:Work>
  </rdf:RDF>
 </metadata>
 <defs>
  <style type="text/css">*{stroke-linejoin: round; stroke-linecap: butt}</style>
 </defs>
 <g id="figure_1">
  <g id="patch_1">
   <path d="M 0 506.16
L 1005.12 506.16
L 1005.12 0
L 0 0
z
" style="fill: #ffffff"/>
  </g>
  <g id="axes_1">
   <g id="patch_2">
    <path d="M 45.684844 434.834597
L 993.6 434.834597
L 993.6 14.04
L 45.684844 14.04
z
" style="fill: #ffffff"/>
   </g>
   <g id="matplotlib.axis_1">
    <g id="xtick_1">
     <g id="line2d_1">
      <path d="M 88.771896 434.834597
L 88.771896 14.04
" clip-path="url(#p90a753036c)" style="fill: none; stroke: #b0b0b0; stroke-opacity: 0.3; stroke-width: 0.8; stroke-linecap: square"/>
     </g>
     <g id="line2d_2">
      <defs>
       <path id="m4d5bc2d595" d="M 0 0
L 0 -3.5
" style="stroke: #000000; stroke-width: 0.8"/>
      </defs>
      <g>
       <use xlink:href="#m4d5bc2d595" x="88.771896" y="434.834597" style="stroke: #000000; stroke-width: 0.8"/>
      </g>
     </g>
     <g id="text_1">
      <!-- 0 -->
      <g transform="translate(86.271896 445.268191) scale(0.1 -0.1)">
       <defs>
        <path id="TimesNewRomanPSMT-13" d="M 231 2094
Q 231 2819 450 3342
Q 669 3866 1031 4122
Q 1313 4325 1613 4325
Q 2100 4325 2488 3828
Q 2972 3213 2972 2159
Q 2972 1422 2759 906
Q 2547 391 2217 158
Q 1888 -75 1581 -75
Q 975 -75 572 641
Q 231 1244 231 2094
z
M 844 2016
Q 844 1141 1059 588
Q 1238 122 1591 122
Q 1759 122 1940 273
Q 2122 425 2216 781
Q 2359 1319 2359 2297
Q 2359 3022 2209 3506
Q 2097 3866 1919 4016
Q 1791 4119 1609 4119
Q 1397 4119 1231 3928
Q 1006 3669 925 3112
Q 844 2556 844 2016
z
" transform="scale(0.015625)"/>
       </defs>
       <use xlink:href="#TimesNewRomanPSMT-13"/>
      </g>
     </g>
    </g>
    <g id="xtick_2">
     <g id="line2d_3">
      <path d="M 196.489528 434.834597
L 196.489528 14.04
" clip-path="url(#p90a753036c)" style="fill: none; stroke: #b0b0b0; stroke-opacity: 0.3; stroke-width: 0.8; stroke-linecap: square"/>
     </g>
     <g id="line2d_4">
      <g>
       <use xlink:href="#m4d5bc2d595" x="196.489528" y="434.834597" style="stroke: #000000; stroke-width: 0.8"/>
      </g>
     </g>
     <g id="text_2">
      <!-- 5000 -->
      <g transform="translate(186.489528 445.268191) scale(0.1 -0.1)">
       <defs>
        <path id="TimesNewRomanPSMT-18" d="M 2778 4238
L 2534 3706
L 1259 3706
L 981 3138
Q 1809 3016 2294 2522
Q 2709 2097 2709 1522
Q 2709 1188 2573 903
Q 2438 619 2231 419
Q 2025 219 1772 97
Q 1413 -75 1034 -75
Q 653 -75 479 54
Q 306 184 306 341
Q 306 428 378 495
Q 450 563 559 563
Q 641 563 702 538
Q 763 513 909 409
Q 1144 247 1384 247
Q 1750 247 2026 523
Q 2303 800 2303 1197
Q 2303 1581 2056 1914
Q 1809 2247 1375 2428
Q 1034 2569 447 2591
L 1259 4238
L 2778 4238
z
" transform="scale(0.015625)"/>
       </defs>
       <use xlink:href="#TimesNewRomanPSMT-18"/>
       <use xlink:href="#TimesNewRomanPSMT-13" transform="translate(50 0)"/>
       <use xlink:href="#TimesNewRomanPSMT-13" transform="translate(100 0)"/>
       <use xlink:href="#TimesNewRomanPSMT-13" transform="translate(150 0)"/>
      </g>
     </g>
    </g>
    <g id="xtick_3">
     <g id="line2d_5">
      <path d="M 304.207159 434.834597
L 304.207159 14.04
" clip-path="url(#p90a753036c)" style="fill: none; stroke: #b0b0b0; stroke-opacity: 0.3; stroke-width: 0.8; stroke-linecap: square"/>
     </g>
     <g id="line2d_6">
      <g>
       <use xlink:href="#m4d5bc2d595" x="304.207159" y="434.834597" style="stroke: #000000; stroke-width: 0.8"/>
      </g>
     </g>
     <g id="text_3">
      <!-- 10000 -->
      <g transform="translate(291.707159 445.268191) scale(0.1 -0.1)">
       <defs>
        <path id="TimesNewRomanPSMT-14" d="M 750 3822
L 1781 4325
L 1884 4325
L 1884 747
Q 1884 391 1914 303
Q 1944 216 2037 169
Q 2131 122 2419 116
L 2419 0
L 825 0
L 825 116
Q 1125 122 1212 167
Q 1300 213 1334 289
Q 1369 366 1369 747
L 1369 3034
Q 1369 3497 1338 3628
Q 1316 3728 1258 3775
Q 1200 3822 1119 3822
Q 1003 3822 797 3725
L 750 3822
z
" transform="scale(0.015625)"/>
       </defs>
       <use xlink:href="#TimesNewRomanPSMT-14"/>
       <use xlink:href="#TimesNewRomanPSMT-13" transform="translate(50 0)"/>
       <use xlink:href="#TimesNewRomanPSMT-13" transform="translate(100 0)"/>
       <use xlink:href="#TimesNewRomanPSMT-13" transform="translate(150 0)"/>
       <use xlink:href="#TimesNewRomanPSMT-13" transform="translate(200 0)"/>
      </g>
     </g>
    </g>
    <g id="xtick_4">
     <g id="line2d_7">
      <path d="M 411.92479 434.834597
L 411.92479 14.04
" clip-path="url(#p90a753036c)" style="fill: none; stroke: #b0b0b0; stroke-opacity: 0.3; stroke-width: 0.8; stroke-linecap: square"/>
     </g>
     <g id="line2d_8">
      <g>
       <use xlink:href="#m4d5bc2d595" x="411.92479" y="434.834597" style="stroke: #000000; stroke-width: 0.8"/>
      </g>
     </g>
     <g id="text_4">
      <!-- 15000 -->
      <g transform="translate(399.42479 445.268191) scale(0.1 -0.1)">
       <use xlink:href="#TimesNewRomanPSMT-14"/>
       <use xlink:href="#TimesNewRomanPSMT-18" transform="translate(50 0)"/>
       <use xlink:href="#TimesNewRomanPSMT-13" transform="translate(100 0)"/>
       <use xlink:href="#TimesNewRomanPSMT-13" transform="translate(150 0)"/>
       <use xlink:href="#TimesNewRomanPSMT-13" transform="translate(200 0)"/>
      </g>
     </g>
    </g>
    <g id="xtick_5">
     <g id="line2d_9">
      <path d="M 519.642422 434.834597
L 519.642422 14.04
" clip-path="url(#p90a753036c)" style="fill: none; stroke: #b0b0b0; stroke-opacity: 0.3; stroke-width: 0.8; stroke-linecap: square"/>
     </g>
     <g id="line2d_10">
      <g>
       <use xlink:href="#m4d5bc2d595" x="519.642422" y="434.834597" style="stroke: #000000; stroke-width: 0.8"/>
      </g>
     </g>
     <g id="text_5">
      <!-- 20000 -->
      <g transform="translate(507.142422 445.268191) scale(0.1 -0.1)">
       <defs>
        <path id="TimesNewRomanPSMT-15" d="M 2934 816
L 2638 0
L 138 0
L 138 116
Q 1241 1122 1691 1759
Q 2141 2397 2141 2925
Q 2141 3328 1894 3587
Q 1647 3847 1303 3847
Q 991 3847 742 3664
Q 494 3481 375 3128
L 259 3128
Q 338 3706 661 4015
Q 984 4325 1469 4325
Q 1984 4325 2329 3994
Q 2675 3663 2675 3213
Q 2675 2891 2525 2569
Q 2294 2063 1775 1497
Q 997 647 803 472
L 1909 472
Q 2247 472 2383 497
Q 2519 522 2628 598
Q 2738 675 2819 816
L 2934 816
z
" transform="scale(0.015625)"/>
       </defs>
       <use xlink:href="#TimesNewRomanPSMT-15"/>
       <use xlink:href="#TimesNewRomanPSMT-13" transform="translate(50 0)"/>
       <use xlink:href="#TimesNewRomanPSMT-13" transform="translate(100 0)"/>
       <use xlink:href="#TimesNewRomanPSMT-13" transform="translate(150 0)"/>
       <use xlink:href="#TimesNewRomanPSMT-13" transform="translate(200 0)"/>
      </g>
     </g>
    </g>
    <g id="xtick_6">
     <g id="line2d_11">
      <path d="M 627.360053 434.834597
L 627.360053 14.04
" clip-path="url(#p90a753036c)" style="fill: none; stroke: #b0b0b0; stroke-opacity: 0.3; stroke-width: 0.8; stroke-linecap: square"/>
     </g>
     <g id="line2d_12">
      <g>
       <use xlink:href="#m4d5bc2d595" x="627.360053" y="434.834597" style="stroke: #000000; stroke-width: 0.8"/>
      </g>
     </g>
     <g id="text_6">
      <!-- 25000 -->
      <g transform="translate(614.860053 445.268191) scale(0.1 -0.1)">
       <use xlink:href="#TimesNewRomanPSMT-15"/>
       <use xlink:href="#TimesNewRomanPSMT-18" transform="translate(50 0)"/>
       <use xlink:href="#TimesNewRomanPSMT-13" transform="translate(100 0)"/>
       <use xlink:href="#TimesNewRomanPSMT-13" transform="translate(150 0)"/>
       <use xlink:href="#TimesNewRomanPSMT-13" transform="translate(200 0)"/>
      </g>
     </g>
    </g>
    <g id="xtick_7">
     <g id="line2d_13">
      <path d="M 735.077685 434.834597
L 735.077685 14.04
" clip-path="url(#p90a753036c)" style="fill: none; stroke: #b0b0b0; stroke-opacity: 0.3; stroke-width: 0.8; stroke-linecap: square"/>
     </g>
     <g id="line2d_14">
      <g>
       <use xlink:href="#m4d5bc2d595" x="735.077685" y="434.834597" style="stroke: #000000; stroke-width: 0.8"/>
      </g>
     </g>
     <g id="text_7">
      <!-- 30000 -->
      <g transform="translate(722.577685 445.268191) scale(0.1 -0.1)">
       <defs>
        <path id="TimesNewRomanPSMT-16" d="M 325 3431
Q 506 3859 782 4092
Q 1059 4325 1472 4325
Q 1981 4325 2253 3994
Q 2459 3747 2459 3466
Q 2459 3003 1878 2509
Q 2269 2356 2469 2072
Q 2669 1788 2669 1403
Q 2669 853 2319 450
Q 1863 -75 997 -75
Q 569 -75 414 31
Q 259 138 259 259
Q 259 350 332 419
Q 406 488 509 488
Q 588 488 669 463
Q 722 447 909 348
Q 1097 250 1169 231
Q 1284 197 1416 197
Q 1734 197 1970 444
Q 2206 691 2206 1028
Q 2206 1275 2097 1509
Q 2016 1684 1919 1775
Q 1784 1900 1550 2001
Q 1316 2103 1072 2103
L 972 2103
L 972 2197
Q 1219 2228 1467 2375
Q 1716 2522 1828 2728
Q 1941 2934 1941 3181
Q 1941 3503 1739 3701
Q 1538 3900 1238 3900
Q 753 3900 428 3381
L 325 3431
z
" transform="scale(0.015625)"/>
       </defs>
       <use xlink:href="#TimesNewRomanPSMT-16"/>
       <use xlink:href="#TimesNewRomanPSMT-13" transform="translate(50 0)"/>
       <use xlink:href="#TimesNewRomanPSMT-13" transform="translate(100 0)"/>
       <use xlink:href="#TimesNewRomanPSMT-13" transform="translate(150 0)"/>
       <use xlink:href="#TimesNewRomanPSMT-13" transform="translate(200 0)"/>
      </g>
     </g>
    </g>
    <g id="xtick_8">
     <g id="line2d_15">
      <path d="M 842.795316 434.834597
L 842.795316 14.04
" clip-path="url(#p90a753036c)" style="fill: none; stroke: #b0b0b0; stroke-opacity: 0.3; stroke-width: 0.8; stroke-linecap: square"/>
     </g>
     <g id="line2d_16">
      <g>
       <use xlink:href="#m4d5bc2d595" x="842.795316" y="434.834597" style="stroke: #000000; stroke-width: 0.8"/>
      </g>
     </g>
     <g id="text_8">
      <!-- 35000 -->
      <g transform="translate(830.295316 445.268191) scale(0.1 -0.1)">
       <use xlink:href="#TimesNewRomanPSMT-16"/>
       <use xlink:href="#TimesNewRomanPSMT-18" transform="translate(50 0)"/>
       <use xlink:href="#TimesNewRomanPSMT-13" transform="translate(100 0)"/>
       <use xlink:href="#TimesNewRomanPSMT-13" transform="translate(150 0)"/>
       <use xlink:href="#TimesNewRomanPSMT-13" transform="translate(200 0)"/>
      </g>
     </g>
    </g>
    <g id="xtick_9">
     <g id="line2d_17">
      <path d="M 950.512947 434.834597
L 950.512947 14.04
" clip-path="url(#p90a753036c)" style="fill: none; stroke: #b0b0b0; stroke-opacity: 0.3; stroke-width: 0.8; stroke-linecap: square"/>
     </g>
     <g id="line2d_18">
      <g>
       <use xlink:href="#m4d5bc2d595" x="950.512947" y="434.834597" style="stroke: #000000; stroke-width: 0.8"/>
      </g>
     </g>
     <g id="text_9">
      <!-- 40000 -->
      <g transform="translate(938.012947 445.268191) scale(0.1 -0.1)">
       <defs>
        <path id="TimesNewRomanPSMT-17" d="M 2978 1563
L 2978 1119
L 2409 1119
L 2409 0
L 1894 0
L 1894 1119
L 100 1119
L 100 1519
L 2066 4325
L 2409 4325
L 2409 1563
L 2978 1563
z
M 1894 1563
L 1894 3666
L 406 1563
L 1894 1563
z
" transform="scale(0.015625)"/>
       </defs>
       <use xlink:href="#TimesNewRomanPSMT-17"/>
       <use xlink:href="#TimesNewRomanPSMT-13" transform="translate(50 0)"/>
       <use xlink:href="#TimesNewRomanPSMT-13" transform="translate(100 0)"/>
       <use xlink:href="#TimesNewRomanPSMT-13" transform="translate(150 0)"/>
       <use xlink:href="#TimesNewRomanPSMT-13" transform="translate(200 0)"/>
      </g>
     </g>
    </g>
    <g id="text_10">
     <!-- Time (s) -->
     <g transform="translate(498.589922 463.560144) scale(0.12 -0.12)">
      <defs>
       <path id="TimesNewRomanPS-BoldMT-37" d="M 4038 4238
L 4038 3091
L 3925 3091
Q 3825 3488 3703 3661
Q 3581 3834 3369 3938
Q 3250 3994 2953 3994
L 2638 3994
L 2638 725
Q 2638 400 2673 319
Q 2709 238 2814 177
Q 2919 116 3100 116
L 3241 116
L 3241 0
L 1022 0
L 1022 116
L 1163 116
Q 1347 116 1459 181
Q 1541 225 1588 331
Q 1622 406 1622 725
L 1622 3994
L 1316 3994
Q 888 3994 694 3813
Q 422 3559 350 3091
L 231 3091
L 231 4238
L 4038 4238
z
" transform="scale(0.015625)"/>
       <path id="TimesNewRomanPS-BoldMT-4c" d="M 919 4338
Q 1122 4338 1262 4195
Q 1403 4053 1403 3853
Q 1403 3653 1261 3512
Q 1119 3372 919 3372
Q 719 3372 578 3512
Q 438 3653 438 3853
Q 438 4053 578 4195
Q 719 4338 919 4338
z
M 1356 2922
L 1356 606
Q 1356 297 1428 211
Q 1500 125 1709 113
L 1709 0
L 131 0
L 131 113
Q 325 119 419 225
Q 481 297 481 606
L 481 2313
Q 481 2622 409 2708
Q 338 2794 131 2806
L 131 2922
L 1356 2922
z
" transform="scale(0.015625)"/>
       <path id="TimesNewRomanPS-BoldMT-50" d="M 1428 2922
L 1428 2538
Q 1669 2800 1873 2904
Q 2078 3009 2322 3009
Q 2603 3009 2793 2878
Q 2984 2747 3088 2478
Q 3338 2759 3567 2884
Q 3797 3009 4047 3009
Q 4350 3009 4529 2870
Q 4709 2731 4779 2517
Q 4850 2303 4850 1834
L 4850 638
Q 4850 300 4911 219
Q 4972 138 5166 113
L 5166 0
L 3656 0
L 3656 113
Q 3834 128 3919 250
Q 3975 334 3975 638
L 3975 1894
Q 3975 2284 3944 2390
Q 3913 2497 3845 2548
Q 3778 2600 3688 2600
Q 3553 2600 3415 2501
Q 3278 2403 3138 2206
L 3138 638
Q 3138 322 3191 241
Q 3263 125 3466 113
L 3466 0
L 1953 0
L 1953 113
Q 2075 119 2145 173
Q 2216 228 2239 304
Q 2263 381 2263 638
L 2263 1894
Q 2263 2291 2231 2391
Q 2200 2491 2126 2547
Q 2053 2603 1969 2603
Q 1844 2603 1741 2538
Q 1594 2441 1428 2206
L 1428 638
Q 1428 328 1489 229
Q 1550 131 1744 113
L 1744 0
L 238 0
L 238 113
Q 422 131 500 231
Q 553 300 553 638
L 553 2288
Q 553 2619 492 2700
Q 431 2781 238 2806
L 238 2922
L 1428 2922
z
" transform="scale(0.015625)"/>
       <path id="TimesNewRomanPS-BoldMT-48" d="M 2691 1566
L 1088 1566
Q 1116 984 1397 647
Q 1613 388 1916 388
Q 2103 388 2256 492
Q 2409 597 2584 869
L 2691 800
Q 2453 316 2165 114
Q 1878 -88 1500 -88
Q 850 -88 516 413
Q 247 816 247 1413
Q 247 2144 642 2576
Q 1038 3009 1569 3009
Q 2013 3009 2339 2645
Q 2666 2281 2691 1566
z
M 1922 1775
Q 1922 2278 1867 2465
Q 1813 2653 1697 2750
Q 1631 2806 1522 2806
Q 1359 2806 1256 2647
Q 1072 2369 1072 1884
L 1072 1775
L 1922 1775
z
" transform="scale(0.015625)"/>
       <path id="TimesNewRomanPS-BoldMT-3" transform="scale(0.015625)"/>
       <path id="TimesNewRomanPS-BoldMT-b" d="M 2056 4334
L 2056 4191
Q 1731 3978 1578 3775
Q 1366 3494 1247 3053
Q 1097 2506 1097 1525
Q 1097 600 1233 87
Q 1369 -425 1603 -741
Q 1766 -959 2056 -1125
L 2056 -1281
Q 1303 -1028 779 -248
Q 256 531 256 1544
Q 256 2544 778 3314
Q 1300 4084 2056 4334
z
" transform="scale(0.015625)"/>
       <path id="TimesNewRomanPS-BoldMT-56" d="M 2063 3003
L 2109 2006
L 2003 2006
Q 1813 2450 1608 2612
Q 1403 2775 1200 2775
Q 1072 2775 981 2689
Q 891 2603 891 2491
Q 891 2406 953 2328
Q 1053 2200 1512 1889
Q 1972 1578 2117 1361
Q 2263 1144 2263 875
Q 2263 631 2141 397
Q 2019 163 1797 37
Q 1575 -88 1306 -88
Q 1097 -88 747 44
Q 653 78 619 78
Q 516 78 447 -78
L 344 -78
L 294 972
L 400 972
Q 541 559 786 353
Q 1031 147 1250 147
Q 1400 147 1495 239
Q 1591 331 1591 463
Q 1591 613 1497 722
Q 1403 831 1078 1053
Q 600 1384 459 1559
Q 253 1816 253 2125
Q 253 2463 486 2736
Q 719 3009 1159 3009
Q 1397 3009 1619 2894
Q 1703 2847 1756 2847
Q 1813 2847 1847 2870
Q 1881 2894 1956 3003
L 2063 3003
z
" transform="scale(0.015625)"/>
       <path id="TimesNewRomanPS-BoldMT-c" d="M 78 -1281
L 78 -1138
Q 403 -922 556 -719
Q 766 -438 888 0
Q 1038 550 1038 1531
Q 1038 2456 902 2967
Q 766 3478 531 3794
Q 369 4013 78 4178
L 78 4334
Q 831 4081 1354 3301
Q 1878 2522 1878 1509
Q 1878 513 1354 -257
Q 831 -1028 78 -1281
z
" transform="scale(0.015625)"/>
      </defs>
      <use xlink:href="#TimesNewRomanPS-BoldMT-37"/>
      <use xlink:href="#TimesNewRomanPS-BoldMT-4c" transform="translate(64.890625 0)"/>
      <use xlink:href="#TimesNewRomanPS-BoldMT-50" transform="translate(92.671875 0)"/>
      <use xlink:href="#TimesNewRomanPS-BoldMT-48" transform="translate(175.96875 0)"/>
      <use xlink:href="#TimesNewRomanPS-BoldMT-3" transform="translate(220.359375 0)"/>
      <use xlink:href="#TimesNewRomanPS-BoldMT-b" transform="translate(245.359375 0)"/>
      <use xlink:href="#TimesNewRomanPS-BoldMT-56" transform="translate(278.65625 0)"/>
      <use xlink:href="#TimesNewRomanPS-BoldMT-c" transform="translate(317.578125 0)"/>
     </g>
    </g>
   </g>
   <g id="matplotlib.axis_2">
    <g id="ytick_1">
     <g id="line2d_19">
      <path d="M 45.684844 396.232229
L 993.6 396.232229
" clip-path="url(#p90a753036c)" style="fill: none; stroke: #b0b0b0; stroke-opacity: 0.3; stroke-width: 0.8; stroke-linecap: square"/>
     </g>
     <g id="line2d_20">
      <defs>
       <path id="m763b1175c9" d="M 0 0
L 3.5 0
" style="stroke: #000000; stroke-width: 0.8"/>
      </defs>
      <g>
       <use xlink:href="#m763b1175c9" x="45.684844" y="396.232229" style="stroke: #000000; stroke-width: 0.8"/>
      </g>
     </g>
     <g id="text_11">
      <!-- 65 -->
      <g transform="translate(32.184844 399.699026) scale(0.1 -0.1)">
       <defs>
        <path id="TimesNewRomanPSMT-19" d="M 2869 4325
L 2869 4209
Q 2456 4169 2195 4045
Q 1934 3922 1679 3669
Q 1425 3416 1258 3105
Q 1091 2794 978 2366
Q 1428 2675 1881 2675
Q 2316 2675 2634 2325
Q 2953 1975 2953 1425
Q 2953 894 2631 456
Q 2244 -75 1606 -75
Q 1172 -75 869 213
Q 275 772 275 1663
Q 275 2231 503 2743
Q 731 3256 1154 3653
Q 1578 4050 1965 4187
Q 2353 4325 2688 4325
L 2869 4325
z
M 925 2138
Q 869 1716 869 1456
Q 869 1156 980 804
Q 1091 453 1309 247
Q 1469 100 1697 100
Q 1969 100 2183 356
Q 2397 613 2397 1088
Q 2397 1622 2184 2012
Q 1972 2403 1581 2403
Q 1463 2403 1327 2353
Q 1191 2303 925 2138
z
" transform="scale(0.015625)"/>
       </defs>
       <use xlink:href="#TimesNewRomanPSMT-19"/>
       <use xlink:href="#TimesNewRomanPSMT-18" transform="translate(50 0)"/>
      </g>
     </g>
    </g>
    <g id="ytick_2">
     <g id="line2d_21">
      <path d="M 45.684844 344.365772
L 993.6 344.365772
" clip-path="url(#p90a753036c)" style="fill: none; stroke: #b0b0b0; stroke-opacity: 0.3; stroke-width: 0.8; stroke-linecap: square"/>
     </g>
     <g id="line2d_22">
      <g>
       <use xlink:href="#m763b1175c9" x="45.684844" y="344.365772" style="stroke: #000000; stroke-width: 0.8"/>
      </g>
     </g>
     <g id="text_12">
      <!-- 70 -->
      <g transform="translate(32.184844 347.832569) scale(0.1 -0.1)">
       <defs>
        <path id="TimesNewRomanPSMT-1a" d="M 644 4238
L 2916 4238
L 2916 4119
L 1503 -88
L 1153 -88
L 2419 3728
L 1253 3728
Q 900 3728 750 3644
Q 488 3500 328 3200
L 238 3234
L 644 4238
z
" transform="scale(0.015625)"/>
       </defs>
       <use xlink:href="#TimesNewRomanPSMT-1a"/>
       <use xlink:href="#TimesNewRomanPSMT-13" transform="translate(50 0)"/>
      </g>
     </g>
    </g>
    <g id="ytick_3">
     <g id="line2d_23">
      <path d="M 45.684844 292.499314
L 993.6 292.499314
" clip-path="url(#p90a753036c)" style="fill: none; stroke: #b0b0b0; stroke-opacity: 0.3; stroke-width: 0.8; stroke-linecap: square"/>
     </g>
     <g id="line2d_24">
      <g>
       <use xlink:href="#m763b1175c9" x="45.684844" y="292.499314" style="stroke: #000000; stroke-width: 0.8"/>
      </g>
     </g>
     <g id="text_13">
      <!-- 75 -->
      <g transform="translate(32.184844 295.966111) scale(0.1 -0.1)">
       <use xlink:href="#TimesNewRomanPSMT-1a"/>
       <use xlink:href="#TimesNewRomanPSMT-18" transform="translate(50 0)"/>
      </g>
     </g>
    </g>
    <g id="ytick_4">
     <g id="line2d_25">
      <path d="M 45.684844 240.632857
L 993.6 240.632857
" clip-path="url(#p90a753036c)" style="fill: none; stroke: #b0b0b0; stroke-opacity: 0.3; stroke-width: 0.8; stroke-linecap: square"/>
     </g>
     <g id="line2d_26">
      <g>
       <use xlink:href="#m763b1175c9" x="45.684844" y="240.632857" style="stroke: #000000; stroke-width: 0.8"/>
      </g>
     </g>
     <g id="text_14">
      <!-- 80 -->
      <g transform="translate(32.184844 244.099654) scale(0.1 -0.1)">
       <defs>
        <path id="TimesNewRomanPSMT-1b" d="M 1228 2134
Q 725 2547 579 2797
Q 434 3047 434 3316
Q 434 3728 753 4026
Q 1072 4325 1600 4325
Q 2113 4325 2425 4047
Q 2738 3769 2738 3413
Q 2738 3175 2569 2928
Q 2400 2681 1866 2347
Q 2416 1922 2594 1678
Q 2831 1359 2831 1006
Q 2831 559 2490 242
Q 2150 -75 1597 -75
Q 994 -75 656 303
Q 388 606 388 966
Q 388 1247 577 1523
Q 766 1800 1228 2134
z
M 1719 2469
Q 2094 2806 2194 3001
Q 2294 3197 2294 3444
Q 2294 3772 2109 3958
Q 1925 4144 1606 4144
Q 1288 4144 1088 3959
Q 888 3775 888 3528
Q 888 3366 970 3203
Q 1053 3041 1206 2894
L 1719 2469
z
M 1375 2016
Q 1116 1797 991 1539
Q 866 1281 866 981
Q 866 578 1086 336
Q 1306 94 1647 94
Q 1984 94 2187 284
Q 2391 475 2391 747
Q 2391 972 2272 1150
Q 2050 1481 1375 2016
z
" transform="scale(0.015625)"/>
       </defs>
       <use xlink:href="#TimesNewRomanPSMT-1b"/>
       <use xlink:href="#TimesNewRomanPSMT-13" transform="translate(50 0)"/>
      </g>
     </g>
    </g>
    <g id="ytick_5">
     <g id="line2d_27">
      <path d="M 45.684844 188.766399
L 993.6 188.766399
" clip-path="url(#p90a753036c)" style="fill: none; stroke: #b0b0b0; stroke-opacity: 0.3; stroke-width: 0.8; stroke-linecap: square"/>
     </g>
     <g id="line2d_28">
      <g>
       <use xlink:href="#m763b1175c9" x="45.684844" y="188.766399" style="stroke: #000000; stroke-width: 0.8"/>
      </g>
     </g>
     <g id="text_15">
      <!-- 85 -->
      <g transform="translate(32.184844 192.233196) scale(0.1 -0.1)">
       <use xlink:href="#TimesNewRomanPSMT-1b"/>
       <use xlink:href="#TimesNewRomanPSMT-18" transform="translate(50 0)"/>
      </g>
     </g>
    </g>
    <g id="ytick_6">
     <g id="line2d_29">
      <path d="M 45.684844 136.899942
L 993.6 136.899942
" clip-path="url(#p90a753036c)" style="fill: none; stroke: #b0b0b0; stroke-opacity: 0.3; stroke-width: 0.8; stroke-linecap: square"/>
     </g>
     <g id="line2d_30">
      <g>
       <use xlink:href="#m763b1175c9" x="45.684844" y="136.899942" style="stroke: #000000; stroke-width: 0.8"/>
      </g>
     </g>
     <g id="text_16">
      <!-- 90 -->
      <g transform="translate(32.184844 140.366739) scale(0.1 -0.1)">
       <defs>
        <path id="TimesNewRomanPSMT-1c" d="M 338 -88
L 338 28
Q 744 34 1094 217
Q 1444 400 1770 856
Q 2097 1313 2225 1859
Q 1734 1544 1338 1544
Q 891 1544 572 1889
Q 253 2234 253 2806
Q 253 3363 572 3797
Q 956 4325 1575 4325
Q 2097 4325 2469 3894
Q 2925 3359 2925 2575
Q 2925 1869 2578 1258
Q 2231 647 1613 244
Q 1109 -88 516 -88
L 338 -88
z
M 2275 2091
Q 2331 2497 2331 2741
Q 2331 3044 2228 3395
Q 2125 3747 1936 3934
Q 1747 4122 1506 4122
Q 1228 4122 1018 3872
Q 809 3622 809 3128
Q 809 2469 1088 2097
Q 1291 1828 1588 1828
Q 1731 1828 1928 1897
Q 2125 1966 2275 2091
z
" transform="scale(0.015625)"/>
       </defs>
       <use xlink:href="#TimesNewRomanPSMT-1c"/>
       <use xlink:href="#TimesNewRomanPSMT-13" transform="translate(50 0)"/>
      </g>
     </g>
    </g>
    <g id="ytick_7">
     <g id="line2d_31">
      <path d="M 45.684844 85.033485
L 993.6 85.033485
" clip-path="url(#p90a753036c)" style="fill: none; stroke: #b0b0b0; stroke-opacity: 0.3; stroke-width: 0.8; stroke-linecap: square"/>
     </g>
     <g id="line2d_32">
      <g>
       <use xlink:href="#m763b1175c9" x="45.684844" y="85.033485" style="stroke: #000000; stroke-width: 0.8"/>
      </g>
     </g>
     <g id="text_17">
      <!-- 95 -->
      <g transform="translate(32.184844 88.500281) scale(0.1 -0.1)">
       <use xlink:href="#TimesNewRomanPSMT-1c"/>
       <use xlink:href="#TimesNewRomanPSMT-18" transform="translate(50 0)"/>
      </g>
     </g>
    </g>
    <g id="ytick_8">
     <g id="line2d_33">
      <path d="M 45.684844 33.167027
L 993.6 33.167027
" clip-path="url(#p90a753036c)" style="fill: none; stroke: #b0b0b0; stroke-opacity: 0.3; stroke-width: 0.8; stroke-linecap: square"/>
     </g>
     <g id="line2d_34">
      <g>
       <use xlink:href="#m763b1175c9" x="45.684844" y="33.167027" style="stroke: #000000; stroke-width: 0.8"/>
      </g>
     </g>
     <g id="text_18">
      <!-- 100 -->
      <g transform="translate(27.184844 36.633824) scale(0.1 -0.1)">
       <use xlink:href="#TimesNewRomanPSMT-14"/>
       <use xlink:href="#TimesNewRomanPSMT-13" transform="translate(50 0)"/>
       <use xlink:href="#TimesNewRomanPSMT-13" transform="translate(100 0)"/>
      </g>
     </g>
    </g>
    <g id="text_19">
     <!-- Controller Output (%CO) -->
     <g transform="translate(20.595 291.879173) rotate(-90) scale(0.12 -0.12)">
      <defs>
       <path id="TimesNewRomanPS-BoldMT-26" d="M 4272 4334
L 4272 2866
L 4150 2866
Q 4013 3441 3638 3747
Q 3263 4053 2788 4053
Q 2391 4053 2059 3825
Q 1728 3597 1575 3228
Q 1378 2756 1378 2178
Q 1378 1609 1522 1142
Q 1666 675 1972 436
Q 2278 197 2766 197
Q 3166 197 3498 372
Q 3831 547 4200 975
L 4200 609
Q 3844 238 3458 70
Q 3072 -97 2556 -97
Q 1878 -97 1351 175
Q 825 447 539 956
Q 253 1466 253 2041
Q 253 2647 570 3190
Q 888 3734 1427 4034
Q 1966 4334 2572 4334
Q 3019 4334 3516 4141
Q 3803 4028 3881 4028
Q 3981 4028 4054 4101
Q 4128 4175 4150 4334
L 4272 4334
z
" transform="scale(0.015625)"/>
       <path id="TimesNewRomanPS-BoldMT-52" d="M 1594 3009
Q 1975 3009 2303 2812
Q 2631 2616 2801 2253
Q 2972 1891 2972 1459
Q 2972 838 2656 419
Q 2275 -88 1603 -88
Q 944 -88 587 375
Q 231 838 231 1447
Q 231 2075 595 2542
Q 959 3009 1594 3009
z
M 1606 2788
Q 1447 2788 1333 2667
Q 1219 2547 1183 2192
Q 1147 1838 1147 1206
Q 1147 872 1191 581
Q 1225 359 1337 243
Q 1450 128 1594 128
Q 1734 128 1828 206
Q 1950 313 1991 503
Q 2053 800 2053 1703
Q 2053 2234 1993 2432
Q 1934 2631 1819 2722
Q 1738 2788 1606 2788
z
" transform="scale(0.015625)"/>
       <path id="TimesNewRomanPS-BoldMT-51" d="M 1409 2922
L 1409 2544
Q 1634 2788 1840 2898
Q 2047 3009 2284 3009
Q 2569 3009 2756 2851
Q 2944 2694 3006 2459
Q 3056 2281 3056 1775
L 3056 638
Q 3056 300 3117 217
Q 3178 134 3372 113
L 3372 0
L 1894 0
L 1894 113
Q 2059 134 2131 250
Q 2181 328 2181 638
L 2181 1938
Q 2181 2297 2153 2390
Q 2125 2484 2058 2536
Q 1991 2588 1909 2588
Q 1641 2588 1409 2203
L 1409 638
Q 1409 309 1470 221
Q 1531 134 1697 113
L 1697 0
L 219 0
L 219 113
Q 403 131 481 231
Q 534 300 534 638
L 534 2288
Q 534 2619 473 2700
Q 413 2781 219 2806
L 219 2922
L 1409 2922
z
" transform="scale(0.015625)"/>
       <path id="TimesNewRomanPS-BoldMT-57" d="M 1375 3991
L 1375 2922
L 2069 2922
L 2069 2613
L 1375 2613
L 1375 809
Q 1375 556 1398 482
Q 1422 409 1481 364
Q 1541 319 1591 319
Q 1794 319 1975 628
L 2069 559
Q 1816 -41 1247 -41
Q 969 -41 776 114
Q 584 269 531 459
Q 500 566 500 1034
L 500 2613
L 119 2613
L 119 2722
Q 513 3000 789 3306
Q 1066 3613 1272 3991
L 1375 3991
z
" transform="scale(0.015625)"/>
       <path id="TimesNewRomanPS-BoldMT-55" d="M 1428 2922
L 1428 2259
Q 1719 2713 1937 2861
Q 2156 3009 2359 3009
Q 2534 3009 2639 2901
Q 2744 2794 2744 2597
Q 2744 2388 2642 2272
Q 2541 2156 2397 2156
Q 2231 2156 2109 2262
Q 1988 2369 1966 2381
Q 1934 2400 1894 2400
Q 1803 2400 1722 2331
Q 1594 2225 1528 2028
Q 1428 1725 1428 1359
L 1428 688
L 1431 513
Q 1431 334 1453 284
Q 1491 200 1564 161
Q 1638 122 1813 113
L 1813 0
L 234 0
L 234 113
Q 425 128 492 217
Q 559 306 559 688
L 559 2303
Q 559 2553 534 2622
Q 503 2709 443 2750
Q 384 2791 234 2806
L 234 2922
L 1428 2922
z
" transform="scale(0.015625)"/>
       <path id="TimesNewRomanPS-BoldMT-4f" d="M 1359 4238
L 1359 606
Q 1359 297 1431 211
Q 1503 125 1713 113
L 1713 0
L 134 0
L 134 113
Q 328 119 422 225
Q 484 297 484 606
L 484 3631
Q 484 3938 412 4023
Q 341 4109 134 4122
L 134 4238
L 1359 4238
z
" transform="scale(0.015625)"/>
       <path id="TimesNewRomanPS-BoldMT-32" d="M 2472 4297
Q 3484 4334 4117 3706
Q 4750 3078 4750 2134
Q 4750 1328 4278 716
Q 3653 -97 2513 -97
Q 1369 -97 744 678
Q 250 1291 250 2131
Q 250 3075 892 3704
Q 1534 4334 2472 4297
z
M 2509 4097
Q 1928 4097 1625 3503
Q 1378 3016 1378 2103
Q 1378 1019 1759 500
Q 2025 138 2503 138
Q 2825 138 3041 294
Q 3316 494 3469 933
Q 3622 1372 3622 2078
Q 3622 2919 3465 3336
Q 3309 3753 3067 3925
Q 2825 4097 2509 4097
z
" transform="scale(0.015625)"/>
       <path id="TimesNewRomanPS-BoldMT-58" d="M 3038 2922
L 3038 634
Q 3038 300 3100 217
Q 3163 134 3353 113
L 3353 0
L 2163 0
L 2163 391
Q 1953 141 1743 26
Q 1534 -88 1275 -88
Q 1028 -88 836 64
Q 644 216 578 419
Q 513 622 513 1128
L 513 2288
Q 513 2619 452 2700
Q 391 2781 197 2806
L 197 2922
L 1388 2922
L 1388 925
Q 1388 613 1417 522
Q 1447 431 1511 384
Q 1575 338 1659 338
Q 1772 338 1863 397
Q 1988 478 2163 725
L 2163 2288
Q 2163 2619 2102 2700
Q 2041 2781 1847 2806
L 1847 2922
L 3038 2922
z
" transform="scale(0.015625)"/>
       <path id="TimesNewRomanPS-BoldMT-53" d="M 1347 297
L 1347 -791
Q 1347 -1016 1383 -1097
Q 1419 -1178 1494 -1215
Q 1569 -1253 1788 -1253
L 1788 -1369
L 122 -1369
L 122 -1253
Q 316 -1247 409 -1144
Q 472 -1072 472 -772
L 472 2313
Q 472 2622 400 2708
Q 328 2794 122 2806
L 122 2922
L 1347 2922
L 1347 2538
Q 1500 2763 1659 2863
Q 1888 3009 2156 3009
Q 2478 3009 2742 2806
Q 3006 2603 3143 2245
Q 3281 1888 3281 1475
Q 3281 1031 3139 664
Q 2997 297 2726 104
Q 2456 -88 2125 -88
Q 1884 -88 1675 19
Q 1519 100 1347 297
z
M 1347 613
Q 1616 231 1922 231
Q 2091 231 2200 409
Q 2363 672 2363 1409
Q 2363 2166 2184 2444
Q 2066 2628 1866 2628
Q 1550 2628 1347 2172
L 1347 613
z
" transform="scale(0.015625)"/>
       <path id="TimesNewRomanPS-BoldMT-8" d="M 4916 4334
L 1906 -178
L 1488 -178
L 4494 4334
L 4916 4334
z
M 1494 4334
Q 1938 4334 2242 4020
Q 2547 3706 2547 3209
Q 2547 2700 2240 2383
Q 1934 2066 1481 2066
Q 1034 2066 739 2372
Q 444 2678 444 3178
Q 444 3694 747 4014
Q 1050 4334 1494 4334
z
M 1494 4169
Q 1425 4169 1381 4128
Q 1303 4056 1264 3879
Q 1225 3703 1225 3150
Q 1225 2709 1278 2469
Q 1309 2331 1384 2263
Q 1431 2222 1494 2222
Q 1563 2222 1603 2259
Q 1675 2325 1709 2472
Q 1763 2709 1763 3138
Q 1763 3663 1713 3897
Q 1678 4059 1600 4134
Q 1563 4169 1494 4169
z
M 4894 2097
Q 5347 2097 5651 1786
Q 5956 1475 5956 972
Q 5956 463 5647 144
Q 5338 -175 4900 -175
Q 4466 -175 4161 144
Q 3856 463 3856 963
Q 3856 1466 4153 1781
Q 4450 2097 4894 2097
z
M 4903 1934
Q 4841 1934 4797 1897
Q 4722 1828 4681 1658
Q 4641 1488 4641 1006
Q 4641 494 4688 269
Q 4722 109 4803 38
Q 4844 0 4909 0
Q 4969 0 5006 34
Q 5084 106 5122 269
Q 5175 497 5175 959
Q 5175 1447 5125 1672
Q 5088 1834 5013 1900
Q 4975 1934 4903 1934
z
" transform="scale(0.015625)"/>
      </defs>
      <use xlink:href="#TimesNewRomanPS-BoldMT-26"/>
      <use xlink:href="#TimesNewRomanPS-BoldMT-52" transform="translate(72.21875 0)"/>
      <use xlink:href="#TimesNewRomanPS-BoldMT-51" transform="translate(122.21875 0)"/>
      <use xlink:href="#TimesNewRomanPS-BoldMT-57" transform="translate(177.828125 0)"/>
      <use xlink:href="#TimesNewRomanPS-BoldMT-55" transform="translate(211.125 0)"/>
      <use xlink:href="#TimesNewRomanPS-BoldMT-52" transform="translate(253.703125 0)"/>
      <use xlink:href="#TimesNewRomanPS-BoldMT-4f" transform="translate(303.703125 0)"/>
      <use xlink:href="#TimesNewRomanPS-BoldMT-4f" transform="translate(331.484375 0)"/>
      <use xlink:href="#TimesNewRomanPS-BoldMT-48" transform="translate(359.265625 0)"/>
      <use xlink:href="#TimesNewRomanPS-BoldMT-55" transform="translate(403.65625 0)"/>
      <use xlink:href="#TimesNewRomanPS-BoldMT-3" transform="translate(446.234375 0)"/>
      <use xlink:href="#TimesNewRomanPS-BoldMT-32" transform="translate(471.234375 0)"/>
      <use xlink:href="#TimesNewRomanPS-BoldMT-58" transform="translate(549.015625 0)"/>
      <use xlink:href="#TimesNewRomanPS-BoldMT-57" transform="translate(604.625 0)"/>
      <use xlink:href="#TimesNewRomanPS-BoldMT-53" transform="translate(637.921875 0)"/>
      <use xlink:href="#TimesNewRomanPS-BoldMT-58" transform="translate(693.53125 0)"/>
      <use xlink:href="#TimesNewRomanPS-BoldMT-57" transform="translate(749.140625 0)"/>
      <use xlink:href="#TimesNewRomanPS-BoldMT-3" transform="translate(782.4375 0)"/>
      <use xlink:href="#TimesNewRomanPS-BoldMT-b" transform="translate(807.4375 0)"/>
      <use xlink:href="#TimesNewRomanPS-BoldMT-8" transform="translate(840.734375 0)"/>
      <use xlink:href="#TimesNewRomanPS-BoldMT-26" transform="translate(940.734375 0)"/>
      <use xlink:href="#TimesNewRomanPS-BoldMT-32" transform="translate(1012.953125 0)"/>
      <use xlink:href="#TimesNewRomanPS-BoldMT-c" transform="translate(1090.734375 0)"/>
     </g>
    </g>
   </g>
   <g id="line2d_35">
    <path d="M 88.771896 240.632857
L 89.181223 240.442776
L 90.204541 239.881823
L 90.980108 239.738714
L 92.024969 239.793205
L 98.089471 240.468698
L 101.698012 240.696259
L 101.784186 241.508863
L 102.085796 247.253829
L 102.635155 263.615074
L 103.680016 294.227141
L 104.390953 308.699832
L 105.134205 319.45688
L 105.877456 327.190433
L 106.63148 332.875907
L 107.503992 337.846812
L 108.59194 342.724291
L 109.722976 346.799939
L 110.864783 350.125859
L 112.092764 353.027045
L 113.23457 355.186185
L 114.376377 356.934427
L 115.658217 358.461365
L 116.789252 359.466521
L 117.963374 360.220716
L 119.212899 360.762769
L 120.548598 361.073363
L 121.992014 361.184823
L 123.715496 361.070101
L 125.352804 360.761602
L 127.647189 360.109496
L 130.846403 358.947466
L 143.341648 354.274746
L 146.971733 353.296568
L 150.655676 352.537276
L 154.210357 352.021123
L 158.637552 351.614373
L 162.4723 351.448326
L 168.504487 351.399343
L 176.787973 351.59837
L 192.47166 352.25968
L 224.593058 353.550275
L 249.012645 354.276603
L 276.157488 354.861212
L 311.165718 355.387793
L 359.056977 355.864076
L 420.908441 356.245358
L 501.836697 356.498266
L 532.557766 356.539705
L 532.676255 33.167027
L 569.343337 33.236352
L 573.059595 97.735286
L 574.793849 123.607094
L 576.366527 143.866512
L 577.863802 160.363106
L 579.274903 173.543837
L 580.632145 184.204254
L 581.924756 192.657572
L 583.163509 199.352441
L 584.348403 204.585331
L 585.49021 208.660815
L 586.578158 211.751733
L 587.612247 214.049686
L 588.592478 215.711744
L 589.518849 216.839088
L 590.412906 217.586532
L 591.29619 218.039721
L 592.201018 218.254209
L 593.138162 218.248655
L 594.129164 217.977381
L 595.270971 217.423921
L 596.628213 216.509801
L 598.254749 215.079522
L 600.51682 212.773313
L 609.037284 203.641716
L 611.471703 201.503766
L 613.992295 199.603934
L 616.22205 198.166542
L 618.925763 196.696556
L 621.478671 195.583062
L 624.010035 194.716624
L 626.476769 194.108209
L 629.697526 193.580246
L 632.508956 193.365614
L 636.472965 193.251153
L 640.501604 193.334547
L 653.643155 193.900807
L 671.384249 194.141623
L 690.708792 194.185123
L 863.864885 193.92774
L 950.512947 193.898558
L 950.512947 193.898558
" clip-path="url(#p90a753036c)" style="fill: none; stroke: #0055cc; stroke-width: 2; stroke-linecap: square"/>
   </g>
   <g id="line2d_36">
    <path d="M 88.771896 240.632857
L 89.138136 240.438672
L 90.226084 239.7023
L 90.947792 239.520398
L 91.863392 239.536667
L 93.705364 239.851578
L 96.376761 240.216678
L 99.338996 240.390188
L 101.665697 240.602716
L 101.87036 243.388055
L 102.139654 250.465528
L 102.839819 277.058399
L 103.809278 310.88109
L 104.584845 330.005544
L 105.360412 344.015907
L 106.179066 354.893693
L 107.06235 363.855571
L 108.182613 372.919955
L 109.399823 380.963778
L 110.552401 387.212204
L 111.672665 392.126713
L 112.846787 396.318753
L 114.031681 399.701643
L 115.098085 402.144619
L 116.186033 404.098625
L 117.177036 405.424555
L 118.103407 406.309397
L 118.986692 406.852881
L 119.848433 407.12547
L 120.699402 407.16456
L 121.593459 406.979404
L 122.552146 406.54814
L 123.597007 405.829827
L 124.814216 404.710931
L 126.24686 403.076662
L 127.765679 401.013185
L 129.866173 397.770174
L 132.192874 393.791808
L 137.72956 383.805613
L 141.262698 377.714579
L 144.354194 372.828344
L 147.004048 369.079363
L 149.610815 365.769434
L 151.9052 363.239327
L 154.124183 361.117131
L 156.429341 359.224649
L 158.788357 357.577196
L 160.888851 356.357633
L 163.053975 355.377377
L 165.240643 354.631261
L 167.621202 354.061935
L 170.249513 353.658249
L 173.405639 353.406619
L 176.744886 353.405572
L 180.92433 353.636836
L 186.374842 354.19179
L 202.327823 355.923625
L 208.887827 356.351902
L 216.740442 356.641407
L 227.803043 356.769469
L 264.98717 356.737086
L 511.542056 356.671998
L 532.557766 356.669781
L 532.676255 33.167027
L 578.230042 33.203778
L 583.906761 150.844867
L 585.468666 176.531117
L 586.922854 196.906954
L 588.269325 212.774027
L 589.540393 225.211102
L 590.725287 234.705215
L 591.834778 241.892407
L 592.879639 247.26403
L 593.838326 251.098369
L 594.732383 253.80623
L 595.540265 255.592409
L 596.272745 256.709122
L 596.929822 257.331648
L 597.533041 257.61325
L 598.114716 257.641645
L 598.707163 257.44432
L 599.353469 256.987913
L 600.096721 256.157664
L 600.969234 254.831493
L 602.024866 252.795877
L 603.220532 249.996614
L 604.771666 245.740224
L 606.796757 239.500452
L 615.327994 212.279781
L 617.50389 206.498698
L 619.39972 202.107416
L 621.241692 198.390502
L 622.76051 195.771502
L 624.365503 193.422723
L 625.905865 191.550548
L 627.381597 190.109595
L 628.835785 188.9944
L 630.257658 188.176095
L 631.701074 187.602263
L 633.209121 187.242336
L 634.738711 187.101068
L 636.462193 187.170522
L 638.40111 187.476157
L 640.71704 188.085335
L 643.5931 189.076512
L 652.092021 192.149731
L 655.582073 193.066537
L 659.16907 193.798494
L 663.790156 194.4629
L 668.131177 194.846425
L 672.989242 195.023701
L 677.545698 194.929586
L 682.759231 194.593321
L 693.778745 193.834155
L 699.2508 193.716345
L 705.886207 193.808976
L 717.325819 193.997121
L 724.273606 193.828113
L 731.059817 193.742253
L 745.00925 193.888746
L 883.08171 193.883083
L 950.512947 193.882896
L 950.512947 193.882896
" clip-path="url(#p90a753036c)" style="fill: none; stroke: #d65a00; stroke-width: 2; stroke-linecap: square"/>
   </g>
   <g id="line2d_37">
    <path d="M 88.771896 240.632857
L 89.202767 240.446486
L 90.269171 239.9133
L 91.120141 239.767853
L 92.348122 239.813373
L 98.294135 240.299104
L 101.644153 240.476105
L 101.87036 243.087582
L 102.301231 252.802644
L 104.326322 304.781821
L 105.23115 319.362568
L 106.189837 331.224034
L 107.353188 342.796897
L 108.785832 354.837091
L 110.412368 366.570963
L 112.07122 376.922877
L 113.708528 385.77535
L 115.24889 392.917292
L 116.692306 398.606455
L 118.081864 403.219093
L 119.406791 406.870727
L 120.645543 409.662554
L 121.819666 411.781737
L 122.918385 413.323512
L 123.952475 414.406642
L 124.932705 415.121261
L 125.869849 415.535389
L 126.79622 415.701937
L 127.722592 415.640639
L 128.681279 415.351306
L 129.704596 414.805855
L 130.82486 413.949946
L 132.052841 412.723288
L 133.45317 410.997946
L 135.047391 408.666672
L 136.846275 405.631673
L 139.043715 401.464431
L 141.725884 395.886305
L 146.810156 384.635384
L 151.495873 374.393639
L 154.932066 367.47509
L 157.474202 362.832459
L 159.973251 358.747299
L 162.149147 355.584078
L 164.120379 353.097654
L 166.285504 350.747786
L 168.149019 349.046893
L 169.958675 347.690651
L 171.746788 346.625341
L 173.47027 345.850285
L 175.215295 345.320921
L 177.035723 345.002694
L 178.996184 344.889902
L 181.182852 344.990718
L 183.347977 345.384632
L 185.879341 346.080352
L 189.401708 347.301178
L 193.548836 349.096351
L 203.394228 353.40988
L 207.541357 354.955189
L 211.386876 356.157937
L 215.092363 357.086978
L 218.830164 357.785311
L 222.77263 358.294316
L 226.887443 358.582965
L 231.443899 358.677788
L 236.689748 358.532329
L 243.615991 358.110334
L 263.76996 356.691542
L 272.301197 356.388832
L 280.961694 356.318269
L 293.327678 356.481102
L 322.314493 356.813911
L 342.209939 356.657873
L 364.669066 356.534003
L 383.379618 356.630717
L 419.238818 356.800235
L 445.748127 356.653153
L 479.743811 356.535369
L 532.557766 356.743843
L 532.676255 33.167027
L 579.1995 33.18774
L 581.310766 69.08622
L 585.414808 139.158132
L 587.515301 170.944885
L 589.346501 195.410566
L 591.005353 214.692846
L 592.524171 229.855319
L 593.946044 241.897711
L 595.270971 251.283235
L 596.498952 258.464195
L 597.640759 263.882524
L 598.696392 267.868642
L 599.66585 270.704485
L 600.549135 272.637558
L 601.346245 273.872879
L 602.057182 274.591352
L 602.703487 274.947852
L 603.317478 275.03915
L 603.920697 274.896841
L 604.567002 274.507996
L 605.288711 273.802257
L 606.118136 272.663294
L 607.05528 270.981979
L 608.154 268.527815
L 609.446611 265.06444
L 610.933114 260.421837
L 612.775086 253.903138
L 615.177189 244.516934
L 620.670788 221.801838
L 623.740741 209.777727
L 626.088985 201.448148
L 628.13562 194.974577
L 629.96682 189.892743
L 631.657987 185.833973
L 633.219892 182.64226
L 634.684852 180.135518
L 636.042094 178.234274
L 637.345478 176.779937
L 638.595002 175.711671
L 639.80144 174.965852
L 640.90016 174.54039
L 642.052738 174.325366
L 643.237632 174.331703
L 644.497928 174.565599
L 645.855171 175.048804
L 647.298587 175.836383
L 648.96821 177.011352
L 651.04716 178.763455
L 653.320002 180.95302
L 658.167296 186.0178
L 661.894326 189.756919
L 664.60881 192.17844
L 667.000142 194.020143
L 669.229897 195.463711
L 671.373477 196.590267
L 673.484743 197.447984
L 675.585237 198.063614
L 677.696502 198.436584
L 679.947801 198.604974
L 682.489937 198.565132
L 684.611974 198.339602
L 687.735786 197.788315
L 691.990632 196.802421
L 701.340523 194.483435
L 705.250673 193.755403
L 709.731726 193.179533
L 713.738822 192.90814
L 718.18756 192.842165
L 723.498039 192.986618
L 735.734762 193.65179
L 744.406032 194.061422
L 752.226332 194.16529
L 760.423643 194.055245
L 786.12507 193.677277
L 816.932313 193.949265
L 836.062964 193.973234
L 905.390032 193.840624
L 950.512947 193.886433
L 950.512947 193.886433
" clip-path="url(#p90a753036c)" style="fill: none; stroke: #008000; stroke-width: 2; stroke-linecap: square"/>
   </g>
   <g id="patch_3">
    <path d="M 45.684844 434.834597
L 45.684844 14.04
" style="fill: none; stroke: #1a1a1a; stroke-linejoin: miter; stroke-linecap: square"/>
   </g>
   <g id="patch_4">
    <path d="M 993.6 434.834597
L 993.6 14.04
" style="fill: none; stroke: #1a1a1a; stroke-linejoin: miter; stroke-linecap: square"/>
   </g>
   <g id="patch_5">
    <path d="M 45.684844 434.834597
L 993.6 434.834597
" style="fill: none; stroke: #1a1a1a; stroke-linejoin: miter; stroke-linecap: square"/>
   </g>
   <g id="patch_6">
    <path d="M 45.684844 14.04
L 993.6 14.04
" style="fill: none; stroke: #1a1a1a; stroke-linejoin: miter; stroke-linecap: square"/>
   </g>
   <g id="legend_1">
    <g id="patch_7">
     <path d="M 428.975234 494.864314
L 610.309609 494.864314
Q 612.309609 494.864314 612.309609 492.864314
L 612.309609 479.706111
Q 612.309609 477.706111 610.309609 477.706111
L 428.975234 477.706111
Q 426.975234 477.706111 426.975234 479.706111
L 426.975234 492.864314
Q 426.975234 494.864314 428.975234 494.864314
z
" style="fill: #ffffff; opacity: 0.95; stroke: #808080; stroke-linejoin: miter"/>
    </g>
    <g id="line2d_38">
     <path d="M 430.975234 485.206111
L 440.975234 485.206111
L 450.975234 485.206111
" style="fill: none; stroke: #0055cc; stroke-width: 2; stroke-linecap: square"/>
    </g>
    <g id="text_20">
     <!-- Syn -->
     <g transform="translate(458.975234 488.706111) scale(0.1 -0.1)">
      <defs>
       <path id="TimesNewRomanPSMT-36" d="M 2934 4334
L 2934 2869
L 2819 2869
Q 2763 3291 2617 3541
Q 2472 3791 2203 3937
Q 1934 4084 1647 4084
Q 1322 4084 1109 3886
Q 897 3688 897 3434
Q 897 3241 1031 3081
Q 1225 2847 1953 2456
Q 2547 2138 2764 1967
Q 2981 1797 3098 1565
Q 3216 1334 3216 1081
Q 3216 600 2842 251
Q 2469 -97 1881 -97
Q 1697 -97 1534 -69
Q 1438 -53 1133 45
Q 828 144 747 144
Q 669 144 623 97
Q 578 50 556 -97
L 441 -97
L 441 1356
L 556 1356
Q 638 900 775 673
Q 913 447 1195 297
Q 1478 147 1816 147
Q 2206 147 2432 353
Q 2659 559 2659 841
Q 2659 997 2573 1156
Q 2488 1316 2306 1453
Q 2184 1547 1640 1851
Q 1097 2156 867 2337
Q 638 2519 519 2737
Q 400 2956 400 3219
Q 400 3675 750 4004
Q 1100 4334 1641 4334
Q 1978 4334 2356 4169
Q 2531 4091 2603 4091
Q 2684 4091 2736 4139
Q 2788 4188 2819 4334
L 2934 4334
z
" transform="scale(0.015625)"/>
       <path id="TimesNewRomanPSMT-5c" d="M 38 2863
L 1372 2863
L 1372 2747
L 1306 2747
Q 1166 2747 1095 2686
Q 1025 2625 1025 2534
Q 1025 2413 1128 2197
L 1825 753
L 2466 2334
Q 2519 2463 2519 2588
Q 2519 2644 2497 2672
Q 2472 2706 2419 2726
Q 2366 2747 2231 2747
L 2231 2863
L 3163 2863
L 3163 2747
Q 3047 2734 2984 2696
Q 2922 2659 2847 2556
Q 2819 2513 2741 2316
L 1575 -541
Q 1406 -956 1132 -1168
Q 859 -1381 606 -1381
Q 422 -1381 303 -1275
Q 184 -1169 184 -1031
Q 184 -900 270 -820
Q 356 -741 506 -741
Q 609 -741 788 -809
Q 913 -856 944 -856
Q 1038 -856 1148 -759
Q 1259 -663 1372 -384
L 1575 113
L 547 2272
Q 500 2369 397 2513
Q 319 2622 269 2659
Q 197 2709 38 2747
L 38 2863
z
" transform="scale(0.015625)"/>
       <path id="TimesNewRomanPSMT-51" d="M 1034 2341
Q 1538 2947 1994 2947
Q 2228 2947 2397 2830
Q 2566 2713 2666 2444
Q 2734 2256 2734 1869
L 2734 647
Q 2734 375 2778 278
Q 2813 200 2889 156
Q 2966 113 3172 113
L 3172 0
L 1756 0
L 1756 113
L 1816 113
Q 2016 113 2095 173
Q 2175 234 2206 353
Q 2219 400 2219 647
L 2219 1819
Q 2219 2209 2117 2386
Q 2016 2563 1775 2563
Q 1403 2563 1034 2156
L 1034 647
Q 1034 356 1069 288
Q 1113 197 1189 155
Q 1266 113 1500 113
L 1500 0
L 84 0
L 84 113
L 147 113
Q 366 113 442 223
Q 519 334 519 647
L 519 1709
Q 519 2225 495 2337
Q 472 2450 423 2490
Q 375 2531 294 2531
Q 206 2531 84 2484
L 38 2597
L 900 2947
L 1034 2947
L 1034 2341
z
" transform="scale(0.015625)"/>
      </defs>
      <use xlink:href="#TimesNewRomanPSMT-36"/>
      <use xlink:href="#TimesNewRomanPSMT-5c" transform="translate(55.609375 0)"/>
      <use xlink:href="#TimesNewRomanPSMT-51" transform="translate(105.609375 0)"/>
     </g>
    </g>
    <g id="line2d_39">
     <path d="M 494.536172 485.206111
L 504.536172 485.206111
L 514.536172 485.206111
" style="fill: none; stroke: #d65a00; stroke-width: 2; stroke-linecap: square"/>
    </g>
    <g id="text_21">
     <!-- QDR -->
     <g transform="translate(522.536172 488.706111) scale(0.1 -0.1)">
      <defs>
       <path id="TimesNewRomanPSMT-34" d="M 2819 -47
Q 3138 -597 3508 -856
Q 3878 -1116 4350 -1153
L 4350 -1253
Q 3919 -1238 3428 -1080
Q 2938 -922 2498 -642
Q 2059 -363 1741 -47
Q 1291 134 1028 338
Q 647 641 436 1083
Q 225 1525 225 2128
Q 225 3078 840 3706
Q 1456 4334 2331 4334
Q 3163 4334 3770 3704
Q 4378 3075 4378 2116
Q 4378 1338 3945 750
Q 3513 163 2819 -47
z
M 2294 4094
Q 1725 4094 1378 3688
Q 941 3178 941 2128
Q 941 1100 1384 544
Q 1728 116 2294 116
Q 2881 116 3241 544
Q 3663 1050 3663 2038
Q 3663 2797 3431 3316
Q 3253 3716 2958 3905
Q 2663 4094 2294 4094
z
" transform="scale(0.015625)"/>
       <path id="TimesNewRomanPSMT-27" d="M 109 0
L 109 116
L 269 116
Q 538 116 650 288
Q 719 391 719 750
L 719 3488
Q 719 3884 631 3984
Q 509 4122 269 4122
L 109 4122
L 109 4238
L 1834 4238
Q 2784 4238 3279 4022
Q 3775 3806 4076 3303
Q 4378 2800 4378 2141
Q 4378 1256 3841 663
Q 3238 0 2003 0
L 109 0
z
M 1319 306
Q 1716 219 1984 219
Q 2709 219 3187 728
Q 3666 1238 3666 2109
Q 3666 2988 3187 3494
Q 2709 4000 1959 4000
Q 1678 4000 1319 3909
L 1319 306
z
" transform="scale(0.015625)"/>
       <path id="TimesNewRomanPSMT-35" d="M 4325 0
L 3194 0
L 1759 1981
Q 1600 1975 1500 1975
Q 1459 1975 1412 1976
Q 1366 1978 1316 1981
L 1316 750
Q 1316 350 1403 253
Q 1522 116 1759 116
L 1925 116
L 1925 0
L 109 0
L 109 116
L 269 116
Q 538 116 653 291
Q 719 388 719 750
L 719 3488
Q 719 3888 631 3984
Q 509 4122 269 4122
L 109 4122
L 109 4238
L 1653 4238
Q 2328 4238 2648 4139
Q 2969 4041 3192 3777
Q 3416 3513 3416 3147
Q 3416 2756 3161 2468
Q 2906 2181 2372 2063
L 3247 847
Q 3547 428 3762 290
Q 3978 153 4325 116
L 4325 0
z
M 1316 2178
Q 1375 2178 1419 2176
Q 1463 2175 1491 2175
Q 2097 2175 2405 2437
Q 2713 2700 2713 3106
Q 2713 3503 2464 3751
Q 2216 4000 1806 4000
Q 1625 4000 1316 3941
L 1316 2178
z
" transform="scale(0.015625)"/>
      </defs>
      <use xlink:href="#TimesNewRomanPSMT-34"/>
      <use xlink:href="#TimesNewRomanPSMT-27" transform="translate(72.21875 0)"/>
      <use xlink:href="#TimesNewRomanPSMT-35" transform="translate(144.4375 0)"/>
     </g>
    </g>
    <g id="line2d_40">
     <path d="M 563.650234 485.206111
L 573.650234 485.206111
L 583.650234 485.206111
" style="fill: none; stroke: #008000; stroke-width: 2; stroke-linecap: square"/>
    </g>
    <g id="text_22">
     <!-- IAE -->
     <g transform="translate(591.650234 488.706111) scale(0.1 -0.1)">
      <defs>
       <path id="TimesNewRomanPSMT-2c" d="M 1975 116
L 1975 0
L 159 0
L 159 116
L 309 116
Q 572 116 691 269
Q 766 369 766 750
L 766 3488
Q 766 3809 725 3913
Q 694 3991 597 4047
Q 459 4122 309 4122
L 159 4122
L 159 4238
L 1975 4238
L 1975 4122
L 1822 4122
Q 1563 4122 1444 3969
Q 1366 3869 1366 3488
L 1366 750
Q 1366 428 1406 325
Q 1438 247 1538 191
Q 1672 116 1822 116
L 1975 116
z
" transform="scale(0.015625)"/>
       <path id="TimesNewRomanPSMT-24" d="M 2928 1419
L 1288 1419
L 1000 750
Q 894 503 894 381
Q 894 284 986 211
Q 1078 138 1384 116
L 1384 0
L 50 0
L 50 116
Q 316 163 394 238
Q 553 388 747 847
L 2238 4334
L 2347 4334
L 3822 809
Q 4000 384 4145 257
Q 4291 131 4550 116
L 4550 0
L 2878 0
L 2878 116
Q 3131 128 3220 200
Q 3309 272 3309 375
Q 3309 513 3184 809
L 2928 1419
z
M 2841 1650
L 2122 3363
L 1384 1650
L 2841 1650
z
" transform="scale(0.015625)"/>
       <path id="TimesNewRomanPSMT-28" d="M 1338 4006
L 1338 2331
L 2269 2331
Q 2631 2331 2753 2441
Q 2916 2584 2934 2947
L 3050 2947
L 3050 1472
L 2934 1472
Q 2891 1781 2847 1869
Q 2791 1978 2662 2040
Q 2534 2103 2269 2103
L 1338 2103
L 1338 706
Q 1338 425 1363 364
Q 1388 303 1450 267
Q 1513 231 1688 231
L 2406 231
Q 2766 231 2928 281
Q 3091 331 3241 478
Q 3434 672 3638 1063
L 3763 1063
L 3397 0
L 131 0
L 131 116
L 281 116
Q 431 116 566 188
Q 666 238 702 338
Q 738 438 738 747
L 738 3500
Q 738 3903 656 3997
Q 544 4122 281 4122
L 131 4122
L 131 4238
L 3397 4238
L 3444 3309
L 3322 3309
Q 3256 3644 3176 3769
Q 3097 3894 2941 3959
Q 2816 4006 2500 4006
L 1338 4006
z
" transform="scale(0.015625)"/>
      </defs>
      <use xlink:href="#TimesNewRomanPSMT-2c"/>
      <use xlink:href="#TimesNewRomanPSMT-24" transform="translate(33.296875 0)"/>
      <use xlink:href="#TimesNewRomanPSMT-28" transform="translate(105.515625 0)"/>
     </g>
    </g>
   </g>
  </g>
  <g id="patch_8">
   <path d="M 3.6 502.56
L 1001.52 502.56
L 1001.52 3.6
L 3.6 3.6
L 3.6 502.56
z
" style="fill: none; stroke: #1a1a1a; stroke-width: 1.2; stroke-linejoin: miter"/>
  </g>
 </g>
 <defs>
  <clipPath id="p90a753036c">
   <rect x="45.684844" y="14.04" width="947.915156" height="420.794597"/>
  </clipPath>
 </defs>
</svg>
