<?xml version="1.0" encoding="utf-8" standalone="no"?>
<!DOCTYPE svg PUBLIC "-//W3C//DTD SVG 1.1//EN"
  "http://www.w3.org/Graphics/SVG/1.1/DTD/svg11.dtd">
<svg xmlns:xlink="http://www.w3.org/1999/xlink" width="1005.12pt" height="506.16pt" viewBox="0 0 1005.12 506.16" xmlns="http://www.w3.org/2000/svg" version="1.1">
 <metadata>
  <rdf:RDF xmlns:dc="http://purl.org/dc/elements/1.1/" xmlns:cc="http://creativecommons.org/ns#" xmlns:rdf="http://www.w3.org/1999/02/22-rdf-syntax-ns#">
   <cc:Work>
    <dc:type rdf:resource="http://purl.org/dc/dcmitype/StillImage"/>
    <dc:date>2026-07-20T17:38:31.889913</dc:date>
    <dc:format>image/svg+xml</dc:format>
    <dc:creator>
     <cc:Agent>
      <dc:title>Matplotlib v3.11.1, https://matplotlib.org/</dc:title>
     </cc:Agent>
    </dc:creator>
   </cc:Work>
  </rdf:RDF>
 </metadata>
 <defs>
  <style type="text/css">*{stroke-linejoin: round; stroke-linecap: butt}</style>
 </defs>
 <g id="figure_1">
  <g id="patch_1">
   <path d="M 0 506.16
L 1005.12 506.16
L 1005.12 0
L 0 0
z
" style="fill: #ffffff"/>
  </g>
  <g id="axes_1">
   <g id="patch_2">
    <path d="M 40.404844 434.834597
L 993.6 434.834597
L 993.6 14.04
L 40.404844 14.04
z
" style="fill: #ffffff"/>
   </g>
   <g id="matplotlib.axis_1">
    <g id="xtick_1">
     <g id="line2d_1">
      <path d="M 83.731896 434.834597
L 83.731896 14.04
" clip-path="url(#p6c221a61a1)" style="fill: none; stroke: #b0b0b0; stroke-opacity: 0.3; stroke-width: 0.8; stroke-linecap: square"/>
     </g>
     <g id="line2d_2">
      <defs>
       <path id="mc1163ddfb9" d="M 0 0
L 0 -3.5
" style="stroke: #000000; stroke-width: 0.8"/>
      </defs>
      <g>
       <use xlink:href="#mc1163ddfb9" x="83.731896" y="434.834597" style="stroke: #000000; stroke-width: 0.8"/>
      </g>
     </g>
     <g id="text_1">
      <!-- 0 -->
      <g transform="translate(81.231896 445.268191) scale(0.1 -0.1)">
       <defs>
        <path id="TimesNewRomanPSMT-13" d="M 231 2094
Q 231 2819 450 3342
Q 669 3866 1031 4122
Q 1313 4325 1613 4325
Q 2100 4325 2488 3828
Q 2972 3213 2972 2159
Q 2972 1422 2759 906
Q 2547 391 2217 158
Q 1888 -75 1581 -75
Q 975 -75 572 641
Q 231 1244 231 2094
z
M 844 2016
Q 844 1141 1059 588
Q 1238 122 1591 122
Q 1759 122 1940 273
Q 2122 425 2216 781
Q 2359 1319 2359 2297
Q 2359 3022 2209 3506
Q 2097 3866 1919 4016
Q 1791 4119 1609 4119
Q 1397 4119 1231 3928
Q 1006 3669 925 3112
Q 844 2556 844 2016
z
" transform="scale(0.015625)"/>
       </defs>
       <use xlink:href="#TimesNewRomanPSMT-13"/>
      </g>
     </g>
    </g>
    <g id="xtick_2">
     <g id="line2d_3">
      <path d="M 228.155405 434.834597
L 228.155405 14.04
" clip-path="url(#p6c221a61a1)" style="fill: none; stroke: #b0b0b0; stroke-opacity: 0.3; stroke-width: 0.8; stroke-linecap: square"/>
     </g>
     <g id="line2d_4">
      <g>
       <use xlink:href="#mc1163ddfb9" x="228.155405" y="434.834597" style="stroke: #000000; stroke-width: 0.8"/>
      </g>
     </g>
     <g id="text_2">
      <!-- 5000 -->
      <g transform="translate(218.155405 445.268191) scale(0.1 -0.1)">
       <defs>
        <path id="TimesNewRomanPSMT-18" d="M 2778 4238
L 2534 3706
L 1259 3706
L 981 3138
Q 1809 3016 2294 2522
Q 2709 2097 2709 1522
Q 2709 1188 2573 903
Q 2438 619 2231 419
Q 2025 219 1772 97
Q 1413 -75 1034 -75
Q 653 -75 479 54
Q 306 184 306 341
Q 306 428 378 495
Q 450 563 559 563
Q 641 563 702 538
Q 763 513 909 409
Q 1144 247 1384 247
Q 1750 247 2026 523
Q 2303 800 2303 1197
Q 2303 1581 2056 1914
Q 1809 2247 1375 2428
Q 1034 2569 447 2591
L 1259 4238
L 2778 4238
z
" transform="scale(0.015625)"/>
       </defs>
       <use xlink:href="#TimesNewRomanPSMT-18"/>
       <use xlink:href="#TimesNewRomanPSMT-13" transform="translate(50 0)"/>
       <use xlink:href="#TimesNewRomanPSMT-13" transform="translate(100 0)"/>
       <use xlink:href="#TimesNewRomanPSMT-13" transform="translate(150 0)"/>
      </g>
     </g>
    </g>
    <g id="xtick_3">
     <g id="line2d_5">
      <path d="M 372.578913 434.834597
L 372.578913 14.04
" clip-path="url(#p6c221a61a1)" style="fill: none; stroke: #b0b0b0; stroke-opacity: 0.3; stroke-width: 0.8; stroke-linecap: square"/>
     </g>
     <g id="line2d_6">
      <g>
       <use xlink:href="#mc1163ddfb9" x="372.578913" y="434.834597" style="stroke: #000000; stroke-width: 0.8"/>
      </g>
     </g>
     <g id="text_3">
      <!-- 10000 -->
      <g transform="translate(360.078913 445.268191) scale(0.1 -0.1)">
       <defs>
        <path id="TimesNewRomanPSMT-14" d="M 750 3822
L 1781 4325
L 1884 4325
L 1884 747
Q 1884 391 1914 303
Q 1944 216 2037 169
Q 2131 122 2419 116
L 2419 0
L 825 0
L 825 116
Q 1125 122 1212 167
Q 1300 213 1334 289
Q 1369 366 1369 747
L 1369 3034
Q 1369 3497 1338 3628
Q 1316 3728 1258 3775
Q 1200 3822 1119 3822
Q 1003 3822 797 3725
L 750 3822
z
" transform="scale(0.015625)"/>
       </defs>
       <use xlink:href="#TimesNewRomanPSMT-14"/>
       <use xlink:href="#TimesNewRomanPSMT-13" transform="translate(50 0)"/>
       <use xlink:href="#TimesNewRomanPSMT-13" transform="translate(100 0)"/>
       <use xlink:href="#TimesNewRomanPSMT-13" transform="translate(150 0)"/>
       <use xlink:href="#TimesNewRomanPSMT-13" transform="translate(200 0)"/>
      </g>
     </g>
    </g>
    <g id="xtick_4">
     <g id="line2d_7">
      <path d="M 517.002422 434.834597
L 517.002422 14.04
" clip-path="url(#p6c221a61a1)" style="fill: none; stroke: #b0b0b0; stroke-opacity: 0.3; stroke-width: 0.8; stroke-linecap: square"/>
     </g>
     <g id="line2d_8">
      <g>
       <use xlink:href="#mc1163ddfb9" x="517.002422" y="434.834597" style="stroke: #000000; stroke-width: 0.8"/>
      </g>
     </g>
     <g id="text_4">
      <!-- 15000 -->
      <g transform="translate(504.502422 445.268191) scale(0.1 -0.1)">
       <use xlink:href="#TimesNewRomanPSMT-14"/>
       <use xlink:href="#TimesNewRomanPSMT-18" transform="translate(50 0)"/>
       <use xlink:href="#TimesNewRomanPSMT-13" transform="translate(100 0)"/>
       <use xlink:href="#TimesNewRomanPSMT-13" transform="translate(150 0)"/>
       <use xlink:href="#TimesNewRomanPSMT-13" transform="translate(200 0)"/>
      </g>
     </g>
    </g>
    <g id="xtick_5">
     <g id="line2d_9">
      <path d="M 661.42593 434.834597
L 661.42593 14.04
" clip-path="url(#p6c221a61a1)" style="fill: none; stroke: #b0b0b0; stroke-opacity: 0.3; stroke-width: 0.8; stroke-linecap: square"/>
     </g>
     <g id="line2d_10">
      <g>
       <use xlink:href="#mc1163ddfb9" x="661.42593" y="434.834597" style="stroke: #000000; stroke-width: 0.8"/>
      </g>
     </g>
     <g id="text_5">
      <!-- 20000 -->
      <g transform="translate(648.92593 445.268191) scale(0.1 -0.1)">
       <defs>
        <path id="TimesNewRomanPSMT-15" d="M 2934 816
L 2638 0
L 138 0
L 138 116
Q 1241 1122 1691 1759
Q 2141 2397 2141 2925
Q 2141 3328 1894 3587
Q 1647 3847 1303 3847
Q 991 3847 742 3664
Q 494 3481 375 3128
L 259 3128
Q 338 3706 661 4015
Q 984 4325 1469 4325
Q 1984 4325 2329 3994
Q 2675 3663 2675 3213
Q 2675 2891 2525 2569
Q 2294 2063 1775 1497
Q 997 647 803 472
L 1909 472
Q 2247 472 2383 497
Q 2519 522 2628 598
Q 2738 675 2819 816
L 2934 816
z
" transform="scale(0.015625)"/>
       </defs>
       <use xlink:href="#TimesNewRomanPSMT-15"/>
       <use xlink:href="#TimesNewRomanPSMT-13" transform="translate(50 0)"/>
       <use xlink:href="#TimesNewRomanPSMT-13" transform="translate(100 0)"/>
       <use xlink:href="#TimesNewRomanPSMT-13" transform="translate(150 0)"/>
       <use xlink:href="#TimesNewRomanPSMT-13" transform="translate(200 0)"/>
      </g>
     </g>
    </g>
    <g id="xtick_6">
     <g id="line2d_11">
      <path d="M 805.849439 434.834597
L 805.849439 14.04
" clip-path="url(#p6c221a61a1)" style="fill: none; stroke: #b0b0b0; stroke-opacity: 0.3; stroke-width: 0.8; stroke-linecap: square"/>
     </g>
     <g id="line2d_12">
      <g>
       <use xlink:href="#mc1163ddfb9" x="805.849439" y="434.834597" style="stroke: #000000; stroke-width: 0.8"/>
      </g>
     </g>
     <g id="text_6">
      <!-- 25000 -->
      <g transform="translate(793.349439 445.268191) scale(0.1 -0.1)">
       <use xlink:href="#TimesNewRomanPSMT-15"/>
       <use xlink:href="#TimesNewRomanPSMT-18" transform="translate(50 0)"/>
       <use xlink:href="#TimesNewRomanPSMT-13" transform="translate(100 0)"/>
       <use xlink:href="#TimesNewRomanPSMT-13" transform="translate(150 0)"/>
       <use xlink:href="#TimesNewRomanPSMT-13" transform="translate(200 0)"/>
      </g>
     </g>
    </g>
    <g id="xtick_7">
     <g id="line2d_13">
      <path d="M 950.272947 434.834597
L 950.272947 14.04
" clip-path="url(#p6c221a61a1)" style="fill: none; stroke: #b0b0b0; stroke-opacity: 0.3; stroke-width: 0.8; stroke-linecap: square"/>
     </g>
     <g id="line2d_14">
      <g>
       <use xlink:href="#mc1163ddfb9" x="950.272947" y="434.834597" style="stroke: #000000; stroke-width: 0.8"/>
      </g>
     </g>
     <g id="text_7">
      <!-- 30000 -->
      <g transform="translate(937.772947 445.268191) scale(0.1 -0.1)">
       <defs>
        <path id="TimesNewRomanPSMT-16" d="M 325 3431
Q 506 3859 782 4092
Q 1059 4325 1472 4325
Q 1981 4325 2253 3994
Q 2459 3747 2459 3466
Q 2459 3003 1878 2509
Q 2269 2356 2469 2072
Q 2669 1788 2669 1403
Q 2669 853 2319 450
Q 1863 -75 997 -75
Q 569 -75 414 31
Q 259 138 259 259
Q 259 350 332 419
Q 406 488 509 488
Q 588 488 669 463
Q 722 447 909 348
Q 1097 250 1169 231
Q 1284 197 1416 197
Q 1734 197 1970 444
Q 2206 691 2206 1028
Q 2206 1275 2097 1509
Q 2016 1684 1919 1775
Q 1784 1900 1550 2001
Q 1316 2103 1072 2103
L 972 2103
L 972 2197
Q 1219 2228 1467 2375
Q 1716 2522 1828 2728
Q 1941 2934 1941 3181
Q 1941 3503 1739 3701
Q 1538 3900 1238 3900
Q 753 3900 428 3381
L 325 3431
z
" transform="scale(0.015625)"/>
       </defs>
       <use xlink:href="#TimesNewRomanPSMT-16"/>
       <use xlink:href="#TimesNewRomanPSMT-13" transform="translate(50 0)"/>
       <use xlink:href="#TimesNewRomanPSMT-13" transform="translate(100 0)"/>
       <use xlink:href="#TimesNewRomanPSMT-13" transform="translate(150 0)"/>
       <use xlink:href="#TimesNewRomanPSMT-13" transform="translate(200 0)"/>
      </g>
     </g>
    </g>
    <g id="text_8">
     <!-- Time (s) -->
     <g transform="translate(495.949922 463.560144) scale(0.12 -0.12)">
      <defs>
       <path id="TimesNewRomanPS-BoldMT-37" d="M 4038 4238
L 4038 3091
L 3925 3091
Q 3825 3488 3703 3661
Q 3581 3834 3369 3938
Q 3250 3994 2953 3994
L 2638 3994
L 2638 725
Q 2638 400 2673 319
Q 2709 238 2814 177
Q 2919 116 3100 116
L 3241 116
L 3241 0
L 1022 0
L 1022 116
L 1163 116
Q 1347 116 1459 181
Q 1541 225 1588 331
Q 1622 406 1622 725
L 1622 3994
L 1316 3994
Q 888 3994 694 3813
Q 422 3559 350 3091
L 231 3091
L 231 4238
L 4038 4238
z
" transform="scale(0.015625)"/>
       <path id="TimesNewRomanPS-BoldMT-4c" d="M 919 4338
Q 1122 4338 1262 4195
Q 1403 4053 1403 3853
Q 1403 3653 1261 3512
Q 1119 3372 919 3372
Q 719 3372 578 3512
Q 438 3653 438 3853
Q 438 4053 578 4195
Q 719 4338 919 4338
z
M 1356 2922
L 1356 606
Q 1356 297 1428 211
Q 1500 125 1709 113
L 1709 0
L 131 0
L 131 113
Q 325 119 419 225
Q 481 297 481 606
L 481 2313
Q 481 2622 409 2708
Q 338 2794 131 2806
L 131 2922
L 1356 2922
z
" transform="scale(0.015625)"/>
       <path id="TimesNewRomanPS-BoldMT-50" d="M 1428 2922
L 1428 2538
Q 1669 2800 1873 2904
Q 2078 3009 2322 3009
Q 2603 3009 2793 2878
Q 2984 2747 3088 2478
Q 3338 2759 3567 2884
Q 3797 3009 4047 3009
Q 4350 3009 4529 2870
Q 4709 2731 4779 2517
Q 4850 2303 4850 1834
L 4850 638
Q 4850 300 4911 219
Q 4972 138 5166 113
L 5166 0
L 3656 0
L 3656 113
Q 3834 128 3919 250
Q 3975 334 3975 638
L 3975 1894
Q 3975 2284 3944 2390
Q 3913 2497 3845 2548
Q 3778 2600 3688 2600
Q 3553 2600 3415 2501
Q 3278 2403 3138 2206
L 3138 638
Q 3138 322 3191 241
Q 3263 125 3466 113
L 3466 0
L 1953 0
L 1953 113
Q 2075 119 2145 173
Q 2216 228 2239 304
Q 2263 381 2263 638
L 2263 1894
Q 2263 2291 2231 2391
Q 2200 2491 2126 2547
Q 2053 2603 1969 2603
Q 1844 2603 1741 2538
Q 1594 2441 1428 2206
L 1428 638
Q 1428 328 1489 229
Q 1550 131 1744 113
L 1744 0
L 238 0
L 238 113
Q 422 131 500 231
Q 553 300 553 638
L 553 2288
Q 553 2619 492 2700
Q 431 2781 238 2806
L 238 2922
L 1428 2922
z
" transform="scale(0.015625)"/>
       <path id="TimesNewRomanPS-BoldMT-48" d="M 2691 1566
L 1088 1566
Q 1116 984 1397 647
Q 1613 388 1916 388
Q 2103 388 2256 492
Q 2409 597 2584 869
L 2691 800
Q 2453 316 2165 114
Q 1878 -88 1500 -88
Q 850 -88 516 413
Q 247 816 247 1413
Q 247 2144 642 2576
Q 1038 3009 1569 3009
Q 2013 3009 2339 2645
Q 2666 2281 2691 1566
z
M 1922 1775
Q 1922 2278 1867 2465
Q 1813 2653 1697 2750
Q 1631 2806 1522 2806
Q 1359 2806 1256 2647
Q 1072 2369 1072 1884
L 1072 1775
L 1922 1775
z
" transform="scale(0.015625)"/>
       <path id="TimesNewRomanPS-BoldMT-3" transform="scale(0.015625)"/>
       <path id="TimesNewRomanPS-BoldMT-b" d="M 2056 4334
L 2056 4191
Q 1731 3978 1578 3775
Q 1366 3494 1247 3053
Q 1097 2506 1097 1525
Q 1097 600 1233 87
Q 1369 -425 1603 -741
Q 1766 -959 2056 -1125
L 2056 -1281
Q 1303 -1028 779 -248
Q 256 531 256 1544
Q 256 2544 778 3314
Q 1300 4084 2056 4334
z
" transform="scale(0.015625)"/>
       <path id="TimesNewRomanPS-BoldMT-56" d="M 2063 3003
L 2109 2006
L 2003 2006
Q 1813 2450 1608 2612
Q 1403 2775 1200 2775
Q 1072 2775 981 2689
Q 891 2603 891 2491
Q 891 2406 953 2328
Q 1053 2200 1512 1889
Q 1972 1578 2117 1361
Q 2263 1144 2263 875
Q 2263 631 2141 397
Q 2019 163 1797 37
Q 1575 -88 1306 -88
Q 1097 -88 747 44
Q 653 78 619 78
Q 516 78 447 -78
L 344 -78
L 294 972
L 400 972
Q 541 559 786 353
Q 1031 147 1250 147
Q 1400 147 1495 239
Q 1591 331 1591 463
Q 1591 613 1497 722
Q 1403 831 1078 1053
Q 600 1384 459 1559
Q 253 1816 253 2125
Q 253 2463 486 2736
Q 719 3009 1159 3009
Q 1397 3009 1619 2894
Q 1703 2847 1756 2847
Q 1813 2847 1847 2870
Q 1881 2894 1956 3003
L 2063 3003
z
" transform="scale(0.015625)"/>
       <path id="TimesNewRomanPS-BoldMT-c" d="M 78 -1281
L 78 -1138
Q 403 -922 556 -719
Q 766 -438 888 0
Q 1038 550 1038 1531
Q 1038 2456 902 2967
Q 766 3478 531 3794
Q 369 4013 78 4178
L 78 4334
Q 831 4081 1354 3301
Q 1878 2522 1878 1509
Q 1878 513 1354 -257
Q 831 -1028 78 -1281
z
" transform="scale(0.015625)"/>
      </defs>
      <use xlink:href="#TimesNewRomanPS-BoldMT-37"/>
      <use xlink:href="#TimesNewRomanPS-BoldMT-4c" transform="translate(64.890625 0)"/>
      <use xlink:href="#TimesNewRomanPS-BoldMT-50" transform="translate(92.671875 0)"/>
      <use xlink:href="#TimesNewRomanPS-BoldMT-48" transform="translate(175.96875 0)"/>
      <use xlink:href="#TimesNewRomanPS-BoldMT-3" transform="translate(220.359375 0)"/>
      <use xlink:href="#TimesNewRomanPS-BoldMT-b" transform="translate(245.359375 0)"/>
      <use xlink:href="#TimesNewRomanPS-BoldMT-56" transform="translate(278.65625 0)"/>
      <use xlink:href="#TimesNewRomanPS-BoldMT-c" transform="translate(317.578125 0)"/>
     </g>
    </g>
   </g>
   <g id="matplotlib.axis_2">
    <g id="ytick_1">
     <g id="line2d_15">
      <path d="M 40.404844 394.415677
L 993.6 394.415677
" clip-path="url(#p6c221a61a1)" style="fill: none; stroke: #b0b0b0; stroke-opacity: 0.3; stroke-width: 0.8; stroke-linecap: square"/>
     </g>
     <g id="line2d_16">
      <defs>
       <path id="m978104f017" d="M 0 0
L 3.5 0
" style="stroke: #000000; stroke-width: 0.8"/>
      </defs>
      <g>
       <use xlink:href="#m978104f017" x="40.404844" y="394.415677" style="stroke: #000000; stroke-width: 0.8"/>
      </g>
     </g>
     <g id="text_9">
      <!-- 40 -->
      <g transform="translate(26.904844 397.882474) scale(0.1 -0.1)">
       <defs>
        <path id="TimesNewRomanPSMT-17" d="M 2978 1563
L 2978 1119
L 2409 1119
L 2409 0
L 1894 0
L 1894 1119
L 100 1119
L 100 1519
L 2066 4325
L 2409 4325
L 2409 1563
L 2978 1563
z
M 1894 1563
L 1894 3666
L 406 1563
L 1894 1563
z
" transform="scale(0.015625)"/>
       </defs>
       <use xlink:href="#TimesNewRomanPSMT-17"/>
       <use xlink:href="#TimesNewRomanPSMT-13" transform="translate(50 0)"/>
      </g>
     </g>
    </g>
    <g id="ytick_2">
     <g id="line2d_17">
      <path d="M 40.404844 322.166297
L 993.6 322.166297
" clip-path="url(#p6c221a61a1)" style="fill: none; stroke: #b0b0b0; stroke-opacity: 0.3; stroke-width: 0.8; stroke-linecap: square"/>
     </g>
     <g id="line2d_18">
      <g>
       <use xlink:href="#m978104f017" x="40.404844" y="322.166297" style="stroke: #000000; stroke-width: 0.8"/>
      </g>
     </g>
     <g id="text_10">
      <!-- 42 -->
      <g transform="translate(26.904844 325.633094) scale(0.1 -0.1)">
       <use xlink:href="#TimesNewRomanPSMT-17"/>
       <use xlink:href="#TimesNewRomanPSMT-15" transform="translate(50 0)"/>
      </g>
     </g>
    </g>
    <g id="ytick_3">
     <g id="line2d_19">
      <path d="M 40.404844 249.916916
L 993.6 249.916916
" clip-path="url(#p6c221a61a1)" style="fill: none; stroke: #b0b0b0; stroke-opacity: 0.3; stroke-width: 0.8; stroke-linecap: square"/>
     </g>
     <g id="line2d_20">
      <g>
       <use xlink:href="#m978104f017" x="40.404844" y="249.916916" style="stroke: #000000; stroke-width: 0.8"/>
      </g>
     </g>
     <g id="text_11">
      <!-- 44 -->
      <g transform="translate(26.904844 253.383713) scale(0.1 -0.1)">
       <use xlink:href="#TimesNewRomanPSMT-17"/>
       <use xlink:href="#TimesNewRomanPSMT-17" transform="translate(50 0)"/>
      </g>
     </g>
    </g>
    <g id="ytick_4">
     <g id="line2d_21">
      <path d="M 40.404844 177.667536
L 993.6 177.667536
" clip-path="url(#p6c221a61a1)" style="fill: none; stroke: #b0b0b0; stroke-opacity: 0.3; stroke-width: 0.8; stroke-linecap: square"/>
     </g>
     <g id="line2d_22">
      <g>
       <use xlink:href="#m978104f017" x="40.404844" y="177.667536" style="stroke: #000000; stroke-width: 0.8"/>
      </g>
     </g>
     <g id="text_12">
      <!-- 46 -->
      <g transform="translate(26.904844 181.134333) scale(0.1 -0.1)">
       <defs>
        <path id="TimesNewRomanPSMT-19" d="M 2869 4325
L 2869 4209
Q 2456 4169 2195 4045
Q 1934 3922 1679 3669
Q 1425 3416 1258 3105
Q 1091 2794 978 2366
Q 1428 2675 1881 2675
Q 2316 2675 2634 2325
Q 2953 1975 2953 1425
Q 2953 894 2631 456
Q 2244 -75 1606 -75
Q 1172 -75 869 213
Q 275 772 275 1663
Q 275 2231 503 2743
Q 731 3256 1154 3653
Q 1578 4050 1965 4187
Q 2353 4325 2688 4325
L 2869 4325
z
M 925 2138
Q 869 1716 869 1456
Q 869 1156 980 804
Q 1091 453 1309 247
Q 1469 100 1697 100
Q 1969 100 2183 356
Q 2397 613 2397 1088
Q 2397 1622 2184 2012
Q 1972 2403 1581 2403
Q 1463 2403 1327 2353
Q 1191 2303 925 2138
z
" transform="scale(0.015625)"/>
       </defs>
       <use xlink:href="#TimesNewRomanPSMT-17"/>
       <use xlink:href="#TimesNewRomanPSMT-19" transform="translate(50 0)"/>
      </g>
     </g>
    </g>
    <g id="ytick_5">
     <g id="line2d_23">
      <path d="M 40.404844 105.418155
L 993.6 105.418155
" clip-path="url(#p6c221a61a1)" style="fill: none; stroke: #b0b0b0; stroke-opacity: 0.3; stroke-width: 0.8; stroke-linecap: square"/>
     </g>
     <g id="line2d_24">
      <g>
       <use xlink:href="#m978104f017" x="40.404844" y="105.418155" style="stroke: #000000; stroke-width: 0.8"/>
      </g>
     </g>
     <g id="text_13">
      <!-- 48 -->
      <g transform="translate(26.904844 108.884952) scale(0.1 -0.1)">
       <defs>
        <path id="TimesNewRomanPSMT-1b" d="M 1228 2134
Q 725 2547 579 2797
Q 434 3047 434 3316
Q 434 3728 753 4026
Q 1072 4325 1600 4325
Q 2113 4325 2425 4047
Q 2738 3769 2738 3413
Q 2738 3175 2569 2928
Q 2400 2681 1866 2347
Q 2416 1922 2594 1678
Q 2831 1359 2831 1006
Q 2831 559 2490 242
Q 2150 -75 1597 -75
Q 994 -75 656 303
Q 388 606 388 966
Q 388 1247 577 1523
Q 766 1800 1228 2134
z
M 1719 2469
Q 2094 2806 2194 3001
Q 2294 3197 2294 3444
Q 2294 3772 2109 3958
Q 1925 4144 1606 4144
Q 1288 4144 1088 3959
Q 888 3775 888 3528
Q 888 3366 970 3203
Q 1053 3041 1206 2894
L 1719 2469
z
M 1375 2016
Q 1116 1797 991 1539
Q 866 1281 866 981
Q 866 578 1086 336
Q 1306 94 1647 94
Q 1984 94 2187 284
Q 2391 475 2391 747
Q 2391 972 2272 1150
Q 2050 1481 1375 2016
z
" transform="scale(0.015625)"/>
       </defs>
       <use xlink:href="#TimesNewRomanPSMT-17"/>
       <use xlink:href="#TimesNewRomanPSMT-1b" transform="translate(50 0)"/>
      </g>
     </g>
    </g>
    <g id="ytick_6">
     <g id="line2d_25">
      <path d="M 40.404844 33.168775
L 993.6 33.168775
" clip-path="url(#p6c221a61a1)" style="fill: none; stroke: #b0b0b0; stroke-opacity: 0.3; stroke-width: 0.8; stroke-linecap: square"/>
     </g>
     <g id="line2d_26">
      <g>
       <use xlink:href="#m978104f017" x="40.404844" y="33.168775" style="stroke: #000000; stroke-width: 0.8"/>
      </g>
     </g>
     <g id="text_14">
      <!-- 50 -->
      <g transform="translate(26.904844 36.635571) scale(0.1 -0.1)">
       <use xlink:href="#TimesNewRomanPSMT-18"/>
       <use xlink:href="#TimesNewRomanPSMT-13" transform="translate(50 0)"/>
      </g>
     </g>
    </g>
    <g id="text_15">
     <!-- Controller Output (%CO) -->
     <g transform="translate(20.315 291.879173) rotate(-90) scale(0.12 -0.12)">
      <defs>
       <path id="TimesNewRomanPS-BoldMT-26" d="M 4272 4334
L 4272 2866
L 4150 2866
Q 4013 3441 3638 3747
Q 3263 4053 2788 4053
Q 2391 4053 2059 3825
Q 1728 3597 1575 3228
Q 1378 2756 1378 2178
Q 1378 1609 1522 1142
Q 1666 675 1972 436
Q 2278 197 2766 197
Q 3166 197 3498 372
Q 3831 547 4200 975
L 4200 609
Q 3844 238 3458 70
Q 3072 -97 2556 -97
Q 1878 -97 1351 175
Q 825 447 539 956
Q 253 1466 253 2041
Q 253 2647 570 3190
Q 888 3734 1427 4034
Q 1966 4334 2572 4334
Q 3019 4334 3516 4141
Q 3803 4028 3881 4028
Q 3981 4028 4054 4101
Q 4128 4175 4150 4334
L 4272 4334
z
" transform="scale(0.015625)"/>
       <path id="TimesNewRomanPS-BoldMT-52" d="M 1594 3009
Q 1975 3009 2303 2812
Q 2631 2616 2801 2253
Q 2972 1891 2972 1459
Q 2972 838 2656 419
Q 2275 -88 1603 -88
Q 944 -88 587 375
Q 231 838 231 1447
Q 231 2075 595 2542
Q 959 3009 1594 3009
z
M 1606 2788
Q 1447 2788 1333 2667
Q 1219 2547 1183 2192
Q 1147 1838 1147 1206
Q 1147 872 1191 581
Q 1225 359 1337 243
Q 1450 128 1594 128
Q 1734 128 1828 206
Q 1950 313 1991 503
Q 2053 800 2053 1703
Q 2053 2234 1993 2432
Q 1934 2631 1819 2722
Q 1738 2788 1606 2788
z
" transform="scale(0.015625)"/>
       <path id="TimesNewRomanPS-BoldMT-51" d="M 1409 2922
L 1409 2544
Q 1634 2788 1840 2898
Q 2047 3009 2284 3009
Q 2569 3009 2756 2851
Q 2944 2694 3006 2459
Q 3056 2281 3056 1775
L 3056 638
Q 3056 300 3117 217
Q 3178 134 3372 113
L 3372 0
L 1894 0
L 1894 113
Q 2059 134 2131 250
Q 2181 328 2181 638
L 2181 1938
Q 2181 2297 2153 2390
Q 2125 2484 2058 2536
Q 1991 2588 1909 2588
Q 1641 2588 1409 2203
L 1409 638
Q 1409 309 1470 221
Q 1531 134 1697 113
L 1697 0
L 219 0
L 219 113
Q 403 131 481 231
Q 534 300 534 638
L 534 2288
Q 534 2619 473 2700
Q 413 2781 219 2806
L 219 2922
L 1409 2922
z
" transform="scale(0.015625)"/>
       <path id="TimesNewRomanPS-BoldMT-57" d="M 1375 3991
L 1375 2922
L 2069 2922
L 2069 2613
L 1375 2613
L 1375 809
Q 1375 556 1398 482
Q 1422 409 1481 364
Q 1541 319 1591 319
Q 1794 319 1975 628
L 2069 559
Q 1816 -41 1247 -41
Q 969 -41 776 114
Q 584 269 531 459
Q 500 566 500 1034
L 500 2613
L 119 2613
L 119 2722
Q 513 3000 789 3306
Q 1066 3613 1272 3991
L 1375 3991
z
" transform="scale(0.015625)"/>
       <path id="TimesNewRomanPS-BoldMT-55" d="M 1428 2922
L 1428 2259
Q 1719 2713 1937 2861
Q 2156 3009 2359 3009
Q 2534 3009 2639 2901
Q 2744 2794 2744 2597
Q 2744 2388 2642 2272
Q 2541 2156 2397 2156
Q 2231 2156 2109 2262
Q 1988 2369 1966 2381
Q 1934 2400 1894 2400
Q 1803 2400 1722 2331
Q 1594 2225 1528 2028
Q 1428 1725 1428 1359
L 1428 688
L 1431 513
Q 1431 334 1453 284
Q 1491 200 1564 161
Q 1638 122 1813 113
L 1813 0
L 234 0
L 234 113
Q 425 128 492 217
Q 559 306 559 688
L 559 2303
Q 559 2553 534 2622
Q 503 2709 443 2750
Q 384 2791 234 2806
L 234 2922
L 1428 2922
z
" transform="scale(0.015625)"/>
       <path id="TimesNewRomanPS-BoldMT-4f" d="M 1359 4238
L 1359 606
Q 1359 297 1431 211
Q 1503 125 1713 113
L 1713 0
L 134 0
L 134 113
Q 328 119 422 225
Q 484 297 484 606
L 484 3631
Q 484 3938 412 4023
Q 341 4109 134 4122
L 134 4238
L 1359 4238
z
" transform="scale(0.015625)"/>
       <path id="TimesNewRomanPS-BoldMT-32" d="M 2472 4297
Q 3484 4334 4117 3706
Q 4750 3078 4750 2134
Q 4750 1328 4278 716
Q 3653 -97 2513 -97
Q 1369 -97 744 678
Q 250 1291 250 2131
Q 250 3075 892 3704
Q 1534 4334 2472 4297
z
M 2509 4097
Q 1928 4097 1625 3503
Q 1378 3016 1378 2103
Q 1378 1019 1759 500
Q 2025 138 2503 138
Q 2825 138 3041 294
Q 3316 494 3469 933
Q 3622 1372 3622 2078
Q 3622 2919 3465 3336
Q 3309 3753 3067 3925
Q 2825 4097 2509 4097
z
" transform="scale(0.015625)"/>
       <path id="TimesNewRomanPS-BoldMT-58" d="M 3038 2922
L 3038 634
Q 3038 300 3100 217
Q 3163 134 3353 113
L 3353 0
L 2163 0
L 2163 391
Q 1953 141 1743 26
Q 1534 -88 1275 -88
Q 1028 -88 836 64
Q 644 216 578 419
Q 513 622 513 1128
L 513 2288
Q 513 2619 452 2700
Q 391 2781 197 2806
L 197 2922
L 1388 2922
L 1388 925
Q 1388 613 1417 522
Q 1447 431 1511 384
Q 1575 338 1659 338
Q 1772 338 1863 397
Q 1988 478 2163 725
L 2163 2288
Q 2163 2619 2102 2700
Q 2041 2781 1847 2806
L 1847 2922
L 3038 2922
z
" transform="scale(0.015625)"/>
       <path id="TimesNewRomanPS-BoldMT-53" d="M 1347 297
L 1347 -791
Q 1347 -1016 1383 -1097
Q 1419 -1178 1494 -1215
Q 1569 -1253 1788 -1253
L 1788 -1369
L 122 -1369
L 122 -1253
Q 316 -1247 409 -1144
Q 472 -1072 472 -772
L 472 2313
Q 472 2622 400 2708
Q 328 2794 122 2806
L 122 2922
L 1347 2922
L 1347 2538
Q 1500 2763 1659 2863
Q 1888 3009 2156 3009
Q 2478 3009 2742 2806
Q 3006 2603 3143 2245
Q 3281 1888 3281 1475
Q 3281 1031 3139 664
Q 2997 297 2726 104
Q 2456 -88 2125 -88
Q 1884 -88 1675 19
Q 1519 100 1347 297
z
M 1347 613
Q 1616 231 1922 231
Q 2091 231 2200 409
Q 2363 672 2363 1409
Q 2363 2166 2184 2444
Q 2066 2628 1866 2628
Q 1550 2628 1347 2172
L 1347 613
z
" transform="scale(0.015625)"/>
       <path id="TimesNewRomanPS-BoldMT-8" d="M 4916 4334
L 1906 -178
L 1488 -178
L 4494 4334
L 4916 4334
z
M 1494 4334
Q 1938 4334 2242 4020
Q 2547 3706 2547 3209
Q 2547 2700 2240 2383
Q 1934 2066 1481 2066
Q 1034 2066 739 2372
Q 444 2678 444 3178
Q 444 3694 747 4014
Q 1050 4334 1494 4334
z
M 1494 4169
Q 1425 4169 1381 4128
Q 1303 4056 1264 3879
Q 1225 3703 1225 3150
Q 1225 2709 1278 2469
Q 1309 2331 1384 2263
Q 1431 2222 1494 2222
Q 1563 2222 1603 2259
Q 1675 2325 1709 2472
Q 1763 2709 1763 3138
Q 1763 3663 1713 3897
Q 1678 4059 1600 4134
Q 1563 4169 1494 4169
z
M 4894 2097
Q 5347 2097 5651 1786
Q 5956 1475 5956 972
Q 5956 463 5647 144
Q 5338 -175 4900 -175
Q 4466 -175 4161 144
Q 3856 463 3856 963
Q 3856 1466 4153 1781
Q 4450 2097 4894 2097
z
M 4903 1934
Q 4841 1934 4797 1897
Q 4722 1828 4681 1658
Q 4641 1488 4641 1006
Q 4641 494 4688 269
Q 4722 109 4803 38
Q 4844 0 4909 0
Q 4969 0 5006 34
Q 5084 106 5122 269
Q 5175 497 5175 959
Q 5175 1447 5125 1672
Q 5088 1834 5013 1900
Q 4975 1934 4903 1934
z
" transform="scale(0.015625)"/>
      </defs>
      <use xlink:href="#TimesNewRomanPS-BoldMT-26"/>
      <use xlink:href="#TimesNewRomanPS-BoldMT-52" transform="translate(72.21875 0)"/>
      <use xlink:href="#TimesNewRomanPS-BoldMT-51" transform="translate(122.21875 0)"/>
      <use xlink:href="#TimesNewRomanPS-BoldMT-57" transform="translate(177.828125 0)"/>
      <use xlink:href="#TimesNewRomanPS-BoldMT-55" transform="translate(211.125 0)"/>
      <use xlink:href="#TimesNewRomanPS-BoldMT-52" transform="translate(253.703125 0)"/>
      <use xlink:href="#TimesNewRomanPS-BoldMT-4f" transform="translate(303.703125 0)"/>
      <use xlink:href="#TimesNewRomanPS-BoldMT-4f" transform="translate(331.484375 0)"/>
      <use xlink:href="#TimesNewRomanPS-BoldMT-48" transform="translate(359.265625 0)"/>
      <use xlink:href="#TimesNewRomanPS-BoldMT-55" transform="translate(403.65625 0)"/>
      <use xlink:href="#TimesNewRomanPS-BoldMT-3" transform="translate(446.234375 0)"/>
      <use xlink:href="#TimesNewRomanPS-BoldMT-32" transform="translate(471.234375 0)"/>
      <use xlink:href="#TimesNewRomanPS-BoldMT-58" transform="translate(549.015625 0)"/>
      <use xlink:href="#TimesNewRomanPS-BoldMT-57" transform="translate(604.625 0)"/>
      <use xlink:href="#TimesNewRomanPS-BoldMT-53" transform="translate(637.921875 0)"/>
      <use xlink:href="#TimesNewRomanPS-BoldMT-58" transform="translate(693.53125 0)"/>
      <use xlink:href="#TimesNewRomanPS-BoldMT-57" transform="translate(749.140625 0)"/>
      <use xlink:href="#TimesNewRomanPS-BoldMT-3" transform="translate(782.4375 0)"/>
      <use xlink:href="#TimesNewRomanPS-BoldMT-b" transform="translate(807.4375 0)"/>
      <use xlink:href="#TimesNewRomanPS-BoldMT-8" transform="translate(840.734375 0)"/>
      <use xlink:href="#TimesNewRomanPS-BoldMT-26" transform="translate(940.734375 0)"/>
      <use xlink:href="#TimesNewRomanPS-BoldMT-32" transform="translate(1012.953125 0)"/>
      <use xlink:href="#TimesNewRomanPS-BoldMT-c" transform="translate(1090.734375 0)"/>
     </g>
    </g>
   </g>
   <g id="line2d_27">
    <path d="M 83.731896 33.168775
L 101.048275 33.167027
L 101.062717 394.41306
L 101.163814 394.359659
L 101.394891 394.001829
L 101.871489 392.727528
L 103.416821 387.709759
L 107.821738 373.588092
L 113.093196 357.393856
L 118.148018 342.494872
L 123.217284 328.238908
L 128.257664 314.71983
L 133.341371 301.716764
L 138.453964 289.246561
L 143.595441 277.289418
L 148.75136 265.858999
L 153.921721 254.937298
L 159.120968 244.471214
L 164.334656 234.471544
L 169.57723 224.896997
L 174.877573 215.677871
L 180.149031 206.949717
L 185.507143 198.507207
L 190.923024 190.387119
L 196.353348 182.649578
L 201.841442 175.215094
L 207.343977 168.132198
L 212.918725 161.320747
L 218.580126 154.753636
L 224.270412 148.490826
L 230.047353 142.467061
L 235.92539 136.658784
L 241.846753 131.118249
L 247.869214 125.791065
L 254.021655 120.645547
L 260.188539 115.774442
L 266.528731 111.051379
L 273.027789 106.487016
L 279.42575 102.259379
L 286.184771 98.057924
L 293.102657 94.019651
L 300.193851 90.137825
L 307.472796 86.407475
L 314.968376 82.811325
L 322.651706 79.372149
L 330.479461 76.112104
L 338.422754 73.044591
L 347.535877 69.779767
L 356.201287 66.919423
L 365.054449 64.231432
L 374.283111 61.664626
L 383.988371 59.184806
L 394.054689 56.843295
L 404.482066 54.647257
L 416.122601 52.433384
L 427.84979 50.435993
L 440.241327 48.55305
L 453.383866 46.781659
L 467.450716 45.112951
L 482.153029 43.591849
L 498.328462 42.148898
L 515.875919 40.807981
L 535.05536 39.580782
L 556.083423 38.458207
L 579.884417 37.426757
L 607.902578 36.439441
L 636.122932 35.666758
L 677.240305 34.814138
L 719.931894 34.223074
L 753.813649 33.952087
L 939.094568 33.398169
L 950.272947 33.375465
L 950.272947 33.375465
" clip-path="url(#p6c221a61a1)" style="fill: none; stroke: #0055cc; stroke-width: 2; stroke-linecap: square"/>
   </g>
   <g id="line2d_28">
    <path d="M 83.731896 54.460667
L 101.062717 54.460667
L 101.120487 415.70757
L 101.178256 415.67867
L 101.640411 414.826127
L 101.885931 414.107246
L 101.929258 414.020547
L 102.145894 413.326953
L 102.189221 413.236641
L 102.434741 412.434673
L 102.478068 412.340749
L 102.694703 411.618255
L 102.73803 411.527943
L 102.954665 410.798224
L 102.997992 410.711525
L 103.214628 409.981806
L 103.257955 409.891495
L 103.47459 409.165388
L 103.517917 409.075077
L 103.734552 408.34897
L 103.777879 408.258659
L 103.994515 407.536165
L 104.037842 407.442241
L 104.254477 406.719747
L 104.297804 406.633048
L 104.514439 405.906941
L 104.557766 405.81663
L 104.803286 405.007436
L 104.846613 404.917125
L 105.092133 404.107932
L 105.13546 404.01762
L 105.38098 403.212039
L 105.424307 403.121728
L 105.669827 402.31976
L 105.713154 402.229448
L 105.958674 401.42748
L 106.002001 401.337168
L 106.218637 400.629124
L 106.261964 400.538812
L 106.478599 399.830768
L 106.521926 399.740457
L 106.738561 399.036025
L 106.781888 398.945713
L 106.998524 398.23767
L 107.041851 398.154583
L 107.258486 397.446539
L 107.301813 397.356227
L 107.547333 396.568709
L 107.59066 396.48201
L 107.807295 395.784803
L 107.850622 395.694491
L 108.067257 394.997285
L 108.110585 394.910586
L 108.32722 394.216991
L 108.370547 394.12668
L 108.587182 393.429473
L 108.630509 393.349999
L 108.847144 392.652792
L 108.890471 392.566093
L 109.135991 391.789412
L 109.179319 391.702713
L 109.424838 390.929645
L 109.468166 390.842945
L 109.713685 390.069877
L 109.757013 389.983178
L 110.002533 389.213722
L 110.04586 389.127023
L 110.29138 388.361179
L 110.334707 388.27448
L 110.580227 387.508637
L 110.623554 387.42555
L 110.840189 386.746406
L 110.883516 386.663319
L 111.100151 385.987787
L 111.143478 385.901088
L 111.360113 385.225556
L 111.403441 385.142469
L 111.620076 384.463325
L 111.663403 384.383851
L 111.880038 383.708319
L 111.923365 383.625232
L 112.168885 382.870226
L 112.212212 382.787139
L 112.457732 382.035746
L 112.501059 381.952659
L 112.746579 381.201266
L 112.789906 381.118179
L 113.035426 380.370398
L 113.078753 380.287311
L 113.324273 379.53953
L 113.3676 379.456443
L 113.61312 378.715887
L 113.656447 378.629188
L 113.901967 377.888631
L 113.945294 377.805545
L 114.190814 377.064989
L 114.234141 376.981902
L 114.479661 376.244958
L 114.522988 376.161871
L 114.768508 375.42854
L 114.811835 375.345453
L 115.057355 374.612122
L 115.100682 374.529035
L 115.346202 373.799317
L 115.389529 373.71623
L 115.606165 373.069598
L 115.649492 372.986511
L 115.866127 372.339879
L 115.909454 372.256792
L 116.126089 371.613773
L 116.169416 371.530686
L 116.386052 370.884054
L 116.429379 370.808192
L 116.646014 370.16156
L 116.689341 370.078473
L 116.934861 369.359592
L 116.978188 369.276505
L 117.223708 368.557624
L 117.267035 368.47815
L 117.512555 367.759268
L 117.555882 367.679794
L 117.801402 366.964525
L 117.844729 366.881438
L 118.090249 366.169782
L 118.133576 366.090308
L 118.379096 365.378651
L 118.422423 365.295564
L 118.667943 364.587521
L 118.71127 364.508046
L 118.95679 363.800002
L 119.000117 363.720528
L 119.245637 363.012484
L 119.288964 362.93301
L 119.534484 362.228578
L 119.577811 362.149104
L 119.823331 361.448285
L 119.866658 361.368811
L 120.112178 360.667992
L 120.155505 360.588517
L 120.401025 359.887698
L 120.444352 359.811836
L 120.689872 359.11463
L 120.733199 359.035156
L 120.949834 358.417423
L 120.993162 358.337949
L 121.209797 357.723829
L 121.253124 357.644355
L 121.469759 357.030235
L 121.513086 356.954373
L 121.729721 356.336641
L 121.773048 356.260779
L 121.989684 355.64666
L 122.033011 355.567185
L 122.278531 354.880816
L 122.321858 354.804954
L 122.538493 354.194447
L 122.58182 354.118585
L 122.798455 353.51169
L 122.841782 353.432216
L 123.058418 352.828934
L 123.101745 352.74946
L 123.31838 352.142565
L 123.361707 352.070315
L 123.578342 351.463421
L 123.621669 351.387559
L 123.867189 350.708415
L 123.910516 350.632553
L 124.156036 349.957021
L 124.199363 349.881159
L 124.444883 349.205627
L 124.48821 349.129766
L 124.73373 348.457846
L 124.777057 348.381984
L 125.022577 347.710065
L 125.065904 347.634203
L 125.311424 346.965897
L 125.354751 346.890035
L 125.600271 346.221728
L 125.643598 346.149479
L 125.889118 345.481172
L 125.932445 345.408922
L 126.177965 344.744228
L 126.221293 344.668366
L 126.466812 344.007284
L 126.51014 343.931423
L 126.755659 343.270341
L 126.798987 343.198091
L 127.015622 342.612871
L 127.058949 342.53701
L 127.275584 341.955402
L 127.318911 341.87954
L 127.535546 341.297933
L 127.578873 341.225683
L 127.795509 340.640463
L 127.838836 340.568214
L 128.055471 339.986606
L 128.098798 339.914357
L 128.315433 339.336362
L 128.35876 339.2605
L 128.575396 338.686118
L 128.618723 338.610256
L 128.835358 338.035873
L 128.878685 337.963624
L 129.09532 337.385629
L 129.138647 337.316992
L 129.355283 336.738997
L 129.39861 336.666747
L 129.64413 336.023728
L 129.687457 335.951479
L 129.932977 335.308459
L 129.976304 335.23621
L 130.221824 334.596803
L 130.265151 334.524553
L 130.510671 333.885146
L 130.553998 333.812897
L 130.799518 333.17349
L 130.842845 333.104853
L 131.088365 332.469058
L 131.131692 332.396809
L 131.377212 331.761014
L 131.420539 331.692378
L 131.666059 331.056583
L 131.709386 330.987946
L 131.954906 330.355764
L 131.998233 330.287127
L 132.243753 329.654945
L 132.28708 329.586308
L 132.503715 329.029988
L 132.547042 328.957739
L 132.763677 328.401418
L 132.807005 328.332781
L 133.02364 327.776461
L 133.066967 327.707824
L 133.283602 327.147892
L 133.326929 327.082867
L 133.543564 326.526547
L 133.586891 326.45791
L 133.832411 325.836565
L 133.875738 325.767928
L 134.121258 325.150196
L 134.164585 325.077947
L 134.410105 324.463827
L 134.453432 324.391578
L 134.698952 323.777458
L 134.74228 323.708821
L 134.987799 323.094701
L 135.031127 323.026064
L 135.276646 322.411945
L 135.319974 322.343308
L 135.565494 321.7328
L 135.608821 321.664164
L 135.854341 321.053656
L 135.897668 320.985019
L 136.143188 320.378125
L 136.186515 320.309488
L 136.432035 319.702593
L 136.475362 319.633956
L 136.720882 319.030674
L 136.764209 318.962037
L 137.009729 318.358754
L 137.053056 318.29373
L 137.298576 317.690448
L 137.341903 317.621811
L 137.587423 317.022141
L 137.63075 316.957116
L 137.87627 316.357447
L 137.919597 316.28881
L 138.165117 315.692752
L 138.208444 315.624115
L 138.453964 315.03167
L 138.497291 314.963034
L 138.742811 314.370589
L 138.786138 314.301952
L 139.031658 313.709507
L 139.074985 313.644482
L 139.29162 313.120674
L 139.334947 313.052037
L 139.551582 312.528229
L 139.594909 312.463205
L 139.811545 311.943009
L 139.854872 311.874372
L 140.071507 311.350564
L 140.114834 311.289153
L 140.331469 310.765344
L 140.374796 310.70032
L 140.620316 310.1151
L 140.663643 310.050076
L 140.909163 309.468468
L 140.95249 309.403444
L 141.169126 308.886861
L 141.212453 308.821836
L 141.429088 308.305253
L 141.472415 308.240229
L 141.68905 307.727258
L 141.732377 307.662234
L 141.949013 307.145651
L 141.99234 307.084239
L 142.208975 306.571268
L 142.252302 306.506244
L 142.497822 305.931861
L 142.541149 305.866836
L 142.786669 305.296066
L 142.829996 305.231042
L 143.075516 304.660272
L 143.118843 304.595247
L 143.364363 304.024477
L 143.40769 303.959453
L 143.65321 303.392295
L 143.696537 303.327271
L 143.942057 302.760113
L 143.985384 302.698701
L 144.230904 302.131544
L 144.274231 302.066519
L 144.519751 301.502974
L 144.563078 301.441562
L 144.808598 300.878017
L 144.851925 300.812992
L 145.097445 300.25306
L 145.140772 300.191648
L 145.386292 299.631715
L 145.429619 299.566691
L 145.675139 299.01037
L 145.718466 298.945346
L 145.963986 298.389026
L 146.007313 298.327614
L 146.223948 297.832705
L 146.267275 297.771293
L 146.483911 297.279998
L 146.527238 297.218586
L 146.743873 296.72729
L 146.7872 296.662265
L 147.003835 296.17097
L 147.047162 296.11317
L 147.263798 295.621874
L 147.307125 295.55685
L 147.552645 295.007755
L 147.595972 294.946343
L 147.841492 294.40086
L 147.884819 294.339448
L 148.130339 293.793965
L 148.173666 293.732553
L 148.390301 293.248482
L 148.433628 293.18707
L 148.650263 292.702999
L 148.69359 292.641587
L 148.910226 292.161129
L 148.953553 292.099717
L 149.170188 291.615646
L 149.213515 291.557847
L 149.43015 291.077388
L 149.473477 291.015976
L 149.718997 290.477718
L 149.762324 290.416306
L 150.007844 289.878049
L 150.051171 289.820249
L 150.296691 289.281991
L 150.340018 289.224192
L 150.585538 288.689546
L 150.628865 288.628134
L 150.874385 288.093489
L 150.917712 288.035689
L 151.163232 287.504656
L 151.206559 287.443244
L 151.452079 286.912212
L 151.495407 286.854412
L 151.740926 286.323379
L 151.784254 286.26558
L 152.029773 285.738159
L 152.073101 285.676747
L 152.318621 285.152939
L 152.361948 285.091527
L 152.607468 284.567719
L 152.650795 284.50992
L 152.86743 284.043911
L 152.910757 283.986112
L 153.127392 283.520103
L 153.170719 283.462304
L 153.387354 282.999908
L 153.430682 282.942108
L 153.647317 282.4761
L 153.690644 282.421913
L 153.907279 281.955904
L 153.950606 281.898104
L 154.196126 281.381521
L 154.239453 281.323722
L 154.484973 280.807139
L 154.5283 280.749339
L 154.77382 280.232756
L 154.817147 280.174957
L 155.062667 279.661986
L 155.105994 279.604187
L 155.351514 279.091216
L 155.394841 279.033417
L 155.640361 278.524058
L 155.683688 278.466259
L 155.929208 277.956901
L 155.972535 277.899101
L 156.218055 277.393356
L 156.261382 277.335556
L 156.506902 276.826198
L 156.579114 276.717824
L 156.795749 276.266265
L 156.839076 276.208466
L 157.084596 275.70272
L 157.156808 275.594346
L 157.373443 275.142787
L 157.445655 275.034413
L 157.66229 274.586467
L 157.705617 274.528668
L 157.951137 274.026534
L 158.023349 273.91816
L 158.268869 273.416027
L 158.341081 273.307653
L 158.557716 272.863319
L 158.629928 272.754945
L 158.846563 272.310612
L 158.918775 272.202238
L 159.13541 271.757904
L 159.207622 271.64953
L 159.453142 271.158234
L 159.496469 271.100435
L 159.741989 270.609139
L 159.785316 270.551339
L 160.030836 270.060043
L 160.103048 269.951669
L 160.348568 269.460374
L 160.420779 269.352
L 160.637415 268.918503
L 160.680742 268.864316
L 160.897377 268.43082
L 160.940704 268.376633
L 161.157339 267.939524
L 161.229551 267.834763
L 161.446186 267.401266
L 161.518398 267.292892
L 161.735033 266.863008
L 161.807245 266.754634
L 162.02388 266.324751
L 162.096092 266.219989
L 162.312727 265.790105
L 162.384939 265.685343
L 162.601574 265.25546
L 162.673786 265.150698
L 162.890421 264.720814
L 162.962633 264.616053
L 163.179268 264.189781
L 163.25148 264.08502
L 163.468115 263.658748
L 163.540327 263.553987
L 163.785847 263.080753
L 163.858059 262.972379
L 164.103579 262.499146
L 164.175791 262.394384
L 164.392426 261.975338
L 164.464638 261.866964
L 164.710158 261.397343
L 164.782369 261.288969
L 165.056774 260.768773
L 165.128986 260.664012
L 165.374506 260.198003
L 165.446717 260.089629
L 165.692237 259.62362
L 165.764449 259.518859
L 166.009969 259.05285
L 166.082181 258.948089
L 166.327701 258.485693
L 166.399913 258.380931
L 166.645433 257.914923
L 166.717644 257.813773
L 166.963164 257.351377
L 167.035376 257.250228
L 167.252011 256.842019
L 167.324223 256.737258
L 167.569743 256.278474
L 167.641955 256.173713
L 167.887475 255.714929
L 167.959686 255.61378
L 168.205206 255.154996
L 168.277418 255.05746
L 168.494053 254.649251
L 168.566265 254.548101
L 168.811785 254.09293
L 168.883997 253.991781
L 169.115075 253.587185
L 169.360595 253.135626
L 169.432806 253.038089
L 169.678326 252.582918
L 169.750538 252.485382
L 169.967173 252.084398
L 170.039385 251.983248
L 170.25602 251.582264
L 170.328232 251.484728
L 170.544867 251.087356
L 170.617079 250.989819
L 170.833714 250.588835
L 170.905926 250.491299
L 171.122561 250.093927
L 171.194773 249.996391
L 171.411408 249.599019
L 171.48362 249.501482
L 171.72914 249.060761
L 171.801352 248.959612
L 172.046872 248.518891
L 172.119084 248.421354
L 172.335719 248.027595
L 172.407931 247.930058
L 172.624566 247.539912
L 172.696778 247.442375
L 172.913413 247.052228
L 172.985625 246.954692
L 173.20226 246.568157
L 173.274472 246.470621
L 173.491107 246.080474
L 173.563319 245.982937
L 173.808839 245.549441
L 173.88105 245.451904
L 174.12657 245.018408
L 174.198782 244.924484
L 174.415417 244.53795
L 174.487629 244.444026
L 174.704264 244.057491
L 174.776476 243.963567
L 175.021996 243.530071
L 175.094208 243.436147
L 175.339728 243.009875
L 175.41194 242.912339
L 175.657459 242.486067
L 175.729671 242.388531
L 175.975191 241.962259
L 176.047403 241.864723
L 176.292923 241.442064
L 176.365135 241.34814
L 176.610655 240.921868
L 176.682866 240.827944
L 176.928386 240.405285
L 177.000598 240.311361
L 177.246118 239.888702
L 177.31833 239.794778
L 177.534965 239.422694
L 177.607177 239.328769
L 177.823812 238.956685
L 177.896024 238.862761
L 178.112659 238.490677
L 178.184871 238.396752
L 178.401506 238.024668
L 178.473718 237.930744
L 178.690353 237.562272
L 178.762565 237.468348
L 178.9792 237.099876
L 179.051412 237.009564
L 179.268047 236.641093
L 179.340259 236.547168
L 179.556894 236.182309
L 179.629106 236.088385
L 179.845741 235.723525
L 179.917953 235.629601
L 180.134588 235.264742
L 180.2068 235.17443
L 180.423435 234.809571
L 180.495647 234.719259
L 180.712282 234.3544
L 180.784494 234.264088
L 181.001129 233.902841
L 181.073341 233.808917
L 181.318861 233.40432
L 181.391073 233.314009
L 181.636593 232.9058
L 181.708804 232.8191
L 181.92544 232.457853
L 181.997652 232.367542
L 182.243171 231.962945
L 182.315383 231.876246
L 182.532018 231.514999
L 182.60423 231.4283
L 182.820866 231.070665
L 182.893077 230.980354
L 183.138597 230.582982
L 183.210809 230.49267
L 183.427444 230.138648
L 183.499656 230.048337
L 183.745176 229.650965
L 183.817388 229.560653
L 184.062908 229.163282
L 184.135119 229.076582
L 184.380639 228.679211
L 184.452851 228.592512
L 184.698371 228.198752
L 184.770583 228.112053
L 184.987218 227.758031
L 185.05943 227.674944
L 185.276065 227.320922
L 185.348277 227.237836
L 185.593797 226.844077
L 185.666009 226.757377
L 185.911529 226.367231
L 185.98374 226.280531
L 186.22926 225.890385
L 186.301472 225.803685
L 186.546992 225.417151
L 186.619204 225.330452
L 186.864724 224.940305
L 186.936935 224.857219
L 187.182455 224.470684
L 187.254667 224.383985
L 187.471302 224.044413
L 187.543514 223.957714
L 187.789034 223.57118
L 187.861246 223.488093
L 188.077881 223.148521
L 188.150093 223.061821
L 188.366728 222.722249
L 188.43894 222.63555
L 188.655575 222.29959
L 188.727787 222.212891
L 188.944422 221.876932
L 189.016634 221.790232
L 189.233269 221.454273
L 189.305481 221.371186
L 189.522116 221.035226
L 189.594328 220.948527
L 189.839848 220.57283
L 189.91206 220.489743
L 190.128695 220.153784
L 190.200907 220.070697
L 190.446427 219.695
L 190.518639 219.611914
L 190.764158 219.236217
L 190.83637 219.156742
L 191.053005 218.824395
L 191.125217 218.741308
L 191.370737 218.369224
L 191.442949 218.286137
L 191.688469 217.914053
L 191.760681 217.830966
L 192.006201 217.462494
L 192.078412 217.379408
L 192.323932 217.010936
L 192.396144 216.931462
L 192.612779 216.602727
L 192.684991 216.523253
L 192.901626 216.194518
L 192.973838 216.115044
L 193.190473 215.786309
L 193.262685 215.706835
L 193.508205 215.341975
L 193.580417 215.262501
L 193.797052 214.937379
L 193.869264 214.857904
L 194.085899 214.532782
L 194.158111 214.453308
L 194.403631 214.092061
L 194.475843 214.008974
L 194.721363 213.65134
L 194.793574 213.568253
L 195.039094 213.210618
L 195.111306 213.127532
L 195.385711 212.73016
L 195.457922 212.650686
L 195.703442 212.293051
L 195.775654 212.213577
L 196.021174 211.855943
L 196.093386 211.776468
L 196.338906 211.422446
L 196.411118 211.342972
L 196.656638 210.985337
L 196.728849 210.909476
L 196.974369 210.551841
L 197.046581 210.475979
L 197.292101 210.121957
L 197.364313 210.046096
L 197.609833 209.692074
L 197.682045 209.612599
L 197.927564 209.26219
L 197.999776 209.186328
L 198.245296 208.835918
L 198.317508 208.760057
L 198.563028 208.409647
L 198.63524 208.330173
L 198.88076 207.983376
L 198.952971 207.907514
L 199.184049 207.596842
L 199.429569 207.250045
L 199.501781 207.174183
L 199.747301 206.830998
L 199.819512 206.751524
L 200.065032 206.408339
L 200.137244 206.332477
L 200.353879 206.025418
L 200.426091 205.949556
L 200.642726 205.646108
L 200.714938 205.570246
L 200.931573 205.266799
L 201.003785 205.190937
L 201.22042 204.88749
L 201.292632 204.811628
L 201.509268 204.511793
L 201.581479 204.432319
L 201.826999 204.096359
L 201.899211 204.020497
L 202.144731 203.680925
L 202.216943 203.608676
L 202.433578 203.308841
L 202.50579 203.232979
L 202.75131 202.897019
L 202.823521 202.821157
L 203.069041 202.48881
L 203.141253 202.412948
L 203.357888 202.116726
L 203.4301 202.040864
L 203.67562 201.708517
L 203.747832 201.632655
L 203.993352 201.300308
L 204.094448 201.191934
L 204.311084 200.895711
L 204.41218 200.787337
L 204.628815 200.491115
L 204.729912 200.382741
L 204.946547 200.090131
L 205.018759 200.014269
L 205.264279 199.685534
L 205.365375 199.57716
L 205.610895 199.248426
L 205.711992 199.140052
L 205.957512 198.814929
L 206.029723 198.74268
L 206.246359 198.453682
L 206.31857 198.377821
L 206.56409 198.052698
L 206.665187 197.944324
L 206.939591 197.58669
L 207.040688 197.478316
L 207.286208 197.156806
L 207.387304 197.048432
L 207.632824 196.726922
L 207.733921 196.618548
L 207.979441 196.297038
L 208.080537 196.192277
L 208.326057 195.870767
L 208.427154 195.766005
L 208.672674 195.444496
L 208.77377 195.339734
L 209.01929 195.021837
L 209.120386 194.913463
L 209.394791 194.563053
L 209.495888 194.458292
L 209.726965 194.176519
L 210.00137 193.829722
L 210.102466 193.721348
L 210.319102 193.443188
L 210.420198 193.338426
L 210.694603 192.988017
L 210.795699 192.886868
L 211.012334 192.608708
L 211.113431 192.503946
L 211.330066 192.229398
L 211.431163 192.124637
L 211.676683 191.813964
L 211.777779 191.709203
L 212.023299 191.402143
L 212.124395 191.297381
L 212.341031 191.022834
L 212.442127 190.921685
L 212.658762 190.647137
L 212.759859 190.545988
L 212.976494 190.27144
L 213.077591 190.170291
L 213.323111 189.863231
L 213.424207 189.762082
L 213.640842 189.491147
L 213.741939 189.389998
L 213.987459 189.08655
L 214.088555 188.985401
L 214.30519 188.714466
L 214.406287 188.613317
L 214.651807 188.309869
L 214.752903 188.20872
L 214.998423 187.908885
L 215.09952 187.807736
L 215.34504 187.507901
L 215.446136 187.406752
L 215.691656 187.106917
L 215.792752 187.009381
L 216.038272 186.709546
L 216.139369 186.612009
L 216.356004 186.348299
L 216.457101 186.24715
L 216.702621 185.950927
L 216.803717 185.85339
L 217.020352 185.58968
L 217.121449 185.488531
L 217.366969 185.195921
L 217.468065 185.094772
L 217.713585 184.802162
L 217.814682 184.704625
L 218.060202 184.408403
L 218.161298 184.314479
L 218.406818 184.021869
L 218.507914 183.924332
L 218.753434 183.631722
L 218.854531 183.534185
L 219.100051 183.245188
L 219.201147 183.147651
L 219.446667 182.858654
L 219.547764 182.761117
L 219.793284 182.472119
L 219.89438 182.378195
L 220.1399 182.089198
L 220.240997 181.991661
L 220.515401 181.673764
L 220.616498 181.57984
L 220.862018 181.290842
L 220.963114 181.196918
L 221.208634 180.911533
L 221.309731 180.817609
L 221.55525 180.532224
L 221.656347 180.438299
L 221.901867 180.152914
L 222.002963 180.05899
L 222.277368 179.748318
L 222.378464 179.650781
L 222.652869 179.340109
L 222.753966 179.246185
L 222.999486 178.964412
L 223.100582 178.870488
L 223.33166 178.621227
L 223.606064 178.314168
L 223.707161 178.220243
L 223.938238 177.970983
L 224.212643 177.663923
L 224.31374 177.569999
L 224.588144 177.262939
L 224.689241 177.172627
L 224.905876 176.926979
L 225.006972 176.833055
L 225.281377 176.529608
L 225.382473 176.435684
L 225.627993 176.164749
L 225.72909 176.070824
L 226.003495 175.767377
L 226.104591 175.677065
L 226.321226 175.43503
L 226.422323 175.344718
L 226.638958 175.102683
L 226.740054 175.012371
L 226.985574 174.741436
L 227.086671 174.651124
L 227.332191 174.380189
L 227.433287 174.289877
L 227.678807 174.022554
L 227.779904 173.932243
L 228.025424 173.661307
L 228.12652 173.574608
L 228.37204 173.307286
L 228.473137 173.216974
L 228.718657 172.949651
L 228.819753 172.862952
L 229.065273 172.595629
L 229.166369 172.50893
L 229.383005 172.270507
L 229.484101 172.183808
L 229.729621 171.920097
L 229.830718 171.829786
L 230.076237 171.569688
L 230.177334 171.479376
L 230.422854 171.215666
L 230.52395 171.128967
L 230.76947 170.868869
L 230.870567 170.78217
L 231.087202 170.547359
L 231.188299 170.46066
L 231.433818 170.200562
L 231.534915 170.113863
L 231.780435 169.853765
L 231.881531 169.767066
L 232.127051 169.510581
L 232.228148 169.423881
L 232.473668 169.163784
L 232.574764 169.080697
L 232.820284 168.824211
L 232.921381 168.737512
L 233.166901 168.481027
L 233.267997 168.394328
L 233.513517 168.137842
L 233.614613 168.054756
L 233.860133 167.79827
L 233.96123 167.715183
L 234.20675 167.462311
L 234.307846 167.375611
L 234.553366 167.122739
L 234.654463 167.039652
L 234.899983 166.786779
L 235.001079 166.703692
L 235.246599 166.450819
L 235.347696 166.367733
L 235.593216 166.11486
L 235.723197 166.006486
L 235.968717 165.753613
L 236.069813 165.670526
L 236.315333 165.421266
L 236.445314 165.312892
L 236.690834 165.063631
L 236.791931 164.980544
L 237.037451 164.731284
L 237.167432 164.62291
L 237.412952 164.37365
L 237.542933 164.265276
L 237.788453 164.019628
L 237.918434 163.911254
L 238.163954 163.665606
L 238.293935 163.557232
L 238.539455 163.311584
L 238.669436 163.20321
L 238.943841 162.932274
L 239.073822 162.8239
L 239.348227 162.556578
L 239.478208 162.448204
L 239.709286 162.231455
L 239.98369 161.964133
L 240.113671 161.855759
L 240.388076 161.588436
L 240.518057 161.483674
L 240.792462 161.216352
L 240.922443 161.11159
L 241.139078 160.898454
L 241.269059 160.793693
L 241.485695 160.580557
L 241.615676 160.475796
L 241.89008 160.212085
L 242.020062 160.107324
L 242.236697 159.8978
L 242.366678 159.793039
L 242.583313 159.579903
L 242.713294 159.478754
L 242.92993 159.269231
L 243.059911 159.164469
L 243.334316 158.904372
L 243.464297 158.79961
L 243.738701 158.539512
L 243.868683 158.438363
L 244.085318 158.22884
L 244.215299 158.127691
L 244.489704 157.867593
L 244.619685 157.766444
L 244.894089 157.509958
L 245.024071 157.405197
L 245.269591 157.177611
L 245.399572 157.076462
L 245.616207 156.870551
L 245.746188 156.769402
L 246.020593 156.512917
L 246.150574 156.411768
L 246.396094 156.184182
L 246.526075 156.083033
L 246.771595 155.855448
L 246.901576 155.754299
L 247.147096 155.530325
L 247.277077 155.429176
L 247.522597 155.201591
L 247.652578 155.104054
L 247.898098 154.876469
L 248.02808 154.778932
L 248.2736 154.554959
L 248.403581 154.45381
L 248.70687 154.182874
L 248.836851 154.081725
L 249.140141 153.81079
L 249.270122 153.713254
L 249.515642 153.48928
L 249.645623 153.391744
L 249.891143 153.171383
L 250.021124 153.073847
L 250.266644 152.853486
L 250.396625 152.755949
L 250.642145 152.535589
L 250.772126 152.438052
L 251.017646 152.221304
L 251.147627 152.120155
L 251.450917 151.856444
L 251.580898 151.758908
L 251.884187 151.495198
L 252.014168 151.397661
L 252.259688 151.180913
L 252.38967 151.083376
L 252.692959 150.819666
L 252.82294 150.725742
L 253.06846 150.512606
L 253.198441 150.415069
L 253.501731 150.154972
L 253.631712 150.061047
L 253.877232 149.844299
L 254.007213 149.750375
L 254.310502 149.490277
L 254.440483 149.396353
L 254.743773 149.139868
L 254.873754 149.045944
L 255.119274 148.832808
L 255.249255 148.738884
L 255.52366 148.507686
L 255.653641 148.413761
L 255.899161 148.204238
L 256.029142 148.110314
L 256.303547 147.879116
L 256.433528 147.785192
L 256.707932 147.553994
L 256.837914 147.463682
L 257.083434 147.257771
L 257.213415 147.163847
L 257.487819 146.932649
L 257.617801 146.842337
L 257.892205 146.614752
L 258.022186 146.520828
L 258.296591 146.293242
L 258.426572 146.20293
L 258.700977 145.975345
L 258.830958 145.885033
L 259.105363 145.66106
L 259.235344 145.567136
L 259.509749 145.343163
L 259.63973 145.252851
L 259.914134 145.028878
L 260.044116 144.938566
L 260.31852 144.714593
L 260.448501 144.627894
L 260.679579 144.44727
L 260.953984 144.223297
L 261.112849 144.114923
L 261.387254 143.89095
L 261.54612 143.782576
L 261.820525 143.562216
L 261.950506 143.471904
L 262.22491 143.251543
L 262.383776 143.143169
L 262.658181 142.922809
L 262.817047 142.814434
L 263.091452 142.594074
L 263.250317 142.4857
L 263.524722 142.268952
L 263.683588 142.160578
L 263.957993 141.943829
L 264.116858 141.835455
L 264.391263 141.618707
L 264.550129 141.513946
L 264.824534 141.297197
L 264.9834 141.188823
L 265.257804 140.975688
L 265.41667 140.867314
L 265.691075 140.654178
L 265.849941 140.549416
L 266.124345 140.336281
L 266.283211 140.231519
L 266.557616 140.018383
L 266.716482 139.913622
L 266.990886 139.700486
L 267.149752 139.595725
L 267.395272 139.407876
L 267.554138 139.303115
L 267.799658 139.115266
L 267.958524 139.010505
L 268.204044 138.822656
L 268.36291 138.717895
L 268.60843 138.530046
L 268.767295 138.425285
L 269.099469 138.179637
L 269.258335 138.074875
L 269.503855 137.890639
L 269.662721 137.785878
L 269.994895 137.54023
L 270.153761 137.439081
L 270.399281 137.254845
L 270.558147 137.150083
L 270.890321 136.908048
L 271.049187 136.803286
L 271.381361 136.561251
L 271.540227 136.460101
L 271.872401 136.218066
L 272.031267 136.116917
L 272.276787 135.936293
L 272.435653 135.835144
L 272.767827 135.593109
L 272.926692 135.495572
L 273.172212 135.314949
L 273.331078 135.217412
L 273.576598 135.036789
L 273.735464 134.939252
L 273.980984 134.758629
L 274.13985 134.661092
L 274.38537 134.480468
L 274.544236 134.382932
L 274.847525 134.166184
L 275.006391 134.068647
L 275.30968 133.855511
L 275.468546 133.754362
L 275.771836 133.541226
L 275.930701 133.44369
L 276.233991 133.230554
L 276.392857 133.133017
L 276.696146 132.919882
L 276.855012 132.822345
L 277.158301 132.612822
L 277.317167 132.515285
L 277.620456 132.305762
L 277.779322 132.208225
L 278.082612 131.998702
L 278.241478 131.901166
L 278.544767 131.691642
L 278.703633 131.597718
L 279.006922 131.388195
L 279.165788 131.294271
L 279.469077 131.08836
L 279.627943 130.994436
L 279.873463 130.82465
L 280.032329 130.730726
L 280.335618 130.524815
L 280.494484 130.430891
L 280.797774 130.22498
L 280.95664 130.131056
L 281.259929 129.928757
L 281.418795 129.834833
L 281.722084 129.632535
L 281.88095 129.538611
L 282.184239 129.336313
L 282.343105 129.242388
L 282.61751 129.061765
L 282.776376 128.967841
L 283.05078 128.787217
L 283.209646 128.693293
L 283.484051 128.51267
L 283.671802 128.404296
L 283.946206 128.223672
L 284.105072 128.13336
L 284.33615 127.985249
L 284.610554 127.804626
L 284.798305 127.696252
L 285.217133 127.428929
L 285.404884 127.320555
L 285.679288 127.143544
L 285.867039 127.03517
L 286.141444 126.858159
L 286.329194 126.749785
L 286.719138 126.504137
L 286.906888 126.395763
L 287.296832 126.150115
L 287.484582 126.045353
L 287.758987 125.868342
L 287.946737 125.763581
L 288.221142 125.590182
L 288.408893 125.485421
L 288.683297 125.312022
L 288.871048 125.20726
L 289.145452 125.033862
L 289.333203 124.9291
L 289.723147 124.690677
L 289.910897 124.585916
L 290.185302 124.412517
L 290.373052 124.311368
L 290.647457 124.141582
L 290.835208 124.03682
L 291.225151 123.798398
L 291.412902 123.697248
L 291.687306 123.527462
L 291.875057 123.426313
L 292.236116 123.209565
L 292.423866 123.108416
L 292.698271 122.93863
L 292.886021 122.837481
L 293.24708 122.620733
L 293.434831 122.519583
L 293.795889 122.306448
L 293.98364 122.205299
L 294.258045 122.039125
L 294.445795 121.941588
L 294.7202 121.775415
L 294.90795 121.677878
L 295.182355 121.511705
L 295.370106 121.414168
L 295.731164 121.201032
L 295.918915 121.103496
L 296.279974 120.893972
L 296.467724 120.796436
L 296.727687 120.648325
L 297.088745 120.438801
L 297.276496 120.341265
L 297.637555 120.131741
L 297.85419 120.023367
L 298.09971 119.878869
L 298.287461 119.781332
L 298.648519 119.575421
L 298.83627 119.477885
L 299.168444 119.290036
L 299.356195 119.192499
L 299.688369 119.004651
L 299.905004 118.896277
L 300.150524 118.751778
L 300.367159 118.643404
L 300.699333 118.455556
L 300.915968 118.347182
L 301.161488 118.206295
L 301.378124 118.097921
L 301.710298 117.910073
L 301.926933 117.801699
L 302.259107 117.617463
L 302.475742 117.509089
L 302.807916 117.324853
L 303.024552 117.220091
L 303.356726 117.035855
L 303.573361 116.927481
L 303.905535 116.746858
L 304.12217 116.642096
L 304.36769 116.504823
L 304.584326 116.400061
L 304.829846 116.262787
L 305.046481 116.158026
L 305.378655 115.977402
L 305.59529 115.87264
L 305.927464 115.692017
L 306.144099 115.590868
L 306.389619 115.457207
L 306.606255 115.352445
L 306.938429 115.175434
L 307.155064 115.070672
L 307.487238 114.893661
L 307.703873 114.792512
L 308.036047 114.615501
L 308.252683 114.514352
L 308.584857 114.337341
L 308.801492 114.236192
L 309.104781 114.077243
L 309.321417 113.976094
L 309.624706 113.817146
L 309.841341 113.715996
L 310.144631 113.557048
L 310.361266 113.455899
L 310.664555 113.300563
L 310.881191 113.199413
L 311.18448 113.044077
L 311.401115 112.942928
L 311.704405 112.787592
L 311.92104 112.686443
L 312.224329 112.531107
L 312.440964 112.43357
L 312.744254 112.278234
L 312.960889 112.180697
L 313.264178 112.028973
L 313.480814 111.931437
L 313.784103 111.776101
L 314.000738 111.678564
L 314.304028 111.52684
L 314.520663 111.429304
L 314.823952 111.27758
L 315.069472 111.169206
L 315.372762 111.017482
L 315.618282 110.909108
L 315.921571 110.757384
L 316.167091 110.64901
L 316.47038 110.497287
L 316.7159 110.388912
L 317.192498 110.161327
L 317.438018 110.052953
L 317.741307 109.904842
L 317.986827 109.796468
L 318.463425 109.568882
L 318.708945 109.46412
L 319.012234 109.316009
L 319.257754 109.211248
L 319.546601 109.077586
L 320.023199 108.853613
L 320.268719 108.748852
L 320.745316 108.528491
L 320.990836 108.423729
L 321.265241 108.29368
L 321.510761 108.188919
L 321.785165 108.05887
L 322.030685 107.954108
L 322.478398 107.748198
L 322.723918 107.647048
L 322.998323 107.517
L 323.243843 107.41585
L 323.518248 107.289414
L 323.763767 107.184652
L 324.21148 106.982354
L 324.457 106.881205
L 324.731405 106.754769
L 324.976925 106.653619
L 325.424638 106.451321
L 325.670158 106.353785
L 325.944562 106.227348
L 326.190082 106.129811
L 326.464487 106.003375
L 326.710007 105.905838
L 326.984412 105.779402
L 327.229932 105.681865
L 327.504336 105.559041
L 327.749856 105.461505
L 328.024261 105.338681
L 328.269781 105.237532
L 328.688609 105.056908
L 328.934129 104.959372
L 329.208534 104.836548
L 329.482938 104.728174
L 329.901767 104.54755
L 330.176171 104.439176
L 330.594999 104.258553
L 330.869404 104.150178
L 331.288232 103.973167
L 331.562637 103.864793
L 331.981465 103.687782
L 332.25587 103.583021
L 332.530274 103.463809
L 332.804679 103.359048
L 333.079084 103.239836
L 333.353488 103.135075
L 333.743432 102.972514
L 334.017837 102.867752
L 334.40778 102.705191
L 334.682185 102.600429
L 335.072128 102.437868
L 335.346533 102.336719
L 335.736476 102.174158
L 336.010881 102.073009
L 336.400824 101.91406
L 336.675229 101.809299
L 337.065173 101.65035
L 337.339577 101.549201
L 337.729521 101.393865
L 338.003925 101.292715
L 338.393869 101.133767
L 338.668274 101.032618
L 339.058217 100.877282
L 339.361506 100.768907
L 339.607026 100.667758
L 339.881431 100.570222
L 340.126951 100.469073
L 340.43024 100.360698
L 340.820184 100.205362
L 341.123473 100.096988
L 341.484532 99.956102
L 341.787821 99.847728
L 342.14888 99.706842
L 342.452169 99.598467
L 342.813228 99.457581
L 343.116518 99.349207
L 343.477576 99.211933
L 343.780866 99.103559
L 344.141925 98.966285
L 344.445214 98.861524
L 344.806273 98.72425
L 345.109562 98.615876
L 346.01943 98.283529
L 346.32272 98.178767
L 346.683778 98.041493
L 346.987068 97.940344
L 347.348126 97.80307
L 347.651416 97.701921
L 348.012475 97.56826
L 348.315764 97.463498
L 349.138978 97.170888
L 349.442267 97.069739
L 349.803326 96.936078
L 350.106615 96.834929
L 350.438789 96.715717
L 350.742079 96.614568
L 351.074253 96.495357
L 351.406427 96.386983
L 351.753043 96.264159
L 352.547373 95.989611
L 352.879547 95.881237
L 353.211721 95.762025
L 353.543895 95.653651
L 354.30934 95.393554
L 354.641514 95.285179
L 354.973688 95.16958
L 355.305862 95.064819
L 355.638036 94.94922
L 355.97021 94.844458
L 356.302384 94.728859
L 356.634558 94.624098
L 356.966732 94.508499
L 357.298906 94.407349
L 357.63108 94.29175
L 357.963254 94.190601
L 358.295428 94.075002
L 358.627602 93.973853
L 358.959776 93.861867
L 359.291951 93.760718
L 359.624125 93.648731
L 359.956299 93.547582
L 360.288473 93.435595
L 360.649532 93.327221
L 360.981706 93.215235
L 361.342764 93.106861
L 361.660496 93.005712
L 362.339287 92.788963
L 362.700345 92.680589
L 363.003635 92.583053
L 363.364694 92.474679
L 363.667983 92.377142
L 364.029042 92.268768
L 364.332331 92.171231
L 364.69339 92.062857
L 365.314411 91.871396
L 365.67547 91.763022
L 366.296491 91.571561
L 366.65755 91.4668
L 367.278571 91.275339
L 367.639629 91.17419
L 367.942919 91.076653
L 368.332862 90.968279
L 368.636152 90.874355
L 368.99721 90.769593
L 369.589347 90.592582
L 369.950405 90.491433
L 370.253695 90.397509
L 370.643638 90.289135
L 370.946928 90.195211
L 371.336871 90.086837
L 371.929008 89.913438
L 372.318951 89.805064
L 372.911087 89.631665
L 373.301031 89.523291
L 373.864283 89.36073
L 374.254226 89.255969
L 374.817478 89.093408
L 375.207421 88.988646
L 375.770673 88.826085
L 376.160616 88.724936
L 376.463906 88.634624
L 376.853849 88.533475
L 377.157139 88.443163
L 377.575967 88.334789
L 378.139218 88.17584
L 378.558047 88.067466
L 379.092414 87.919355
L 379.511242 87.810981
L 379.800089 87.731507
L 380.334456 87.587008
L 380.753284 87.478634
L 381.287651 87.334135
L 381.706479 87.225761
L 382.240846 87.081262
L 382.659674 86.976501
L 383.194041 86.832002
L 383.612869 86.72724
L 384.118352 86.593579
L 384.53718 86.488817
L 385.042662 86.355156
L 385.490375 86.246782
L 385.995857 86.113121
L 386.44357 86.004747
L 386.949052 85.871085
L 387.396765 85.762711
L 387.902248 85.632662
L 388.34996 85.524288
L 397.780816 83.277332
L 398.257413 83.168958
L 398.705126 83.064197
L 399.210608 82.955823
L 399.658321 82.851061
L 400.134919 82.746299
L 400.582632 82.641538
L 401.088114 82.533164
L 404.62649 81.760095
L 405.131972 81.651721
L 408.034885 81.037602
L 408.569252 80.929228
L 408.98808 80.838916
L 409.522447 80.730542
L 411.963204 80.232021
L 412.497571 80.127259
L 412.916399 80.04056
L 413.479651 79.932186
L 413.898479 79.845487
L 414.461731 79.737113
L 414.880559 79.650414
L 415.443811 79.545652
L 415.862639 79.458953
L 416.425891 79.354191
L 416.830276 79.274717
L 418.751109 78.906245
L 419.314361 78.801483
L 419.704304 78.725621
L 420.296441 78.617247
L 420.686384 78.541386
L 421.27852 78.433011
L 422.99716 78.115114
L 423.589297 78.010353
L 423.97924 77.934491
L 424.600261 77.826117
L 426.203362 77.537119
L 426.824383 77.428745
L 428.34083 77.161422
L 428.961851 77.056661
L 429.351795 76.984411
L 430.0017 76.876037
L 431.431493 76.630389
L 432.081399 76.522015
L 433.453422 76.290817
L 434.103328 76.186056
L 434.464387 76.124644
L 435.114293 76.019882
L 435.475351 75.95847
L 436.154142 75.850096
L 436.515201 75.788684
L 437.193991 75.68031
L 438.450476 75.478012
L 439.129266 75.37325
L 439.490325 75.311838
L 440.198 75.203464
L 441.396715 75.015616
L 442.10439 74.907242
L 443.274221 74.726618
L 443.981896 74.618244
L 445.122842 74.444846
L 445.859402 74.336472
L 446.971463 74.170298
L 447.708022 74.065536
L 448.069081 74.007737
L 448.834526 73.899363
L 449.917702 73.740414
L 450.683147 73.63204
L 451.737438 73.480316
L 452.531768 73.371942
L 453.586059 73.220219
L 454.380389 73.111845
L 455.376911 72.974571
L 456.17124 72.866197
L 457.138878 72.736148
L 457.933207 72.631386
L 458.265381 72.584424
L 459.088595 72.47605
L 460.056232 72.346001
L 460.908331 72.237627
L 461.875969 72.107578
L 462.728067 71.999204
L 463.637935 71.883605
L 464.490034 71.775231
L 465.399902 71.659632
L 466.280886 71.551258
L 467.190754 71.435659
L 468.100622 71.327285
L 468.981605 71.218911
L 469.891473 71.110537
L 470.772457 71.002163
L 471.71121 70.893789
L 472.592193 70.785415
L 473.530946 70.67704
L 474.383045 70.575891
L 475.350682 70.467517
L 476.188338 70.369981
L 477.170418 70.261607
L 478.008075 70.16407
L 478.990154 70.055696
L 479.813368 69.961772
L 480.838775 69.853398
L 481.661989 69.759473
L 482.687396 69.651099
L 483.481726 69.5644
L 484.536017 69.456026
L 485.330346 69.369327
L 486.384638 69.260953
L 487.150083 69.181478
L 488.204374 69.073104
L 488.969819 68.99363
L 490.052995 68.885256
L 490.81844 68.805781
L 491.930501 68.697407
L 492.681503 68.621546
L 493.808006 68.513172
L 494.544566 68.440922
L 495.685512 68.332548
L 496.422072 68.260299
L 497.563018 68.151925
L 498.285135 68.083288
L 499.469408 67.974914
L 500.191525 67.906277
L 501.404683 67.797903
L 502.1268 67.729266
L 503.368843 67.620892
L 504.076518 67.555867
L 505.304118 67.447493
L 506.011793 67.382469
L 507.297162 67.274095
L 507.990395 67.212683
L 509.290207 67.104309
L 509.983439 67.042897
L 511.283251 66.934523
L 511.962041 66.876723
L 513.30518 66.768349
L 513.983971 66.710549
L 515.355994 66.602175
L 516.034784 66.544376
L 517.435692 66.436002
L 518.100041 66.381815
L 519.515391 66.273441
L 520.179739 66.219254
L 521.623974 66.11088
L 522.27388 66.060305
L 523.732557 65.951931
L 524.382463 65.901356
L 525.870025 65.792982
L 526.519931 65.742408
L 528.065263 65.634034
L 528.700726 65.587072
L 530.231615 65.478698
L 530.852636 65.435348
L 532.426853 65.326974
L 533.062316 65.280012
L 534.679859 65.171638
L 535.30088 65.128288
L 536.932866 65.019914
L 537.553887 64.976564
L 539.243642 64.86819
L 539.864663 64.824841
L 541.612188 64.716467
L 542.233209 64.673117
L 544.009618 64.564743
L 544.616197 64.525006
L 546.407048 64.416632
L 547.013627 64.376894
L 548.862248 64.26852
L 549.454384 64.232396
L 551.288563 64.124022
L 551.880699 64.087897
L 553.801532 63.979523
L 554.393668 63.943398
L 556.343386 63.835024
L 556.935522 63.798899
L 558.943009 63.690525
L 559.520703 63.658013
L 561.571517 63.549639
L 562.149211 63.517127
L 564.228909 63.408753
L 564.806603 63.376241
L 566.972956 63.267866
L 567.55065 63.235354
L 569.774772 63.12698
L 570.338024 63.09808
L 572.547703 62.989706
L 573.110955 62.960807
L 575.436173 62.852433
L 575.999425 62.823533
L 578.382413 62.715159
L 578.945665 62.686259
L 581.386422 62.577885
L 581.935231 62.552598
L 584.419316 62.444224
L 584.968125 62.418936
L 587.509979 62.310562
L 588.058788 62.285275
L 590.716181 62.176901
L 591.26499 62.151614
L 594.009037 62.043239
L 594.557846 62.017952
L 597.388547 61.909578
L 597.922914 61.887903
L 600.768057 61.779529
L 601.302424 61.757854
L 604.263106 61.64948
L 604.797473 61.627806
L 607.902578 61.519431
L 608.436945 61.497757
L 611.628705 61.389383
L 612.163072 61.367708
L 615.47037 61.259334
L 615.990295 61.241271
L 619.369805 61.132897
L 619.889729 61.114835
L 623.384778 61.006461
L 623.904703 60.988399
L 627.544175 60.880024
L 628.0641 60.861962
L 631.876881 60.753588
L 632.382363 60.739138
L 636.238471 60.630764
L 636.743953 60.616314
L 640.802253 60.50794
L 641.307736 60.49349
L 645.539344 60.385116
L 646.044827 60.370666
L 650.478628 60.262292
L 650.984111 60.247842
L 655.64899 60.139468
L 656.154472 60.125018
L 661.079314 60.016644
L 661.584796 60.002194
L 666.7696 59.89382
L 667.26064 59.882983
L 672.60431 59.774609
L 673.09535 59.763772
L 678.727867 59.655397
L 679.218907 59.64456
L 685.226925 59.536186
L 685.717965 59.525349
L 692.101484 59.416974
L 692.592524 59.406137
L 699.438198 59.297763
L 699.929238 59.286926
L 707.265952 59.178552
L 707.74255 59.171327
L 715.440323 59.062953
L 715.91692 59.055728
L 724.250157 58.947354
L 724.726754 58.940129
L 733.782108 58.831755
L 734.258706 58.82453
L 744.209485 58.716156
L 744.686083 58.708931
L 755.705597 58.600556
L 756.182194 58.593332
L 768.50152 58.484957
L 768.978117 58.477733
L 782.94387 58.369358
L 783.406026 58.365746
L 798.97488 58.257372
L 799.437035 58.253759
L 817.634397 58.145385
L 818.096552 58.141773
L 840.020041 58.033399
L 840.482196 58.029786
L 867.951548 57.921412
L 868.413703 57.9178
L 905.212813 57.809426
L 905.674968 57.805813
L 950.272947 57.711889
L 950.272947 57.711889
" clip-path="url(#p6c221a61a1)" style="fill: none; stroke: #d65a00; stroke-width: 2; stroke-linecap: square"/>
   </g>
   <g id="patch_3">
    <path d="M 40.404844 434.834597
L 40.404844 14.04
" style="fill: none; stroke: #1a1a1a; stroke-linejoin: miter; stroke-linecap: square"/>
   </g>
   <g id="patch_4">
    <path d="M 993.6 434.834597
L 993.6 14.04
" style="fill: none; stroke: #1a1a1a; stroke-linejoin: miter; stroke-linecap: square"/>
   </g>
   <g id="patch_5">
    <path d="M 40.404844 434.834597
L 993.6 434.834597
" style="fill: none; stroke: #1a1a1a; stroke-linejoin: miter; stroke-linecap: square"/>
   </g>
   <g id="patch_6">
    <path d="M 40.404844 14.04
L 993.6 14.04
" style="fill: none; stroke: #1a1a1a; stroke-linejoin: miter; stroke-linecap: square"/>
   </g>
   <g id="legend_1">
    <g id="patch_7">
     <path d="M 446.439141 494.864314
L 587.565703 494.864314
Q 589.565703 494.864314 589.565703 492.864314
L 589.565703 479.706111
Q 589.565703 477.706111 587.565703 477.706111
L 446.439141 477.706111
Q 444.439141 477.706111 444.439141 479.706111
L 444.439141 492.864314
Q 444.439141 494.864314 446.439141 494.864314
z
" style="fill: #ffffff; opacity: 0.95; stroke: #808080; stroke-linejoin: miter"/>
    </g>
    <g id="line2d_29">
     <path d="M 448.439141 485.206111
L 458.439141 485.206111
L 468.439141 485.206111
" style="fill: none; stroke: #0055cc; stroke-width: 2; stroke-linecap: square"/>
    </g>
    <g id="text_16">
     <!-- Python -->
     <g transform="translate(476.439141 488.706111) scale(0.1 -0.1)">
      <defs>
       <path id="TimesNewRomanPSMT-33" d="M 1313 1984
L 1313 750
Q 1313 350 1400 253
Q 1519 116 1759 116
L 1922 116
L 1922 0
L 106 0
L 106 116
L 266 116
Q 534 116 650 291
Q 713 388 713 750
L 713 3488
Q 713 3888 628 3984
Q 506 4122 266 4122
L 106 4122
L 106 4238
L 1659 4238
Q 2228 4238 2556 4120
Q 2884 4003 3109 3725
Q 3334 3447 3334 3066
Q 3334 2547 2992 2222
Q 2650 1897 2025 1897
Q 1872 1897 1694 1919
Q 1516 1941 1313 1984
z
M 1313 2163
Q 1478 2131 1606 2115
Q 1734 2100 1825 2100
Q 2150 2100 2386 2351
Q 2622 2603 2622 3003
Q 2622 3278 2509 3514
Q 2397 3750 2190 3867
Q 1984 3984 1722 3984
Q 1563 3984 1313 3925
L 1313 2163
z
" transform="scale(0.015625)"/>
       <path id="TimesNewRomanPSMT-5c" d="M 38 2863
L 1372 2863
L 1372 2747
L 1306 2747
Q 1166 2747 1095 2686
Q 1025 2625 1025 2534
Q 1025 2413 1128 2197
L 1825 753
L 2466 2334
Q 2519 2463 2519 2588
Q 2519 2644 2497 2672
Q 2472 2706 2419 2726
Q 2366 2747 2231 2747
L 2231 2863
L 3163 2863
L 3163 2747
Q 3047 2734 2984 2696
Q 2922 2659 2847 2556
Q 2819 2513 2741 2316
L 1575 -541
Q 1406 -956 1132 -1168
Q 859 -1381 606 -1381
Q 422 -1381 303 -1275
Q 184 -1169 184 -1031
Q 184 -900 270 -820
Q 356 -741 506 -741
Q 609 -741 788 -809
Q 913 -856 944 -856
Q 1038 -856 1148 -759
Q 1259 -663 1372 -384
L 1575 113
L 547 2272
Q 500 2369 397 2513
Q 319 2622 269 2659
Q 197 2709 38 2747
L 38 2863
z
" transform="scale(0.015625)"/>
       <path id="TimesNewRomanPSMT-57" d="M 1031 3803
L 1031 2863
L 1700 2863
L 1700 2644
L 1031 2644
L 1031 788
Q 1031 509 1111 412
Q 1191 316 1316 316
Q 1419 316 1516 380
Q 1613 444 1666 569
L 1788 569
Q 1678 263 1478 108
Q 1278 -47 1066 -47
Q 922 -47 784 33
Q 647 113 581 261
Q 516 409 516 719
L 516 2644
L 63 2644
L 63 2747
Q 234 2816 414 2980
Q 594 3144 734 3369
Q 806 3488 934 3803
L 1031 3803
z
" transform="scale(0.015625)"/>
       <path id="TimesNewRomanPSMT-4b" d="M 1041 4444
L 1041 2350
Q 1388 2731 1591 2839
Q 1794 2947 1997 2947
Q 2241 2947 2416 2812
Q 2591 2678 2675 2391
Q 2734 2191 2734 1659
L 2734 647
Q 2734 375 2778 275
Q 2809 200 2884 156
Q 2959 113 3159 113
L 3159 0
L 1753 0
L 1753 113
L 1819 113
Q 2019 113 2097 173
Q 2175 234 2206 353
Q 2216 403 2216 647
L 2216 1659
Q 2216 2128 2167 2275
Q 2119 2422 2012 2495
Q 1906 2569 1756 2569
Q 1603 2569 1437 2487
Q 1272 2406 1041 2159
L 1041 647
Q 1041 353 1073 281
Q 1106 209 1195 161
Q 1284 113 1503 113
L 1503 0
L 84 0
L 84 113
Q 275 113 384 172
Q 447 203 484 290
Q 522 378 522 647
L 522 3238
Q 522 3728 498 3840
Q 475 3953 426 3993
Q 378 4034 297 4034
Q 231 4034 84 3984
L 41 4094
L 897 4444
L 1041 4444
z
" transform="scale(0.015625)"/>
       <path id="TimesNewRomanPSMT-52" d="M 1600 2947
Q 2250 2947 2644 2453
Q 2978 2031 2978 1484
Q 2978 1100 2793 706
Q 2609 313 2286 112
Q 1963 -88 1566 -88
Q 919 -88 538 428
Q 216 863 216 1403
Q 216 1797 411 2186
Q 606 2575 925 2761
Q 1244 2947 1600 2947
z
M 1503 2744
Q 1338 2744 1170 2645
Q 1003 2547 900 2300
Q 797 2053 797 1666
Q 797 1041 1045 587
Q 1294 134 1700 134
Q 2003 134 2200 384
Q 2397 634 2397 1244
Q 2397 2006 2069 2444
Q 1847 2744 1503 2744
z
" transform="scale(0.015625)"/>
       <path id="TimesNewRomanPSMT-51" d="M 1034 2341
Q 1538 2947 1994 2947
Q 2228 2947 2397 2830
Q 2566 2713 2666 2444
Q 2734 2256 2734 1869
L 2734 647
Q 2734 375 2778 278
Q 2813 200 2889 156
Q 2966 113 3172 113
L 3172 0
L 1756 0
L 1756 113
L 1816 113
Q 2016 113 2095 173
Q 2175 234 2206 353
Q 2219 400 2219 647
L 2219 1819
Q 2219 2209 2117 2386
Q 2016 2563 1775 2563
Q 1403 2563 1034 2156
L 1034 647
Q 1034 356 1069 288
Q 1113 197 1189 155
Q 1266 113 1500 113
L 1500 0
L 84 0
L 84 113
L 147 113
Q 366 113 442 223
Q 519 334 519 647
L 519 1709
Q 519 2225 495 2337
Q 472 2450 423 2490
Q 375 2531 294 2531
Q 206 2531 84 2484
L 38 2597
L 900 2947
L 1034 2947
L 1034 2341
z
" transform="scale(0.015625)"/>
      </defs>
      <use xlink:href="#TimesNewRomanPSMT-33"/>
      <use xlink:href="#TimesNewRomanPSMT-5c" transform="translate(55.609375 0)"/>
      <use xlink:href="#TimesNewRomanPSMT-57" transform="translate(105.609375 0)"/>
      <use xlink:href="#TimesNewRomanPSMT-4b" transform="translate(133.390625 0)"/>
      <use xlink:href="#TimesNewRomanPSMT-52" transform="translate(183.390625 0)"/>
      <use xlink:href="#TimesNewRomanPSMT-51" transform="translate(233.390625 0)"/>
     </g>
    </g>
    <g id="line2d_30">
     <path d="M 524.778203 485.206111
L 534.778203 485.206111
L 544.778203 485.206111
" style="fill: none; stroke: #d65a00; stroke-width: 2; stroke-linecap: square"/>
    </g>
    <g id="text_17">
     <!-- HYSYS -->
     <g transform="translate(552.778203 488.706111) scale(0.1 -0.1)">
      <defs>
       <path id="TimesNewRomanPSMT-2b" d="M 1316 2272
L 3284 2272
L 3284 3484
Q 3284 3809 3244 3913
Q 3213 3991 3113 4047
Q 2978 4122 2828 4122
L 2678 4122
L 2678 4238
L 4491 4238
L 4491 4122
L 4341 4122
Q 4191 4122 4056 4050
Q 3956 4000 3920 3898
Q 3884 3797 3884 3484
L 3884 750
Q 3884 428 3925 325
Q 3956 247 4053 191
Q 4191 116 4341 116
L 4491 116
L 4491 0
L 2678 0
L 2678 116
L 2828 116
Q 3088 116 3206 269
Q 3284 369 3284 750
L 3284 2041
L 1316 2041
L 1316 750
Q 1316 428 1356 325
Q 1388 247 1488 191
Q 1622 116 1772 116
L 1925 116
L 1925 0
L 109 0
L 109 116
L 259 116
Q 522 116 641 269
Q 716 369 716 750
L 716 3484
Q 716 3809 675 3913
Q 644 3991 547 4047
Q 409 4122 259 4122
L 109 4122
L 109 4238
L 1925 4238
L 1925 4122
L 1772 4122
Q 1622 4122 1488 4050
Q 1391 4000 1353 3898
Q 1316 3797 1316 3484
L 1316 2272
z
" transform="scale(0.015625)"/>
       <path id="TimesNewRomanPSMT-3c" d="M 3050 4238
L 4528 4238
L 4528 4122
L 4447 4122
Q 4366 4122 4209 4050
Q 4053 3978 3925 3843
Q 3797 3709 3609 3406
L 2588 1797
L 2588 734
Q 2588 344 2675 247
Q 2794 116 3050 116
L 3188 116
L 3188 0
L 1388 0
L 1388 116
L 1538 116
Q 1806 116 1919 278
Q 1988 378 1988 734
L 1988 1738
L 825 3513
Q 619 3825 545 3903
Q 472 3981 241 4091
Q 178 4122 59 4122
L 59 4238
L 1872 4238
L 1872 4122
L 1778 4122
Q 1631 4122 1507 4053
Q 1384 3984 1384 3847
Q 1384 3734 1575 3441
L 2459 2075
L 3291 3381
Q 3478 3675 3478 3819
Q 3478 3906 3433 3975
Q 3388 4044 3303 4083
Q 3219 4122 3050 4122
L 3050 4238
z
" transform="scale(0.015625)"/>
       <path id="TimesNewRomanPSMT-36" d="M 2934 4334
L 2934 2869
L 2819 2869
Q 2763 3291 2617 3541
Q 2472 3791 2203 3937
Q 1934 4084 1647 4084
Q 1322 4084 1109 3886
Q 897 3688 897 3434
Q 897 3241 1031 3081
Q 1225 2847 1953 2456
Q 2547 2138 2764 1967
Q 2981 1797 3098 1565
Q 3216 1334 3216 1081
Q 3216 600 2842 251
Q 2469 -97 1881 -97
Q 1697 -97 1534 -69
Q 1438 -53 1133 45
Q 828 144 747 144
Q 669 144 623 97
Q 578 50 556 -97
L 441 -97
L 441 1356
L 556 1356
Q 638 900 775 673
Q 913 447 1195 297
Q 1478 147 1816 147
Q 2206 147 2432 353
Q 2659 559 2659 841
Q 2659 997 2573 1156
Q 2488 1316 2306 1453
Q 2184 1547 1640 1851
Q 1097 2156 867 2337
Q 638 2519 519 2737
Q 400 2956 400 3219
Q 400 3675 750 4004
Q 1100 4334 1641 4334
Q 1978 4334 2356 4169
Q 2531 4091 2603 4091
Q 2684 4091 2736 4139
Q 2788 4188 2819 4334
L 2934 4334
z
" transform="scale(0.015625)"/>
      </defs>
      <use xlink:href="#TimesNewRomanPSMT-2b"/>
      <use xlink:href="#TimesNewRomanPSMT-3c" transform="translate(72.21875 0)"/>
      <use xlink:href="#TimesNewRomanPSMT-36" transform="translate(144.4375 0)"/>
      <use xlink:href="#TimesNewRomanPSMT-3c" transform="translate(200.046875 0)"/>
      <use xlink:href="#TimesNewRomanPSMT-36" transform="translate(272.265625 0)"/>
     </g>
    </g>
   </g>
  </g>
  <g id="patch_8">
   <path d="M 3.6 502.56
L 1001.52 502.56
L 1001.52 3.6
L 3.6 3.6
L 3.6 502.56
z
" style="fill: none; stroke: #1a1a1a; stroke-width: 1.2; stroke-linejoin: miter"/>
  </g>
 </g>
 <defs>
  <clipPath id="p6c221a61a1">
   <rect x="40.404844" y="14.04" width="953.195156" height="420.794597"/>
  </clipPath>
 </defs>
</svg>
