<?xml version="1.0" encoding="utf-8" standalone="no"?>
<!DOCTYPE svg PUBLIC "-//W3C//DTD SVG 1.1//EN"
  "http://www.w3.org/Graphics/SVG/1.1/DTD/svg11.dtd">
<svg xmlns:xlink="http://www.w3.org/1999/xlink" width="1005.12pt" height="506.16pt" viewBox="0 0 1005.12 506.16" xmlns="http://www.w3.org/2000/svg" version="1.1">
 <metadata>
  <rdf:RDF xmlns:dc="http://purl.org/dc/elements/1.1/" xmlns:cc="http://creativecommons.org/ns#" xmlns:rdf="http://www.w3.org/1999/02/22-rdf-syntax-ns#">
   <cc:Work>
    <dc:type rdf:resource="http://purl.org/dc/dcmitype/StillImage"/>
    <dc:date>2026-07-20T17:38:28.272368</dc:date>
    <dc:format>image/svg+xml</dc:format>
    <dc:creator>
     <cc:Agent>
      <dc:title>Matplotlib v3.11.1, https://matplotlib.org/</dc:title>
     </cc:Agent>
    </dc:creator>
   </cc:Work>
  </rdf:RDF>
 </metadata>
 <defs>
  <style type="text/css">*{stroke-linejoin: round; stroke-linecap: butt}</style>
 </defs>
 <g id="figure_1">
  <g id="patch_1">
   <path d="M 0 506.16 
L 1005.12 506.16 
L 1005.12 0 
L 0 0 
z
" style="fill: #ffffff"/>
  </g>
  <g id="axes_1">
   <g id="patch_2">
    <path d="M 40.404844 434.834597 
L 993.6 434.834597 
L 993.6 14.04 
L 40.404844 14.04 
z
" style="fill: #ffffff"/>
   </g>
   <g id="matplotlib.axis_1">
    <g id="xtick_1">
     <g id="line2d_1">
      <path d="M 83.731896 434.834597 
L 83.731896 14.04 
" clip-path="url(#p0dd0a2043d)" style="fill: none; stroke: #b0b0b0; stroke-opacity: 0.3; stroke-width: 0.8; stroke-linecap: square"/>
     </g>
     <g id="line2d_2">
      <defs>
       <path id="m54fb68eefc" d="M 0 0 
L 0 -3.5 
" style="stroke: #000000; stroke-width: 0.8"/>
      </defs>
      <g>
       <use xlink:href="#m54fb68eefc" x="83.731896" y="434.834597" style="stroke: #000000; stroke-width: 0.8"/>
      </g>
     </g>
     <g id="text_1">
      <!-- 0 -->
      <g transform="translate(81.231896 445.268191) scale(0.1 -0.1)">
       <defs>
        <path id="TimesNewRomanPSMT-13" d="M 231 2094 
Q 231 2819 450 3342 
Q 669 3866 1031 4122 
Q 1313 4325 1613 4325 
Q 2100 4325 2488 3828 
Q 2972 3213 2972 2159 
Q 2972 1422 2759 906 
Q 2547 391 2217 158 
Q 1888 -75 1581 -75 
Q 975 -75 572 641 
Q 231 1244 231 2094 
z
M 844 2016 
Q 844 1141 1059 588 
Q 1238 122 1591 122 
Q 1759 122 1940 273 
Q 2122 425 2216 781 
Q 2359 1319 2359 2297 
Q 2359 3022 2209 3506 
Q 2097 3866 1919 4016 
Q 1791 4119 1609 4119 
Q 1397 4119 1231 3928 
Q 1006 3669 925 3112 
Q 844 2556 844 2016 
z
" transform="scale(0.015625)"/>
       </defs>
       <use xlink:href="#TimesNewRomanPSMT-13"/>
      </g>
     </g>
    </g>
    <g id="xtick_2">
     <g id="line2d_3">
      <path d="M 280.226466 434.834597 
L 280.226466 14.04 
" clip-path="url(#p0dd0a2043d)" style="fill: none; stroke: #b0b0b0; stroke-opacity: 0.3; stroke-width: 0.8; stroke-linecap: square"/>
     </g>
     <g id="line2d_4">
      <g>
       <use xlink:href="#m54fb68eefc" x="280.226466" y="434.834597" style="stroke: #000000; stroke-width: 0.8"/>
      </g>
     </g>
     <g id="text_2">
      <!-- 20000 -->
      <g transform="translate(267.726466 445.268191) scale(0.1 -0.1)">
       <defs>
        <path id="TimesNewRomanPSMT-15" d="M 2934 816 
L 2638 0 
L 138 0 
L 138 116 
Q 1241 1122 1691 1759 
Q 2141 2397 2141 2925 
Q 2141 3328 1894 3587 
Q 1647 3847 1303 3847 
Q 991 3847 742 3664 
Q 494 3481 375 3128 
L 259 3128 
Q 338 3706 661 4015 
Q 984 4325 1469 4325 
Q 1984 4325 2329 3994 
Q 2675 3663 2675 3213 
Q 2675 2891 2525 2569 
Q 2294 2063 1775 1497 
Q 997 647 803 472 
L 1909 472 
Q 2247 472 2383 497 
Q 2519 522 2628 598 
Q 2738 675 2819 816 
L 2934 816 
z
" transform="scale(0.015625)"/>
       </defs>
       <use xlink:href="#TimesNewRomanPSMT-15"/>
       <use xlink:href="#TimesNewRomanPSMT-13" transform="translate(50 0)"/>
       <use xlink:href="#TimesNewRomanPSMT-13" transform="translate(100 0)"/>
       <use xlink:href="#TimesNewRomanPSMT-13" transform="translate(150 0)"/>
       <use xlink:href="#TimesNewRomanPSMT-13" transform="translate(200 0)"/>
      </g>
     </g>
    </g>
    <g id="xtick_3">
     <g id="line2d_5">
      <path d="M 476.721035 434.834597 
L 476.721035 14.04 
" clip-path="url(#p0dd0a2043d)" style="fill: none; stroke: #b0b0b0; stroke-opacity: 0.3; stroke-width: 0.8; stroke-linecap: square"/>
     </g>
     <g id="line2d_6">
      <g>
       <use xlink:href="#m54fb68eefc" x="476.721035" y="434.834597" style="stroke: #000000; stroke-width: 0.8"/>
      </g>
     </g>
     <g id="text_3">
      <!-- 40000 -->
      <g transform="translate(464.221035 445.268191) scale(0.1 -0.1)">
       <defs>
        <path id="TimesNewRomanPSMT-17" d="M 2978 1563 
L 2978 1119 
L 2409 1119 
L 2409 0 
L 1894 0 
L 1894 1119 
L 100 1119 
L 100 1519 
L 2066 4325 
L 2409 4325 
L 2409 1563 
L 2978 1563 
z
M 1894 1563 
L 1894 3666 
L 406 1563 
L 1894 1563 
z
" transform="scale(0.015625)"/>
       </defs>
       <use xlink:href="#TimesNewRomanPSMT-17"/>
       <use xlink:href="#TimesNewRomanPSMT-13" transform="translate(50 0)"/>
       <use xlink:href="#TimesNewRomanPSMT-13" transform="translate(100 0)"/>
       <use xlink:href="#TimesNewRomanPSMT-13" transform="translate(150 0)"/>
       <use xlink:href="#TimesNewRomanPSMT-13" transform="translate(200 0)"/>
      </g>
     </g>
    </g>
    <g id="xtick_4">
     <g id="line2d_7">
      <path d="M 673.215605 434.834597 
L 673.215605 14.04 
" clip-path="url(#p0dd0a2043d)" style="fill: none; stroke: #b0b0b0; stroke-opacity: 0.3; stroke-width: 0.8; stroke-linecap: square"/>
     </g>
     <g id="line2d_8">
      <g>
       <use xlink:href="#m54fb68eefc" x="673.215605" y="434.834597" style="stroke: #000000; stroke-width: 0.8"/>
      </g>
     </g>
     <g id="text_4">
      <!-- 60000 -->
      <g transform="translate(660.715605 445.268191) scale(0.1 -0.1)">
       <defs>
        <path id="TimesNewRomanPSMT-19" d="M 2869 4325 
L 2869 4209 
Q 2456 4169 2195 4045 
Q 1934 3922 1679 3669 
Q 1425 3416 1258 3105 
Q 1091 2794 978 2366 
Q 1428 2675 1881 2675 
Q 2316 2675 2634 2325 
Q 2953 1975 2953 1425 
Q 2953 894 2631 456 
Q 2244 -75 1606 -75 
Q 1172 -75 869 213 
Q 275 772 275 1663 
Q 275 2231 503 2743 
Q 731 3256 1154 3653 
Q 1578 4050 1965 4187 
Q 2353 4325 2688 4325 
L 2869 4325 
z
M 925 2138 
Q 869 1716 869 1456 
Q 869 1156 980 804 
Q 1091 453 1309 247 
Q 1469 100 1697 100 
Q 1969 100 2183 356 
Q 2397 613 2397 1088 
Q 2397 1622 2184 2012 
Q 1972 2403 1581 2403 
Q 1463 2403 1327 2353 
Q 1191 2303 925 2138 
z
" transform="scale(0.015625)"/>
       </defs>
       <use xlink:href="#TimesNewRomanPSMT-19"/>
       <use xlink:href="#TimesNewRomanPSMT-13" transform="translate(50 0)"/>
       <use xlink:href="#TimesNewRomanPSMT-13" transform="translate(100 0)"/>
       <use xlink:href="#TimesNewRomanPSMT-13" transform="translate(150 0)"/>
       <use xlink:href="#TimesNewRomanPSMT-13" transform="translate(200 0)"/>
      </g>
     </g>
    </g>
    <g id="xtick_5">
     <g id="line2d_9">
      <path d="M 869.710174 434.834597 
L 869.710174 14.04 
" clip-path="url(#p0dd0a2043d)" style="fill: none; stroke: #b0b0b0; stroke-opacity: 0.3; stroke-width: 0.8; stroke-linecap: square"/>
     </g>
     <g id="line2d_10">
      <g>
       <use xlink:href="#m54fb68eefc" x="869.710174" y="434.834597" style="stroke: #000000; stroke-width: 0.8"/>
      </g>
     </g>
     <g id="text_5">
      <!-- 80000 -->
      <g transform="translate(857.210174 445.268191) scale(0.1 -0.1)">
       <defs>
        <path id="TimesNewRomanPSMT-1b" d="M 1228 2134 
Q 725 2547 579 2797 
Q 434 3047 434 3316 
Q 434 3728 753 4026 
Q 1072 4325 1600 4325 
Q 2113 4325 2425 4047 
Q 2738 3769 2738 3413 
Q 2738 3175 2569 2928 
Q 2400 2681 1866 2347 
Q 2416 1922 2594 1678 
Q 2831 1359 2831 1006 
Q 2831 559 2490 242 
Q 2150 -75 1597 -75 
Q 994 -75 656 303 
Q 388 606 388 966 
Q 388 1247 577 1523 
Q 766 1800 1228 2134 
z
M 1719 2469 
Q 2094 2806 2194 3001 
Q 2294 3197 2294 3444 
Q 2294 3772 2109 3958 
Q 1925 4144 1606 4144 
Q 1288 4144 1088 3959 
Q 888 3775 888 3528 
Q 888 3366 970 3203 
Q 1053 3041 1206 2894 
L 1719 2469 
z
M 1375 2016 
Q 1116 1797 991 1539 
Q 866 1281 866 981 
Q 866 578 1086 336 
Q 1306 94 1647 94 
Q 1984 94 2187 284 
Q 2391 475 2391 747 
Q 2391 972 2272 1150 
Q 2050 1481 1375 2016 
z
" transform="scale(0.015625)"/>
       </defs>
       <use xlink:href="#TimesNewRomanPSMT-1b"/>
       <use xlink:href="#TimesNewRomanPSMT-13" transform="translate(50 0)"/>
       <use xlink:href="#TimesNewRomanPSMT-13" transform="translate(100 0)"/>
       <use xlink:href="#TimesNewRomanPSMT-13" transform="translate(150 0)"/>
       <use xlink:href="#TimesNewRomanPSMT-13" transform="translate(200 0)"/>
      </g>
     </g>
    </g>
    <g id="text_6">
     <!-- Time (s) -->
     <g transform="translate(495.949922 463.560144) scale(0.12 -0.12)">
      <defs>
       <path id="TimesNewRomanPS-BoldMT-37" d="M 4038 4238 
L 4038 3091 
L 3925 3091 
Q 3825 3488 3703 3661 
Q 3581 3834 3369 3938 
Q 3250 3994 2953 3994 
L 2638 3994 
L 2638 725 
Q 2638 400 2673 319 
Q 2709 238 2814 177 
Q 2919 116 3100 116 
L 3241 116 
L 3241 0 
L 1022 0 
L 1022 116 
L 1163 116 
Q 1347 116 1459 181 
Q 1541 225 1588 331 
Q 1622 406 1622 725 
L 1622 3994 
L 1316 3994 
Q 888 3994 694 3813 
Q 422 3559 350 3091 
L 231 3091 
L 231 4238 
L 4038 4238 
z
" transform="scale(0.015625)"/>
       <path id="TimesNewRomanPS-BoldMT-4c" d="M 919 4338 
Q 1122 4338 1262 4195 
Q 1403 4053 1403 3853 
Q 1403 3653 1261 3512 
Q 1119 3372 919 3372 
Q 719 3372 578 3512 
Q 438 3653 438 3853 
Q 438 4053 578 4195 
Q 719 4338 919 4338 
z
M 1356 2922 
L 1356 606 
Q 1356 297 1428 211 
Q 1500 125 1709 113 
L 1709 0 
L 131 0 
L 131 113 
Q 325 119 419 225 
Q 481 297 481 606 
L 481 2313 
Q 481 2622 409 2708 
Q 338 2794 131 2806 
L 131 2922 
L 1356 2922 
z
" transform="scale(0.015625)"/>
       <path id="TimesNewRomanPS-BoldMT-50" d="M 1428 2922 
L 1428 2538 
Q 1669 2800 1873 2904 
Q 2078 3009 2322 3009 
Q 2603 3009 2793 2878 
Q 2984 2747 3088 2478 
Q 3338 2759 3567 2884 
Q 3797 3009 4047 3009 
Q 4350 3009 4529 2870 
Q 4709 2731 4779 2517 
Q 4850 2303 4850 1834 
L 4850 638 
Q 4850 300 4911 219 
Q 4972 138 5166 113 
L 5166 0 
L 3656 0 
L 3656 113 
Q 3834 128 3919 250 
Q 3975 334 3975 638 
L 3975 1894 
Q 3975 2284 3944 2390 
Q 3913 2497 3845 2548 
Q 3778 2600 3688 2600 
Q 3553 2600 3415 2501 
Q 3278 2403 3138 2206 
L 3138 638 
Q 3138 322 3191 241 
Q 3263 125 3466 113 
L 3466 0 
L 1953 0 
L 1953 113 
Q 2075 119 2145 173 
Q 2216 228 2239 304 
Q 2263 381 2263 638 
L 2263 1894 
Q 2263 2291 2231 2391 
Q 2200 2491 2126 2547 
Q 2053 2603 1969 2603 
Q 1844 2603 1741 2538 
Q 1594 2441 1428 2206 
L 1428 638 
Q 1428 328 1489 229 
Q 1550 131 1744 113 
L 1744 0 
L 238 0 
L 238 113 
Q 422 131 500 231 
Q 553 300 553 638 
L 553 2288 
Q 553 2619 492 2700 
Q 431 2781 238 2806 
L 238 2922 
L 1428 2922 
z
" transform="scale(0.015625)"/>
       <path id="TimesNewRomanPS-BoldMT-48" d="M 2691 1566 
L 1088 1566 
Q 1116 984 1397 647 
Q 1613 388 1916 388 
Q 2103 388 2256 492 
Q 2409 597 2584 869 
L 2691 800 
Q 2453 316 2165 114 
Q 1878 -88 1500 -88 
Q 850 -88 516 413 
Q 247 816 247 1413 
Q 247 2144 642 2576 
Q 1038 3009 1569 3009 
Q 2013 3009 2339 2645 
Q 2666 2281 2691 1566 
z
M 1922 1775 
Q 1922 2278 1867 2465 
Q 1813 2653 1697 2750 
Q 1631 2806 1522 2806 
Q 1359 2806 1256 2647 
Q 1072 2369 1072 1884 
L 1072 1775 
L 1922 1775 
z
" transform="scale(0.015625)"/>
       <path id="TimesNewRomanPS-BoldMT-3" transform="scale(0.015625)"/>
       <path id="TimesNewRomanPS-BoldMT-b" d="M 2056 4334 
L 2056 4191 
Q 1731 3978 1578 3775 
Q 1366 3494 1247 3053 
Q 1097 2506 1097 1525 
Q 1097 600 1233 87 
Q 1369 -425 1603 -741 
Q 1766 -959 2056 -1125 
L 2056 -1281 
Q 1303 -1028 779 -248 
Q 256 531 256 1544 
Q 256 2544 778 3314 
Q 1300 4084 2056 4334 
z
" transform="scale(0.015625)"/>
       <path id="TimesNewRomanPS-BoldMT-56" d="M 2063 3003 
L 2109 2006 
L 2003 2006 
Q 1813 2450 1608 2612 
Q 1403 2775 1200 2775 
Q 1072 2775 981 2689 
Q 891 2603 891 2491 
Q 891 2406 953 2328 
Q 1053 2200 1512 1889 
Q 1972 1578 2117 1361 
Q 2263 1144 2263 875 
Q 2263 631 2141 397 
Q 2019 163 1797 37 
Q 1575 -88 1306 -88 
Q 1097 -88 747 44 
Q 653 78 619 78 
Q 516 78 447 -78 
L 344 -78 
L 294 972 
L 400 972 
Q 541 559 786 353 
Q 1031 147 1250 147 
Q 1400 147 1495 239 
Q 1591 331 1591 463 
Q 1591 613 1497 722 
Q 1403 831 1078 1053 
Q 600 1384 459 1559 
Q 253 1816 253 2125 
Q 253 2463 486 2736 
Q 719 3009 1159 3009 
Q 1397 3009 1619 2894 
Q 1703 2847 1756 2847 
Q 1813 2847 1847 2870 
Q 1881 2894 1956 3003 
L 2063 3003 
z
" transform="scale(0.015625)"/>
       <path id="TimesNewRomanPS-BoldMT-c" d="M 78 -1281 
L 78 -1138 
Q 403 -922 556 -719 
Q 766 -438 888 0 
Q 1038 550 1038 1531 
Q 1038 2456 902 2967 
Q 766 3478 531 3794 
Q 369 4013 78 4178 
L 78 4334 
Q 831 4081 1354 3301 
Q 1878 2522 1878 1509 
Q 1878 513 1354 -257 
Q 831 -1028 78 -1281 
z
" transform="scale(0.015625)"/>
      </defs>
      <use xlink:href="#TimesNewRomanPS-BoldMT-37"/>
      <use xlink:href="#TimesNewRomanPS-BoldMT-4c" transform="translate(64.890625 0)"/>
      <use xlink:href="#TimesNewRomanPS-BoldMT-50" transform="translate(92.671875 0)"/>
      <use xlink:href="#TimesNewRomanPS-BoldMT-48" transform="translate(175.96875 0)"/>
      <use xlink:href="#TimesNewRomanPS-BoldMT-3" transform="translate(220.359375 0)"/>
      <use xlink:href="#TimesNewRomanPS-BoldMT-b" transform="translate(245.359375 0)"/>
      <use xlink:href="#TimesNewRomanPS-BoldMT-56" transform="translate(278.65625 0)"/>
      <use xlink:href="#TimesNewRomanPS-BoldMT-c" transform="translate(317.578125 0)"/>
     </g>
    </g>
   </g>
   <g id="matplotlib.axis_2">
    <g id="ytick_1">
     <g id="line2d_11">
      <path d="M 40.404844 415.605442 
L 993.6 415.605442 
" clip-path="url(#p0dd0a2043d)" style="fill: none; stroke: #b0b0b0; stroke-opacity: 0.3; stroke-width: 0.8; stroke-linecap: square"/>
     </g>
     <g id="line2d_12">
      <defs>
       <path id="m55e1bf7344" d="M 0 0 
L 3.5 0 
" style="stroke: #000000; stroke-width: 0.8"/>
      </defs>
      <g>
       <use xlink:href="#m55e1bf7344" x="40.404844" y="415.605442" style="stroke: #000000; stroke-width: 0.8"/>
      </g>
     </g>
     <g id="text_7">
      <!-- 50 -->
      <g transform="translate(26.904844 419.072239) scale(0.1 -0.1)">
       <defs>
        <path id="TimesNewRomanPSMT-18" d="M 2778 4238 
L 2534 3706 
L 1259 3706 
L 981 3138 
Q 1809 3016 2294 2522 
Q 2709 2097 2709 1522 
Q 2709 1188 2573 903 
Q 2438 619 2231 419 
Q 2025 219 1772 97 
Q 1413 -75 1034 -75 
Q 653 -75 479 54 
Q 306 184 306 341 
Q 306 428 378 495 
Q 450 563 559 563 
Q 641 563 702 538 
Q 763 513 909 409 
Q 1144 247 1384 247 
Q 1750 247 2026 523 
Q 2303 800 2303 1197 
Q 2303 1581 2056 1914 
Q 1809 2247 1375 2428 
Q 1034 2569 447 2591 
L 1259 4238 
L 2778 4238 
z
" transform="scale(0.015625)"/>
       </defs>
       <use xlink:href="#TimesNewRomanPSMT-18"/>
       <use xlink:href="#TimesNewRomanPSMT-13" transform="translate(50 0)"/>
      </g>
     </g>
    </g>
    <g id="ytick_2">
     <g id="line2d_13">
      <path d="M 40.404844 366.877925 
L 993.6 366.877925 
" clip-path="url(#p0dd0a2043d)" style="fill: none; stroke: #b0b0b0; stroke-opacity: 0.3; stroke-width: 0.8; stroke-linecap: square"/>
     </g>
     <g id="line2d_14">
      <g>
       <use xlink:href="#m55e1bf7344" x="40.404844" y="366.877925" style="stroke: #000000; stroke-width: 0.8"/>
      </g>
     </g>
     <g id="text_8">
      <!-- 52 -->
      <g transform="translate(26.904844 370.344721) scale(0.1 -0.1)">
       <use xlink:href="#TimesNewRomanPSMT-18"/>
       <use xlink:href="#TimesNewRomanPSMT-15" transform="translate(50 0)"/>
      </g>
     </g>
    </g>
    <g id="ytick_3">
     <g id="line2d_15">
      <path d="M 40.404844 318.150407 
L 993.6 318.150407 
" clip-path="url(#p0dd0a2043d)" style="fill: none; stroke: #b0b0b0; stroke-opacity: 0.3; stroke-width: 0.8; stroke-linecap: square"/>
     </g>
     <g id="line2d_16">
      <g>
       <use xlink:href="#m55e1bf7344" x="40.404844" y="318.150407" style="stroke: #000000; stroke-width: 0.8"/>
      </g>
     </g>
     <g id="text_9">
      <!-- 54 -->
      <g transform="translate(26.904844 321.617204) scale(0.1 -0.1)">
       <use xlink:href="#TimesNewRomanPSMT-18"/>
       <use xlink:href="#TimesNewRomanPSMT-17" transform="translate(50 0)"/>
      </g>
     </g>
    </g>
    <g id="ytick_4">
     <g id="line2d_17">
      <path d="M 40.404844 269.42289 
L 993.6 269.42289 
" clip-path="url(#p0dd0a2043d)" style="fill: none; stroke: #b0b0b0; stroke-opacity: 0.3; stroke-width: 0.8; stroke-linecap: square"/>
     </g>
     <g id="line2d_18">
      <g>
       <use xlink:href="#m55e1bf7344" x="40.404844" y="269.42289" style="stroke: #000000; stroke-width: 0.8"/>
      </g>
     </g>
     <g id="text_10">
      <!-- 56 -->
      <g transform="translate(26.904844 272.889687) scale(0.1 -0.1)">
       <use xlink:href="#TimesNewRomanPSMT-18"/>
       <use xlink:href="#TimesNewRomanPSMT-19" transform="translate(50 0)"/>
      </g>
     </g>
    </g>
    <g id="ytick_5">
     <g id="line2d_19">
      <path d="M 40.404844 220.695372 
L 993.6 220.695372 
" clip-path="url(#p0dd0a2043d)" style="fill: none; stroke: #b0b0b0; stroke-opacity: 0.3; stroke-width: 0.8; stroke-linecap: square"/>
     </g>
     <g id="line2d_20">
      <g>
       <use xlink:href="#m55e1bf7344" x="40.404844" y="220.695372" style="stroke: #000000; stroke-width: 0.8"/>
      </g>
     </g>
     <g id="text_11">
      <!-- 58 -->
      <g transform="translate(26.904844 224.162169) scale(0.1 -0.1)">
       <use xlink:href="#TimesNewRomanPSMT-18"/>
       <use xlink:href="#TimesNewRomanPSMT-1b" transform="translate(50 0)"/>
      </g>
     </g>
    </g>
    <g id="ytick_6">
     <g id="line2d_21">
      <path d="M 40.404844 171.967855 
L 993.6 171.967855 
" clip-path="url(#p0dd0a2043d)" style="fill: none; stroke: #b0b0b0; stroke-opacity: 0.3; stroke-width: 0.8; stroke-linecap: square"/>
     </g>
     <g id="line2d_22">
      <g>
       <use xlink:href="#m55e1bf7344" x="40.404844" y="171.967855" style="stroke: #000000; stroke-width: 0.8"/>
      </g>
     </g>
     <g id="text_12">
      <!-- 60 -->
      <g transform="translate(26.904844 175.434652) scale(0.1 -0.1)">
       <use xlink:href="#TimesNewRomanPSMT-19"/>
       <use xlink:href="#TimesNewRomanPSMT-13" transform="translate(50 0)"/>
      </g>
     </g>
    </g>
    <g id="ytick_7">
     <g id="line2d_23">
      <path d="M 40.404844 123.240337 
L 993.6 123.240337 
" clip-path="url(#p0dd0a2043d)" style="fill: none; stroke: #b0b0b0; stroke-opacity: 0.3; stroke-width: 0.8; stroke-linecap: square"/>
     </g>
     <g id="line2d_24">
      <g>
       <use xlink:href="#m55e1bf7344" x="40.404844" y="123.240337" style="stroke: #000000; stroke-width: 0.8"/>
      </g>
     </g>
     <g id="text_13">
      <!-- 62 -->
      <g transform="translate(26.904844 126.707134) scale(0.1 -0.1)">
       <use xlink:href="#TimesNewRomanPSMT-19"/>
       <use xlink:href="#TimesNewRomanPSMT-15" transform="translate(50 0)"/>
      </g>
     </g>
    </g>
    <g id="ytick_8">
     <g id="line2d_25">
      <path d="M 40.404844 74.51282 
L 993.6 74.51282 
" clip-path="url(#p0dd0a2043d)" style="fill: none; stroke: #b0b0b0; stroke-opacity: 0.3; stroke-width: 0.8; stroke-linecap: square"/>
     </g>
     <g id="line2d_26">
      <g>
       <use xlink:href="#m55e1bf7344" x="40.404844" y="74.51282" style="stroke: #000000; stroke-width: 0.8"/>
      </g>
     </g>
     <g id="text_14">
      <!-- 64 -->
      <g transform="translate(26.904844 77.979617) scale(0.1 -0.1)">
       <use xlink:href="#TimesNewRomanPSMT-19"/>
       <use xlink:href="#TimesNewRomanPSMT-17" transform="translate(50 0)"/>
      </g>
     </g>
    </g>
    <g id="ytick_9">
     <g id="line2d_27">
      <path d="M 40.404844 25.785302 
L 993.6 25.785302 
" clip-path="url(#p0dd0a2043d)" style="fill: none; stroke: #b0b0b0; stroke-opacity: 0.3; stroke-width: 0.8; stroke-linecap: square"/>
     </g>
     <g id="line2d_28">
      <g>
       <use xlink:href="#m55e1bf7344" x="40.404844" y="25.785302" style="stroke: #000000; stroke-width: 0.8"/>
      </g>
     </g>
     <g id="text_15">
      <!-- 66 -->
      <g transform="translate(26.904844 29.252099) scale(0.1 -0.1)">
       <use xlink:href="#TimesNewRomanPSMT-19"/>
       <use xlink:href="#TimesNewRomanPSMT-19" transform="translate(50 0)"/>
      </g>
     </g>
    </g>
    <g id="text_16">
     <!-- Controller Output (%CO) -->
     <g transform="translate(20.315 291.879173) rotate(-90) scale(0.12 -0.12)">
      <defs>
       <path id="TimesNewRomanPS-BoldMT-26" d="M 4272 4334 
L 4272 2866 
L 4150 2866 
Q 4013 3441 3638 3747 
Q 3263 4053 2788 4053 
Q 2391 4053 2059 3825 
Q 1728 3597 1575 3228 
Q 1378 2756 1378 2178 
Q 1378 1609 1522 1142 
Q 1666 675 1972 436 
Q 2278 197 2766 197 
Q 3166 197 3498 372 
Q 3831 547 4200 975 
L 4200 609 
Q 3844 238 3458 70 
Q 3072 -97 2556 -97 
Q 1878 -97 1351 175 
Q 825 447 539 956 
Q 253 1466 253 2041 
Q 253 2647 570 3190 
Q 888 3734 1427 4034 
Q 1966 4334 2572 4334 
Q 3019 4334 3516 4141 
Q 3803 4028 3881 4028 
Q 3981 4028 4054 4101 
Q 4128 4175 4150 4334 
L 4272 4334 
z
" transform="scale(0.015625)"/>
       <path id="TimesNewRomanPS-BoldMT-52" d="M 1594 3009 
Q 1975 3009 2303 2812 
Q 2631 2616 2801 2253 
Q 2972 1891 2972 1459 
Q 2972 838 2656 419 
Q 2275 -88 1603 -88 
Q 944 -88 587 375 
Q 231 838 231 1447 
Q 231 2075 595 2542 
Q 959 3009 1594 3009 
z
M 1606 2788 
Q 1447 2788 1333 2667 
Q 1219 2547 1183 2192 
Q 1147 1838 1147 1206 
Q 1147 872 1191 581 
Q 1225 359 1337 243 
Q 1450 128 1594 128 
Q 1734 128 1828 206 
Q 1950 313 1991 503 
Q 2053 800 2053 1703 
Q 2053 2234 1993 2432 
Q 1934 2631 1819 2722 
Q 1738 2788 1606 2788 
z
" transform="scale(0.015625)"/>
       <path id="TimesNewRomanPS-BoldMT-51" d="M 1409 2922 
L 1409 2544 
Q 1634 2788 1840 2898 
Q 2047 3009 2284 3009 
Q 2569 3009 2756 2851 
Q 2944 2694 3006 2459 
Q 3056 2281 3056 1775 
L 3056 638 
Q 3056 300 3117 217 
Q 3178 134 3372 113 
L 3372 0 
L 1894 0 
L 1894 113 
Q 2059 134 2131 250 
Q 2181 328 2181 638 
L 2181 1938 
Q 2181 2297 2153 2390 
Q 2125 2484 2058 2536 
Q 1991 2588 1909 2588 
Q 1641 2588 1409 2203 
L 1409 638 
Q 1409 309 1470 221 
Q 1531 134 1697 113 
L 1697 0 
L 219 0 
L 219 113 
Q 403 131 481 231 
Q 534 300 534 638 
L 534 2288 
Q 534 2619 473 2700 
Q 413 2781 219 2806 
L 219 2922 
L 1409 2922 
z
" transform="scale(0.015625)"/>
       <path id="TimesNewRomanPS-BoldMT-57" d="M 1375 3991 
L 1375 2922 
L 2069 2922 
L 2069 2613 
L 1375 2613 
L 1375 809 
Q 1375 556 1398 482 
Q 1422 409 1481 364 
Q 1541 319 1591 319 
Q 1794 319 1975 628 
L 2069 559 
Q 1816 -41 1247 -41 
Q 969 -41 776 114 
Q 584 269 531 459 
Q 500 566 500 1034 
L 500 2613 
L 119 2613 
L 119 2722 
Q 513 3000 789 3306 
Q 1066 3613 1272 3991 
L 1375 3991 
z
" transform="scale(0.015625)"/>
       <path id="TimesNewRomanPS-BoldMT-55" d="M 1428 2922 
L 1428 2259 
Q 1719 2713 1937 2861 
Q 2156 3009 2359 3009 
Q 2534 3009 2639 2901 
Q 2744 2794 2744 2597 
Q 2744 2388 2642 2272 
Q 2541 2156 2397 2156 
Q 2231 2156 2109 2262 
Q 1988 2369 1966 2381 
Q 1934 2400 1894 2400 
Q 1803 2400 1722 2331 
Q 1594 2225 1528 2028 
Q 1428 1725 1428 1359 
L 1428 688 
L 1431 513 
Q 1431 334 1453 284 
Q 1491 200 1564 161 
Q 1638 122 1813 113 
L 1813 0 
L 234 0 
L 234 113 
Q 425 128 492 217 
Q 559 306 559 688 
L 559 2303 
Q 559 2553 534 2622 
Q 503 2709 443 2750 
Q 384 2791 234 2806 
L 234 2922 
L 1428 2922 
z
" transform="scale(0.015625)"/>
       <path id="TimesNewRomanPS-BoldMT-4f" d="M 1359 4238 
L 1359 606 
Q 1359 297 1431 211 
Q 1503 125 1713 113 
L 1713 0 
L 134 0 
L 134 113 
Q 328 119 422 225 
Q 484 297 484 606 
L 484 3631 
Q 484 3938 412 4023 
Q 341 4109 134 4122 
L 134 4238 
L 1359 4238 
z
" transform="scale(0.015625)"/>
       <path id="TimesNewRomanPS-BoldMT-32" d="M 2472 4297 
Q 3484 4334 4117 3706 
Q 4750 3078 4750 2134 
Q 4750 1328 4278 716 
Q 3653 -97 2513 -97 
Q 1369 -97 744 678 
Q 250 1291 250 2131 
Q 250 3075 892 3704 
Q 1534 4334 2472 4297 
z
M 2509 4097 
Q 1928 4097 1625 3503 
Q 1378 3016 1378 2103 
Q 1378 1019 1759 500 
Q 2025 138 2503 138 
Q 2825 138 3041 294 
Q 3316 494 3469 933 
Q 3622 1372 3622 2078 
Q 3622 2919 3465 3336 
Q 3309 3753 3067 3925 
Q 2825 4097 2509 4097 
z
" transform="scale(0.015625)"/>
       <path id="TimesNewRomanPS-BoldMT-58" d="M 3038 2922 
L 3038 634 
Q 3038 300 3100 217 
Q 3163 134 3353 113 
L 3353 0 
L 2163 0 
L 2163 391 
Q 1953 141 1743 26 
Q 1534 -88 1275 -88 
Q 1028 -88 836 64 
Q 644 216 578 419 
Q 513 622 513 1128 
L 513 2288 
Q 513 2619 452 2700 
Q 391 2781 197 2806 
L 197 2922 
L 1388 2922 
L 1388 925 
Q 1388 613 1417 522 
Q 1447 431 1511 384 
Q 1575 338 1659 338 
Q 1772 338 1863 397 
Q 1988 478 2163 725 
L 2163 2288 
Q 2163 2619 2102 2700 
Q 2041 2781 1847 2806 
L 1847 2922 
L 3038 2922 
z
" transform="scale(0.015625)"/>
       <path id="TimesNewRomanPS-BoldMT-53" d="M 1347 297 
L 1347 -791 
Q 1347 -1016 1383 -1097 
Q 1419 -1178 1494 -1215 
Q 1569 -1253 1788 -1253 
L 1788 -1369 
L 122 -1369 
L 122 -1253 
Q 316 -1247 409 -1144 
Q 472 -1072 472 -772 
L 472 2313 
Q 472 2622 400 2708 
Q 328 2794 122 2806 
L 122 2922 
L 1347 2922 
L 1347 2538 
Q 1500 2763 1659 2863 
Q 1888 3009 2156 3009 
Q 2478 3009 2742 2806 
Q 3006 2603 3143 2245 
Q 3281 1888 3281 1475 
Q 3281 1031 3139 664 
Q 2997 297 2726 104 
Q 2456 -88 2125 -88 
Q 1884 -88 1675 19 
Q 1519 100 1347 297 
z
M 1347 613 
Q 1616 231 1922 231 
Q 2091 231 2200 409 
Q 2363 672 2363 1409 
Q 2363 2166 2184 2444 
Q 2066 2628 1866 2628 
Q 1550 2628 1347 2172 
L 1347 613 
z
" transform="scale(0.015625)"/>
       <path id="TimesNewRomanPS-BoldMT-8" d="M 4916 4334 
L 1906 -178 
L 1488 -178 
L 4494 4334 
L 4916 4334 
z
M 1494 4334 
Q 1938 4334 2242 4020 
Q 2547 3706 2547 3209 
Q 2547 2700 2240 2383 
Q 1934 2066 1481 2066 
Q 1034 2066 739 2372 
Q 444 2678 444 3178 
Q 444 3694 747 4014 
Q 1050 4334 1494 4334 
z
M 1494 4169 
Q 1425 4169 1381 4128 
Q 1303 4056 1264 3879 
Q 1225 3703 1225 3150 
Q 1225 2709 1278 2469 
Q 1309 2331 1384 2263 
Q 1431 2222 1494 2222 
Q 1563 2222 1603 2259 
Q 1675 2325 1709 2472 
Q 1763 2709 1763 3138 
Q 1763 3663 1713 3897 
Q 1678 4059 1600 4134 
Q 1563 4169 1494 4169 
z
M 4894 2097 
Q 5347 2097 5651 1786 
Q 5956 1475 5956 972 
Q 5956 463 5647 144 
Q 5338 -175 4900 -175 
Q 4466 -175 4161 144 
Q 3856 463 3856 963 
Q 3856 1466 4153 1781 
Q 4450 2097 4894 2097 
z
M 4903 1934 
Q 4841 1934 4797 1897 
Q 4722 1828 4681 1658 
Q 4641 1488 4641 1006 
Q 4641 494 4688 269 
Q 4722 109 4803 38 
Q 4844 0 4909 0 
Q 4969 0 5006 34 
Q 5084 106 5122 269 
Q 5175 497 5175 959 
Q 5175 1447 5125 1672 
Q 5088 1834 5013 1900 
Q 4975 1934 4903 1934 
z
" transform="scale(0.015625)"/>
      </defs>
      <use xlink:href="#TimesNewRomanPS-BoldMT-26"/>
      <use xlink:href="#TimesNewRomanPS-BoldMT-52" transform="translate(72.21875 0)"/>
      <use xlink:href="#TimesNewRomanPS-BoldMT-51" transform="translate(122.21875 0)"/>
      <use xlink:href="#TimesNewRomanPS-BoldMT-57" transform="translate(177.828125 0)"/>
      <use xlink:href="#TimesNewRomanPS-BoldMT-55" transform="translate(211.125 0)"/>
      <use xlink:href="#TimesNewRomanPS-BoldMT-52" transform="translate(253.703125 0)"/>
      <use xlink:href="#TimesNewRomanPS-BoldMT-4f" transform="translate(303.703125 0)"/>
      <use xlink:href="#TimesNewRomanPS-BoldMT-4f" transform="translate(331.484375 0)"/>
      <use xlink:href="#TimesNewRomanPS-BoldMT-48" transform="translate(359.265625 0)"/>
      <use xlink:href="#TimesNewRomanPS-BoldMT-55" transform="translate(403.65625 0)"/>
      <use xlink:href="#TimesNewRomanPS-BoldMT-3" transform="translate(446.234375 0)"/>
      <use xlink:href="#TimesNewRomanPS-BoldMT-32" transform="translate(471.234375 0)"/>
      <use xlink:href="#TimesNewRomanPS-BoldMT-58" transform="translate(549.015625 0)"/>
      <use xlink:href="#TimesNewRomanPS-BoldMT-57" transform="translate(604.625 0)"/>
      <use xlink:href="#TimesNewRomanPS-BoldMT-53" transform="translate(637.921875 0)"/>
      <use xlink:href="#TimesNewRomanPS-BoldMT-58" transform="translate(693.53125 0)"/>
      <use xlink:href="#TimesNewRomanPS-BoldMT-57" transform="translate(749.140625 0)"/>
      <use xlink:href="#TimesNewRomanPS-BoldMT-3" transform="translate(782.4375 0)"/>
      <use xlink:href="#TimesNewRomanPS-BoldMT-b" transform="translate(807.4375 0)"/>
      <use xlink:href="#TimesNewRomanPS-BoldMT-8" transform="translate(840.734375 0)"/>
      <use xlink:href="#TimesNewRomanPS-BoldMT-26" transform="translate(940.734375 0)"/>
      <use xlink:href="#TimesNewRomanPS-BoldMT-32" transform="translate(1012.953125 0)"/>
      <use xlink:href="#TimesNewRomanPS-BoldMT-c" transform="translate(1090.734375 0)"/>
     </g>
    </g>
   </g>
   <g id="line2d_29">
    <path d="M 83.731896 415.605442 
L 91.002195 415.597572 
L 119.105831 415.519497 
L 119.169692 412.792669 
L 119.321975 393.455712 
L 120.2455 254.721992 
L 120.604102 237.322641 
L 120.962705 229.52592 
L 121.301658 226.421985 
L 121.611137 225.327319 
L 121.999214 224.828832 
L 122.524837 224.515356 
L 123.158532 224.396689 
L 142.031835 224.399741 
L 331.319966 224.350592 
L 331.36909 222.668803 
L 331.506636 207.663058 
L 331.904537 131.995723 
L 332.331913 73.752996 
L 332.70034 50.320226 
L 333.054031 40.330791 
L 333.402809 35.984817 
L 333.731937 34.297373 
L 334.051241 33.689136 
L 334.473704 33.408829 
L 335.200734 33.189706 
L 335.844254 33.180849 
L 338.005694 33.217087 
L 341.522947 33.199555 
L 359.006051 33.202001 
L 437.422121 33.252701 
L 437.476157 35.18247 
L 437.608791 49.63479 
L 438.055816 134.109285 
L 438.473367 186.876716 
L 438.841795 208.610641 
L 439.195485 217.831804 
L 439.53935 221.853838 
L 439.89304 223.479917 
L 440.207432 223.872413 
L 440.919725 223.979967 
L 441.862899 224.340407 
L 442.653789 224.404007 
L 462.357282 224.399815 
L 596.587635 224.333591 
L 596.636758 222.424757 
L 596.76448 208.925122 
L 597.226242 122.296112 
L 597.648706 69.68384 
L 598.01222 48.704904 
L 598.365911 39.537499 
L 598.704864 35.777523 
L 599.02908 34.346293 
L 599.377858 33.715023 
L 599.844532 33.410276 
L 600.537176 33.245163 
L 601.843865 33.205223 
L 622.7165 33.202099 
L 702.694702 33.257265 
L 702.753651 35.60803 
L 702.905934 53.986648 
L 703.922793 199.757114 
L 704.281396 214.074368 
L 704.630174 220.208129 
L 704.969127 222.760641 
L 705.283518 223.692258 
L 705.617559 224.043323 
L 706.197218 224.27722 
L 707.366361 224.524373 
L 708.230937 224.37813 
L 708.864632 224.320888 
L 709.758682 224.340772 
L 712.838734 224.412119 
L 794.13345 224.399807 
L 914.908837 224.503745 
L 914.97761 227.656911 
L 915.134806 248.154883 
L 916.019032 383.193742 
L 916.377634 401.757575 
L 916.731324 409.890345 
L 917.089927 413.526541 
L 917.374844 414.564828 
L 917.728534 414.979968 
L 917.98889 415.207976 
L 918.205034 415.35824 
L 918.828904 415.697131 
L 919.467511 415.686777 
L 921.653513 415.593016 
L 938.935211 415.597559 
L 950.272947 415.597572 
L 950.272947 415.597572 
" clip-path="url(#p0dd0a2043d)" style="fill: none; stroke: #0055cc; stroke-width: 2; stroke-linecap: square"/>
   </g>
   <g id="line2d_30">
    <path d="M 83.731896 415.605442 
L 119.22864 415.489902 
L 119.454609 414.915935 
L 119.940933 412.899002 
L 121.905879 403.209081 
L 124.83856 389.429805 
L 127.761417 376.752422 
L 130.689186 365.030144 
L 133.62678 354.174866 
L 136.569286 344.141562 
L 139.521617 334.854846 
L 142.488685 326.24854 
L 145.460665 318.300448 
L 148.452295 310.925989 
L 151.463574 304.087756 
L 154.499415 297.740628 
L 157.559818 291.853859 
L 160.644783 286.399161 
L 163.75431 281.347505 
L 166.91296 276.63711 
L 170.115821 272.258913 
L 173.348157 268.212509 
L 176.76225 264.297646 
L 180.117395 260.777513 
L 183.649385 257.402713 
L 187.083127 254.410059 
L 190.782138 251.49285 
L 194.373076 248.924827 
L 198.897363 245.998916 
L 202.758482 243.757354 
L 206.565564 241.802518 
L 212.283556 239.180127 
L 216.537663 237.496453 
L 221.862666 235.658268 
L 226.730819 234.186895 
L 231.756168 232.904081 
L 237.248191 231.715849 
L 243.70795 230.553962 
L 250.516487 229.54402 
L 258.690661 228.614489 
L 268.751183 227.693677 
L 282.23071 226.771019 
L 291.264548 226.302194 
L 307.332892 225.659534 
L 325.277758 225.187654 
L 331.437863 224.967957 
L 331.663832 224.401796 
L 332.125594 222.487205 
L 333.908782 213.665896 
L 336.841464 199.758829 
L 339.759408 186.984404 
L 342.692089 175.131667 
L 345.629683 164.164619 
L 348.562365 154.056798 
L 351.514696 144.666309 
L 354.476851 135.977053 
L 357.458656 127.914446 
L 360.425724 120.528462 
L 363.427179 113.649327 
L 366.467932 107.234401 
L 369.528335 101.293905 
L 372.598563 95.812059 
L 375.708089 90.709148 
L 378.84709 85.980152 
L 382.040127 81.568711 
L 385.2872 77.460972 
L 388.563747 73.670031 
L 391.923804 70.119166 
L 395.416495 66.753473 
L 398.948485 63.647486 
L 402.63767 60.706176 
L 406.25317 58.093062 
L 410.32552 55.441604 
L 414.201376 53.183564 
L 418.342499 50.965998 
L 422.429586 49.027848 
L 426.939136 47.148163 
L 431.532197 45.421119 
L 436.085958 43.945144 
L 437.54493 43.623938 
L 437.741425 44.034937 
L 438.149151 45.532414 
L 439.342856 51.047746 
L 442.42782 65.065534 
L 445.350677 77.305192 
L 448.288271 88.659249 
L 451.225865 99.137198 
L 454.173283 108.837303 
L 457.130527 117.814994 
L 460.102507 126.134782 
L 463.089224 133.841667 
L 466.090679 140.977764 
L 469.111783 147.592809 
L 472.152536 153.721295 
L 475.217852 159.404467 
L 478.312641 164.678863 
L 481.44673 169.584249 
L 484.620117 174.140762 
L 487.837715 178.374192 
L 491.10935 182.313262 
L 494.439933 185.977175 
L 497.839289 189.387633 
L 501.312331 192.55881 
L 504.893444 195.527826 
L 508.577717 198.292572 
L 512.374975 200.865374 
L 516.285217 203.247091 
L 520.372304 205.469087 
L 524.714834 207.574714 
L 529.160523 209.487248 
L 533.945166 211.290993 
L 539.206308 213.032661 
L 544.03025 214.414048 
L 549.974211 215.891247 
L 555.927996 217.15156 
L 562.903553 218.393525 
L 569.495946 219.358259 
L 577.9403 220.368021 
L 587.514498 221.290811 
L 596.631846 221.959523 
L 596.789042 221.726237 
L 597.083784 220.787015 
L 597.771515 217.680932 
L 602.197555 196.70853 
L 605.120412 184.148181 
L 608.053093 172.515227 
L 610.990687 161.761783 
L 613.938105 151.806726 
L 616.890436 142.608037 
L 619.857504 134.08245 
L 622.839309 126.184106 
L 625.835852 118.869793 
L 628.852043 112.088499 
L 631.887884 105.804897 
L 634.948287 99.976529 
L 638.038164 94.565451 
L 641.157516 89.547132 
L 644.311253 84.890703 
L 647.509203 80.561995 
L 650.761188 76.531946 
L 654.072121 72.781066 
L 657.451828 69.286934 
L 660.90522 66.034898 
L 664.451947 62.999698 
L 668.096921 60.172513 
L 671.859792 57.534934 
L 675.760209 55.072871 
L 679.807997 52.781155 
L 684.032631 50.645594 
L 688.429197 48.672048 
L 693.115592 46.813841 
L 698.067255 45.094792 
L 702.734001 43.69556 
L 702.881372 43.866428 
L 703.14664 44.611349 
L 703.750861 47.137997 
L 709.301832 72.0228 
L 712.234514 83.769131 
L 715.167195 94.615897 
L 718.109701 104.657236 
L 721.047295 113.900504 
L 724.014363 122.510258 
L 726.996168 130.487886 
L 729.987798 137.86445 
L 732.999077 144.704352 
L 736.030006 151.042969 
L 739.085497 156.922765 
L 742.170461 162.38143 
L 745.289813 167.452603 
L 748.44355 172.158488 
L 751.636587 176.526896 
L 754.878748 180.588759 
L 758.179856 184.370477 
L 761.549738 187.89446 
L 765.017867 191.199467 
L 768.53512 194.248182 
L 772.553434 197.421937 
L 776.198408 200.017486 
L 780.201985 202.581515 
L 784.082753 204.82925 
L 788.071593 206.879305 
L 792.306051 208.849353 
L 796.511035 210.561492 
L 801.059884 212.189054 
L 806.134356 213.76367 
L 811.311988 215.146505 
L 817.418057 216.530801 
L 823.80413 217.759894 
L 831.364259 218.965845 
L 838.624733 219.918753 
L 847.879627 220.909889 
L 857.724005 221.738172 
L 869.985266 222.519454 
L 884.265509 223.151266 
L 905.884824 223.781529 
L 915.046384 224.058673 
L 915.282177 224.692777 
L 915.788151 226.839588 
L 918.499776 240.182137 
L 921.432457 253.701694 
L 924.355314 266.138029 
L 927.307645 277.736069 
L 930.255063 288.42658 
L 933.202482 298.291458 
L 936.159725 307.419335 
L 939.146442 315.916547 
L 942.172459 323.845172 
L 945.139527 330.996782 
L 948.126244 337.626055 
L 950.272947 342.069995 
L 950.272947 342.069995 
" clip-path="url(#p0dd0a2043d)" style="fill: none; stroke: #d65a00; stroke-width: 2; stroke-linecap: square"/>
   </g>
   <g id="patch_3">
    <path d="M 40.404844 434.834597 
L 40.404844 14.04 
" style="fill: none; stroke: #1a1a1a; stroke-linejoin: miter; stroke-linecap: square"/>
   </g>
   <g id="patch_4">
    <path d="M 993.6 434.834597 
L 993.6 14.04 
" style="fill: none; stroke: #1a1a1a; stroke-linejoin: miter; stroke-linecap: square"/>
   </g>
   <g id="patch_5">
    <path d="M 40.404844 434.834597 
L 993.6 434.834597 
" style="fill: none; stroke: #1a1a1a; stroke-linejoin: miter; stroke-linecap: square"/>
   </g>
   <g id="patch_6">
    <path d="M 40.404844 14.04 
L 993.6 14.04 
" style="fill: none; stroke: #1a1a1a; stroke-linejoin: miter; stroke-linecap: square"/>
   </g>
   <g id="legend_1">
    <g id="patch_7">
     <path d="M 445.613359 494.864314 
L 588.391484 494.864314 
Q 590.391484 494.864314 590.391484 492.864314 
L 590.391484 479.706111 
Q 590.391484 477.706111 588.391484 477.706111 
L 445.613359 477.706111 
Q 443.613359 477.706111 443.613359 479.706111 
L 443.613359 492.864314 
Q 443.613359 494.864314 445.613359 494.864314 
z
" style="fill: #ffffff; opacity: 0.95; stroke: #808080; stroke-linejoin: miter"/>
    </g>
    <g id="line2d_31">
     <path d="M 447.613359 485.206111 
L 457.613359 485.206111 
L 467.613359 485.206111 
" style="fill: none; stroke: #0055cc; stroke-width: 2; stroke-linecap: square"/>
    </g>
    <g id="text_17">
     <!-- Tight -->
     <g transform="translate(475.613359 488.706111) scale(0.1 -0.1)">
      <defs>
       <path id="TimesNewRomanPSMT-37" d="M 3703 4238 
L 3750 3244 
L 3631 3244 
Q 3597 3506 3538 3619 
Q 3441 3800 3280 3886 
Q 3119 3972 2856 3972 
L 2259 3972 
L 2259 734 
Q 2259 344 2344 247 
Q 2463 116 2709 116 
L 2856 116 
L 2856 0 
L 1059 0 
L 1059 116 
L 1209 116 
Q 1478 116 1591 278 
Q 1659 378 1659 734 
L 1659 3972 
L 1150 3972 
Q 853 3972 728 3928 
Q 566 3869 450 3700 
Q 334 3531 313 3244 
L 194 3244 
L 244 4238 
L 3703 4238 
z
" transform="scale(0.015625)"/>
       <path id="TimesNewRomanPSMT-4c" d="M 928 4444 
Q 1059 4444 1151 4351 
Q 1244 4259 1244 4128 
Q 1244 3997 1151 3903 
Q 1059 3809 928 3809 
Q 797 3809 703 3903 
Q 609 3997 609 4128 
Q 609 4259 701 4351 
Q 794 4444 928 4444 
z
M 1188 2947 
L 1188 647 
Q 1188 378 1227 289 
Q 1266 200 1342 156 
Q 1419 113 1622 113 
L 1622 0 
L 231 0 
L 231 113 
Q 441 113 512 153 
Q 584 194 626 287 
Q 669 381 669 647 
L 669 1750 
Q 669 2216 641 2353 
Q 619 2453 572 2492 
Q 525 2531 444 2531 
Q 356 2531 231 2484 
L 188 2597 
L 1050 2947 
L 1188 2947 
z
" transform="scale(0.015625)"/>
       <path id="TimesNewRomanPSMT-4a" d="M 966 1044 
Q 703 1172 562 1401 
Q 422 1631 422 1909 
Q 422 2334 742 2640 
Q 1063 2947 1563 2947 
Q 1972 2947 2272 2747 
L 2878 2747 
Q 3013 2747 3034 2739 
Q 3056 2731 3066 2713 
Q 3084 2684 3084 2613 
Q 3084 2531 3069 2500 
Q 3059 2484 3036 2475 
Q 3013 2466 2878 2466 
L 2506 2466 
Q 2681 2241 2681 1891 
Q 2681 1491 2375 1206 
Q 2069 922 1553 922 
Q 1341 922 1119 984 
Q 981 866 932 777 
Q 884 688 884 625 
Q 884 572 936 522 
Q 988 472 1138 450 
Q 1225 438 1575 428 
Q 2219 413 2409 384 
Q 2700 344 2873 169 
Q 3047 -6 3047 -263 
Q 3047 -616 2716 -925 
Q 2228 -1381 1444 -1381 
Q 841 -1381 425 -1109 
Q 191 -953 191 -784 
Q 191 -709 225 -634 
Q 278 -519 444 -313 
Q 466 -284 763 25 
Q 600 122 533 198 
Q 466 275 466 372 
Q 466 481 555 628 
Q 644 775 966 1044 
z
M 1509 2797 
Q 1278 2797 1122 2612 
Q 966 2428 966 2047 
Q 966 1553 1178 1281 
Q 1341 1075 1591 1075 
Q 1828 1075 1981 1253 
Q 2134 1431 2134 1813 
Q 2134 2309 1919 2591 
Q 1759 2797 1509 2797 
z
M 934 0 
Q 788 -159 713 -296 
Q 638 -434 638 -550 
Q 638 -700 819 -813 
Q 1131 -1006 1722 -1006 
Q 2284 -1006 2551 -807 
Q 2819 -609 2819 -384 
Q 2819 -222 2659 -153 
Q 2497 -84 2016 -72 
Q 1313 -53 934 0 
z
" transform="scale(0.015625)"/>
       <path id="TimesNewRomanPSMT-4b" d="M 1041 4444 
L 1041 2350 
Q 1388 2731 1591 2839 
Q 1794 2947 1997 2947 
Q 2241 2947 2416 2812 
Q 2591 2678 2675 2391 
Q 2734 2191 2734 1659 
L 2734 647 
Q 2734 375 2778 275 
Q 2809 200 2884 156 
Q 2959 113 3159 113 
L 3159 0 
L 1753 0 
L 1753 113 
L 1819 113 
Q 2019 113 2097 173 
Q 2175 234 2206 353 
Q 2216 403 2216 647 
L 2216 1659 
Q 2216 2128 2167 2275 
Q 2119 2422 2012 2495 
Q 1906 2569 1756 2569 
Q 1603 2569 1437 2487 
Q 1272 2406 1041 2159 
L 1041 647 
Q 1041 353 1073 281 
Q 1106 209 1195 161 
Q 1284 113 1503 113 
L 1503 0 
L 84 0 
L 84 113 
Q 275 113 384 172 
Q 447 203 484 290 
Q 522 378 522 647 
L 522 3238 
Q 522 3728 498 3840 
Q 475 3953 426 3993 
Q 378 4034 297 4034 
Q 231 4034 84 3984 
L 41 4094 
L 897 4444 
L 1041 4444 
z
" transform="scale(0.015625)"/>
       <path id="TimesNewRomanPSMT-57" d="M 1031 3803 
L 1031 2863 
L 1700 2863 
L 1700 2644 
L 1031 2644 
L 1031 788 
Q 1031 509 1111 412 
Q 1191 316 1316 316 
Q 1419 316 1516 380 
Q 1613 444 1666 569 
L 1788 569 
Q 1678 263 1478 108 
Q 1278 -47 1066 -47 
Q 922 -47 784 33 
Q 647 113 581 261 
Q 516 409 516 719 
L 516 2644 
L 63 2644 
L 63 2747 
Q 234 2816 414 2980 
Q 594 3144 734 3369 
Q 806 3488 934 3803 
L 1031 3803 
z
" transform="scale(0.015625)"/>
      </defs>
      <use xlink:href="#TimesNewRomanPSMT-37"/>
      <use xlink:href="#TimesNewRomanPSMT-4c" transform="translate(57.5625 0)"/>
      <use xlink:href="#TimesNewRomanPSMT-4a" transform="translate(85.34375 0)"/>
      <use xlink:href="#TimesNewRomanPSMT-4b" transform="translate(135.34375 0)"/>
      <use xlink:href="#TimesNewRomanPSMT-57" transform="translate(185.34375 0)"/>
     </g>
    </g>
    <g id="line2d_32">
     <path d="M 516.925859 485.206111 
L 526.925859 485.206111 
L 536.925859 485.206111 
" style="fill: none; stroke: #d65a00; stroke-width: 2; stroke-linecap: square"/>
    </g>
    <g id="text_18">
     <!-- Averaging -->
     <g transform="translate(544.925859 488.706111) scale(0.1 -0.1)">
      <defs>
       <path id="TimesNewRomanPSMT-24" d="M 2928 1419 
L 1288 1419 
L 1000 750 
Q 894 503 894 381 
Q 894 284 986 211 
Q 1078 138 1384 116 
L 1384 0 
L 50 0 
L 50 116 
Q 316 163 394 238 
Q 553 388 747 847 
L 2238 4334 
L 2347 4334 
L 3822 809 
Q 4000 384 4145 257 
Q 4291 131 4550 116 
L 4550 0 
L 2878 0 
L 2878 116 
Q 3131 128 3220 200 
Q 3309 272 3309 375 
Q 3309 513 3184 809 
L 2928 1419 
z
M 2841 1650 
L 2122 3363 
L 1384 1650 
L 2841 1650 
z
" transform="scale(0.015625)"/>
       <path id="TimesNewRomanPSMT-59" d="M 53 2863 
L 1400 2863 
L 1400 2747 
L 1313 2747 
Q 1191 2747 1127 2687 
Q 1063 2628 1063 2528 
Q 1063 2419 1128 2269 
L 1794 688 
L 2463 2328 
Q 2534 2503 2534 2594 
Q 2534 2638 2509 2666 
Q 2475 2713 2422 2730 
Q 2369 2747 2206 2747 
L 2206 2863 
L 3141 2863 
L 3141 2747 
Q 2978 2734 2916 2681 
Q 2806 2588 2719 2369 
L 1703 -88 
L 1575 -88 
L 553 2328 
Q 484 2497 421 2570 
Q 359 2644 263 2694 
Q 209 2722 53 2747 
L 53 2863 
z
" transform="scale(0.015625)"/>
       <path id="TimesNewRomanPSMT-48" d="M 681 1784 
Q 678 1147 991 784 
Q 1303 422 1725 422 
Q 2006 422 2214 576 
Q 2422 731 2563 1106 
L 2659 1044 
Q 2594 616 2278 264 
Q 1963 -88 1488 -88 
Q 972 -88 605 314 
Q 238 716 238 1394 
Q 238 2128 614 2539 
Q 991 2950 1559 2950 
Q 2041 2950 2350 2633 
Q 2659 2316 2659 1784 
L 681 1784 
z
M 681 1966 
L 2006 1966 
Q 1991 2241 1941 2353 
Q 1863 2528 1708 2628 
Q 1553 2728 1384 2728 
Q 1125 2728 920 2526 
Q 716 2325 681 1966 
z
" transform="scale(0.015625)"/>
       <path id="TimesNewRomanPSMT-55" d="M 1038 2947 
L 1038 2303 
Q 1397 2947 1775 2947 
Q 1947 2947 2059 2842 
Q 2172 2738 2172 2600 
Q 2172 2478 2090 2393 
Q 2009 2309 1897 2309 
Q 1788 2309 1652 2417 
Q 1516 2525 1450 2525 
Q 1394 2525 1328 2463 
Q 1188 2334 1038 2041 
L 1038 669 
Q 1038 431 1097 309 
Q 1138 225 1241 169 
Q 1344 113 1538 113 
L 1538 0 
L 72 0 
L 72 113 
Q 291 113 397 181 
Q 475 231 506 341 
Q 522 394 522 644 
L 522 1753 
Q 522 2253 501 2348 
Q 481 2444 426 2487 
Q 372 2531 291 2531 
Q 194 2531 72 2484 
L 41 2597 
L 906 2947 
L 1038 2947 
z
" transform="scale(0.015625)"/>
       <path id="TimesNewRomanPSMT-44" d="M 1822 413 
Q 1381 72 1269 19 
Q 1100 -59 909 -59 
Q 613 -59 420 144 
Q 228 347 228 678 
Q 228 888 322 1041 
Q 450 1253 767 1440 
Q 1084 1628 1822 1897 
L 1822 2009 
Q 1822 2438 1686 2597 
Q 1550 2756 1291 2756 
Q 1094 2756 978 2650 
Q 859 2544 859 2406 
L 866 2225 
Q 866 2081 792 2003 
Q 719 1925 600 1925 
Q 484 1925 411 2006 
Q 338 2088 338 2228 
Q 338 2497 613 2722 
Q 888 2947 1384 2947 
Q 1766 2947 2009 2819 
Q 2194 2722 2281 2516 
Q 2338 2381 2338 1966 
L 2338 994 
Q 2338 584 2353 492 
Q 2369 400 2405 369 
Q 2441 338 2488 338 
Q 2538 338 2575 359 
Q 2641 400 2828 588 
L 2828 413 
Q 2478 -56 2159 -56 
Q 2006 -56 1915 50 
Q 1825 156 1822 413 
z
M 1822 616 
L 1822 1706 
Q 1350 1519 1213 1441 
Q 966 1303 859 1153 
Q 753 1003 753 825 
Q 753 600 887 451 
Q 1022 303 1197 303 
Q 1434 303 1822 616 
z
" transform="scale(0.015625)"/>
       <path id="TimesNewRomanPSMT-51" d="M 1034 2341 
Q 1538 2947 1994 2947 
Q 2228 2947 2397 2830 
Q 2566 2713 2666 2444 
Q 2734 2256 2734 1869 
L 2734 647 
Q 2734 375 2778 278 
Q 2813 200 2889 156 
Q 2966 113 3172 113 
L 3172 0 
L 1756 0 
L 1756 113 
L 1816 113 
Q 2016 113 2095 173 
Q 2175 234 2206 353 
Q 2219 400 2219 647 
L 2219 1819 
Q 2219 2209 2117 2386 
Q 2016 2563 1775 2563 
Q 1403 2563 1034 2156 
L 1034 647 
Q 1034 356 1069 288 
Q 1113 197 1189 155 
Q 1266 113 1500 113 
L 1500 0 
L 84 0 
L 84 113 
L 147 113 
Q 366 113 442 223 
Q 519 334 519 647 
L 519 1709 
Q 519 2225 495 2337 
Q 472 2450 423 2490 
Q 375 2531 294 2531 
Q 206 2531 84 2484 
L 38 2597 
L 900 2947 
L 1034 2947 
L 1034 2341 
z
" transform="scale(0.015625)"/>
      </defs>
      <use xlink:href="#TimesNewRomanPSMT-24"/>
      <use xlink:href="#TimesNewRomanPSMT-59" transform="translate(64.796875 0)"/>
      <use xlink:href="#TimesNewRomanPSMT-48" transform="translate(114.796875 0)"/>
      <use xlink:href="#TimesNewRomanPSMT-55" transform="translate(159.1875 0)"/>
      <use xlink:href="#TimesNewRomanPSMT-44" transform="translate(192.484375 0)"/>
      <use xlink:href="#TimesNewRomanPSMT-4a" transform="translate(236.875 0)"/>
      <use xlink:href="#TimesNewRomanPSMT-4c" transform="translate(286.875 0)"/>
      <use xlink:href="#TimesNewRomanPSMT-51" transform="translate(314.65625 0)"/>
      <use xlink:href="#TimesNewRomanPSMT-4a" transform="translate(364.65625 0)"/>
     </g>
    </g>
   </g>
  </g>
  <g id="patch_8">
   <path d="M 3.6 502.56 
L 1001.52 502.56 
L 1001.52 3.6 
L 3.6 3.6 
L 3.6 502.56 
z
" style="fill: none; stroke: #1a1a1a; stroke-width: 1.2; stroke-linejoin: miter"/>
  </g>
 </g>
 <defs>
  <clipPath id="p0dd0a2043d">
   <rect x="40.404844" y="14.04" width="953.195156" height="420.794597"/>
  </clipPath>
 </defs>
</svg>
