<?xml version="1.0" encoding="utf-8" standalone="no"?>
<!DOCTYPE svg PUBLIC "-//W3C//DTD SVG 1.1//EN"
  "http://www.w3.org/Graphics/SVG/1.1/DTD/svg11.dtd">
<svg xmlns:xlink="http://www.w3.org/1999/xlink" width="1005.12pt" height="506.16pt" viewBox="0 0 1005.12 506.16" xmlns="http://www.w3.org/2000/svg" version="1.1">
 <metadata>
  <rdf:RDF xmlns:dc="http://purl.org/dc/elements/1.1/" xmlns:cc="http://creativecommons.org/ns#" xmlns:rdf="http://www.w3.org/1999/02/22-rdf-syntax-ns#">
   <cc:Work>
    <dc:type rdf:resource="http://purl.org/dc/dcmitype/StillImage"/>
    <dc:date>2026-07-20T17:37:54.772903</dc:date>
    <dc:format>image/svg+xml</dc:format>
    <dc:creator>
     <cc:Agent>
      <dc:title>Matplotlib v3.11.1, https://matplotlib.org/</dc:title>
     </cc:Agent>
    </dc:creator>
   </cc:Work>
  </rdf:RDF>
 </metadata>
 <defs>
  <style type="text/css">*{stroke-linejoin: round; stroke-linecap: butt}</style>
 </defs>
 <g id="figure_1">
  <g id="patch_1">
   <path d="M 0 506.16
L 1005.12 506.16
L 1005.12 0
L 0 0
z
" style="fill: #ffffff"/>
  </g>
  <g id="axes_1">
   <g id="patch_2">
    <path d="M 40.404844 434.834597
L 993.6 434.834597
L 993.6 14.04
L 40.404844 14.04
z
" style="fill: #ffffff"/>
   </g>
   <g id="matplotlib.axis_1">
    <g id="xtick_1">
     <g id="line2d_1">
      <path d="M 83.731896 434.834597
L 83.731896 14.04
" clip-path="url(#p6208038f20)" style="fill: none; stroke: #b0b0b0; stroke-opacity: 0.3; stroke-width: 0.8; stroke-linecap: square"/>
     </g>
     <g id="line2d_2">
      <defs>
       <path id="m6fe150af47" d="M 0 0
L 0 -3.5
" style="stroke: #000000; stroke-width: 0.8"/>
      </defs>
      <g>
       <use xlink:href="#m6fe150af47" x="83.731896" y="434.834597" style="stroke: #000000; stroke-width: 0.8"/>
      </g>
     </g>
     <g id="text_1">
      <!-- 0 -->
      <g transform="translate(81.231896 445.268191) scale(0.1 -0.1)">
       <defs>
        <path id="TimesNewRomanPSMT-13" d="M 231 2094
Q 231 2819 450 3342
Q 669 3866 1031 4122
Q 1313 4325 1613 4325
Q 2100 4325 2488 3828
Q 2972 3213 2972 2159
Q 2972 1422 2759 906
Q 2547 391 2217 158
Q 1888 -75 1581 -75
Q 975 -75 572 641
Q 231 1244 231 2094
z
M 844 2016
Q 844 1141 1059 588
Q 1238 122 1591 122
Q 1759 122 1940 273
Q 2122 425 2216 781
Q 2359 1319 2359 2297
Q 2359 3022 2209 3506
Q 2097 3866 1919 4016
Q 1791 4119 1609 4119
Q 1397 4119 1231 3928
Q 1006 3669 925 3112
Q 844 2556 844 2016
z
" transform="scale(0.015625)"/>
       </defs>
       <use xlink:href="#TimesNewRomanPSMT-13"/>
      </g>
     </g>
    </g>
    <g id="xtick_2">
     <g id="line2d_3">
      <path d="M 204.08482 434.834597
L 204.08482 14.04
" clip-path="url(#p6208038f20)" style="fill: none; stroke: #b0b0b0; stroke-opacity: 0.3; stroke-width: 0.8; stroke-linecap: square"/>
     </g>
     <g id="line2d_4">
      <g>
       <use xlink:href="#m6fe150af47" x="204.08482" y="434.834597" style="stroke: #000000; stroke-width: 0.8"/>
      </g>
     </g>
     <g id="text_2">
      <!-- 500 -->
      <g transform="translate(196.58482 445.268191) scale(0.1 -0.1)">
       <defs>
        <path id="TimesNewRomanPSMT-18" d="M 2778 4238
L 2534 3706
L 1259 3706
L 981 3138
Q 1809 3016 2294 2522
Q 2709 2097 2709 1522
Q 2709 1188 2573 903
Q 2438 619 2231 419
Q 2025 219 1772 97
Q 1413 -75 1034 -75
Q 653 -75 479 54
Q 306 184 306 341
Q 306 428 378 495
Q 450 563 559 563
Q 641 563 702 538
Q 763 513 909 409
Q 1144 247 1384 247
Q 1750 247 2026 523
Q 2303 800 2303 1197
Q 2303 1581 2056 1914
Q 1809 2247 1375 2428
Q 1034 2569 447 2591
L 1259 4238
L 2778 4238
z
" transform="scale(0.015625)"/>
       </defs>
       <use xlink:href="#TimesNewRomanPSMT-18"/>
       <use xlink:href="#TimesNewRomanPSMT-13" transform="translate(50 0)"/>
       <use xlink:href="#TimesNewRomanPSMT-13" transform="translate(100 0)"/>
      </g>
     </g>
    </g>
    <g id="xtick_3">
     <g id="line2d_5">
      <path d="M 324.437744 434.834597
L 324.437744 14.04
" clip-path="url(#p6208038f20)" style="fill: none; stroke: #b0b0b0; stroke-opacity: 0.3; stroke-width: 0.8; stroke-linecap: square"/>
     </g>
     <g id="line2d_6">
      <g>
       <use xlink:href="#m6fe150af47" x="324.437744" y="434.834597" style="stroke: #000000; stroke-width: 0.8"/>
      </g>
     </g>
     <g id="text_3">
      <!-- 1000 -->
      <g transform="translate(314.437744 445.268191) scale(0.1 -0.1)">
       <defs>
        <path id="TimesNewRomanPSMT-14" d="M 750 3822
L 1781 4325
L 1884 4325
L 1884 747
Q 1884 391 1914 303
Q 1944 216 2037 169
Q 2131 122 2419 116
L 2419 0
L 825 0
L 825 116
Q 1125 122 1212 167
Q 1300 213 1334 289
Q 1369 366 1369 747
L 1369 3034
Q 1369 3497 1338 3628
Q 1316 3728 1258 3775
Q 1200 3822 1119 3822
Q 1003 3822 797 3725
L 750 3822
z
" transform="scale(0.015625)"/>
       </defs>
       <use xlink:href="#TimesNewRomanPSMT-14"/>
       <use xlink:href="#TimesNewRomanPSMT-13" transform="translate(50 0)"/>
       <use xlink:href="#TimesNewRomanPSMT-13" transform="translate(100 0)"/>
       <use xlink:href="#TimesNewRomanPSMT-13" transform="translate(150 0)"/>
      </g>
     </g>
    </g>
    <g id="xtick_4">
     <g id="line2d_7">
      <path d="M 444.790668 434.834597
L 444.790668 14.04
" clip-path="url(#p6208038f20)" style="fill: none; stroke: #b0b0b0; stroke-opacity: 0.3; stroke-width: 0.8; stroke-linecap: square"/>
     </g>
     <g id="line2d_8">
      <g>
       <use xlink:href="#m6fe150af47" x="444.790668" y="434.834597" style="stroke: #000000; stroke-width: 0.8"/>
      </g>
     </g>
     <g id="text_4">
      <!-- 1500 -->
      <g transform="translate(434.790668 445.268191) scale(0.1 -0.1)">
       <use xlink:href="#TimesNewRomanPSMT-14"/>
       <use xlink:href="#TimesNewRomanPSMT-18" transform="translate(50 0)"/>
       <use xlink:href="#TimesNewRomanPSMT-13" transform="translate(100 0)"/>
       <use xlink:href="#TimesNewRomanPSMT-13" transform="translate(150 0)"/>
      </g>
     </g>
    </g>
    <g id="xtick_5">
     <g id="line2d_9">
      <path d="M 565.143591 434.834597
L 565.143591 14.04
" clip-path="url(#p6208038f20)" style="fill: none; stroke: #b0b0b0; stroke-opacity: 0.3; stroke-width: 0.8; stroke-linecap: square"/>
     </g>
     <g id="line2d_10">
      <g>
       <use xlink:href="#m6fe150af47" x="565.143591" y="434.834597" style="stroke: #000000; stroke-width: 0.8"/>
      </g>
     </g>
     <g id="text_5">
      <!-- 2000 -->
      <g transform="translate(555.143591 445.268191) scale(0.1 -0.1)">
       <defs>
        <path id="TimesNewRomanPSMT-15" d="M 2934 816
L 2638 0
L 138 0
L 138 116
Q 1241 1122 1691 1759
Q 2141 2397 2141 2925
Q 2141 3328 1894 3587
Q 1647 3847 1303 3847
Q 991 3847 742 3664
Q 494 3481 375 3128
L 259 3128
Q 338 3706 661 4015
Q 984 4325 1469 4325
Q 1984 4325 2329 3994
Q 2675 3663 2675 3213
Q 2675 2891 2525 2569
Q 2294 2063 1775 1497
Q 997 647 803 472
L 1909 472
Q 2247 472 2383 497
Q 2519 522 2628 598
Q 2738 675 2819 816
L 2934 816
z
" transform="scale(0.015625)"/>
       </defs>
       <use xlink:href="#TimesNewRomanPSMT-15"/>
       <use xlink:href="#TimesNewRomanPSMT-13" transform="translate(50 0)"/>
       <use xlink:href="#TimesNewRomanPSMT-13" transform="translate(100 0)"/>
       <use xlink:href="#TimesNewRomanPSMT-13" transform="translate(150 0)"/>
      </g>
     </g>
    </g>
    <g id="xtick_6">
     <g id="line2d_11">
      <path d="M 685.496515 434.834597
L 685.496515 14.04
" clip-path="url(#p6208038f20)" style="fill: none; stroke: #b0b0b0; stroke-opacity: 0.3; stroke-width: 0.8; stroke-linecap: square"/>
     </g>
     <g id="line2d_12">
      <g>
       <use xlink:href="#m6fe150af47" x="685.496515" y="434.834597" style="stroke: #000000; stroke-width: 0.8"/>
      </g>
     </g>
     <g id="text_6">
      <!-- 2500 -->
      <g transform="translate(675.496515 445.268191) scale(0.1 -0.1)">
       <use xlink:href="#TimesNewRomanPSMT-15"/>
       <use xlink:href="#TimesNewRomanPSMT-18" transform="translate(50 0)"/>
       <use xlink:href="#TimesNewRomanPSMT-13" transform="translate(100 0)"/>
       <use xlink:href="#TimesNewRomanPSMT-13" transform="translate(150 0)"/>
      </g>
     </g>
    </g>
    <g id="xtick_7">
     <g id="line2d_13">
      <path d="M 805.849439 434.834597
L 805.849439 14.04
" clip-path="url(#p6208038f20)" style="fill: none; stroke: #b0b0b0; stroke-opacity: 0.3; stroke-width: 0.8; stroke-linecap: square"/>
     </g>
     <g id="line2d_14">
      <g>
       <use xlink:href="#m6fe150af47" x="805.849439" y="434.834597" style="stroke: #000000; stroke-width: 0.8"/>
      </g>
     </g>
     <g id="text_7">
      <!-- 3000 -->
      <g transform="translate(795.849439 445.268191) scale(0.1 -0.1)">
       <defs>
        <path id="TimesNewRomanPSMT-16" d="M 325 3431
Q 506 3859 782 4092
Q 1059 4325 1472 4325
Q 1981 4325 2253 3994
Q 2459 3747 2459 3466
Q 2459 3003 1878 2509
Q 2269 2356 2469 2072
Q 2669 1788 2669 1403
Q 2669 853 2319 450
Q 1863 -75 997 -75
Q 569 -75 414 31
Q 259 138 259 259
Q 259 350 332 419
Q 406 488 509 488
Q 588 488 669 463
Q 722 447 909 348
Q 1097 250 1169 231
Q 1284 197 1416 197
Q 1734 197 1970 444
Q 2206 691 2206 1028
Q 2206 1275 2097 1509
Q 2016 1684 1919 1775
Q 1784 1900 1550 2001
Q 1316 2103 1072 2103
L 972 2103
L 972 2197
Q 1219 2228 1467 2375
Q 1716 2522 1828 2728
Q 1941 2934 1941 3181
Q 1941 3503 1739 3701
Q 1538 3900 1238 3900
Q 753 3900 428 3381
L 325 3431
z
" transform="scale(0.015625)"/>
       </defs>
       <use xlink:href="#TimesNewRomanPSMT-16"/>
       <use xlink:href="#TimesNewRomanPSMT-13" transform="translate(50 0)"/>
       <use xlink:href="#TimesNewRomanPSMT-13" transform="translate(100 0)"/>
       <use xlink:href="#TimesNewRomanPSMT-13" transform="translate(150 0)"/>
      </g>
     </g>
    </g>
    <g id="xtick_8">
     <g id="line2d_15">
      <path d="M 926.202363 434.834597
L 926.202363 14.04
" clip-path="url(#p6208038f20)" style="fill: none; stroke: #b0b0b0; stroke-opacity: 0.3; stroke-width: 0.8; stroke-linecap: square"/>
     </g>
     <g id="line2d_16">
      <g>
       <use xlink:href="#m6fe150af47" x="926.202363" y="434.834597" style="stroke: #000000; stroke-width: 0.8"/>
      </g>
     </g>
     <g id="text_8">
      <!-- 3500 -->
      <g transform="translate(916.202363 445.268191) scale(0.1 -0.1)">
       <use xlink:href="#TimesNewRomanPSMT-16"/>
       <use xlink:href="#TimesNewRomanPSMT-18" transform="translate(50 0)"/>
       <use xlink:href="#TimesNewRomanPSMT-13" transform="translate(100 0)"/>
       <use xlink:href="#TimesNewRomanPSMT-13" transform="translate(150 0)"/>
      </g>
     </g>
    </g>
    <g id="text_9">
     <!-- Time (s) -->
     <g transform="translate(495.949922 463.560144) scale(0.12 -0.12)">
      <defs>
       <path id="TimesNewRomanPS-BoldMT-37" d="M 4038 4238
L 4038 3091
L 3925 3091
Q 3825 3488 3703 3661
Q 3581 3834 3369 3938
Q 3250 3994 2953 3994
L 2638 3994
L 2638 725
Q 2638 400 2673 319
Q 2709 238 2814 177
Q 2919 116 3100 116
L 3241 116
L 3241 0
L 1022 0
L 1022 116
L 1163 116
Q 1347 116 1459 181
Q 1541 225 1588 331
Q 1622 406 1622 725
L 1622 3994
L 1316 3994
Q 888 3994 694 3813
Q 422 3559 350 3091
L 231 3091
L 231 4238
L 4038 4238
z
" transform="scale(0.015625)"/>
       <path id="TimesNewRomanPS-BoldMT-4c" d="M 919 4338
Q 1122 4338 1262 4195
Q 1403 4053 1403 3853
Q 1403 3653 1261 3512
Q 1119 3372 919 3372
Q 719 3372 578 3512
Q 438 3653 438 3853
Q 438 4053 578 4195
Q 719 4338 919 4338
z
M 1356 2922
L 1356 606
Q 1356 297 1428 211
Q 1500 125 1709 113
L 1709 0
L 131 0
L 131 113
Q 325 119 419 225
Q 481 297 481 606
L 481 2313
Q 481 2622 409 2708
Q 338 2794 131 2806
L 131 2922
L 1356 2922
z
" transform="scale(0.015625)"/>
       <path id="TimesNewRomanPS-BoldMT-50" d="M 1428 2922
L 1428 2538
Q 1669 2800 1873 2904
Q 2078 3009 2322 3009
Q 2603 3009 2793 2878
Q 2984 2747 3088 2478
Q 3338 2759 3567 2884
Q 3797 3009 4047 3009
Q 4350 3009 4529 2870
Q 4709 2731 4779 2517
Q 4850 2303 4850 1834
L 4850 638
Q 4850 300 4911 219
Q 4972 138 5166 113
L 5166 0
L 3656 0
L 3656 113
Q 3834 128 3919 250
Q 3975 334 3975 638
L 3975 1894
Q 3975 2284 3944 2390
Q 3913 2497 3845 2548
Q 3778 2600 3688 2600
Q 3553 2600 3415 2501
Q 3278 2403 3138 2206
L 3138 638
Q 3138 322 3191 241
Q 3263 125 3466 113
L 3466 0
L 1953 0
L 1953 113
Q 2075 119 2145 173
Q 2216 228 2239 304
Q 2263 381 2263 638
L 2263 1894
Q 2263 2291 2231 2391
Q 2200 2491 2126 2547
Q 2053 2603 1969 2603
Q 1844 2603 1741 2538
Q 1594 2441 1428 2206
L 1428 638
Q 1428 328 1489 229
Q 1550 131 1744 113
L 1744 0
L 238 0
L 238 113
Q 422 131 500 231
Q 553 300 553 638
L 553 2288
Q 553 2619 492 2700
Q 431 2781 238 2806
L 238 2922
L 1428 2922
z
" transform="scale(0.015625)"/>
       <path id="TimesNewRomanPS-BoldMT-48" d="M 2691 1566
L 1088 1566
Q 1116 984 1397 647
Q 1613 388 1916 388
Q 2103 388 2256 492
Q 2409 597 2584 869
L 2691 800
Q 2453 316 2165 114
Q 1878 -88 1500 -88
Q 850 -88 516 413
Q 247 816 247 1413
Q 247 2144 642 2576
Q 1038 3009 1569 3009
Q 2013 3009 2339 2645
Q 2666 2281 2691 1566
z
M 1922 1775
Q 1922 2278 1867 2465
Q 1813 2653 1697 2750
Q 1631 2806 1522 2806
Q 1359 2806 1256 2647
Q 1072 2369 1072 1884
L 1072 1775
L 1922 1775
z
" transform="scale(0.015625)"/>
       <path id="TimesNewRomanPS-BoldMT-3" transform="scale(0.015625)"/>
       <path id="TimesNewRomanPS-BoldMT-b" d="M 2056 4334
L 2056 4191
Q 1731 3978 1578 3775
Q 1366 3494 1247 3053
Q 1097 2506 1097 1525
Q 1097 600 1233 87
Q 1369 -425 1603 -741
Q 1766 -959 2056 -1125
L 2056 -1281
Q 1303 -1028 779 -248
Q 256 531 256 1544
Q 256 2544 778 3314
Q 1300 4084 2056 4334
z
" transform="scale(0.015625)"/>
       <path id="TimesNewRomanPS-BoldMT-56" d="M 2063 3003
L 2109 2006
L 2003 2006
Q 1813 2450 1608 2612
Q 1403 2775 1200 2775
Q 1072 2775 981 2689
Q 891 2603 891 2491
Q 891 2406 953 2328
Q 1053 2200 1512 1889
Q 1972 1578 2117 1361
Q 2263 1144 2263 875
Q 2263 631 2141 397
Q 2019 163 1797 37
Q 1575 -88 1306 -88
Q 1097 -88 747 44
Q 653 78 619 78
Q 516 78 447 -78
L 344 -78
L 294 972
L 400 972
Q 541 559 786 353
Q 1031 147 1250 147
Q 1400 147 1495 239
Q 1591 331 1591 463
Q 1591 613 1497 722
Q 1403 831 1078 1053
Q 600 1384 459 1559
Q 253 1816 253 2125
Q 253 2463 486 2736
Q 719 3009 1159 3009
Q 1397 3009 1619 2894
Q 1703 2847 1756 2847
Q 1813 2847 1847 2870
Q 1881 2894 1956 3003
L 2063 3003
z
" transform="scale(0.015625)"/>
       <path id="TimesNewRomanPS-BoldMT-c" d="M 78 -1281
L 78 -1138
Q 403 -922 556 -719
Q 766 -438 888 0
Q 1038 550 1038 1531
Q 1038 2456 902 2967
Q 766 3478 531 3794
Q 369 4013 78 4178
L 78 4334
Q 831 4081 1354 3301
Q 1878 2522 1878 1509
Q 1878 513 1354 -257
Q 831 -1028 78 -1281
z
" transform="scale(0.015625)"/>
      </defs>
      <use xlink:href="#TimesNewRomanPS-BoldMT-37"/>
      <use xlink:href="#TimesNewRomanPS-BoldMT-4c" transform="translate(64.890625 0)"/>
      <use xlink:href="#TimesNewRomanPS-BoldMT-50" transform="translate(92.671875 0)"/>
      <use xlink:href="#TimesNewRomanPS-BoldMT-48" transform="translate(175.96875 0)"/>
      <use xlink:href="#TimesNewRomanPS-BoldMT-3" transform="translate(220.359375 0)"/>
      <use xlink:href="#TimesNewRomanPS-BoldMT-b" transform="translate(245.359375 0)"/>
      <use xlink:href="#TimesNewRomanPS-BoldMT-56" transform="translate(278.65625 0)"/>
      <use xlink:href="#TimesNewRomanPS-BoldMT-c" transform="translate(317.578125 0)"/>
     </g>
    </g>
   </g>
   <g id="matplotlib.axis_2">
    <g id="ytick_1">
     <g id="line2d_17">
      <path d="M 40.404844 415.646767
L 993.6 415.646767
" clip-path="url(#p6208038f20)" style="fill: none; stroke: #b0b0b0; stroke-opacity: 0.3; stroke-width: 0.8; stroke-linecap: square"/>
     </g>
     <g id="line2d_18">
      <defs>
       <path id="ma684539850" d="M 0 0
L 3.5 0
" style="stroke: #000000; stroke-width: 0.8"/>
      </defs>
      <g>
       <use xlink:href="#ma684539850" x="40.404844" y="415.646767" style="stroke: #000000; stroke-width: 0.8"/>
      </g>
     </g>
     <g id="text_10">
      <!-- 50 -->
      <g transform="translate(26.904844 419.113564) scale(0.1 -0.1)">
       <use xlink:href="#TimesNewRomanPSMT-18"/>
       <use xlink:href="#TimesNewRomanPSMT-13" transform="translate(50 0)"/>
      </g>
     </g>
    </g>
    <g id="ytick_2">
     <g id="line2d_19">
      <path d="M 40.404844 339.643321
L 993.6 339.643321
" clip-path="url(#p6208038f20)" style="fill: none; stroke: #b0b0b0; stroke-opacity: 0.3; stroke-width: 0.8; stroke-linecap: square"/>
     </g>
     <g id="line2d_20">
      <g>
       <use xlink:href="#ma684539850" x="40.404844" y="339.643321" style="stroke: #000000; stroke-width: 0.8"/>
      </g>
     </g>
     <g id="text_11">
      <!-- 52 -->
      <g transform="translate(26.904844 343.110118) scale(0.1 -0.1)">
       <use xlink:href="#TimesNewRomanPSMT-18"/>
       <use xlink:href="#TimesNewRomanPSMT-15" transform="translate(50 0)"/>
      </g>
     </g>
    </g>
    <g id="ytick_3">
     <g id="line2d_21">
      <path d="M 40.404844 263.639876
L 993.6 263.639876
" clip-path="url(#p6208038f20)" style="fill: none; stroke: #b0b0b0; stroke-opacity: 0.3; stroke-width: 0.8; stroke-linecap: square"/>
     </g>
     <g id="line2d_22">
      <g>
       <use xlink:href="#ma684539850" x="40.404844" y="263.639876" style="stroke: #000000; stroke-width: 0.8"/>
      </g>
     </g>
     <g id="text_12">
      <!-- 54 -->
      <g transform="translate(26.904844 267.106673) scale(0.1 -0.1)">
       <defs>
        <path id="TimesNewRomanPSMT-17" d="M 2978 1563
L 2978 1119
L 2409 1119
L 2409 0
L 1894 0
L 1894 1119
L 100 1119
L 100 1519
L 2066 4325
L 2409 4325
L 2409 1563
L 2978 1563
z
M 1894 1563
L 1894 3666
L 406 1563
L 1894 1563
z
" transform="scale(0.015625)"/>
       </defs>
       <use xlink:href="#TimesNewRomanPSMT-18"/>
       <use xlink:href="#TimesNewRomanPSMT-17" transform="translate(50 0)"/>
      </g>
     </g>
    </g>
    <g id="ytick_4">
     <g id="line2d_23">
      <path d="M 40.404844 187.63643
L 993.6 187.63643
" clip-path="url(#p6208038f20)" style="fill: none; stroke: #b0b0b0; stroke-opacity: 0.3; stroke-width: 0.8; stroke-linecap: square"/>
     </g>
     <g id="line2d_24">
      <g>
       <use xlink:href="#ma684539850" x="40.404844" y="187.63643" style="stroke: #000000; stroke-width: 0.8"/>
      </g>
     </g>
     <g id="text_13">
      <!-- 56 -->
      <g transform="translate(26.904844 191.103227) scale(0.1 -0.1)">
       <defs>
        <path id="TimesNewRomanPSMT-19" d="M 2869 4325
L 2869 4209
Q 2456 4169 2195 4045
Q 1934 3922 1679 3669
Q 1425 3416 1258 3105
Q 1091 2794 978 2366
Q 1428 2675 1881 2675
Q 2316 2675 2634 2325
Q 2953 1975 2953 1425
Q 2953 894 2631 456
Q 2244 -75 1606 -75
Q 1172 -75 869 213
Q 275 772 275 1663
Q 275 2231 503 2743
Q 731 3256 1154 3653
Q 1578 4050 1965 4187
Q 2353 4325 2688 4325
L 2869 4325
z
M 925 2138
Q 869 1716 869 1456
Q 869 1156 980 804
Q 1091 453 1309 247
Q 1469 100 1697 100
Q 1969 100 2183 356
Q 2397 613 2397 1088
Q 2397 1622 2184 2012
Q 1972 2403 1581 2403
Q 1463 2403 1327 2353
Q 1191 2303 925 2138
z
" transform="scale(0.015625)"/>
       </defs>
       <use xlink:href="#TimesNewRomanPSMT-18"/>
       <use xlink:href="#TimesNewRomanPSMT-19" transform="translate(50 0)"/>
      </g>
     </g>
    </g>
    <g id="ytick_5">
     <g id="line2d_25">
      <path d="M 40.404844 111.632984
L 993.6 111.632984
" clip-path="url(#p6208038f20)" style="fill: none; stroke: #b0b0b0; stroke-opacity: 0.3; stroke-width: 0.8; stroke-linecap: square"/>
     </g>
     <g id="line2d_26">
      <g>
       <use xlink:href="#ma684539850" x="40.404844" y="111.632984" style="stroke: #000000; stroke-width: 0.8"/>
      </g>
     </g>
     <g id="text_14">
      <!-- 58 -->
      <g transform="translate(26.904844 115.099781) scale(0.1 -0.1)">
       <defs>
        <path id="TimesNewRomanPSMT-1b" d="M 1228 2134
Q 725 2547 579 2797
Q 434 3047 434 3316
Q 434 3728 753 4026
Q 1072 4325 1600 4325
Q 2113 4325 2425 4047
Q 2738 3769 2738 3413
Q 2738 3175 2569 2928
Q 2400 2681 1866 2347
Q 2416 1922 2594 1678
Q 2831 1359 2831 1006
Q 2831 559 2490 242
Q 2150 -75 1597 -75
Q 994 -75 656 303
Q 388 606 388 966
Q 388 1247 577 1523
Q 766 1800 1228 2134
z
M 1719 2469
Q 2094 2806 2194 3001
Q 2294 3197 2294 3444
Q 2294 3772 2109 3958
Q 1925 4144 1606 4144
Q 1288 4144 1088 3959
Q 888 3775 888 3528
Q 888 3366 970 3203
Q 1053 3041 1206 2894
L 1719 2469
z
M 1375 2016
Q 1116 1797 991 1539
Q 866 1281 866 981
Q 866 578 1086 336
Q 1306 94 1647 94
Q 1984 94 2187 284
Q 2391 475 2391 747
Q 2391 972 2272 1150
Q 2050 1481 1375 2016
z
" transform="scale(0.015625)"/>
       </defs>
       <use xlink:href="#TimesNewRomanPSMT-18"/>
       <use xlink:href="#TimesNewRomanPSMT-1b" transform="translate(50 0)"/>
      </g>
     </g>
    </g>
    <g id="ytick_6">
     <g id="line2d_27">
      <path d="M 40.404844 35.629539
L 993.6 35.629539
" clip-path="url(#p6208038f20)" style="fill: none; stroke: #b0b0b0; stroke-opacity: 0.3; stroke-width: 0.8; stroke-linecap: square"/>
     </g>
     <g id="line2d_28">
      <g>
       <use xlink:href="#ma684539850" x="40.404844" y="35.629539" style="stroke: #000000; stroke-width: 0.8"/>
      </g>
     </g>
     <g id="text_15">
      <!-- 60 -->
      <g transform="translate(26.904844 39.096336) scale(0.1 -0.1)">
       <use xlink:href="#TimesNewRomanPSMT-19"/>
       <use xlink:href="#TimesNewRomanPSMT-13" transform="translate(50 0)"/>
      </g>
     </g>
    </g>
    <g id="text_16">
     <!-- Controller Output (%CO) -->
     <g transform="translate(20.315 291.879173) rotate(-90) scale(0.12 -0.12)">
      <defs>
       <path id="TimesNewRomanPS-BoldMT-26" d="M 4272 4334
L 4272 2866
L 4150 2866
Q 4013 3441 3638 3747
Q 3263 4053 2788 4053
Q 2391 4053 2059 3825
Q 1728 3597 1575 3228
Q 1378 2756 1378 2178
Q 1378 1609 1522 1142
Q 1666 675 1972 436
Q 2278 197 2766 197
Q 3166 197 3498 372
Q 3831 547 4200 975
L 4200 609
Q 3844 238 3458 70
Q 3072 -97 2556 -97
Q 1878 -97 1351 175
Q 825 447 539 956
Q 253 1466 253 2041
Q 253 2647 570 3190
Q 888 3734 1427 4034
Q 1966 4334 2572 4334
Q 3019 4334 3516 4141
Q 3803 4028 3881 4028
Q 3981 4028 4054 4101
Q 4128 4175 4150 4334
L 4272 4334
z
" transform="scale(0.015625)"/>
       <path id="TimesNewRomanPS-BoldMT-52" d="M 1594 3009
Q 1975 3009 2303 2812
Q 2631 2616 2801 2253
Q 2972 1891 2972 1459
Q 2972 838 2656 419
Q 2275 -88 1603 -88
Q 944 -88 587 375
Q 231 838 231 1447
Q 231 2075 595 2542
Q 959 3009 1594 3009
z
M 1606 2788
Q 1447 2788 1333 2667
Q 1219 2547 1183 2192
Q 1147 1838 1147 1206
Q 1147 872 1191 581
Q 1225 359 1337 243
Q 1450 128 1594 128
Q 1734 128 1828 206
Q 1950 313 1991 503
Q 2053 800 2053 1703
Q 2053 2234 1993 2432
Q 1934 2631 1819 2722
Q 1738 2788 1606 2788
z
" transform="scale(0.015625)"/>
       <path id="TimesNewRomanPS-BoldMT-51" d="M 1409 2922
L 1409 2544
Q 1634 2788 1840 2898
Q 2047 3009 2284 3009
Q 2569 3009 2756 2851
Q 2944 2694 3006 2459
Q 3056 2281 3056 1775
L 3056 638
Q 3056 300 3117 217
Q 3178 134 3372 113
L 3372 0
L 1894 0
L 1894 113
Q 2059 134 2131 250
Q 2181 328 2181 638
L 2181 1938
Q 2181 2297 2153 2390
Q 2125 2484 2058 2536
Q 1991 2588 1909 2588
Q 1641 2588 1409 2203
L 1409 638
Q 1409 309 1470 221
Q 1531 134 1697 113
L 1697 0
L 219 0
L 219 113
Q 403 131 481 231
Q 534 300 534 638
L 534 2288
Q 534 2619 473 2700
Q 413 2781 219 2806
L 219 2922
L 1409 2922
z
" transform="scale(0.015625)"/>
       <path id="TimesNewRomanPS-BoldMT-57" d="M 1375 3991
L 1375 2922
L 2069 2922
L 2069 2613
L 1375 2613
L 1375 809
Q 1375 556 1398 482
Q 1422 409 1481 364
Q 1541 319 1591 319
Q 1794 319 1975 628
L 2069 559
Q 1816 -41 1247 -41
Q 969 -41 776 114
Q 584 269 531 459
Q 500 566 500 1034
L 500 2613
L 119 2613
L 119 2722
Q 513 3000 789 3306
Q 1066 3613 1272 3991
L 1375 3991
z
" transform="scale(0.015625)"/>
       <path id="TimesNewRomanPS-BoldMT-55" d="M 1428 2922
L 1428 2259
Q 1719 2713 1937 2861
Q 2156 3009 2359 3009
Q 2534 3009 2639 2901
Q 2744 2794 2744 2597
Q 2744 2388 2642 2272
Q 2541 2156 2397 2156
Q 2231 2156 2109 2262
Q 1988 2369 1966 2381
Q 1934 2400 1894 2400
Q 1803 2400 1722 2331
Q 1594 2225 1528 2028
Q 1428 1725 1428 1359
L 1428 688
L 1431 513
Q 1431 334 1453 284
Q 1491 200 1564 161
Q 1638 122 1813 113
L 1813 0
L 234 0
L 234 113
Q 425 128 492 217
Q 559 306 559 688
L 559 2303
Q 559 2553 534 2622
Q 503 2709 443 2750
Q 384 2791 234 2806
L 234 2922
L 1428 2922
z
" transform="scale(0.015625)"/>
       <path id="TimesNewRomanPS-BoldMT-4f" d="M 1359 4238
L 1359 606
Q 1359 297 1431 211
Q 1503 125 1713 113
L 1713 0
L 134 0
L 134 113
Q 328 119 422 225
Q 484 297 484 606
L 484 3631
Q 484 3938 412 4023
Q 341 4109 134 4122
L 134 4238
L 1359 4238
z
" transform="scale(0.015625)"/>
       <path id="TimesNewRomanPS-BoldMT-32" d="M 2472 4297
Q 3484 4334 4117 3706
Q 4750 3078 4750 2134
Q 4750 1328 4278 716
Q 3653 -97 2513 -97
Q 1369 -97 744 678
Q 250 1291 250 2131
Q 250 3075 892 3704
Q 1534 4334 2472 4297
z
M 2509 4097
Q 1928 4097 1625 3503
Q 1378 3016 1378 2103
Q 1378 1019 1759 500
Q 2025 138 2503 138
Q 2825 138 3041 294
Q 3316 494 3469 933
Q 3622 1372 3622 2078
Q 3622 2919 3465 3336
Q 3309 3753 3067 3925
Q 2825 4097 2509 4097
z
" transform="scale(0.015625)"/>
       <path id="TimesNewRomanPS-BoldMT-58" d="M 3038 2922
L 3038 634
Q 3038 300 3100 217
Q 3163 134 3353 113
L 3353 0
L 2163 0
L 2163 391
Q 1953 141 1743 26
Q 1534 -88 1275 -88
Q 1028 -88 836 64
Q 644 216 578 419
Q 513 622 513 1128
L 513 2288
Q 513 2619 452 2700
Q 391 2781 197 2806
L 197 2922
L 1388 2922
L 1388 925
Q 1388 613 1417 522
Q 1447 431 1511 384
Q 1575 338 1659 338
Q 1772 338 1863 397
Q 1988 478 2163 725
L 2163 2288
Q 2163 2619 2102 2700
Q 2041 2781 1847 2806
L 1847 2922
L 3038 2922
z
" transform="scale(0.015625)"/>
       <path id="TimesNewRomanPS-BoldMT-53" d="M 1347 297
L 1347 -791
Q 1347 -1016 1383 -1097
Q 1419 -1178 1494 -1215
Q 1569 -1253 1788 -1253
L 1788 -1369
L 122 -1369
L 122 -1253
Q 316 -1247 409 -1144
Q 472 -1072 472 -772
L 472 2313
Q 472 2622 400 2708
Q 328 2794 122 2806
L 122 2922
L 1347 2922
L 1347 2538
Q 1500 2763 1659 2863
Q 1888 3009 2156 3009
Q 2478 3009 2742 2806
Q 3006 2603 3143 2245
Q 3281 1888 3281 1475
Q 3281 1031 3139 664
Q 2997 297 2726 104
Q 2456 -88 2125 -88
Q 1884 -88 1675 19
Q 1519 100 1347 297
z
M 1347 613
Q 1616 231 1922 231
Q 2091 231 2200 409
Q 2363 672 2363 1409
Q 2363 2166 2184 2444
Q 2066 2628 1866 2628
Q 1550 2628 1347 2172
L 1347 613
z
" transform="scale(0.015625)"/>
       <path id="TimesNewRomanPS-BoldMT-8" d="M 4916 4334
L 1906 -178
L 1488 -178
L 4494 4334
L 4916 4334
z
M 1494 4334
Q 1938 4334 2242 4020
Q 2547 3706 2547 3209
Q 2547 2700 2240 2383
Q 1934 2066 1481 2066
Q 1034 2066 739 2372
Q 444 2678 444 3178
Q 444 3694 747 4014
Q 1050 4334 1494 4334
z
M 1494 4169
Q 1425 4169 1381 4128
Q 1303 4056 1264 3879
Q 1225 3703 1225 3150
Q 1225 2709 1278 2469
Q 1309 2331 1384 2263
Q 1431 2222 1494 2222
Q 1563 2222 1603 2259
Q 1675 2325 1709 2472
Q 1763 2709 1763 3138
Q 1763 3663 1713 3897
Q 1678 4059 1600 4134
Q 1563 4169 1494 4169
z
M 4894 2097
Q 5347 2097 5651 1786
Q 5956 1475 5956 972
Q 5956 463 5647 144
Q 5338 -175 4900 -175
Q 4466 -175 4161 144
Q 3856 463 3856 963
Q 3856 1466 4153 1781
Q 4450 2097 4894 2097
z
M 4903 1934
Q 4841 1934 4797 1897
Q 4722 1828 4681 1658
Q 4641 1488 4641 1006
Q 4641 494 4688 269
Q 4722 109 4803 38
Q 4844 0 4909 0
Q 4969 0 5006 34
Q 5084 106 5122 269
Q 5175 497 5175 959
Q 5175 1447 5125 1672
Q 5088 1834 5013 1900
Q 4975 1934 4903 1934
z
" transform="scale(0.015625)"/>
      </defs>
      <use xlink:href="#TimesNewRomanPS-BoldMT-26"/>
      <use xlink:href="#TimesNewRomanPS-BoldMT-52" transform="translate(72.21875 0)"/>
      <use xlink:href="#TimesNewRomanPS-BoldMT-51" transform="translate(122.21875 0)"/>
      <use xlink:href="#TimesNewRomanPS-BoldMT-57" transform="translate(177.828125 0)"/>
      <use xlink:href="#TimesNewRomanPS-BoldMT-55" transform="translate(211.125 0)"/>
      <use xlink:href="#TimesNewRomanPS-BoldMT-52" transform="translate(253.703125 0)"/>
      <use xlink:href="#TimesNewRomanPS-BoldMT-4f" transform="translate(303.703125 0)"/>
      <use xlink:href="#TimesNewRomanPS-BoldMT-4f" transform="translate(331.484375 0)"/>
      <use xlink:href="#TimesNewRomanPS-BoldMT-48" transform="translate(359.265625 0)"/>
      <use xlink:href="#TimesNewRomanPS-BoldMT-55" transform="translate(403.65625 0)"/>
      <use xlink:href="#TimesNewRomanPS-BoldMT-3" transform="translate(446.234375 0)"/>
      <use xlink:href="#TimesNewRomanPS-BoldMT-32" transform="translate(471.234375 0)"/>
      <use xlink:href="#TimesNewRomanPS-BoldMT-58" transform="translate(549.015625 0)"/>
      <use xlink:href="#TimesNewRomanPS-BoldMT-57" transform="translate(604.625 0)"/>
      <use xlink:href="#TimesNewRomanPS-BoldMT-53" transform="translate(637.921875 0)"/>
      <use xlink:href="#TimesNewRomanPS-BoldMT-58" transform="translate(693.53125 0)"/>
      <use xlink:href="#TimesNewRomanPS-BoldMT-57" transform="translate(749.140625 0)"/>
      <use xlink:href="#TimesNewRomanPS-BoldMT-3" transform="translate(782.4375 0)"/>
      <use xlink:href="#TimesNewRomanPS-BoldMT-b" transform="translate(807.4375 0)"/>
      <use xlink:href="#TimesNewRomanPS-BoldMT-8" transform="translate(840.734375 0)"/>
      <use xlink:href="#TimesNewRomanPS-BoldMT-26" transform="translate(940.734375 0)"/>
      <use xlink:href="#TimesNewRomanPS-BoldMT-32" transform="translate(1012.953125 0)"/>
      <use xlink:href="#TimesNewRomanPS-BoldMT-c" transform="translate(1090.734375 0)"/>
     </g>
    </g>
   </g>
   <g id="line2d_29">
    <path d="M 83.731896 415.646767
L 228.035052 415.543547
L 228.155405 287.422517
L 229.719993 246.193073
L 231.164228 213.956103
L 232.608463 186.620208
L 234.052698 163.604515
L 235.496933 144.203982
L 236.941168 127.832976
L 238.26505 115.040096
L 239.709286 103.074771
L 241.153521 92.923208
L 242.597756 84.306573
L 244.041991 76.976088
L 245.365873 71.239016
L 246.810108 65.87601
L 248.254343 61.327598
L 249.818931 57.15565
L 251.263166 53.923646
L 252.827754 50.956436
L 254.392342 48.506553
L 256.077283 46.292069
L 257.521518 44.715852
L 259.326812 43.073585
L 261.132106 41.723827
L 263.178106 40.495311
L 265.224105 39.511096
L 267.751517 38.560636
L 270.639987 37.730861
L 273.889516 37.049922
L 277.259398 36.566337
L 281.110691 36.20097
L 286.40622 35.95884
L 296.154807 35.789329
L 328.890802 35.63212
L 442.744668 35.629232
L 950.272947 35.629546
L 950.272947 35.629546
" clip-path="url(#p6208038f20)" style="fill: none; stroke: #0055cc; stroke-width: 2; stroke-linecap: square"/>
   </g>
   <g id="line2d_30">
    <path d="M 83.731896 415.70377
L 228.155405 415.696169
L 228.275758 279.84001
L 228.396111 279.84001
L 228.516464 273.649529
L 228.636817 273.649529
L 228.757169 267.26144
L 228.877522 267.26144
L 228.997875 261.044358
L 229.118228 261.044358
L 229.238581 254.986883
L 229.358934 254.986883
L 229.479287 249.096616
L 229.59964 249.096616
L 229.719993 243.362156
L 229.840346 243.362156
L 229.960699 237.730301
L 230.081052 237.730301
L 230.201405 232.261853
L 230.321757 232.261853
L 230.44211 226.953012
L 230.562463 226.953012
L 230.682816 221.788578
L 230.803169 221.788578
L 230.923522 216.768551
L 231.043875 216.768551
L 231.164228 211.794125
L 231.284581 211.794125
L 231.404934 206.983107
L 231.525287 206.983107
L 231.64564 202.320296
L 231.765993 202.320296
L 231.886345 197.794291
L 232.006698 197.794291
L 232.127051 193.401291
L 232.247404 193.401291
L 232.367757 189.004492
L 232.48811 189.004492
L 232.608463 184.7711
L 232.728816 184.7711
L 232.849169 180.674514
L 232.969522 180.674514
L 233.089875 176.707135
L 233.210228 176.707135
L 233.330581 172.86136
L 233.450933 172.86136
L 233.571286 168.969984
L 233.691639 168.969984
L 233.811992 165.242015
L 233.932345 165.242015
L 234.052698 161.643252
L 234.173051 161.643252
L 234.293404 158.162294
L 234.413757 158.162294
L 234.53411 154.799141
L 234.654463 154.799141
L 234.774816 151.352385
L 234.895169 151.352385
L 235.015521 148.069036
L 235.135874 148.069036
L 235.256227 144.907293
L 235.37658 144.907293
L 235.496933 141.863355
L 235.617286 141.863355
L 235.737639 138.918221
L 235.857992 138.918221
L 235.978345 135.870483
L 236.098698 135.870483
L 236.219051 132.978552
L 236.339404 132.978552
L 236.459757 130.204426
L 236.580109 130.204426
L 236.700462 127.536705
L 236.820815 127.536705
L 236.941168 124.967789
L 237.061521 124.967789
L 237.181874 122.265866
L 237.302227 122.265866
L 237.42258 119.719751
L 237.542933 119.719751
L 237.663286 117.291441
L 237.783639 117.291441
L 237.903992 114.958135
L 238.024345 114.958135
L 238.144698 112.719834
L 238.26505 112.719834
L 238.385403 110.325725
L 238.505756 110.325725
L 238.626109 108.087424
L 238.746462 108.087424
L 238.866815 105.959327
L 238.987168 105.959327
L 239.107521 103.926235
L 239.227874 103.926235
L 239.348227 101.976747
L 239.46858 101.976747
L 239.588933 99.860051
L 239.709286 99.860051
L 239.829638 97.895362
L 239.949991 97.895362
L 240.070344 96.033277
L 240.190697 96.033277
L 240.31105 94.262397
L 240.431403 94.262397
L 240.551756 92.57132
L 240.672109 92.57132
L 240.792462 90.697835
L 240.912815 90.697835
L 241.033168 88.972557
L 241.153521 88.972557
L 241.273874 87.346083
L 241.394226 87.346083
L 241.514579 85.810814
L 241.634932 85.810814
L 241.755285 84.347747
L 241.875638 84.347747
L 241.995991 82.690872
L 242.116344 82.690872
L 242.236697 81.178404
L 242.35705 81.178404
L 242.477403 79.760939
L 242.597756 79.760939
L 242.718109 78.430879
L 242.838462 78.430879
L 242.958814 77.169222
L 243.079167 77.169222
L 243.19952 75.702355
L 243.319873 75.702355
L 243.440226 74.379896
L 243.560579 74.379896
L 243.680932 73.15244
L 243.801285 73.15244
L 243.921638 72.000988
L 244.041991 72.000988
L 244.162344 70.917939
L 244.282697 70.917939
L 244.40305 69.62208
L 244.523402 69.62208
L 244.643755 68.466827
L 244.764108 68.466827
L 244.884461 67.402779
L 245.004814 67.402779
L 245.125167 66.410934
L 245.24552 66.410934
L 245.365873 65.483692
L 245.486226 65.483692
L 245.606579 64.33984
L 245.726932 64.33984
L 245.847285 63.332795
L 245.967638 63.332795
L 246.08799 62.413153
L 246.208343 62.413153
L 246.328696 61.565715
L 246.449049 61.565715
L 246.569402 60.775279
L 246.689755 60.775279
L 246.810108 59.764433
L 246.930461 59.764433
L 247.050814 58.886593
L 247.171167 58.886593
L 247.29152 58.096157
L 247.411873 58.096157
L 247.532226 57.370324
L 247.652578 57.370324
L 247.772931 56.705294
L 247.893284 56.705294
L 248.013637 55.812254
L 248.13399 55.812254
L 248.254343 55.048419
L 248.374696 55.048419
L 248.495049 54.368188
L 248.615402 54.368188
L 248.735755 53.756361
L 248.856108 53.756361
L 248.976461 53.193935
L 249.096814 53.193935
L 249.217166 52.403499
L 249.337519 52.403499
L 249.457872 51.746069
L 249.578225 51.746069
L 249.698578 51.164643
L 249.818931 51.164643
L 249.939284 50.644019
L 250.059637 50.644019
L 250.17999 50.180398
L 250.300343 50.180398
L 250.420696 49.481167
L 250.541049 49.481167
L 250.661402 48.907341
L 250.781754 48.907341
L 250.902107 48.413318
L 251.02246 48.413318
L 251.142813 47.980099
L 251.263166 47.980099
L 251.383519 47.596281
L 251.503872 47.596281
L 251.624225 46.976853
L 251.744578 46.976853
L 251.864931 46.482831
L 251.985284 46.482831
L 252.105637 46.064812
L 252.22599 46.064812
L 252.346343 45.703795
L 252.466695 45.703795
L 252.587048 45.388381
L 252.707401 45.388381
L 252.827754 44.841156
L 252.948107 44.841156
L 253.06846 44.415537
L 253.188813 44.415537
L 253.309166 44.062121
L 253.429519 44.062121
L 253.549872 43.765708
L 253.670225 43.765708
L 254.031283 43.028474
L 254.151636 43.028474
L 254.271989 42.663658
L 254.392342 42.663658
L 254.512695 42.367244
L 254.633048 42.367244
L 254.873754 42.124033
L 255.475519 41.17779
L 255.595871 41.17779
L 255.836577 40.934579
L 256.077283 40.74077
L 256.919754 39.729925
L 257.040107 39.729925
L 257.280812 39.574118
L 258.484342 38.605074
L 258.725047 38.52527
L 258.8454 38.217456
L 258.965753 38.217456
L 259.206459 38.019847
L 259.447165 37.883041
L 259.808224 37.746235
L 259.928577 37.746235
L 260.169283 37.468822
L 260.409988 37.297814
L 260.771047 37.126807
L 261.132106 37.104006
L 261.372812 36.853194
L 261.613518 36.704988
L 261.974576 36.579582
L 262.335635 36.575782
L 262.576341 36.347771
L 262.817047 36.222366
L 263.178106 36.134962
L 263.539164 36.146362
L 263.77987 35.937353
L 264.020576 35.830948
L 264.381635 35.773945
L 264.742694 35.800547
L 264.9834 35.606738
L 265.224105 35.515534
L 265.585164 35.485132
L 265.946223 35.523134
L 266.186929 35.344526
L 266.427635 35.264722
L 266.909046 35.257122
L 267.149752 35.302724
L 267.390458 35.139317
L 267.751517 35.051913
L 268.593987 34.975909
L 268.955046 34.907506
L 270.038222 34.797301
L 270.519634 34.831503
L 270.76034 34.899906
L 271.001046 34.755499
L 271.362104 34.709897
L 273.408104 34.633894
L 273.769163 34.603492
L 274.130222 34.649094
L 274.370928 34.725098
L 274.611633 34.595892
L 274.972692 34.569291
L 275.333751 34.618693
L 275.574457 34.694696
L 275.815163 34.569291
L 276.296574 34.54649
L 276.777986 34.671895
L 277.018692 34.55029
L 277.500104 34.531289
L 277.981515 34.656695
L 278.222221 34.538889
L 278.58328 34.519888
L 278.944339 34.569291
L 279.185045 34.645294
L 279.42575 34.527489
L 279.907162 34.512288
L 280.388574 34.633894
L 280.62928 34.519888
L 281.110691 34.504688
L 281.592103 34.626293
L 281.832809 34.512288
L 282.314221 34.493287
L 282.795632 34.614893
L 283.036338 34.504688
L 283.397397 34.485687
L 283.758456 34.535089
L 283.999161 34.607292
L 284.239867 34.493287
L 284.721279 34.474286
L 285.202691 34.592092
L 285.443397 34.481887
L 285.804455 34.462886
L 286.165514 34.508488
L 286.40622 34.576891
L 286.646926 34.466686
L 287.128337 34.447685
L 287.609749 34.56169
L 287.850455 34.447685
L 288.331867 34.428684
L 288.813278 34.542689
L 289.053984 34.428684
L 289.535396 34.409683
L 290.016808 34.519888
L 290.257513 34.405883
L 290.738925 34.383082
L 291.220337 34.493287
L 291.461043 34.383082
L 291.942454 34.360281
L 292.423866 34.466686
L 292.664572 34.356481
L 293.145984 34.32988
L 293.627395 34.436285
L 293.868101 34.32608
L 294.349513 34.299478
L 294.830925 34.402083
L 295.07163 34.291878
L 295.553042 34.265277
L 296.034454 34.367882
L 296.27516 34.257677
L 296.756571 34.231075
L 297.237983 34.33368
L 297.478689 34.223475
L 297.960101 34.196874
L 298.441512 34.295678
L 298.682218 34.185473
L 299.16363 34.158872
L 299.645042 34.253876
L 299.885747 34.147472
L 300.367159 34.12087
L 300.848571 34.215875
L 301.089277 34.10947
L 301.570688 34.079068
L 302.0521 34.174073
L 302.292806 34.067668
L 302.774218 34.037267
L 303.255629 34.132271
L 303.496335 34.025866
L 303.977747 33.999265
L 304.459158 34.090469
L 304.699864 33.984064
L 305.181276 33.957463
L 305.662688 34.048667
L 305.903394 33.942262
L 306.384805 33.915661
L 306.866217 34.006865
L 307.106923 33.904261
L 307.588335 33.873859
L 308.069746 33.968863
L 308.310452 33.862459
L 308.791864 33.835857
L 309.273275 33.927062
L 309.513981 33.820657
L 309.995393 33.794056
L 310.476805 33.88526
L 310.717511 33.782655
L 311.198922 33.756054
L 311.680334 33.847258
L 311.92104 33.740853
L 312.402451 33.714252
L 312.883863 33.809256
L 313.124569 33.702851
L 313.605981 33.67625
L 314.087392 33.771255
L 314.328098 33.66485
L 314.80951 33.642049
L 315.290922 33.733253
L 315.531627 33.630648
L 316.013039 33.604047
L 316.494451 33.695251
L 316.735157 33.596447
L 317.216568 33.569845
L 317.69798 33.66105
L 317.938686 33.562245
L 318.420098 33.535644
L 318.901509 33.630648
L 319.142215 33.528043
L 319.623627 33.505242
L 320.105039 33.596447
L 320.345744 33.497642
L 320.827156 33.474841
L 321.308568 33.566045
L 321.549274 33.467241
L 322.030685 33.44444
L 322.512097 33.539444
L 322.752803 33.44064
L 323.234215 33.417839
L 323.715626 33.512843
L 323.956332 33.414038
L 324.437744 33.391237
L 324.919156 33.486242
L 325.159861 33.387437
L 325.641273 33.368436
L 326.122685 33.463441
L 326.363391 33.364636
L 326.844802 33.345635
L 327.326214 33.44064
L 327.56692 33.341835
L 328.048332 33.322834
L 328.529743 33.417839
L 328.770449 33.322834
L 329.251861 33.303833
L 329.733272 33.398838
L 329.973978 33.303833
L 330.45539 33.284832
L 330.936802 33.379837
L 331.177508 33.284832
L 331.658919 33.265832
L 332.140331 33.364636
L 332.381037 33.269632
L 332.862449 33.250631
L 333.34386 33.349435
L 333.584566 33.254431
L 334.065978 33.23923
L 334.547389 33.334235
L 334.788095 33.243031
L 335.269507 33.22403
L 335.750919 33.322834
L 335.991625 33.23163
L 336.473036 33.216429
L 336.954448 33.311434
L 337.195154 33.22023
L 337.676565 33.205029
L 338.157977 33.303833
L 338.398683 33.212629
L 338.880095 33.197429
L 339.361506 33.296233
L 339.602212 33.205029
L 340.083624 33.189828
L 340.565036 33.288633
L 340.805741 33.197429
L 341.287153 33.186028
L 341.768565 33.284832
L 342.009271 33.193628
L 342.490682 33.182228
L 342.972094 33.281032
L 343.2128 33.189828
L 343.694212 33.178428
L 344.175623 33.281032
L 344.416329 33.189828
L 344.897741 33.178428
L 345.379153 33.277232
L 345.619858 33.189828
L 346.10127 33.178428
L 346.582682 33.281032
L 346.823388 33.189828
L 347.304799 33.178428
L 347.786211 33.281032
L 348.026917 33.193628
L 348.508329 33.182228
L 348.98974 33.284832
L 349.230446 33.193628
L 349.711858 33.186028
L 350.19327 33.288633
L 350.433975 33.201229
L 350.915387 33.189828
L 351.396799 33.292433
L 351.637505 33.205029
L 352.118916 33.197429
L 352.600328 33.300033
L 352.841034 33.212629
L 353.322446 33.205029
L 353.803857 33.307634
L 354.044563 33.22023
L 354.525975 33.212629
L 355.007386 33.315234
L 355.248092 33.22783
L 355.729504 33.22403
L 356.210916 33.326634
L 356.451622 33.23923
L 356.933033 33.23163
L 357.414445 33.338035
L 357.655151 33.250631
L 358.136562 33.243031
L 358.617974 33.349435
L 358.85868 33.262031
L 359.340092 33.258231
L 359.821503 33.360836
L 360.062209 33.273432
L 360.543621 33.269632
L 361.025033 33.376037
L 361.265739 33.288633
L 361.74715 33.284832
L 362.228562 33.387437
L 362.469268 33.303833
L 362.950679 33.300033
L 363.432091 33.406438
L 363.672797 33.319034
L 364.154209 33.315234
L 364.63562 33.421639
L 364.876326 33.338035
L 365.357738 33.334235
L 365.83915 33.436839
L 366.079855 33.353236
L 366.561267 33.349435
L 367.042679 33.45584
L 367.283385 33.372236
L 367.764796 33.368436
L 368.246208 33.474841
L 368.486914 33.391237
L 368.968326 33.387437
L 369.449737 33.493842
L 369.690443 33.410238
L 370.171855 33.410238
L 370.653267 33.516643
L 370.893972 33.433039
L 371.375384 33.429239
L 371.856796 33.535644
L 372.097502 33.45204
L 372.578913 33.45204
L 373.060325 33.558445
L 373.301031 33.474841
L 373.782443 33.474841
L 374.263854 33.581246
L 374.50456 33.497642
L 374.985972 33.497642
L 375.467384 33.604047
L 375.708089 33.520443
L 376.189501 33.520443
L 376.670913 33.630648
L 376.911619 33.547044
L 377.39303 33.547044
L 377.874442 33.653449
L 378.115148 33.569845
L 378.59656 33.569845
L 379.077971 33.68005
L 379.318677 33.596447
L 379.800089 33.596447
L 380.2815 33.706652
L 380.522206 33.623048
L 381.003618 33.623048
L 381.48503 33.733253
L 381.725736 33.649649
L 382.207147 33.649649
L 382.688559 33.759854
L 382.929265 33.67625
L 383.410676 33.68005
L 383.892088 33.786455
L 384.132794 33.706652
L 384.614206 33.706652
L 385.095617 33.816857
L 385.336323 33.733253
L 385.817735 33.737053
L 386.299147 33.843458
L 386.539853 33.763654
L 387.021264 33.767454
L 387.502676 33.873859
L 387.743382 33.794056
L 388.224793 33.797856
L 388.706205 33.904261
L 388.946911 33.824457
L 389.428323 33.828257
L 389.909734 33.934662
L 390.15044 33.854858
L 390.631852 33.858658
L 391.113264 33.968863
L 391.353969 33.88906
L 391.835381 33.88906
L 392.316793 33.999265
L 392.557499 33.919461
L 393.03891 33.923261
L 393.520322 34.033466
L 393.761028 33.953663
L 394.24244 33.953663
L 394.723851 34.063868
L 394.964557 33.984064
L 395.445969 33.987864
L 395.927381 34.098069
L 396.168086 34.018266
L 396.649498 34.022066
L 397.13091 34.132271
L 397.371616 34.052467
L 397.853027 34.056267
L 398.334439 34.166472
L 398.575145 34.086669
L 399.056557 34.090469
L 399.537968 34.200674
L 399.778674 34.12087
L 400.260086 34.124671
L 400.741498 34.234876
L 400.982203 34.158872
L 401.463615 34.162672
L 401.945027 34.272877
L 402.185733 34.193074
L 402.667144 34.196874
L 403.148556 34.307079
L 403.389262 34.231075
L 403.870674 34.234876
L 404.352085 34.345081
L 404.592791 34.265277
L 405.194556 34.318479
L 407.721967 34.390683
L 407.962673 34.459086
L 408.203379 34.379282
L 408.68479 34.386882
L 409.166202 34.497087
L 409.406908 34.417284
L 409.88832 34.424884
L 410.369731 34.535089
L 410.610437 34.455286
L 411.212202 34.508488
L 413.739613 34.588292
L 413.980319 34.652894
L 414.221025 34.576891
L 414.702437 34.580691
L 415.183848 34.694696
L 415.424554 34.614893
L 416.026319 34.668095
L 418.55373 34.751699
L 418.794436 34.816302
L 419.035142 34.740298
L 419.516554 34.744099
L 419.997965 34.858104
L 420.238671 34.7821
L 420.720083 34.785901
L 421.201495 34.899906
L 421.4422 34.823902
L 421.923612 34.831503
L 422.405024 34.941708
L 422.64573 34.865704
L 423.127141 34.873304
L 423.608553 34.983509
L 423.849259 34.907506
L 424.451023 34.960708
L 426.978435 35.048112
L 427.219141 35.112715
L 427.459847 35.036712
L 428.061611 35.089914
L 430.589023 35.181118
L 430.829728 35.245721
L 431.070434 35.169718
L 431.672199 35.22292
L 432.996081 35.268522
L 433.236787 35.336926
L 433.477493 35.260922
L 433.958904 35.268522
L 434.440316 35.378727
L 434.801375 35.291323
L 435.40314 35.359727
L 435.643845 35.424329
L 436.004904 35.336926
L 436.606669 35.405329
L 436.847375 35.469932
L 437.08808 35.397728
L 437.689845 35.450931
L 439.013727 35.496533
L 439.254433 35.564936
L 439.495139 35.488932
L 439.976551 35.496533
L 440.457962 35.610538
L 440.698668 35.534534
L 441.18008 35.545935
L 441.661492 35.65614
L 441.902197 35.583937
L 442.503962 35.637139
L 443.827844 35.686541
L 444.06855 35.751144
L 444.429609 35.66374
L 445.031373 35.732143
L 445.272079 35.800547
L 445.512785 35.724543
L 445.994197 35.735944
L 446.475609 35.846149
L 446.716314 35.773945
L 447.318079 35.827148
L 448.641961 35.87655
L 448.882667 35.941153
L 449.123373 35.86895
L 449.604785 35.88035
L 450.086196 35.990555
L 450.326902 35.918352
L 450.808314 35.925952
L 451.289725 36.039957
L 451.530431 35.967754
L 452.132196 36.020957
L 453.456078 36.070359
L 453.696784 36.134962
L 453.93749 36.062758
L 454.418902 36.074159
L 454.900313 36.184364
L 455.141019 36.112161
L 455.622431 36.123561
L 456.103842 36.233766
L 456.344548 36.161563
L 456.82596 36.172963
L 457.307372 36.283168
L 457.548078 36.210965
L 458.029489 36.222366
L 458.510901 36.336371
L 458.751607 36.264168
L 459.353371 36.31737
L 460.677254 36.370572
L 460.917959 36.435175
L 461.158665 36.362972
L 461.640077 36.374373
L 462.121489 36.484578
L 462.362194 36.412374
L 462.843606 36.423775
L 463.325018 36.53398
L 463.686077 36.454176
L 464.287841 36.522579
L 464.528547 36.587182
L 464.769253 36.514979
L 465.250665 36.526379
L 465.732076 36.636584
L 465.972782 36.564381
L 466.454194 36.575782
L 466.935606 36.689787
L 467.176311 36.617584
L 467.657723 36.628984
L 468.139135 36.739189
L 468.379841 36.666986
L 468.861252 36.678386
L 469.342664 36.792391
L 469.58337 36.720188
L 470.064782 36.731589
L 470.546193 36.841794
L 470.786899 36.76959
L 471.509017 36.830393
L 471.749723 36.894996
L 471.990428 36.822793
L 472.47184 36.834193
L 472.953252 36.944398
L 473.314311 36.864595
L 473.916075 36.932998
L 474.156781 36.997601
L 474.397487 36.925398
L 475.119604 36.9862
L 475.36031 37.050803
L 475.601016 36.9786
L 476.082428 36.99
L 476.563839 37.100205
L 476.924898 37.020402
L 477.526663 37.088805
L 477.767369 37.153408
L 478.128427 37.073604
L 478.730192 37.142007
L 478.970898 37.20661
L 479.331957 37.126807
L 479.933721 37.19521
L 480.174427 37.259813
L 480.415133 37.187609
L 481.137251 37.248412
L 481.377956 37.313015
L 481.618662 37.240812
L 482.34078 37.301615
L 482.581486 37.366218
L 482.822192 37.294014
L 483.544309 37.354817
L 483.785015 37.41942
L 484.025721 37.347217
L 484.507132 37.358617
L 484.988544 37.472622
L 485.22925 37.400419
L 485.710662 37.41182
L 486.192073 37.525825
L 486.432779 37.453621
L 487.154897 37.514424
L 487.395603 37.579027
L 487.636308 37.506824
L 488.358426 37.567627
L 488.599132 37.63223
L 488.839838 37.560026
L 489.561955 37.620829
L 489.802661 37.685432
L 490.043367 37.613229
L 490.765484 37.674031
L 491.00619 37.738634
L 491.367249 37.658831
L 491.969014 37.727234
L 492.20972 37.791837
L 492.570778 37.712033
L 493.172543 37.780436
L 493.413249 37.845039
L 493.774308 37.765236
L 494.376072 37.833639
L 494.616778 37.898242
L 494.857484 37.829839
L 495.579601 37.890641
L 495.820307 37.955244
L 496.061013 37.883041
L 496.783131 37.943844
L 497.023837 38.008447
L 497.384895 37.928643
L 497.98666 37.997046
L 498.227366 38.061649
L 498.588425 37.981845
L 499.190189 38.050249
L 499.430895 38.114851
L 499.671601 38.046448
L 500.393718 38.107251
L 500.634424 38.171854
L 500.995483 38.09205
L 501.597248 38.160454
L 501.837953 38.225056
L 502.199012 38.145253
L 502.800777 38.213656
L 503.041483 38.278259
L 503.282189 38.209856
L 504.004306 38.270659
L 504.245012 38.335261
L 504.606071 38.255458
L 505.207835 38.323861
L 505.448541 38.388464
L 505.689247 38.320061
L 506.411365 38.380864
L 506.65207 38.441666
L 507.013129 38.365663
L 507.614894 38.434066
L 507.8556 38.498669
L 508.216658 38.418865
L 508.818423 38.487268
L 509.059129 38.551871
L 509.299835 38.483468
L 510.021952 38.544271
L 510.262658 38.608874
L 510.623717 38.52907
L 511.225482 38.597473
L 511.466187 38.662076
L 511.706893 38.593673
L 512.429011 38.654476
L 512.669717 38.719079
L 513.030775 38.639275
L 513.63254 38.707678
L 513.873246 38.772281
L 514.113952 38.703878
L 514.836069 38.764681
L 515.076775 38.829284
L 515.317481 38.760881
L 516.039598 38.817883
L 516.280304 38.882486
L 516.641363 38.806483
L 517.243128 38.874886
L 517.483834 38.939489
L 517.724539 38.871086
L 518.446657 38.931888
L 518.687363 38.992691
L 519.048422 38.916688
L 519.650186 38.985091
L 519.890892 39.049694
L 520.131598 38.981291
L 520.853715 39.042093
L 521.094421 39.102896
L 521.45548 39.026893
L 522.057245 39.095296
L 522.297951 39.159899
L 522.538656 39.091496
L 523.260774 39.152298
L 523.50148 39.216901
L 523.742186 39.148498
L 524.464303 39.205501
L 524.705009 39.270104
L 525.066068 39.1941
L 525.667832 39.262503
L 525.908538 39.327106
L 526.149244 39.258703
L 526.871362 39.319506
L 527.112067 39.380309
L 527.473126 39.308106
L 528.074891 39.372708
L 528.315597 39.437311
L 528.676655 39.361308
L 529.27842 39.429711
L 529.519126 39.494314
L 529.759832 39.425911
L 530.481949 39.486714
L 530.722655 39.547516
L 531.083714 39.475313
L 531.685479 39.539916
L 531.926184 39.604519
L 532.287243 39.528516
L 532.889008 39.596919
L 533.129714 39.661522
L 533.37042 39.593118
L 534.092537 39.653921
L 534.333243 39.714724
L 534.694302 39.642521
L 535.296066 39.707124
L 535.536772 39.771727
L 535.897831 39.695723
L 536.499596 39.764126
L 536.740301 39.828729
L 536.981007 39.760326
L 537.703125 39.821129
L 537.943831 39.881932
L 538.304889 39.809728
L 538.906654 39.874331
L 539.14736 39.938934
L 539.508419 39.862931
L 540.110183 39.931334
L 540.350889 39.995937
L 540.591595 39.927534
L 541.313712 39.988336
L 541.554418 40.049139
L 541.915477 39.976936
L 542.517242 40.041539
L 542.757948 40.106142
L 543.119006 40.030138
L 543.720771 40.098541
L 543.961477 40.163144
L 544.202183 40.094741
L 544.9243 40.155544
L 545.165006 40.216347
L 545.526065 40.144143
L 546.127829 40.212547
L 546.368535 40.273349
L 546.729594 40.201146
L 547.331359 40.265749
L 547.572065 40.330352
L 547.933123 40.254348
L 548.534888 40.322752
L 548.775594 40.383554
L 549.136653 40.311351
L 549.738417 40.379754
L 549.979123 40.440557
L 550.340182 40.368354
L 550.941946 40.432957
L 551.182652 40.497559
L 551.543711 40.421556
L 552.145476 40.489959
L 552.386181 40.550762
L 552.74724 40.478559
L 553.349005 40.546962
L 553.589711 40.607764
L 553.950769 40.535561
L 554.552534 40.600164
L 554.79324 40.664767
L 555.154299 40.588764
L 555.756063 40.657167
L 555.996769 40.717969
L 556.357828 40.645766
L 556.959593 40.714169
L 557.200298 40.774972
L 557.561357 40.702769
L 558.163122 40.767372
L 558.403828 40.831975
L 558.764886 40.759771
L 559.366651 40.824374
L 559.607357 40.885177
L 559.968416 40.812974
L 560.57018 40.881377
L 560.810886 40.94218
L 561.171945 40.869976
L 561.77371 40.934579
L 562.014415 40.995382
L 562.375474 40.926979
L 562.977239 40.991582
L 563.217945 41.052385
L 563.579003 40.980181
L 564.180768 41.048584
L 564.421474 41.109387
L 564.782533 41.037184
L 565.384297 41.101787
L 565.625003 41.16259
L 565.986062 41.090386
L 566.587826 41.158789
L 566.828532 41.219592
L 567.189591 41.147389
L 567.791356 41.211992
L 568.032062 41.276595
L 568.39312 41.204392
L 568.994885 41.268994
L 569.235591 41.329797
L 569.59665 41.257594
L 570.198414 41.325997
L 570.43912 41.3868
L 570.800179 41.314597
L 571.401943 41.379199
L 571.642649 41.440002
L 572.003708 41.371599
L 572.605473 41.436202
L 572.846179 41.497005
L 573.207237 41.424801
L 573.809002 41.489404
L 574.049708 41.550207
L 574.410767 41.481804
L 575.012531 41.546407
L 575.253237 41.60721
L 575.614296 41.535006
L 576.21606 41.599609
L 576.456766 41.660412
L 576.817825 41.592009
L 577.41959 41.656612
L 577.660295 41.717415
L 578.021354 41.645211
L 578.623119 41.713615
L 578.863825 41.774417
L 579.224883 41.702214
L 579.826648 41.766817
L 580.067354 41.82762
L 580.428413 41.755416
L 581.030177 41.82382
L 581.270883 41.880822
L 581.631942 41.812419
L 582.233707 41.877022
L 582.474412 41.937825
L 582.835471 41.865621
L 583.437236 41.934025
L 583.677942 41.991027
L 584.039 41.922624
L 584.640765 41.987227
L 584.881471 42.04803
L 585.24253 41.975826
L 585.844294 42.040429
L 586.085 42.101232
L 586.446059 42.032829
L 587.047824 42.097432
L 587.288529 42.158235
L 587.649588 42.086031
L 588.251353 42.150634
L 588.492059 42.211437
L 588.853117 42.143034
L 589.454882 42.207637
L 589.695588 42.26844
L 590.056647 42.196236
L 590.658411 42.260839
L 590.899117 42.321642
L 591.260176 42.253239
L 591.86194 42.317842
L 592.102646 42.374845
L 592.463705 42.306441
L 593.06547 42.371044
L 593.306176 42.431847
L 593.667234 42.359644
L 594.268999 42.424247
L 594.509705 42.48505
L 594.870764 42.416646
L 595.472528 42.481249
L 595.713234 42.538252
L 596.074293 42.469849
L 596.676057 42.534452
L 596.916763 42.595255
L 597.277822 42.523051
L 597.879587 42.587654
L 598.120292 42.648457
L 598.481351 42.580054
L 599.083116 42.640857
L 599.323822 42.701659
L 599.684881 42.633256
L 600.286645 42.697859
L 600.527351 42.754862
L 600.88841 42.686459
L 601.490174 42.751062
L 601.73088 42.811864
L 602.091939 42.739661
L 602.693704 42.804264
L 602.934409 42.865067
L 603.295468 42.796664
L 603.897233 42.857466
L 604.137939 42.918269
L 604.498997 42.849866
L 605.100762 42.914469
L 605.341468 42.971472
L 605.702527 42.903069
L 606.304291 42.967671
L 606.544997 43.024674
L 606.906056 42.956271
L 607.507821 43.020874
L 607.748526 43.081677
L 608.109585 43.009473
L 608.71135 43.074076
L 608.952056 43.134879
L 609.313114 43.066476
L 609.914879 43.127279
L 610.155585 43.188081
L 610.516644 43.119678
L 611.118408 43.180481
L 611.359114 43.241284
L 611.720173 43.172881
L 612.321937 43.233684
L 612.562643 43.294486
L 612.923702 43.226083
L 613.525467 43.290686
L 613.766173 43.347689
L 614.127231 43.279286
L 614.728996 43.343889
L 614.969702 43.400891
L 615.330761 43.332488
L 615.932525 43.397091
L 616.173231 43.454093
L 616.53429 43.38569
L 617.136054 43.450293
L 617.37676 43.507296
L 617.737819 43.438893
L 618.339584 43.503496
L 618.58029 43.560498
L 618.941348 43.492095
L 619.543113 43.556698
L 619.783819 43.613701
L 620.144878 43.545298
L 620.746642 43.6061
L 620.987348 43.666903
L 621.348407 43.5985
L 621.950171 43.659303
L 622.190877 43.720106
L 622.551936 43.651702
L 623.153701 43.712505
L 623.394406 43.773308
L 623.755465 43.704905
L 624.35723 43.765708
L 624.597936 43.82271
L 624.958994 43.758107
L 625.560759 43.81891
L 625.801465 43.875913
L 626.162524 43.81131
L 626.764288 43.872112
L 627.004994 43.929115
L 627.366053 43.860712
L 627.967818 43.925315
L 628.208523 43.982317
L 628.569582 43.913914
L 629.171347 43.974717
L 629.412053 44.03552
L 629.773111 43.967117
L 630.374876 44.02792
L 630.615582 44.084922
L 630.976641 44.020319
L 631.578405 44.081122
L 631.819111 44.138125
L 632.18017 44.069721
L 632.781935 44.134324
L 633.02264 44.191327
L 633.383699 44.122924
L 633.985464 44.183727
L 634.22617 44.240729
L 634.587228 44.176126
L 635.188993 44.236929
L 635.429699 44.293932
L 635.790758 44.225528
L 636.392522 44.290131
L 636.633228 44.347134
L 636.994287 44.278731
L 637.596051 44.339534
L 637.836757 44.396536
L 638.197816 44.331933
L 638.799581 44.392736
L 639.040287 44.449739
L 639.401345 44.381336
L 640.00311 44.442138
L 640.243816 44.499141
L 640.604875 44.434538
L 641.206639 44.495341
L 641.447345 44.552343
L 641.808404 44.48394
L 642.410168 44.544743
L 642.650874 44.601746
L 643.011933 44.537143
L 643.613698 44.597945
L 643.854404 44.654948
L 644.215462 44.586545
L 644.817227 44.647348
L 645.057933 44.70435
L 645.418992 44.639747
L 646.020756 44.70055
L 646.261462 44.757553
L 646.622521 44.689149
L 647.224285 44.749952
L 647.464991 44.806955
L 647.82605 44.742352
L 648.427815 44.803155
L 648.66852 44.856357
L 649.029579 44.791754
L 649.631344 44.852557
L 649.87205 44.909559
L 650.233108 44.841156
L 650.834873 44.901959
L 651.075579 44.958962
L 651.436638 44.894359
L 652.038402 44.955162
L 652.279108 45.008364
L 652.640167 44.943761
L 653.241932 45.004564
L 653.482637 45.061566
L 653.843696 44.993163
L 654.445461 45.053966
L 654.686167 45.110969
L 655.047225 45.046366
L 655.64899 45.103368
L 655.889696 45.160371
L 656.250755 45.095768
L 656.852519 45.156571
L 657.093225 45.209773
L 657.454284 45.14517
L 658.056049 45.205973
L 658.296754 45.259175
L 658.657813 45.194572
L 659.259578 45.255375
L 659.500284 45.308578
L 659.861342 45.243975
L 660.463107 45.304777
L 660.703813 45.36178
L 661.064872 45.293377
L 661.666636 45.35418
L 661.907342 45.411182
L 662.268401 45.346579
L 662.870165 45.403582
L 663.110871 45.460584
L 663.47193 45.395982
L 664.073695 45.452984
L 664.314401 45.509987
L 664.675459 45.445384
L 665.277224 45.502386
L 665.51793 45.559389
L 665.878989 45.494786
L 666.480753 45.551789
L 666.721459 45.608791
L 667.082518 45.544188
L 668.887812 45.650593
L 669.128518 45.703795
L 669.489576 45.639193
L 670.091341 45.699995
L 670.332047 45.753198
L 670.693106 45.688595
L 671.29487 45.749398
L 671.535576 45.8026
L 671.896635 45.737997
L 672.498399 45.7988
L 672.739105 45.852002
L 673.100164 45.787399
L 673.701929 45.844402
L 673.942634 45.901404
L 674.303693 45.836802
L 676.108987 45.943206
L 676.349693 45.996409
L 676.710752 45.931806
L 677.312516 45.992609
L 677.553222 46.045811
L 677.914281 45.981208
L 679.719575 46.087613
L 679.960281 46.140815
L 680.321339 46.076212
L 680.923104 46.133215
L 681.16381 46.190218
L 681.524869 46.125615
L 683.330163 46.232019
L 683.570868 46.285222
L 683.931927 46.220619
L 685.737221 46.327024
L 685.977927 46.380226
L 686.338986 46.315623
L 688.144279 46.422028
L 688.384985 46.47523
L 688.746044 46.410628
L 690.551338 46.513232
L 690.792044 46.566435
L 691.153103 46.505632
L 692.958396 46.608236
L 693.199102 46.661439
L 693.560161 46.596836
L 695.365455 46.699441
L 695.606161 46.752643
L 695.96722 46.69184
L 697.772513 46.794445
L 698.013219 46.847647
L 698.374278 46.783044
L 700.179572 46.885649
L 700.420278 46.938851
L 700.781336 46.874249
L 702.58663 46.976853
L 702.827336 47.030056
L 703.188395 46.969253
L 704.993689 47.068057
L 705.234395 47.12126
L 705.595453 47.060457
L 707.400747 47.159261
L 707.641453 47.212464
L 708.002512 47.151661
L 709.807806 47.250466
L 710.048512 47.303668
L 710.40957 47.239065
L 712.214864 47.34167
L 712.45557 47.391072
L 712.816629 47.330269
L 714.621923 47.429074
L 714.862629 47.482276
L 715.223687 47.417673
L 717.028981 47.516478
L 717.269687 47.56968
L 717.630746 47.508877
L 719.43604 47.607682
L 719.676746 47.657084
L 720.037804 47.596281
L 721.843098 47.695086
L 722.083804 47.744488
L 722.444863 47.683685
L 724.250157 47.78249
L 724.490862 47.831892
L 724.851921 47.771089
L 726.657215 47.869894
L 726.897921 47.919296
L 727.25898 47.858493
L 729.064274 47.953497
L 729.304979 48.0067
L 729.666038 47.945897
L 731.471332 48.040901
L 731.712038 48.090304
L 732.073097 48.029501
L 733.878391 48.124505
L 734.119096 48.177708
L 734.480155 48.116905
L 736.285449 48.211909
L 736.526155 48.261311
L 736.887214 48.200509
L 738.692507 48.295513
L 738.933213 48.344915
L 739.294272 48.284112
L 741.099566 48.379117
L 741.340272 48.428519
L 741.701331 48.367716
L 743.506624 48.462721
L 743.74733 48.512123
L 744.108389 48.45132
L 745.913683 48.546324
L 746.154389 48.595727
L 746.515448 48.534924
L 748.320741 48.626128
L 748.561447 48.67553
L 748.922506 48.614727
L 750.7278 48.709732
L 750.968506 48.759134
L 751.329564 48.698331
L 753.134858 48.789535
L 753.375564 48.838938
L 753.736623 48.778135
L 755.541917 48.869339
L 755.782623 48.918741
L 756.143681 48.861739
L 757.948975 48.952943
L 758.189681 48.998545
L 758.55074 48.941542
L 760.356034 49.032746
L 760.59674 49.078348
L 760.957798 49.021346
L 762.763092 49.10875
L 763.003798 49.158152
L 763.364857 49.097349
L 765.170151 49.188553
L 765.410857 49.237956
L 765.771915 49.177153
L 767.577209 49.268357
L 767.817915 49.313959
L 768.178974 49.256957
L 769.984268 49.344361
L 770.224973 49.393763
L 770.586032 49.33296
L 772.391326 49.420364
L 772.632032 49.469766
L 772.993091 49.408963
L 774.798385 49.500168
L 775.03909 49.54577
L 775.400149 49.488767
L 777.205443 49.576171
L 777.446149 49.621773
L 777.807208 49.564771
L 779.612502 49.652174
L 779.853207 49.697777
L 780.214266 49.636974
L 782.01956 49.724378
L 782.260266 49.77378
L 782.621325 49.712977
L 784.426618 49.800381
L 784.667324 49.845983
L 785.028383 49.788981
L 786.833677 49.872584
L 787.074383 49.921987
L 787.435442 49.861184
L 789.240735 49.948588
L 789.481441 49.99419
L 789.8425 49.937187
L 791.647794 50.020791
L 791.8885 50.066393
L 792.249559 50.009391
L 794.054852 50.092994
L 794.295558 50.138597
L 794.656617 50.081594
L 796.461911 50.165198
L 796.702617 50.2108
L 797.063675 50.153797
L 798.868969 50.237401
L 799.109675 50.283003
L 799.470734 50.226001
L 801.276028 50.309604
L 801.516734 50.355206
L 801.877792 50.294404
L 803.683086 50.378007
L 803.923792 50.423609
L 804.284851 50.366607
L 806.090145 50.450211
L 806.330851 50.495813
L 806.691909 50.43501
L 808.497203 50.518614
L 808.737909 50.564216
L 809.098968 50.507213
L 810.904262 50.587017
L 811.144968 50.632619
L 811.506026 50.575616
L 813.31132 50.65542
L 813.552026 50.701022
L 813.913085 50.644019
L 815.718379 50.723823
L 815.959085 50.769425
L 816.320143 50.712423
L 818.125437 50.792226
L 818.366143 50.837828
L 818.727202 50.780826
L 820.532496 50.860629
L 820.773201 50.902431
L 821.13426 50.845429
L 822.939554 50.925232
L 823.18026 50.970834
L 823.541319 50.913832
L 825.346613 50.993635
L 825.587318 51.035437
L 825.948377 50.978435
L 827.753671 51.058238
L 827.994377 51.10004
L 828.355436 51.043038
L 830.16073 51.122841
L 830.401435 51.164643
L 830.762494 51.111441
L 832.567788 51.187444
L 832.808494 51.229246
L 833.169553 51.176044
L 834.974846 51.252047
L 835.215552 51.293849
L 835.576611 51.236846
L 837.381905 51.31665
L 837.622611 51.358452
L 837.98367 51.301449
L 839.788963 51.377453
L 840.029669 51.423055
L 840.390728 51.366052
L 842.196022 51.442056
L 842.436728 51.483858
L 842.797787 51.426855
L 844.60308 51.502858
L 844.843786 51.54466
L 845.204845 51.491458
L 847.010139 51.563661
L 847.250845 51.609263
L 847.611903 51.552261
L 849.417197 51.624464
L 849.657903 51.670066
L 850.018962 51.613063
L 851.824256 51.685267
L 852.064962 51.730869
L 852.42602 51.673866
L 854.231314 51.746069
L 854.47202 51.787871
L 854.833079 51.734669
L 856.638373 51.806872
L 856.879079 51.848674
L 857.240137 51.795472
L 859.045431 51.867675
L 859.286137 51.909477
L 859.647196 51.852474
L 861.45249 51.924678
L 861.693196 51.966479
L 862.054254 51.913277
L 863.859548 51.98548
L 864.100254 52.027282
L 864.461313 51.97028
L 866.266607 52.042483
L 866.507312 52.084285
L 866.868371 52.027282
L 868.673665 52.099485
L 868.914371 52.141287
L 869.27543 52.088085
L 872.284253 52.186889
L 872.524959 52.224891
L 872.886017 52.171689
L 875.894841 52.270493
L 876.135546 52.312295
L 876.496605 52.255293
L 879.505428 52.354097
L 879.746134 52.392099
L 880.107193 52.338896
L 883.116016 52.433901
L 883.356722 52.475702
L 883.717781 52.4225
L 886.726604 52.517504
L 886.96731 52.555506
L 887.328368 52.502304
L 890.337191 52.597308
L 890.577897 52.63911
L 890.938956 52.582107
L 893.947779 52.677112
L 894.188485 52.715113
L 894.549544 52.661911
L 897.558367 52.756915
L 897.799073 52.794917
L 898.160131 52.741715
L 901.168955 52.832919
L 901.40966 52.87092
L 901.891072 52.817718
L 902.974248 52.844319
L 905.983071 52.935523
L 906.223777 52.973525
L 906.584836 52.920323
L 909.593659 53.011527
L 909.834365 53.049529
L 910.195424 52.996326
L 913.204247 53.08373
L 913.444953 53.121732
L 913.806012 53.07233
L 916.814835 53.159734
L 917.05554 53.197735
L 917.416599 53.144533
L 920.425422 53.231937
L 920.666128 53.269939
L 921.027187 53.216736
L 924.03601 53.30414
L 924.276716 53.342142
L 924.637775 53.288939
L 927.646598 53.372543
L 927.887304 53.410545
L 928.368715 53.357342
L 930.294362 53.456147
L 930.655421 53.406745
L 933.664244 53.490348
L 933.90495 53.52835
L 934.266009 53.475148
L 937.274832 53.558752
L 937.63589 53.551151
L 942.088949 53.646156
L 942.329654 53.684157
L 942.690713 53.634755
L 945.699536 53.714559
L 946.060595 53.706958
L 950.272947 53.775361
L 950.272947 53.775361
" clip-path="url(#p6208038f20)" style="fill: none; stroke: #d65a00; stroke-width: 2; stroke-linecap: square"/>
   </g>
   <g id="patch_3">
    <path d="M 40.404844 434.834597
L 40.404844 14.04
" style="fill: none; stroke: #1a1a1a; stroke-linejoin: miter; stroke-linecap: square"/>
   </g>
   <g id="patch_4">
    <path d="M 993.6 434.834597
L 993.6 14.04
" style="fill: none; stroke: #1a1a1a; stroke-linejoin: miter; stroke-linecap: square"/>
   </g>
   <g id="patch_5">
    <path d="M 40.404844 434.834597
L 993.6 434.834597
" style="fill: none; stroke: #1a1a1a; stroke-linejoin: miter; stroke-linecap: square"/>
   </g>
   <g id="patch_6">
    <path d="M 40.404844 14.04
L 993.6 14.04
" style="fill: none; stroke: #1a1a1a; stroke-linejoin: miter; stroke-linecap: square"/>
   </g>
   <g id="legend_1">
    <g id="patch_7">
     <path d="M 446.439141 494.864314
L 587.565703 494.864314
Q 589.565703 494.864314 589.565703 492.864314
L 589.565703 479.706111
Q 589.565703 477.706111 587.565703 477.706111
L 446.439141 477.706111
Q 444.439141 477.706111 444.439141 479.706111
L 444.439141 492.864314
Q 444.439141 494.864314 446.439141 494.864314
z
" style="fill: #ffffff; opacity: 0.95; stroke: #808080; stroke-linejoin: miter"/>
    </g>
    <g id="line2d_31">
     <path d="M 448.439141 485.206111
L 458.439141 485.206111
L 468.439141 485.206111
" style="fill: none; stroke: #0055cc; stroke-width: 2; stroke-linecap: square"/>
    </g>
    <g id="text_17">
     <!-- Python -->
     <g transform="translate(476.439141 488.706111) scale(0.1 -0.1)">
      <defs>
       <path id="TimesNewRomanPSMT-33" d="M 1313 1984
L 1313 750
Q 1313 350 1400 253
Q 1519 116 1759 116
L 1922 116
L 1922 0
L 106 0
L 106 116
L 266 116
Q 534 116 650 291
Q 713 388 713 750
L 713 3488
Q 713 3888 628 3984
Q 506 4122 266 4122
L 106 4122
L 106 4238
L 1659 4238
Q 2228 4238 2556 4120
Q 2884 4003 3109 3725
Q 3334 3447 3334 3066
Q 3334 2547 2992 2222
Q 2650 1897 2025 1897
Q 1872 1897 1694 1919
Q 1516 1941 1313 1984
z
M 1313 2163
Q 1478 2131 1606 2115
Q 1734 2100 1825 2100
Q 2150 2100 2386 2351
Q 2622 2603 2622 3003
Q 2622 3278 2509 3514
Q 2397 3750 2190 3867
Q 1984 3984 1722 3984
Q 1563 3984 1313 3925
L 1313 2163
z
" transform="scale(0.015625)"/>
       <path id="TimesNewRomanPSMT-5c" d="M 38 2863
L 1372 2863
L 1372 2747
L 1306 2747
Q 1166 2747 1095 2686
Q 1025 2625 1025 2534
Q 1025 2413 1128 2197
L 1825 753
L 2466 2334
Q 2519 2463 2519 2588
Q 2519 2644 2497 2672
Q 2472 2706 2419 2726
Q 2366 2747 2231 2747
L 2231 2863
L 3163 2863
L 3163 2747
Q 3047 2734 2984 2696
Q 2922 2659 2847 2556
Q 2819 2513 2741 2316
L 1575 -541
Q 1406 -956 1132 -1168
Q 859 -1381 606 -1381
Q 422 -1381 303 -1275
Q 184 -1169 184 -1031
Q 184 -900 270 -820
Q 356 -741 506 -741
Q 609 -741 788 -809
Q 913 -856 944 -856
Q 1038 -856 1148 -759
Q 1259 -663 1372 -384
L 1575 113
L 547 2272
Q 500 2369 397 2513
Q 319 2622 269 2659
Q 197 2709 38 2747
L 38 2863
z
" transform="scale(0.015625)"/>
       <path id="TimesNewRomanPSMT-57" d="M 1031 3803
L 1031 2863
L 1700 2863
L 1700 2644
L 1031 2644
L 1031 788
Q 1031 509 1111 412
Q 1191 316 1316 316
Q 1419 316 1516 380
Q 1613 444 1666 569
L 1788 569
Q 1678 263 1478 108
Q 1278 -47 1066 -47
Q 922 -47 784 33
Q 647 113 581 261
Q 516 409 516 719
L 516 2644
L 63 2644
L 63 2747
Q 234 2816 414 2980
Q 594 3144 734 3369
Q 806 3488 934 3803
L 1031 3803
z
" transform="scale(0.015625)"/>
       <path id="TimesNewRomanPSMT-4b" d="M 1041 4444
L 1041 2350
Q 1388 2731 1591 2839
Q 1794 2947 1997 2947
Q 2241 2947 2416 2812
Q 2591 2678 2675 2391
Q 2734 2191 2734 1659
L 2734 647
Q 2734 375 2778 275
Q 2809 200 2884 156
Q 2959 113 3159 113
L 3159 0
L 1753 0
L 1753 113
L 1819 113
Q 2019 113 2097 173
Q 2175 234 2206 353
Q 2216 403 2216 647
L 2216 1659
Q 2216 2128 2167 2275
Q 2119 2422 2012 2495
Q 1906 2569 1756 2569
Q 1603 2569 1437 2487
Q 1272 2406 1041 2159
L 1041 647
Q 1041 353 1073 281
Q 1106 209 1195 161
Q 1284 113 1503 113
L 1503 0
L 84 0
L 84 113
Q 275 113 384 172
Q 447 203 484 290
Q 522 378 522 647
L 522 3238
Q 522 3728 498 3840
Q 475 3953 426 3993
Q 378 4034 297 4034
Q 231 4034 84 3984
L 41 4094
L 897 4444
L 1041 4444
z
" transform="scale(0.015625)"/>
       <path id="TimesNewRomanPSMT-52" d="M 1600 2947
Q 2250 2947 2644 2453
Q 2978 2031 2978 1484
Q 2978 1100 2793 706
Q 2609 313 2286 112
Q 1963 -88 1566 -88
Q 919 -88 538 428
Q 216 863 216 1403
Q 216 1797 411 2186
Q 606 2575 925 2761
Q 1244 2947 1600 2947
z
M 1503 2744
Q 1338 2744 1170 2645
Q 1003 2547 900 2300
Q 797 2053 797 1666
Q 797 1041 1045 587
Q 1294 134 1700 134
Q 2003 134 2200 384
Q 2397 634 2397 1244
Q 2397 2006 2069 2444
Q 1847 2744 1503 2744
z
" transform="scale(0.015625)"/>
       <path id="TimesNewRomanPSMT-51" d="M 1034 2341
Q 1538 2947 1994 2947
Q 2228 2947 2397 2830
Q 2566 2713 2666 2444
Q 2734 2256 2734 1869
L 2734 647
Q 2734 375 2778 278
Q 2813 200 2889 156
Q 2966 113 3172 113
L 3172 0
L 1756 0
L 1756 113
L 1816 113
Q 2016 113 2095 173
Q 2175 234 2206 353
Q 2219 400 2219 647
L 2219 1819
Q 2219 2209 2117 2386
Q 2016 2563 1775 2563
Q 1403 2563 1034 2156
L 1034 647
Q 1034 356 1069 288
Q 1113 197 1189 155
Q 1266 113 1500 113
L 1500 0
L 84 0
L 84 113
L 147 113
Q 366 113 442 223
Q 519 334 519 647
L 519 1709
Q 519 2225 495 2337
Q 472 2450 423 2490
Q 375 2531 294 2531
Q 206 2531 84 2484
L 38 2597
L 900 2947
L 1034 2947
L 1034 2341
z
" transform="scale(0.015625)"/>
      </defs>
      <use xlink:href="#TimesNewRomanPSMT-33"/>
      <use xlink:href="#TimesNewRomanPSMT-5c" transform="translate(55.609375 0)"/>
      <use xlink:href="#TimesNewRomanPSMT-57" transform="translate(105.609375 0)"/>
      <use xlink:href="#TimesNewRomanPSMT-4b" transform="translate(133.390625 0)"/>
      <use xlink:href="#TimesNewRomanPSMT-52" transform="translate(183.390625 0)"/>
      <use xlink:href="#TimesNewRomanPSMT-51" transform="translate(233.390625 0)"/>
     </g>
    </g>
    <g id="line2d_32">
     <path d="M 524.778203 485.206111
L 534.778203 485.206111
L 544.778203 485.206111
" style="fill: none; stroke: #d65a00; stroke-width: 2; stroke-linecap: square"/>
    </g>
    <g id="text_18">
     <!-- HYSYS -->
     <g transform="translate(552.778203 488.706111) scale(0.1 -0.1)">
      <defs>
       <path id="TimesNewRomanPSMT-2b" d="M 1316 2272
L 3284 2272
L 3284 3484
Q 3284 3809 3244 3913
Q 3213 3991 3113 4047
Q 2978 4122 2828 4122
L 2678 4122
L 2678 4238
L 4491 4238
L 4491 4122
L 4341 4122
Q 4191 4122 4056 4050
Q 3956 4000 3920 3898
Q 3884 3797 3884 3484
L 3884 750
Q 3884 428 3925 325
Q 3956 247 4053 191
Q 4191 116 4341 116
L 4491 116
L 4491 0
L 2678 0
L 2678 116
L 2828 116
Q 3088 116 3206 269
Q 3284 369 3284 750
L 3284 2041
L 1316 2041
L 1316 750
Q 1316 428 1356 325
Q 1388 247 1488 191
Q 1622 116 1772 116
L 1925 116
L 1925 0
L 109 0
L 109 116
L 259 116
Q 522 116 641 269
Q 716 369 716 750
L 716 3484
Q 716 3809 675 3913
Q 644 3991 547 4047
Q 409 4122 259 4122
L 109 4122
L 109 4238
L 1925 4238
L 1925 4122
L 1772 4122
Q 1622 4122 1488 4050
Q 1391 4000 1353 3898
Q 1316 3797 1316 3484
L 1316 2272
z
" transform="scale(0.015625)"/>
       <path id="TimesNewRomanPSMT-3c" d="M 3050 4238
L 4528 4238
L 4528 4122
L 4447 4122
Q 4366 4122 4209 4050
Q 4053 3978 3925 3843
Q 3797 3709 3609 3406
L 2588 1797
L 2588 734
Q 2588 344 2675 247
Q 2794 116 3050 116
L 3188 116
L 3188 0
L 1388 0
L 1388 116
L 1538 116
Q 1806 116 1919 278
Q 1988 378 1988 734
L 1988 1738
L 825 3513
Q 619 3825 545 3903
Q 472 3981 241 4091
Q 178 4122 59 4122
L 59 4238
L 1872 4238
L 1872 4122
L 1778 4122
Q 1631 4122 1507 4053
Q 1384 3984 1384 3847
Q 1384 3734 1575 3441
L 2459 2075
L 3291 3381
Q 3478 3675 3478 3819
Q 3478 3906 3433 3975
Q 3388 4044 3303 4083
Q 3219 4122 3050 4122
L 3050 4238
z
" transform="scale(0.015625)"/>
       <path id="TimesNewRomanPSMT-36" d="M 2934 4334
L 2934 2869
L 2819 2869
Q 2763 3291 2617 3541
Q 2472 3791 2203 3937
Q 1934 4084 1647 4084
Q 1322 4084 1109 3886
Q 897 3688 897 3434
Q 897 3241 1031 3081
Q 1225 2847 1953 2456
Q 2547 2138 2764 1967
Q 2981 1797 3098 1565
Q 3216 1334 3216 1081
Q 3216 600 2842 251
Q 2469 -97 1881 -97
Q 1697 -97 1534 -69
Q 1438 -53 1133 45
Q 828 144 747 144
Q 669 144 623 97
Q 578 50 556 -97
L 441 -97
L 441 1356
L 556 1356
Q 638 900 775 673
Q 913 447 1195 297
Q 1478 147 1816 147
Q 2206 147 2432 353
Q 2659 559 2659 841
Q 2659 997 2573 1156
Q 2488 1316 2306 1453
Q 2184 1547 1640 1851
Q 1097 2156 867 2337
Q 638 2519 519 2737
Q 400 2956 400 3219
Q 400 3675 750 4004
Q 1100 4334 1641 4334
Q 1978 4334 2356 4169
Q 2531 4091 2603 4091
Q 2684 4091 2736 4139
Q 2788 4188 2819 4334
L 2934 4334
z
" transform="scale(0.015625)"/>
      </defs>
      <use xlink:href="#TimesNewRomanPSMT-2b"/>
      <use xlink:href="#TimesNewRomanPSMT-3c" transform="translate(72.21875 0)"/>
      <use xlink:href="#TimesNewRomanPSMT-36" transform="translate(144.4375 0)"/>
      <use xlink:href="#TimesNewRomanPSMT-3c" transform="translate(200.046875 0)"/>
      <use xlink:href="#TimesNewRomanPSMT-36" transform="translate(272.265625 0)"/>
     </g>
    </g>
   </g>
  </g>
  <g id="patch_8">
   <path d="M 3.6 502.56
L 1001.52 502.56
L 1001.52 3.6
L 3.6 3.6
L 3.6 502.56
z
" style="fill: none; stroke: #1a1a1a; stroke-width: 1.2; stroke-linejoin: miter"/>
  </g>
 </g>
 <defs>
  <clipPath id="p6208038f20">
   <rect x="40.404844" y="14.04" width="953.195156" height="420.794597"/>
  </clipPath>
 </defs>
</svg>
