<?xml version="1.0" encoding="utf-8" standalone="no"?>
<!DOCTYPE svg PUBLIC "-//W3C//DTD SVG 1.1//EN"
  "http://www.w3.org/Graphics/SVG/1.1/DTD/svg11.dtd">
<svg xmlns:xlink="http://www.w3.org/1999/xlink" width="648.72pt" height="363.6pt" viewBox="0 0 648.72 363.6" xmlns="http://www.w3.org/2000/svg" version="1.1">
 <metadata>
  <rdf:RDF xmlns:dc="http://purl.org/dc/elements/1.1/" xmlns:cc="http://creativecommons.org/ns#" xmlns:rdf="http://www.w3.org/1999/02/22-rdf-syntax-ns#">
   <cc:Work>
    <dc:type rdf:resource="http://purl.org/dc/dcmitype/StillImage"/>
    <dc:date>2026-07-20T17:39:06.357324</dc:date>
    <dc:format>image/svg+xml</dc:format>
    <dc:creator>
     <cc:Agent>
      <dc:title>Matplotlib v3.11.1, https://matplotlib.org/</dc:title>
     </cc:Agent>
    </dc:creator>
   </cc:Work>
  </rdf:RDF>
 </metadata>
 <defs>
  <style type="text/css">*{stroke-linejoin: round; stroke-linecap: butt}</style>
 </defs>
 <g id="figure_1">
  <g id="patch_1">
   <path d="M -0 363.6
L 648.72 363.6
L 648.72 -0
L -0 -0
z
" style="fill: #ffffff"/>
  </g>
  <g id="axes_1">
   <g id="patch_2">
    <path d="M 52.804844 296.713617
L 636.48 296.713617
L 636.48 13.68
L 52.804844 13.68
z
" style="fill: #ffffff"/>
   </g>
   <g id="matplotlib.axis_1">
    <g id="xtick_1">
     <g id="line2d_1">
      <path d="M 148.1188 296.713617
L 148.1188 13.68
" clip-path="url(#p5680e73be8)" style="fill: none; stroke: #b0b0b0; stroke-opacity: 0.3; stroke-width: 0.8; stroke-linecap: square"/>
     </g>
     <g id="line2d_2">
      <defs>
       <path id="mf85efa0b9e" d="M 0 0
L 0 -3.5
" style="stroke: #000000; stroke-width: 0.8"/>
      </defs>
      <g>
       <use xlink:href="#mf85efa0b9e" x="148.1188" y="296.713617" style="stroke: #000000; stroke-width: 0.8"/>
      </g>
     </g>
     <g id="text_1">
      <!-- FIC-100 (syn) -->
      <g transform="translate(119.647706 307.157367) scale(0.1 -0.1)">
       <defs>
        <path id="TimesNewRomanPSMT-29" d="M 1309 4006
L 1309 2341
L 2081 2341
Q 2347 2341 2470 2458
Q 2594 2575 2634 2922
L 2750 2922
L 2750 1488
L 2634 1488
Q 2631 1734 2570 1850
Q 2509 1966 2401 2023
Q 2294 2081 2081 2081
L 1309 2081
L 1309 750
Q 1309 428 1350 325
Q 1381 247 1481 191
Q 1619 116 1769 116
L 1922 116
L 1922 0
L 103 0
L 103 116
L 253 116
Q 516 116 634 269
Q 709 369 709 750
L 709 3488
Q 709 3809 669 3913
Q 638 3991 541 4047
Q 406 4122 253 4122
L 103 4122
L 103 4238
L 3256 4238
L 3297 3306
L 3188 3306
Q 3106 3603 2998 3742
Q 2891 3881 2733 3943
Q 2575 4006 2244 4006
L 1309 4006
z
" transform="scale(0.015625)"/>
        <path id="TimesNewRomanPSMT-2c" d="M 1975 116
L 1975 0
L 159 0
L 159 116
L 309 116
Q 572 116 691 269
Q 766 369 766 750
L 766 3488
Q 766 3809 725 3913
Q 694 3991 597 4047
Q 459 4122 309 4122
L 159 4122
L 159 4238
L 1975 4238
L 1975 4122
L 1822 4122
Q 1563 4122 1444 3969
Q 1366 3869 1366 3488
L 1366 750
Q 1366 428 1406 325
Q 1438 247 1538 191
Q 1672 116 1822 116
L 1975 116
z
" transform="scale(0.015625)"/>
        <path id="TimesNewRomanPSMT-26" d="M 3853 4334
L 3950 2894
L 3853 2894
Q 3659 3541 3300 3825
Q 2941 4109 2438 4109
Q 2016 4109 1675 3895
Q 1334 3681 1139 3212
Q 944 2744 944 2047
Q 944 1472 1128 1050
Q 1313 628 1683 403
Q 2053 178 2528 178
Q 2941 178 3256 354
Q 3572 531 3950 1056
L 4047 994
Q 3728 428 3303 165
Q 2878 -97 2294 -97
Q 1241 -97 663 684
Q 231 1266 231 2053
Q 231 2688 515 3219
Q 800 3750 1298 4042
Q 1797 4334 2388 4334
Q 2847 4334 3294 4109
Q 3425 4041 3481 4041
Q 3566 4041 3628 4100
Q 3709 4184 3744 4334
L 3853 4334
z
" transform="scale(0.015625)"/>
        <path id="TimesNewRomanPSMT-10" d="M 259 1672
L 1875 1672
L 1875 1200
L 259 1200
L 259 1672
z
" transform="scale(0.015625)"/>
        <path id="TimesNewRomanPSMT-14" d="M 750 3822
L 1781 4325
L 1884 4325
L 1884 747
Q 1884 391 1914 303
Q 1944 216 2037 169
Q 2131 122 2419 116
L 2419 0
L 825 0
L 825 116
Q 1125 122 1212 167
Q 1300 213 1334 289
Q 1369 366 1369 747
L 1369 3034
Q 1369 3497 1338 3628
Q 1316 3728 1258 3775
Q 1200 3822 1119 3822
Q 1003 3822 797 3725
L 750 3822
z
" transform="scale(0.015625)"/>
        <path id="TimesNewRomanPSMT-13" d="M 231 2094
Q 231 2819 450 3342
Q 669 3866 1031 4122
Q 1313 4325 1613 4325
Q 2100 4325 2488 3828
Q 2972 3213 2972 2159
Q 2972 1422 2759 906
Q 2547 391 2217 158
Q 1888 -75 1581 -75
Q 975 -75 572 641
Q 231 1244 231 2094
z
M 844 2016
Q 844 1141 1059 588
Q 1238 122 1591 122
Q 1759 122 1940 273
Q 2122 425 2216 781
Q 2359 1319 2359 2297
Q 2359 3022 2209 3506
Q 2097 3866 1919 4016
Q 1791 4119 1609 4119
Q 1397 4119 1231 3928
Q 1006 3669 925 3112
Q 844 2556 844 2016
z
" transform="scale(0.015625)"/>
        <path id="TimesNewRomanPSMT-3" transform="scale(0.015625)"/>
        <path id="TimesNewRomanPSMT-b" d="M 1988 -1253
L 1988 -1369
Q 1516 -1131 1200 -813
Q 750 -359 506 256
Q 263 872 263 1534
Q 263 2503 741 3301
Q 1219 4100 1988 4444
L 1988 4313
Q 1603 4100 1356 3731
Q 1109 3363 987 2797
Q 866 2231 866 1616
Q 866 947 969 400
Q 1050 -31 1165 -292
Q 1281 -553 1476 -793
Q 1672 -1034 1988 -1253
z
" transform="scale(0.015625)"/>
        <path id="TimesNewRomanPSMT-56" d="M 2050 2947
L 2050 1972
L 1947 1972
Q 1828 2431 1642 2597
Q 1456 2763 1169 2763
Q 950 2763 815 2647
Q 681 2531 681 2391
Q 681 2216 781 2091
Q 878 1963 1175 1819
L 1631 1597
Q 2266 1288 2266 781
Q 2266 391 1970 151
Q 1675 -88 1309 -88
Q 1047 -88 709 6
Q 606 38 541 38
Q 469 38 428 -44
L 325 -44
L 325 978
L 428 978
Q 516 541 762 319
Q 1009 97 1316 97
Q 1531 97 1667 223
Q 1803 350 1803 528
Q 1803 744 1651 891
Q 1500 1038 1047 1263
Q 594 1488 453 1669
Q 313 1847 313 2119
Q 313 2472 555 2709
Q 797 2947 1181 2947
Q 1350 2947 1591 2875
Q 1750 2828 1803 2828
Q 1853 2828 1881 2850
Q 1909 2872 1947 2947
L 2050 2947
z
" transform="scale(0.015625)"/>
        <path id="TimesNewRomanPSMT-5c" d="M 38 2863
L 1372 2863
L 1372 2747
L 1306 2747
Q 1166 2747 1095 2686
Q 1025 2625 1025 2534
Q 1025 2413 1128 2197
L 1825 753
L 2466 2334
Q 2519 2463 2519 2588
Q 2519 2644 2497 2672
Q 2472 2706 2419 2726
Q 2366 2747 2231 2747
L 2231 2863
L 3163 2863
L 3163 2747
Q 3047 2734 2984 2696
Q 2922 2659 2847 2556
Q 2819 2513 2741 2316
L 1575 -541
Q 1406 -956 1132 -1168
Q 859 -1381 606 -1381
Q 422 -1381 303 -1275
Q 184 -1169 184 -1031
Q 184 -900 270 -820
Q 356 -741 506 -741
Q 609 -741 788 -809
Q 913 -856 944 -856
Q 1038 -856 1148 -759
Q 1259 -663 1372 -384
L 1575 113
L 547 2272
Q 500 2369 397 2513
Q 319 2622 269 2659
Q 197 2709 38 2747
L 38 2863
z
" transform="scale(0.015625)"/>
        <path id="TimesNewRomanPSMT-51" d="M 1034 2341
Q 1538 2947 1994 2947
Q 2228 2947 2397 2830
Q 2566 2713 2666 2444
Q 2734 2256 2734 1869
L 2734 647
Q 2734 375 2778 278
Q 2813 200 2889 156
Q 2966 113 3172 113
L 3172 0
L 1756 0
L 1756 113
L 1816 113
Q 2016 113 2095 173
Q 2175 234 2206 353
Q 2219 400 2219 647
L 2219 1819
Q 2219 2209 2117 2386
Q 2016 2563 1775 2563
Q 1403 2563 1034 2156
L 1034 647
Q 1034 356 1069 288
Q 1113 197 1189 155
Q 1266 113 1500 113
L 1500 0
L 84 0
L 84 113
L 147 113
Q 366 113 442 223
Q 519 334 519 647
L 519 1709
Q 519 2225 495 2337
Q 472 2450 423 2490
Q 375 2531 294 2531
Q 206 2531 84 2484
L 38 2597
L 900 2947
L 1034 2947
L 1034 2341
z
" transform="scale(0.015625)"/>
        <path id="TimesNewRomanPSMT-c" d="M 144 4313
L 144 4444
Q 619 4209 934 3891
Q 1381 3434 1625 2820
Q 1869 2206 1869 1541
Q 1869 572 1392 -226
Q 916 -1025 144 -1369
L 144 -1253
Q 528 -1038 776 -670
Q 1025 -303 1145 264
Q 1266 831 1266 1447
Q 1266 2113 1163 2663
Q 1084 3094 967 3353
Q 850 3613 656 3853
Q 463 4094 144 4313
z
" transform="scale(0.015625)"/>
       </defs>
       <use xlink:href="#TimesNewRomanPSMT-29"/>
       <use xlink:href="#TimesNewRomanPSMT-2c" transform="translate(55.609375 0)"/>
       <use xlink:href="#TimesNewRomanPSMT-26" transform="translate(88.90625 0)"/>
       <use xlink:href="#TimesNewRomanPSMT-10" transform="translate(155.609375 0)"/>
       <use xlink:href="#TimesNewRomanPSMT-14" transform="translate(188.90625 0)"/>
       <use xlink:href="#TimesNewRomanPSMT-13" transform="translate(238.90625 0)"/>
       <use xlink:href="#TimesNewRomanPSMT-13" transform="translate(288.90625 0)"/>
       <use xlink:href="#TimesNewRomanPSMT-3" transform="translate(338.90625 0)"/>
       <use xlink:href="#TimesNewRomanPSMT-b" transform="translate(363.90625 0)"/>
       <use xlink:href="#TimesNewRomanPSMT-56" transform="translate(397.203125 0)"/>
       <use xlink:href="#TimesNewRomanPSMT-5c" transform="translate(436.125 0)"/>
       <use xlink:href="#TimesNewRomanPSMT-51" transform="translate(486.125 0)"/>
       <use xlink:href="#TimesNewRomanPSMT-c" transform="translate(536.125 0)"/>
      </g>
     </g>
    </g>
    <g id="xtick_2">
     <g id="line2d_3">
      <path d="M 344.642422 296.713617
L 344.642422 13.68
" clip-path="url(#p5680e73be8)" style="fill: none; stroke: #b0b0b0; stroke-opacity: 0.3; stroke-width: 0.8; stroke-linecap: square"/>
     </g>
     <g id="line2d_4">
      <g>
       <use xlink:href="#mf85efa0b9e" x="344.642422" y="296.713617" style="stroke: #000000; stroke-width: 0.8"/>
      </g>
     </g>
     <g id="text_2">
      <!-- LIC-100 (TLC) -->
      <g transform="translate(313.401016 307.157367) scale(0.1 -0.1)">
       <defs>
        <path id="TimesNewRomanPSMT-2f" d="M 3669 1172
L 3772 1150
L 3409 0
L 128 0
L 128 116
L 288 116
Q 556 116 672 291
Q 738 391 738 753
L 738 3488
Q 738 3884 650 3984
Q 528 4122 288 4122
L 128 4122
L 128 4238
L 2047 4238
L 2047 4122
Q 1709 4125 1573 4059
Q 1438 3994 1388 3894
Q 1338 3794 1338 3416
L 1338 753
Q 1338 494 1388 397
Q 1425 331 1503 300
Q 1581 269 1991 269
L 2300 269
Q 2788 269 2984 341
Q 3181 413 3343 595
Q 3506 778 3669 1172
z
" transform="scale(0.015625)"/>
        <path id="TimesNewRomanPSMT-37" d="M 3703 4238
L 3750 3244
L 3631 3244
Q 3597 3506 3538 3619
Q 3441 3800 3280 3886
Q 3119 3972 2856 3972
L 2259 3972
L 2259 734
Q 2259 344 2344 247
Q 2463 116 2709 116
L 2856 116
L 2856 0
L 1059 0
L 1059 116
L 1209 116
Q 1478 116 1591 278
Q 1659 378 1659 734
L 1659 3972
L 1150 3972
Q 853 3972 728 3928
Q 566 3869 450 3700
Q 334 3531 313 3244
L 194 3244
L 244 4238
L 3703 4238
z
" transform="scale(0.015625)"/>
       </defs>
       <use xlink:href="#TimesNewRomanPSMT-2f"/>
       <use xlink:href="#TimesNewRomanPSMT-2c" transform="translate(61.078125 0)"/>
       <use xlink:href="#TimesNewRomanPSMT-26" transform="translate(94.375 0)"/>
       <use xlink:href="#TimesNewRomanPSMT-10" transform="translate(161.078125 0)"/>
       <use xlink:href="#TimesNewRomanPSMT-14" transform="translate(194.375 0)"/>
       <use xlink:href="#TimesNewRomanPSMT-13" transform="translate(244.375 0)"/>
       <use xlink:href="#TimesNewRomanPSMT-13" transform="translate(294.375 0)"/>
       <use xlink:href="#TimesNewRomanPSMT-3" transform="translate(344.375 0)"/>
       <use xlink:href="#TimesNewRomanPSMT-b" transform="translate(369.375 0)"/>
       <use xlink:href="#TimesNewRomanPSMT-37" transform="translate(402.671875 0)"/>
       <use xlink:href="#TimesNewRomanPSMT-2f" transform="translate(463.75 0)"/>
       <use xlink:href="#TimesNewRomanPSMT-26" transform="translate(524.828125 0)"/>
       <use xlink:href="#TimesNewRomanPSMT-c" transform="translate(591.53125 0)"/>
      </g>
     </g>
    </g>
    <g id="xtick_3">
     <g id="line2d_5">
      <path d="M 541.166044 296.713617
L 541.166044 13.68
" clip-path="url(#p5680e73be8)" style="fill: none; stroke: #b0b0b0; stroke-opacity: 0.3; stroke-width: 0.8; stroke-linecap: square"/>
     </g>
     <g id="line2d_6">
      <g>
       <use xlink:href="#mf85efa0b9e" x="541.166044" y="296.713617" style="stroke: #000000; stroke-width: 0.8"/>
      </g>
     </g>
     <g id="text_3">
      <!-- TIC-100 (QDR) -->
      <g transform="translate(508.810575 307.157367) scale(0.1 -0.1)">
       <defs>
        <path id="TimesNewRomanPSMT-34" d="M 2819 -47
Q 3138 -597 3508 -856
Q 3878 -1116 4350 -1153
L 4350 -1253
Q 3919 -1238 3428 -1080
Q 2938 -922 2498 -642
Q 2059 -363 1741 -47
Q 1291 134 1028 338
Q 647 641 436 1083
Q 225 1525 225 2128
Q 225 3078 840 3706
Q 1456 4334 2331 4334
Q 3163 4334 3770 3704
Q 4378 3075 4378 2116
Q 4378 1338 3945 750
Q 3513 163 2819 -47
z
M 2294 4094
Q 1725 4094 1378 3688
Q 941 3178 941 2128
Q 941 1100 1384 544
Q 1728 116 2294 116
Q 2881 116 3241 544
Q 3663 1050 3663 2038
Q 3663 2797 3431 3316
Q 3253 3716 2958 3905
Q 2663 4094 2294 4094
z
" transform="scale(0.015625)"/>
        <path id="TimesNewRomanPSMT-27" d="M 109 0
L 109 116
L 269 116
Q 538 116 650 288
Q 719 391 719 750
L 719 3488
Q 719 3884 631 3984
Q 509 4122 269 4122
L 109 4122
L 109 4238
L 1834 4238
Q 2784 4238 3279 4022
Q 3775 3806 4076 3303
Q 4378 2800 4378 2141
Q 4378 1256 3841 663
Q 3238 0 2003 0
L 109 0
z
M 1319 306
Q 1716 219 1984 219
Q 2709 219 3187 728
Q 3666 1238 3666 2109
Q 3666 2988 3187 3494
Q 2709 4000 1959 4000
Q 1678 4000 1319 3909
L 1319 306
z
" transform="scale(0.015625)"/>
        <path id="TimesNewRomanPSMT-35" d="M 4325 0
L 3194 0
L 1759 1981
Q 1600 1975 1500 1975
Q 1459 1975 1412 1976
Q 1366 1978 1316 1981
L 1316 750
Q 1316 350 1403 253
Q 1522 116 1759 116
L 1925 116
L 1925 0
L 109 0
L 109 116
L 269 116
Q 538 116 653 291
Q 719 388 719 750
L 719 3488
Q 719 3888 631 3984
Q 509 4122 269 4122
L 109 4122
L 109 4238
L 1653 4238
Q 2328 4238 2648 4139
Q 2969 4041 3192 3777
Q 3416 3513 3416 3147
Q 3416 2756 3161 2468
Q 2906 2181 2372 2063
L 3247 847
Q 3547 428 3762 290
Q 3978 153 4325 116
L 4325 0
z
M 1316 2178
Q 1375 2178 1419 2176
Q 1463 2175 1491 2175
Q 2097 2175 2405 2437
Q 2713 2700 2713 3106
Q 2713 3503 2464 3751
Q 2216 4000 1806 4000
Q 1625 4000 1316 3941
L 1316 2178
z
" transform="scale(0.015625)"/>
       </defs>
       <use xlink:href="#TimesNewRomanPSMT-37"/>
       <use xlink:href="#TimesNewRomanPSMT-2c" transform="translate(61.078125 0)"/>
       <use xlink:href="#TimesNewRomanPSMT-26" transform="translate(94.375 0)"/>
       <use xlink:href="#TimesNewRomanPSMT-10" transform="translate(161.078125 0)"/>
       <use xlink:href="#TimesNewRomanPSMT-14" transform="translate(194.375 0)"/>
       <use xlink:href="#TimesNewRomanPSMT-13" transform="translate(244.375 0)"/>
       <use xlink:href="#TimesNewRomanPSMT-13" transform="translate(294.375 0)"/>
       <use xlink:href="#TimesNewRomanPSMT-3" transform="translate(344.375 0)"/>
       <use xlink:href="#TimesNewRomanPSMT-b" transform="translate(369.375 0)"/>
       <use xlink:href="#TimesNewRomanPSMT-34" transform="translate(402.671875 0)"/>
       <use xlink:href="#TimesNewRomanPSMT-27" transform="translate(474.890625 0)"/>
       <use xlink:href="#TimesNewRomanPSMT-35" transform="translate(547.109375 0)"/>
       <use xlink:href="#TimesNewRomanPSMT-c" transform="translate(613.8125 0)"/>
      </g>
     </g>
    </g>
    <g id="text_4">
     <!-- Controller / Tuning Scenario -->
     <g transform="translate(271.351484 325.44932) scale(0.12 -0.12)">
      <defs>
       <path id="TimesNewRomanPS-BoldMT-26" d="M 4272 4334
L 4272 2866
L 4150 2866
Q 4013 3441 3638 3747
Q 3263 4053 2788 4053
Q 2391 4053 2059 3825
Q 1728 3597 1575 3228
Q 1378 2756 1378 2178
Q 1378 1609 1522 1142
Q 1666 675 1972 436
Q 2278 197 2766 197
Q 3166 197 3498 372
Q 3831 547 4200 975
L 4200 609
Q 3844 238 3458 70
Q 3072 -97 2556 -97
Q 1878 -97 1351 175
Q 825 447 539 956
Q 253 1466 253 2041
Q 253 2647 570 3190
Q 888 3734 1427 4034
Q 1966 4334 2572 4334
Q 3019 4334 3516 4141
Q 3803 4028 3881 4028
Q 3981 4028 4054 4101
Q 4128 4175 4150 4334
L 4272 4334
z
" transform="scale(0.015625)"/>
       <path id="TimesNewRomanPS-BoldMT-52" d="M 1594 3009
Q 1975 3009 2303 2812
Q 2631 2616 2801 2253
Q 2972 1891 2972 1459
Q 2972 838 2656 419
Q 2275 -88 1603 -88
Q 944 -88 587 375
Q 231 838 231 1447
Q 231 2075 595 2542
Q 959 3009 1594 3009
z
M 1606 2788
Q 1447 2788 1333 2667
Q 1219 2547 1183 2192
Q 1147 1838 1147 1206
Q 1147 872 1191 581
Q 1225 359 1337 243
Q 1450 128 1594 128
Q 1734 128 1828 206
Q 1950 313 1991 503
Q 2053 800 2053 1703
Q 2053 2234 1993 2432
Q 1934 2631 1819 2722
Q 1738 2788 1606 2788
z
" transform="scale(0.015625)"/>
       <path id="TimesNewRomanPS-BoldMT-51" d="M 1409 2922
L 1409 2544
Q 1634 2788 1840 2898
Q 2047 3009 2284 3009
Q 2569 3009 2756 2851
Q 2944 2694 3006 2459
Q 3056 2281 3056 1775
L 3056 638
Q 3056 300 3117 217
Q 3178 134 3372 113
L 3372 0
L 1894 0
L 1894 113
Q 2059 134 2131 250
Q 2181 328 2181 638
L 2181 1938
Q 2181 2297 2153 2390
Q 2125 2484 2058 2536
Q 1991 2588 1909 2588
Q 1641 2588 1409 2203
L 1409 638
Q 1409 309 1470 221
Q 1531 134 1697 113
L 1697 0
L 219 0
L 219 113
Q 403 131 481 231
Q 534 300 534 638
L 534 2288
Q 534 2619 473 2700
Q 413 2781 219 2806
L 219 2922
L 1409 2922
z
" transform="scale(0.015625)"/>
       <path id="TimesNewRomanPS-BoldMT-57" d="M 1375 3991
L 1375 2922
L 2069 2922
L 2069 2613
L 1375 2613
L 1375 809
Q 1375 556 1398 482
Q 1422 409 1481 364
Q 1541 319 1591 319
Q 1794 319 1975 628
L 2069 559
Q 1816 -41 1247 -41
Q 969 -41 776 114
Q 584 269 531 459
Q 500 566 500 1034
L 500 2613
L 119 2613
L 119 2722
Q 513 3000 789 3306
Q 1066 3613 1272 3991
L 1375 3991
z
" transform="scale(0.015625)"/>
       <path id="TimesNewRomanPS-BoldMT-55" d="M 1428 2922
L 1428 2259
Q 1719 2713 1937 2861
Q 2156 3009 2359 3009
Q 2534 3009 2639 2901
Q 2744 2794 2744 2597
Q 2744 2388 2642 2272
Q 2541 2156 2397 2156
Q 2231 2156 2109 2262
Q 1988 2369 1966 2381
Q 1934 2400 1894 2400
Q 1803 2400 1722 2331
Q 1594 2225 1528 2028
Q 1428 1725 1428 1359
L 1428 688
L 1431 513
Q 1431 334 1453 284
Q 1491 200 1564 161
Q 1638 122 1813 113
L 1813 0
L 234 0
L 234 113
Q 425 128 492 217
Q 559 306 559 688
L 559 2303
Q 559 2553 534 2622
Q 503 2709 443 2750
Q 384 2791 234 2806
L 234 2922
L 1428 2922
z
" transform="scale(0.015625)"/>
       <path id="TimesNewRomanPS-BoldMT-4f" d="M 1359 4238
L 1359 606
Q 1359 297 1431 211
Q 1503 125 1713 113
L 1713 0
L 134 0
L 134 113
Q 328 119 422 225
Q 484 297 484 606
L 484 3631
Q 484 3938 412 4023
Q 341 4109 134 4122
L 134 4238
L 1359 4238
z
" transform="scale(0.015625)"/>
       <path id="TimesNewRomanPS-BoldMT-48" d="M 2691 1566
L 1088 1566
Q 1116 984 1397 647
Q 1613 388 1916 388
Q 2103 388 2256 492
Q 2409 597 2584 869
L 2691 800
Q 2453 316 2165 114
Q 1878 -88 1500 -88
Q 850 -88 516 413
Q 247 816 247 1413
Q 247 2144 642 2576
Q 1038 3009 1569 3009
Q 2013 3009 2339 2645
Q 2666 2281 2691 1566
z
M 1922 1775
Q 1922 2278 1867 2465
Q 1813 2653 1697 2750
Q 1631 2806 1522 2806
Q 1359 2806 1256 2647
Q 1072 2369 1072 1884
L 1072 1775
L 1922 1775
z
" transform="scale(0.015625)"/>
       <path id="TimesNewRomanPS-BoldMT-3" transform="scale(0.015625)"/>
       <path id="TimesNewRomanPS-BoldMT-12" d="M 1797 4334
L 406 -97
L 6 -97
L 1403 4334
L 1797 4334
z
" transform="scale(0.015625)"/>
       <path id="TimesNewRomanPS-BoldMT-37" d="M 4038 4238
L 4038 3091
L 3925 3091
Q 3825 3488 3703 3661
Q 3581 3834 3369 3938
Q 3250 3994 2953 3994
L 2638 3994
L 2638 725
Q 2638 400 2673 319
Q 2709 238 2814 177
Q 2919 116 3100 116
L 3241 116
L 3241 0
L 1022 0
L 1022 116
L 1163 116
Q 1347 116 1459 181
Q 1541 225 1588 331
Q 1622 406 1622 725
L 1622 3994
L 1316 3994
Q 888 3994 694 3813
Q 422 3559 350 3091
L 231 3091
L 231 4238
L 4038 4238
z
" transform="scale(0.015625)"/>
       <path id="TimesNewRomanPS-BoldMT-58" d="M 3038 2922
L 3038 634
Q 3038 300 3100 217
Q 3163 134 3353 113
L 3353 0
L 2163 0
L 2163 391
Q 1953 141 1743 26
Q 1534 -88 1275 -88
Q 1028 -88 836 64
Q 644 216 578 419
Q 513 622 513 1128
L 513 2288
Q 513 2619 452 2700
Q 391 2781 197 2806
L 197 2922
L 1388 2922
L 1388 925
Q 1388 613 1417 522
Q 1447 431 1511 384
Q 1575 338 1659 338
Q 1772 338 1863 397
Q 1988 478 2163 725
L 2163 2288
Q 2163 2619 2102 2700
Q 2041 2781 1847 2806
L 1847 2922
L 3038 2922
z
" transform="scale(0.015625)"/>
       <path id="TimesNewRomanPS-BoldMT-4c" d="M 919 4338
Q 1122 4338 1262 4195
Q 1403 4053 1403 3853
Q 1403 3653 1261 3512
Q 1119 3372 919 3372
Q 719 3372 578 3512
Q 438 3653 438 3853
Q 438 4053 578 4195
Q 719 4338 919 4338
z
M 1356 2922
L 1356 606
Q 1356 297 1428 211
Q 1500 125 1709 113
L 1709 0
L 131 0
L 131 113
Q 325 119 419 225
Q 481 297 481 606
L 481 2313
Q 481 2622 409 2708
Q 338 2794 131 2806
L 131 2922
L 1356 2922
z
" transform="scale(0.015625)"/>
       <path id="TimesNewRomanPS-BoldMT-4a" d="M 2091 2888
L 3075 2888
L 3075 2544
L 2516 2544
Q 2669 2391 2728 2266
Q 2803 2097 2803 1913
Q 2803 1600 2629 1370
Q 2456 1141 2157 1011
Q 1859 881 1628 881
Q 1609 881 1253 897
Q 1113 897 1017 805
Q 922 713 922 584
Q 922 472 1008 400
Q 1094 328 1288 328
L 1828 334
Q 2484 334 2731 191
Q 3084 -9 3084 -425
Q 3084 -691 2921 -908
Q 2759 -1125 2494 -1228
Q 2091 -1381 1566 -1381
Q 1172 -1381 847 -1304
Q 522 -1228 381 -1092
Q 241 -956 241 -806
Q 241 -663 348 -548
Q 456 -434 750 -356
Q 344 -156 344 200
Q 344 416 509 619
Q 675 822 1034 972
Q 616 1125 428 1375
Q 241 1625 241 1953
Q 241 2381 591 2695
Q 941 3009 1491 3009
Q 1781 3009 2091 2888
z
M 1550 2816
Q 1369 2816 1244 2633
Q 1119 2450 1119 1875
Q 1119 1409 1242 1236
Q 1366 1063 1534 1063
Q 1722 1063 1847 1234
Q 1972 1406 1972 1903
Q 1972 2463 1831 2666
Q 1731 2816 1550 2816
z
M 1366 -431
Q 1047 -431 944 -484
Q 766 -581 766 -747
Q 766 -906 950 -1036
Q 1134 -1166 1644 -1166
Q 2078 -1166 2326 -1050
Q 2575 -934 2575 -725
Q 2575 -647 2528 -594
Q 2444 -500 2273 -465
Q 2103 -431 1366 -431
z
" transform="scale(0.015625)"/>
       <path id="TimesNewRomanPS-BoldMT-36" d="M 3006 4334
L 3041 2922
L 2913 2922
Q 2822 3453 2467 3776
Q 2113 4100 1700 4100
Q 1381 4100 1195 3929
Q 1009 3759 1009 3538
Q 1009 3397 1075 3288
Q 1166 3141 1366 2997
Q 1513 2894 2044 2631
Q 2788 2266 3047 1941
Q 3303 1616 3303 1197
Q 3303 666 2889 283
Q 2475 -100 1838 -100
Q 1638 -100 1459 -59
Q 1281 -19 1013 94
Q 863 156 766 156
Q 684 156 593 93
Q 503 31 447 -97
L 331 -97
L 331 1503
L 447 1503
Q 584 828 976 473
Q 1369 119 1822 119
Q 2172 119 2380 309
Q 2588 500 2588 753
Q 2588 903 2508 1043
Q 2428 1184 2265 1311
Q 2103 1438 1691 1641
Q 1113 1925 859 2125
Q 606 2325 470 2572
Q 334 2819 334 3116
Q 334 3622 706 3978
Q 1078 4334 1644 4334
Q 1850 4334 2044 4284
Q 2191 4247 2402 4145
Q 2613 4044 2697 4044
Q 2778 4044 2825 4094
Q 2872 4144 2913 4334
L 3006 4334
z
" transform="scale(0.015625)"/>
       <path id="TimesNewRomanPS-BoldMT-46" d="M 2600 753
L 2697 678
Q 2491 291 2183 101
Q 1875 -88 1528 -88
Q 944 -88 594 353
Q 244 794 244 1413
Q 244 2009 563 2463
Q 947 3009 1622 3009
Q 2075 3009 2342 2781
Q 2609 2553 2609 2272
Q 2609 2094 2501 1987
Q 2394 1881 2219 1881
Q 2034 1881 1914 2003
Q 1794 2125 1766 2438
Q 1747 2634 1675 2713
Q 1603 2791 1506 2791
Q 1356 2791 1250 2631
Q 1088 2391 1088 1894
Q 1088 1481 1219 1104
Q 1350 728 1578 544
Q 1750 409 1984 409
Q 2138 409 2275 481
Q 2413 553 2600 753
z
" transform="scale(0.015625)"/>
       <path id="TimesNewRomanPS-BoldMT-44" d="M 1828 431
Q 1294 -41 869 -41
Q 619 -41 453 123
Q 288 288 288 534
Q 288 869 575 1136
Q 863 1403 1828 1847
L 1828 2141
Q 1828 2472 1792 2558
Q 1756 2644 1656 2708
Q 1556 2772 1431 2772
Q 1228 2772 1097 2681
Q 1016 2625 1016 2550
Q 1016 2484 1103 2388
Q 1222 2253 1222 2128
Q 1222 1975 1108 1867
Q 994 1759 809 1759
Q 613 1759 480 1878
Q 347 1997 347 2156
Q 347 2381 525 2586
Q 703 2791 1022 2900
Q 1341 3009 1684 3009
Q 2100 3009 2342 2832
Q 2584 2656 2656 2450
Q 2700 2319 2700 1847
L 2700 713
Q 2700 513 2715 461
Q 2731 409 2762 384
Q 2794 359 2834 359
Q 2916 359 3000 475
L 3094 400
Q 2938 169 2770 64
Q 2603 -41 2391 -41
Q 2141 -41 2000 76
Q 1859 194 1828 431
z
M 1828 659
L 1828 1638
Q 1450 1416 1266 1163
Q 1144 994 1144 822
Q 1144 678 1247 569
Q 1325 484 1466 484
Q 1622 484 1828 659
z
" transform="scale(0.015625)"/>
      </defs>
      <use xlink:href="#TimesNewRomanPS-BoldMT-26"/>
      <use xlink:href="#TimesNewRomanPS-BoldMT-52" transform="translate(72.21875 0)"/>
      <use xlink:href="#TimesNewRomanPS-BoldMT-51" transform="translate(122.21875 0)"/>
      <use xlink:href="#TimesNewRomanPS-BoldMT-57" transform="translate(177.828125 0)"/>
      <use xlink:href="#TimesNewRomanPS-BoldMT-55" transform="translate(211.125 0)"/>
      <use xlink:href="#TimesNewRomanPS-BoldMT-52" transform="translate(253.703125 0)"/>
      <use xlink:href="#TimesNewRomanPS-BoldMT-4f" transform="translate(303.703125 0)"/>
      <use xlink:href="#TimesNewRomanPS-BoldMT-4f" transform="translate(331.484375 0)"/>
      <use xlink:href="#TimesNewRomanPS-BoldMT-48" transform="translate(359.265625 0)"/>
      <use xlink:href="#TimesNewRomanPS-BoldMT-55" transform="translate(403.65625 0)"/>
      <use xlink:href="#TimesNewRomanPS-BoldMT-3" transform="translate(446.234375 0)"/>
      <use xlink:href="#TimesNewRomanPS-BoldMT-12" transform="translate(471.234375 0)"/>
      <use xlink:href="#TimesNewRomanPS-BoldMT-3" transform="translate(499.015625 0)"/>
      <use xlink:href="#TimesNewRomanPS-BoldMT-37" transform="translate(522.203125 0)"/>
      <use xlink:href="#TimesNewRomanPS-BoldMT-58" transform="translate(579.734375 0)"/>
      <use xlink:href="#TimesNewRomanPS-BoldMT-51" transform="translate(635.34375 0)"/>
      <use xlink:href="#TimesNewRomanPS-BoldMT-4c" transform="translate(690.953125 0)"/>
      <use xlink:href="#TimesNewRomanPS-BoldMT-51" transform="translate(718.734375 0)"/>
      <use xlink:href="#TimesNewRomanPS-BoldMT-4a" transform="translate(774.34375 0)"/>
      <use xlink:href="#TimesNewRomanPS-BoldMT-3" transform="translate(824.34375 0)"/>
      <use xlink:href="#TimesNewRomanPS-BoldMT-36" transform="translate(849.34375 0)"/>
      <use xlink:href="#TimesNewRomanPS-BoldMT-46" transform="translate(904.953125 0)"/>
      <use xlink:href="#TimesNewRomanPS-BoldMT-48" transform="translate(949.34375 0)"/>
      <use xlink:href="#TimesNewRomanPS-BoldMT-51" transform="translate(993.734375 0)"/>
      <use xlink:href="#TimesNewRomanPS-BoldMT-44" transform="translate(1049.34375 0)"/>
      <use xlink:href="#TimesNewRomanPS-BoldMT-55" transform="translate(1099.34375 0)"/>
      <use xlink:href="#TimesNewRomanPS-BoldMT-4c" transform="translate(1143.734375 0)"/>
      <use xlink:href="#TimesNewRomanPS-BoldMT-52" transform="translate(1171.515625 0)"/>
     </g>
    </g>
   </g>
   <g id="matplotlib.axis_2">
    <g id="ytick_1">
     <g id="line2d_7">
      <path d="M 52.804844 296.713617
L 636.48 296.713617
" clip-path="url(#p5680e73be8)" style="fill: none; stroke: #b0b0b0; stroke-opacity: 0.3; stroke-width: 0.8; stroke-linecap: square"/>
     </g>
     <g id="line2d_8">
      <defs>
       <path id="m18392290ca" d="M 0 0
L 3.5 0
" style="stroke: #000000; stroke-width: 0.8"/>
      </defs>
      <g>
       <use xlink:href="#m18392290ca" x="52.804844" y="296.713617" style="stroke: #000000; stroke-width: 0.8"/>
      </g>
     </g>
     <g id="text_5">
      <!-- 0.00 -->
      <g transform="translate(31.804844 300.180414) scale(0.1 -0.1)">
       <defs>
        <path id="TimesNewRomanPSMT-11" d="M 800 606
Q 947 606 1047 504
Q 1147 403 1147 259
Q 1147 116 1045 14
Q 944 -88 800 -88
Q 656 -88 554 14
Q 453 116 453 259
Q 453 406 554 506
Q 656 606 800 606
z
" transform="scale(0.015625)"/>
       </defs>
       <use xlink:href="#TimesNewRomanPSMT-13"/>
       <use xlink:href="#TimesNewRomanPSMT-11" transform="translate(50 0)"/>
       <use xlink:href="#TimesNewRomanPSMT-13" transform="translate(75 0)"/>
       <use xlink:href="#TimesNewRomanPSMT-13" transform="translate(125 0)"/>
      </g>
     </g>
    </g>
    <g id="ytick_2">
     <g id="line2d_9">
      <path d="M 52.804844 264.603354
L 636.48 264.603354
" clip-path="url(#p5680e73be8)" style="fill: none; stroke: #b0b0b0; stroke-opacity: 0.3; stroke-width: 0.8; stroke-linecap: square"/>
     </g>
     <g id="line2d_10">
      <g>
       <use xlink:href="#m18392290ca" x="52.804844" y="264.603354" style="stroke: #000000; stroke-width: 0.8"/>
      </g>
     </g>
     <g id="text_6">
      <!-- 0.02 -->
      <g transform="translate(31.804844 268.070151) scale(0.1 -0.1)">
       <defs>
        <path id="TimesNewRomanPSMT-15" d="M 2934 816
L 2638 0
L 138 0
L 138 116
Q 1241 1122 1691 1759
Q 2141 2397 2141 2925
Q 2141 3328 1894 3587
Q 1647 3847 1303 3847
Q 991 3847 742 3664
Q 494 3481 375 3128
L 259 3128
Q 338 3706 661 4015
Q 984 4325 1469 4325
Q 1984 4325 2329 3994
Q 2675 3663 2675 3213
Q 2675 2891 2525 2569
Q 2294 2063 1775 1497
Q 997 647 803 472
L 1909 472
Q 2247 472 2383 497
Q 2519 522 2628 598
Q 2738 675 2819 816
L 2934 816
z
" transform="scale(0.015625)"/>
       </defs>
       <use xlink:href="#TimesNewRomanPSMT-13"/>
       <use xlink:href="#TimesNewRomanPSMT-11" transform="translate(50 0)"/>
       <use xlink:href="#TimesNewRomanPSMT-13" transform="translate(75 0)"/>
       <use xlink:href="#TimesNewRomanPSMT-15" transform="translate(125 0)"/>
      </g>
     </g>
    </g>
    <g id="ytick_3">
     <g id="line2d_11">
      <path d="M 52.804844 232.493092
L 636.48 232.493092
" clip-path="url(#p5680e73be8)" style="fill: none; stroke: #b0b0b0; stroke-opacity: 0.3; stroke-width: 0.8; stroke-linecap: square"/>
     </g>
     <g id="line2d_12">
      <g>
       <use xlink:href="#m18392290ca" x="52.804844" y="232.493092" style="stroke: #000000; stroke-width: 0.8"/>
      </g>
     </g>
     <g id="text_7">
      <!-- 0.04 -->
      <g transform="translate(31.804844 235.959889) scale(0.1 -0.1)">
       <defs>
        <path id="TimesNewRomanPSMT-17" d="M 2978 1563
L 2978 1119
L 2409 1119
L 2409 0
L 1894 0
L 1894 1119
L 100 1119
L 100 1519
L 2066 4325
L 2409 4325
L 2409 1563
L 2978 1563
z
M 1894 1563
L 1894 3666
L 406 1563
L 1894 1563
z
" transform="scale(0.015625)"/>
       </defs>
       <use xlink:href="#TimesNewRomanPSMT-13"/>
       <use xlink:href="#TimesNewRomanPSMT-11" transform="translate(50 0)"/>
       <use xlink:href="#TimesNewRomanPSMT-13" transform="translate(75 0)"/>
       <use xlink:href="#TimesNewRomanPSMT-17" transform="translate(125 0)"/>
      </g>
     </g>
    </g>
    <g id="ytick_4">
     <g id="line2d_13">
      <path d="M 52.804844 200.382829
L 636.48 200.382829
" clip-path="url(#p5680e73be8)" style="fill: none; stroke: #b0b0b0; stroke-opacity: 0.3; stroke-width: 0.8; stroke-linecap: square"/>
     </g>
     <g id="line2d_14">
      <g>
       <use xlink:href="#m18392290ca" x="52.804844" y="200.382829" style="stroke: #000000; stroke-width: 0.8"/>
      </g>
     </g>
     <g id="text_8">
      <!-- 0.06 -->
      <g transform="translate(31.804844 203.849626) scale(0.1 -0.1)">
       <defs>
        <path id="TimesNewRomanPSMT-19" d="M 2869 4325
L 2869 4209
Q 2456 4169 2195 4045
Q 1934 3922 1679 3669
Q 1425 3416 1258 3105
Q 1091 2794 978 2366
Q 1428 2675 1881 2675
Q 2316 2675 2634 2325
Q 2953 1975 2953 1425
Q 2953 894 2631 456
Q 2244 -75 1606 -75
Q 1172 -75 869 213
Q 275 772 275 1663
Q 275 2231 503 2743
Q 731 3256 1154 3653
Q 1578 4050 1965 4187
Q 2353 4325 2688 4325
L 2869 4325
z
M 925 2138
Q 869 1716 869 1456
Q 869 1156 980 804
Q 1091 453 1309 247
Q 1469 100 1697 100
Q 1969 100 2183 356
Q 2397 613 2397 1088
Q 2397 1622 2184 2012
Q 1972 2403 1581 2403
Q 1463 2403 1327 2353
Q 1191 2303 925 2138
z
" transform="scale(0.015625)"/>
       </defs>
       <use xlink:href="#TimesNewRomanPSMT-13"/>
       <use xlink:href="#TimesNewRomanPSMT-11" transform="translate(50 0)"/>
       <use xlink:href="#TimesNewRomanPSMT-13" transform="translate(75 0)"/>
       <use xlink:href="#TimesNewRomanPSMT-19" transform="translate(125 0)"/>
      </g>
     </g>
    </g>
    <g id="ytick_5">
     <g id="line2d_15">
      <path d="M 52.804844 168.272566
L 636.48 168.272566
" clip-path="url(#p5680e73be8)" style="fill: none; stroke: #b0b0b0; stroke-opacity: 0.3; stroke-width: 0.8; stroke-linecap: square"/>
     </g>
     <g id="line2d_16">
      <g>
       <use xlink:href="#m18392290ca" x="52.804844" y="168.272566" style="stroke: #000000; stroke-width: 0.8"/>
      </g>
     </g>
     <g id="text_9">
      <!-- 0.08 -->
      <g transform="translate(31.804844 171.739363) scale(0.1 -0.1)">
       <defs>
        <path id="TimesNewRomanPSMT-1b" d="M 1228 2134
Q 725 2547 579 2797
Q 434 3047 434 3316
Q 434 3728 753 4026
Q 1072 4325 1600 4325
Q 2113 4325 2425 4047
Q 2738 3769 2738 3413
Q 2738 3175 2569 2928
Q 2400 2681 1866 2347
Q 2416 1922 2594 1678
Q 2831 1359 2831 1006
Q 2831 559 2490 242
Q 2150 -75 1597 -75
Q 994 -75 656 303
Q 388 606 388 966
Q 388 1247 577 1523
Q 766 1800 1228 2134
z
M 1719 2469
Q 2094 2806 2194 3001
Q 2294 3197 2294 3444
Q 2294 3772 2109 3958
Q 1925 4144 1606 4144
Q 1288 4144 1088 3959
Q 888 3775 888 3528
Q 888 3366 970 3203
Q 1053 3041 1206 2894
L 1719 2469
z
M 1375 2016
Q 1116 1797 991 1539
Q 866 1281 866 981
Q 866 578 1086 336
Q 1306 94 1647 94
Q 1984 94 2187 284
Q 2391 475 2391 747
Q 2391 972 2272 1150
Q 2050 1481 1375 2016
z
" transform="scale(0.015625)"/>
       </defs>
       <use xlink:href="#TimesNewRomanPSMT-13"/>
       <use xlink:href="#TimesNewRomanPSMT-11" transform="translate(50 0)"/>
       <use xlink:href="#TimesNewRomanPSMT-13" transform="translate(75 0)"/>
       <use xlink:href="#TimesNewRomanPSMT-1b" transform="translate(125 0)"/>
      </g>
     </g>
    </g>
    <g id="ytick_6">
     <g id="line2d_17">
      <path d="M 52.804844 136.162304
L 636.48 136.162304
" clip-path="url(#p5680e73be8)" style="fill: none; stroke: #b0b0b0; stroke-opacity: 0.3; stroke-width: 0.8; stroke-linecap: square"/>
     </g>
     <g id="line2d_18">
      <g>
       <use xlink:href="#m18392290ca" x="52.804844" y="136.162304" style="stroke: #000000; stroke-width: 0.8"/>
      </g>
     </g>
     <g id="text_10">
      <!-- 0.10 -->
      <g transform="translate(31.804844 139.629101) scale(0.1 -0.1)">
       <use xlink:href="#TimesNewRomanPSMT-13"/>
       <use xlink:href="#TimesNewRomanPSMT-11" transform="translate(50 0)"/>
       <use xlink:href="#TimesNewRomanPSMT-14" transform="translate(75 0)"/>
       <use xlink:href="#TimesNewRomanPSMT-13" transform="translate(125 0)"/>
      </g>
     </g>
    </g>
    <g id="ytick_7">
     <g id="line2d_19">
      <path d="M 52.804844 104.052041
L 636.48 104.052041
" clip-path="url(#p5680e73be8)" style="fill: none; stroke: #b0b0b0; stroke-opacity: 0.3; stroke-width: 0.8; stroke-linecap: square"/>
     </g>
     <g id="line2d_20">
      <g>
       <use xlink:href="#m18392290ca" x="52.804844" y="104.052041" style="stroke: #000000; stroke-width: 0.8"/>
      </g>
     </g>
     <g id="text_11">
      <!-- 0.12 -->
      <g transform="translate(31.804844 107.518838) scale(0.1 -0.1)">
       <use xlink:href="#TimesNewRomanPSMT-13"/>
       <use xlink:href="#TimesNewRomanPSMT-11" transform="translate(50 0)"/>
       <use xlink:href="#TimesNewRomanPSMT-14" transform="translate(75 0)"/>
       <use xlink:href="#TimesNewRomanPSMT-15" transform="translate(125 0)"/>
      </g>
     </g>
    </g>
    <g id="ytick_8">
     <g id="line2d_21">
      <path d="M 52.804844 71.941778
L 636.48 71.941778
" clip-path="url(#p5680e73be8)" style="fill: none; stroke: #b0b0b0; stroke-opacity: 0.3; stroke-width: 0.8; stroke-linecap: square"/>
     </g>
     <g id="line2d_22">
      <g>
       <use xlink:href="#m18392290ca" x="52.804844" y="71.941778" style="stroke: #000000; stroke-width: 0.8"/>
      </g>
     </g>
     <g id="text_12">
      <!-- 0.14 -->
      <g transform="translate(31.804844 75.408575) scale(0.1 -0.1)">
       <use xlink:href="#TimesNewRomanPSMT-13"/>
       <use xlink:href="#TimesNewRomanPSMT-11" transform="translate(50 0)"/>
       <use xlink:href="#TimesNewRomanPSMT-14" transform="translate(75 0)"/>
       <use xlink:href="#TimesNewRomanPSMT-17" transform="translate(125 0)"/>
      </g>
     </g>
    </g>
    <g id="ytick_9">
     <g id="line2d_23">
      <path d="M 52.804844 39.831516
L 636.48 39.831516
" clip-path="url(#p5680e73be8)" style="fill: none; stroke: #b0b0b0; stroke-opacity: 0.3; stroke-width: 0.8; stroke-linecap: square"/>
     </g>
     <g id="line2d_24">
      <g>
       <use xlink:href="#m18392290ca" x="52.804844" y="39.831516" style="stroke: #000000; stroke-width: 0.8"/>
      </g>
     </g>
     <g id="text_13">
      <!-- 0.16 -->
      <g transform="translate(31.804844 43.298312) scale(0.1 -0.1)">
       <use xlink:href="#TimesNewRomanPSMT-13"/>
       <use xlink:href="#TimesNewRomanPSMT-11" transform="translate(50 0)"/>
       <use xlink:href="#TimesNewRomanPSMT-14" transform="translate(75 0)"/>
       <use xlink:href="#TimesNewRomanPSMT-19" transform="translate(125 0)"/>
      </g>
     </g>
    </g>
    <g id="text_14">
     <!-- Error Magnitude (%TO) -->
     <g transform="translate(21.215 219.528996) rotate(-90) scale(0.12 -0.12)">
      <defs>
       <path id="TimesNewRomanPS-BoldMT-28" d="M 1744 3994
L 1744 2269
L 1828 2269
Q 2231 2269 2412 2522
Q 2594 2775 2644 3269
L 2763 3269
L 2763 1050
L 2644 1050
Q 2606 1413 2486 1644
Q 2366 1875 2206 1954
Q 2047 2034 1744 2034
L 1744 841
Q 1744 491 1773 412
Q 1803 334 1884 284
Q 1966 234 2147 234
L 2400 234
Q 2994 234 3351 509
Q 3709 784 3866 1347
L 3981 1347
L 3791 0
L 128 0
L 128 116
L 269 116
Q 453 116 566 181
Q 647 225 691 331
Q 725 406 725 725
L 725 3513
Q 725 3800 709 3866
Q 678 3975 594 4034
Q 475 4122 269 4122
L 128 4122
L 128 4238
L 3675 4238
L 3675 2984
L 3556 2984
Q 3466 3444 3302 3644
Q 3138 3844 2838 3938
Q 2663 3994 2181 3994
L 1744 3994
z
" transform="scale(0.015625)"/>
       <path id="TimesNewRomanPS-BoldMT-30" d="M 3050 1444
L 4200 4238
L 5925 4238
L 5925 4122
L 5788 4122
Q 5600 4122 5488 4056
Q 5409 4013 5363 3909
Q 5328 3834 5328 3519
L 5328 725
Q 5328 400 5362 319
Q 5397 238 5503 177
Q 5609 116 5788 116
L 5925 116
L 5925 0
L 3713 0
L 3713 116
L 3850 116
Q 4038 116 4150 181
Q 4228 225 4275 331
Q 4309 406 4309 725
L 4309 3866
L 2684 0
L 2609 0
L 959 3838
L 959 853
Q 959 541 975 469
Q 1016 313 1152 214
Q 1288 116 1578 116
L 1578 0
L 128 0
L 128 116
L 172 116
Q 313 113 434 161
Q 556 209 618 290
Q 681 372 716 519
Q 722 553 722 838
L 722 3519
Q 722 3841 687 3920
Q 653 4000 547 4061
Q 441 4122 263 4122
L 128 4122
L 128 4238
L 1859 4238
L 3050 1444
z
" transform="scale(0.015625)"/>
       <path id="TimesNewRomanPS-BoldMT-47" d="M 3056 4238
L 3056 875
Q 3056 534 3075 472
Q 3100 369 3170 319
Q 3241 269 3416 256
L 3416 153
L 2181 -88
L 2181 375
Q 1959 106 1786 9
Q 1613 -88 1394 -88
Q 834 -88 509 413
Q 247 819 247 1409
Q 247 1881 409 2254
Q 572 2628 855 2818
Q 1138 3009 1463 3009
Q 1672 3009 1834 2928
Q 1997 2847 2181 2644
L 2181 3525
Q 2181 3859 2153 3928
Q 2116 4019 2041 4062
Q 1966 4106 1759 4106
L 1759 4238
L 3056 4238
z
M 2181 2256
Q 1950 2700 1616 2700
Q 1500 2700 1425 2638
Q 1309 2541 1236 2297
Q 1163 2053 1163 1550
Q 1163 997 1244 731
Q 1325 466 1466 347
Q 1538 288 1663 288
Q 1938 288 2181 719
L 2181 2256
z
" transform="scale(0.015625)"/>
       <path id="TimesNewRomanPS-BoldMT-b" d="M 2056 4334
L 2056 4191
Q 1731 3978 1578 3775
Q 1366 3494 1247 3053
Q 1097 2506 1097 1525
Q 1097 600 1233 87
Q 1369 -425 1603 -741
Q 1766 -959 2056 -1125
L 2056 -1281
Q 1303 -1028 779 -248
Q 256 531 256 1544
Q 256 2544 778 3314
Q 1300 4084 2056 4334
z
" transform="scale(0.015625)"/>
       <path id="TimesNewRomanPS-BoldMT-8" d="M 4916 4334
L 1906 -178
L 1488 -178
L 4494 4334
L 4916 4334
z
M 1494 4334
Q 1938 4334 2242 4020
Q 2547 3706 2547 3209
Q 2547 2700 2240 2383
Q 1934 2066 1481 2066
Q 1034 2066 739 2372
Q 444 2678 444 3178
Q 444 3694 747 4014
Q 1050 4334 1494 4334
z
M 1494 4169
Q 1425 4169 1381 4128
Q 1303 4056 1264 3879
Q 1225 3703 1225 3150
Q 1225 2709 1278 2469
Q 1309 2331 1384 2263
Q 1431 2222 1494 2222
Q 1563 2222 1603 2259
Q 1675 2325 1709 2472
Q 1763 2709 1763 3138
Q 1763 3663 1713 3897
Q 1678 4059 1600 4134
Q 1563 4169 1494 4169
z
M 4894 2097
Q 5347 2097 5651 1786
Q 5956 1475 5956 972
Q 5956 463 5647 144
Q 5338 -175 4900 -175
Q 4466 -175 4161 144
Q 3856 463 3856 963
Q 3856 1466 4153 1781
Q 4450 2097 4894 2097
z
M 4903 1934
Q 4841 1934 4797 1897
Q 4722 1828 4681 1658
Q 4641 1488 4641 1006
Q 4641 494 4688 269
Q 4722 109 4803 38
Q 4844 0 4909 0
Q 4969 0 5006 34
Q 5084 106 5122 269
Q 5175 497 5175 959
Q 5175 1447 5125 1672
Q 5088 1834 5013 1900
Q 4975 1934 4903 1934
z
" transform="scale(0.015625)"/>
       <path id="TimesNewRomanPS-BoldMT-32" d="M 2472 4297
Q 3484 4334 4117 3706
Q 4750 3078 4750 2134
Q 4750 1328 4278 716
Q 3653 -97 2513 -97
Q 1369 -97 744 678
Q 250 1291 250 2131
Q 250 3075 892 3704
Q 1534 4334 2472 4297
z
M 2509 4097
Q 1928 4097 1625 3503
Q 1378 3016 1378 2103
Q 1378 1019 1759 500
Q 2025 138 2503 138
Q 2825 138 3041 294
Q 3316 494 3469 933
Q 3622 1372 3622 2078
Q 3622 2919 3465 3336
Q 3309 3753 3067 3925
Q 2825 4097 2509 4097
z
" transform="scale(0.015625)"/>
       <path id="TimesNewRomanPS-BoldMT-c" d="M 78 -1281
L 78 -1138
Q 403 -922 556 -719
Q 766 -438 888 0
Q 1038 550 1038 1531
Q 1038 2456 902 2967
Q 766 3478 531 3794
Q 369 4013 78 4178
L 78 4334
Q 831 4081 1354 3301
Q 1878 2522 1878 1509
Q 1878 513 1354 -257
Q 831 -1028 78 -1281
z
" transform="scale(0.015625)"/>
      </defs>
      <use xlink:href="#TimesNewRomanPS-BoldMT-28"/>
      <use xlink:href="#TimesNewRomanPS-BoldMT-55" transform="translate(66.703125 0)"/>
      <use xlink:href="#TimesNewRomanPS-BoldMT-55" transform="translate(111.09375 0)"/>
      <use xlink:href="#TimesNewRomanPS-BoldMT-52" transform="translate(153.671875 0)"/>
      <use xlink:href="#TimesNewRomanPS-BoldMT-55" transform="translate(203.671875 0)"/>
      <use xlink:href="#TimesNewRomanPS-BoldMT-3" transform="translate(246.25 0)"/>
      <use xlink:href="#TimesNewRomanPS-BoldMT-30" transform="translate(271.25 0)"/>
      <use xlink:href="#TimesNewRomanPS-BoldMT-44" transform="translate(365.640625 0)"/>
      <use xlink:href="#TimesNewRomanPS-BoldMT-4a" transform="translate(415.640625 0)"/>
      <use xlink:href="#TimesNewRomanPS-BoldMT-51" transform="translate(465.640625 0)"/>
      <use xlink:href="#TimesNewRomanPS-BoldMT-4c" transform="translate(521.25 0)"/>
      <use xlink:href="#TimesNewRomanPS-BoldMT-57" transform="translate(549.03125 0)"/>
      <use xlink:href="#TimesNewRomanPS-BoldMT-58" transform="translate(582.328125 0)"/>
      <use xlink:href="#TimesNewRomanPS-BoldMT-47" transform="translate(637.9375 0)"/>
      <use xlink:href="#TimesNewRomanPS-BoldMT-48" transform="translate(693.546875 0)"/>
      <use xlink:href="#TimesNewRomanPS-BoldMT-3" transform="translate(737.9375 0)"/>
      <use xlink:href="#TimesNewRomanPS-BoldMT-b" transform="translate(762.9375 0)"/>
      <use xlink:href="#TimesNewRomanPS-BoldMT-8" transform="translate(796.234375 0)"/>
      <use xlink:href="#TimesNewRomanPS-BoldMT-37" transform="translate(896.234375 0)"/>
      <use xlink:href="#TimesNewRomanPS-BoldMT-32" transform="translate(961.125 0)"/>
      <use xlink:href="#TimesNewRomanPS-BoldMT-c" transform="translate(1038.90625 0)"/>
     </g>
    </g>
   </g>
   <g id="patch_3">
    <path d="M 79.335533 296.713617
L 148.1188 296.713617
L 148.1188 280.546314
L 79.335533 280.546314
z
" clip-path="url(#p5680e73be8)" style="fill: #0055cc; stroke: #1a1a1a; stroke-width: 0.8; stroke-linejoin: miter"/>
   </g>
   <g id="patch_4">
    <path d="M 275.859154 296.713617
L 344.642422 296.713617
L 344.642422 274.451436
L 275.859154 274.451436
z
" clip-path="url(#p5680e73be8)" style="fill: #0055cc; stroke: #1a1a1a; stroke-width: 0.8; stroke-linejoin: miter"/>
   </g>
   <g id="patch_5">
    <path d="M 472.382776 296.713617
L 541.166044 296.713617
L 541.166044 231.741091
L 472.382776 231.741091
z
" clip-path="url(#p5680e73be8)" style="fill: #0055cc; stroke: #1a1a1a; stroke-width: 0.8; stroke-linejoin: miter"/>
   </g>
   <g id="patch_6">
    <path d="M 148.1188 296.713617
L 216.902068 296.713617
L 216.902068 259.566177
L 148.1188 259.566177
z
" clip-path="url(#p5680e73be8)" style="fill: #d65a00; stroke: #1a1a1a; stroke-width: 0.8; stroke-linejoin: miter"/>
   </g>
   <g id="patch_7">
    <path d="M 344.642422 296.713617
L 413.425689 296.713617
L 413.425689 236.244431
L 344.642422 236.244431
z
" clip-path="url(#p5680e73be8)" style="fill: #d65a00; stroke: #1a1a1a; stroke-width: 0.8; stroke-linejoin: miter"/>
   </g>
   <g id="patch_8">
    <path d="M 541.166044 296.713617
L 609.949311 296.713617
L 609.949311 70.286723
L 541.166044 70.286723
z
" clip-path="url(#p5680e73be8)" style="fill: #d65a00; stroke: #1a1a1a; stroke-width: 0.8; stroke-linejoin: miter"/>
   </g>
   <g id="patch_9">
    <path d="M 52.804844 296.713617
L 52.804844 13.68
" style="fill: none; stroke: #1a1a1a; stroke-linejoin: miter; stroke-linecap: square"/>
   </g>
   <g id="patch_10">
    <path d="M 636.48 296.713617
L 636.48 13.68
" style="fill: none; stroke: #1a1a1a; stroke-linejoin: miter; stroke-linecap: square"/>
   </g>
   <g id="patch_11">
    <path d="M 52.804844 296.713617
L 636.48 296.713617
" style="fill: none; stroke: #1a1a1a; stroke-linejoin: miter; stroke-linecap: square"/>
   </g>
   <g id="patch_12">
    <path d="M 52.804844 13.68
L 636.48 13.68
" style="fill: none; stroke: #1a1a1a; stroke-linejoin: miter; stroke-linecap: square"/>
   </g>
   <g id="text_15">
    <!-- 0.0101 -->
    <g transform="translate(101.352166 274.603931) scale(0.09 -0.09)">
     <use xlink:href="#TimesNewRomanPSMT-13"/>
     <use xlink:href="#TimesNewRomanPSMT-11" transform="translate(50 0)"/>
     <use xlink:href="#TimesNewRomanPSMT-13" transform="translate(75 0)"/>
     <use xlink:href="#TimesNewRomanPSMT-14" transform="translate(125 0)"/>
     <use xlink:href="#TimesNewRomanPSMT-13" transform="translate(175 0)"/>
     <use xlink:href="#TimesNewRomanPSMT-14" transform="translate(225 0)"/>
    </g>
   </g>
   <g id="text_16">
    <!-- 0.0139 -->
    <g transform="translate(297.875788 268.509053) scale(0.09 -0.09)">
     <defs>
      <path id="TimesNewRomanPSMT-16" d="M 325 3431
Q 506 3859 782 4092
Q 1059 4325 1472 4325
Q 1981 4325 2253 3994
Q 2459 3747 2459 3466
Q 2459 3003 1878 2509
Q 2269 2356 2469 2072
Q 2669 1788 2669 1403
Q 2669 853 2319 450
Q 1863 -75 997 -75
Q 569 -75 414 31
Q 259 138 259 259
Q 259 350 332 419
Q 406 488 509 488
Q 588 488 669 463
Q 722 447 909 348
Q 1097 250 1169 231
Q 1284 197 1416 197
Q 1734 197 1970 444
Q 2206 691 2206 1028
Q 2206 1275 2097 1509
Q 2016 1684 1919 1775
Q 1784 1900 1550 2001
Q 1316 2103 1072 2103
L 972 2103
L 972 2197
Q 1219 2228 1467 2375
Q 1716 2522 1828 2728
Q 1941 2934 1941 3181
Q 1941 3503 1739 3701
Q 1538 3900 1238 3900
Q 753 3900 428 3381
L 325 3431
z
" transform="scale(0.015625)"/>
      <path id="TimesNewRomanPSMT-1c" d="M 338 -88
L 338 28
Q 744 34 1094 217
Q 1444 400 1770 856
Q 2097 1313 2225 1859
Q 1734 1544 1338 1544
Q 891 1544 572 1889
Q 253 2234 253 2806
Q 253 3363 572 3797
Q 956 4325 1575 4325
Q 2097 4325 2469 3894
Q 2925 3359 2925 2575
Q 2925 1869 2578 1258
Q 2231 647 1613 244
Q 1109 -88 516 -88
L 338 -88
z
M 2275 2091
Q 2331 2497 2331 2741
Q 2331 3044 2228 3395
Q 2125 3747 1936 3934
Q 1747 4122 1506 4122
Q 1228 4122 1018 3872
Q 809 3622 809 3128
Q 809 2469 1088 2097
Q 1291 1828 1588 1828
Q 1731 1828 1928 1897
Q 2125 1966 2275 2091
z
" transform="scale(0.015625)"/>
     </defs>
     <use xlink:href="#TimesNewRomanPSMT-13"/>
     <use xlink:href="#TimesNewRomanPSMT-11" transform="translate(50 0)"/>
     <use xlink:href="#TimesNewRomanPSMT-13" transform="translate(75 0)"/>
     <use xlink:href="#TimesNewRomanPSMT-14" transform="translate(125 0)"/>
     <use xlink:href="#TimesNewRomanPSMT-16" transform="translate(175 0)"/>
     <use xlink:href="#TimesNewRomanPSMT-1c" transform="translate(225 0)"/>
    </g>
   </g>
   <g id="text_17">
    <!-- 0.0405 -->
    <g transform="translate(494.39941 225.798708) scale(0.09 -0.09)">
     <defs>
      <path id="TimesNewRomanPSMT-18" d="M 2778 4238
L 2534 3706
L 1259 3706
L 981 3138
Q 1809 3016 2294 2522
Q 2709 2097 2709 1522
Q 2709 1188 2573 903
Q 2438 619 2231 419
Q 2025 219 1772 97
Q 1413 -75 1034 -75
Q 653 -75 479 54
Q 306 184 306 341
Q 306 428 378 495
Q 450 563 559 563
Q 641 563 702 538
Q 763 513 909 409
Q 1144 247 1384 247
Q 1750 247 2026 523
Q 2303 800 2303 1197
Q 2303 1581 2056 1914
Q 1809 2247 1375 2428
Q 1034 2569 447 2591
L 1259 4238
L 2778 4238
z
" transform="scale(0.015625)"/>
     </defs>
     <use xlink:href="#TimesNewRomanPSMT-13"/>
     <use xlink:href="#TimesNewRomanPSMT-11" transform="translate(50 0)"/>
     <use xlink:href="#TimesNewRomanPSMT-13" transform="translate(75 0)"/>
     <use xlink:href="#TimesNewRomanPSMT-17" transform="translate(125 0)"/>
     <use xlink:href="#TimesNewRomanPSMT-13" transform="translate(175 0)"/>
     <use xlink:href="#TimesNewRomanPSMT-18" transform="translate(225 0)"/>
    </g>
   </g>
   <g id="text_18">
    <!-- 0.0231 -->
    <g transform="translate(170.135434 253.623794) scale(0.09 -0.09)">
     <use xlink:href="#TimesNewRomanPSMT-13"/>
     <use xlink:href="#TimesNewRomanPSMT-11" transform="translate(50 0)"/>
     <use xlink:href="#TimesNewRomanPSMT-13" transform="translate(75 0)"/>
     <use xlink:href="#TimesNewRomanPSMT-15" transform="translate(125 0)"/>
     <use xlink:href="#TimesNewRomanPSMT-16" transform="translate(175 0)"/>
     <use xlink:href="#TimesNewRomanPSMT-14" transform="translate(225 0)"/>
    </g>
   </g>
   <g id="text_19">
    <!-- 0.0377 -->
    <g transform="translate(366.659056 230.302048) scale(0.09 -0.09)">
     <defs>
      <path id="TimesNewRomanPSMT-1a" d="M 644 4238
L 2916 4238
L 2916 4119
L 1503 -88
L 1153 -88
L 2419 3728
L 1253 3728
Q 900 3728 750 3644
Q 488 3500 328 3200
L 238 3234
L 644 4238
z
" transform="scale(0.015625)"/>
     </defs>
     <use xlink:href="#TimesNewRomanPSMT-13"/>
     <use xlink:href="#TimesNewRomanPSMT-11" transform="translate(50 0)"/>
     <use xlink:href="#TimesNewRomanPSMT-13" transform="translate(75 0)"/>
     <use xlink:href="#TimesNewRomanPSMT-16" transform="translate(125 0)"/>
     <use xlink:href="#TimesNewRomanPSMT-1a" transform="translate(175 0)"/>
     <use xlink:href="#TimesNewRomanPSMT-1a" transform="translate(225 0)"/>
    </g>
   </g>
   <g id="text_20">
    <!-- 0.1410 -->
    <g transform="translate(563.182677 64.344341) scale(0.09 -0.09)">
     <use xlink:href="#TimesNewRomanPSMT-13"/>
     <use xlink:href="#TimesNewRomanPSMT-11" transform="translate(50 0)"/>
     <use xlink:href="#TimesNewRomanPSMT-14" transform="translate(75 0)"/>
     <use xlink:href="#TimesNewRomanPSMT-17" transform="translate(125 0)"/>
     <use xlink:href="#TimesNewRomanPSMT-14" transform="translate(175 0)"/>
     <use xlink:href="#TimesNewRomanPSMT-13" transform="translate(225 0)"/>
    </g>
   </g>
   <g id="legend_1">
    <g id="patch_13">
     <path d="M 286.388516 350.620034
L 402.896328 350.620034
Q 404.696328 350.620034 404.696328 348.820034
L 404.696328 336.977651
Q 404.696328 335.177651 402.896328 335.177651
L 286.388516 335.177651
Q 284.588516 335.177651 284.588516 336.977651
L 284.588516 348.820034
Q 284.588516 350.620034 286.388516 350.620034
z
" style="fill: #ffffff; opacity: 0.95; stroke: #808080; stroke-linejoin: miter"/>
    </g>
    <g id="patch_14">
     <path d="M 288.188516 345.077651
L 306.188516 345.077651
L 306.188516 338.777651
L 288.188516 338.777651
z
" style="fill: #0055cc; stroke: #1a1a1a; stroke-width: 0.8; stroke-linejoin: miter"/>
    </g>
    <g id="text_21">
     <!-- MAE -->
     <g transform="translate(313.388516 345.077651) scale(0.09 -0.09)">
      <defs>
       <path id="TimesNewRomanPSMT-30" d="M 2619 0
L 981 3566
L 981 734
Q 981 344 1066 247
Q 1181 116 1431 116
L 1581 116
L 1581 0
L 106 0
L 106 116
L 256 116
Q 525 116 638 278
Q 706 378 706 734
L 706 3503
Q 706 3784 644 3909
Q 600 4000 483 4061
Q 366 4122 106 4122
L 106 4238
L 1306 4238
L 2844 922
L 4356 4238
L 5556 4238
L 5556 4122
L 5409 4122
Q 5138 4122 5025 3959
Q 4956 3859 4956 3503
L 4956 734
Q 4956 344 5044 247
Q 5159 116 5409 116
L 5556 116
L 5556 0
L 3756 0
L 3756 116
L 3906 116
Q 4178 116 4288 278
Q 4356 378 4356 734
L 4356 3566
L 2722 0
L 2619 0
z
" transform="scale(0.015625)"/>
       <path id="TimesNewRomanPSMT-24" d="M 2928 1419
L 1288 1419
L 1000 750
Q 894 503 894 381
Q 894 284 986 211
Q 1078 138 1384 116
L 1384 0
L 50 0
L 50 116
Q 316 163 394 238
Q 553 388 747 847
L 2238 4334
L 2347 4334
L 3822 809
Q 4000 384 4145 257
Q 4291 131 4550 116
L 4550 0
L 2878 0
L 2878 116
Q 3131 128 3220 200
Q 3309 272 3309 375
Q 3309 513 3184 809
L 2928 1419
z
M 2841 1650
L 2122 3363
L 1384 1650
L 2841 1650
z
" transform="scale(0.015625)"/>
       <path id="TimesNewRomanPSMT-28" d="M 1338 4006
L 1338 2331
L 2269 2331
Q 2631 2331 2753 2441
Q 2916 2584 2934 2947
L 3050 2947
L 3050 1472
L 2934 1472
Q 2891 1781 2847 1869
Q 2791 1978 2662 2040
Q 2534 2103 2269 2103
L 1338 2103
L 1338 706
Q 1338 425 1363 364
Q 1388 303 1450 267
Q 1513 231 1688 231
L 2406 231
Q 2766 231 2928 281
Q 3091 331 3241 478
Q 3434 672 3638 1063
L 3763 1063
L 3397 0
L 131 0
L 131 116
L 281 116
Q 431 116 566 188
Q 666 238 702 338
Q 738 438 738 747
L 738 3500
Q 738 3903 656 3997
Q 544 4122 281 4122
L 131 4122
L 131 4238
L 3397 4238
L 3444 3309
L 3322 3309
Q 3256 3644 3176 3769
Q 3097 3894 2941 3959
Q 2816 4006 2500 4006
L 1338 4006
z
" transform="scale(0.015625)"/>
      </defs>
      <use xlink:href="#TimesNewRomanPSMT-30"/>
      <use xlink:href="#TimesNewRomanPSMT-24" transform="translate(88.921875 0)"/>
      <use xlink:href="#TimesNewRomanPSMT-28" transform="translate(161.140625 0)"/>
     </g>
    </g>
    <g id="patch_15">
     <path d="M 351.388203 345.077651
L 369.388203 345.077651
L 369.388203 338.777651
L 351.388203 338.777651
z
" style="fill: #d65a00; stroke: #1a1a1a; stroke-width: 0.8; stroke-linejoin: miter"/>
    </g>
    <g id="text_22">
     <!-- RMSE -->
     <g transform="translate(376.588203 345.077651) scale(0.09 -0.09)">
      <defs>
       <path id="TimesNewRomanPSMT-36" d="M 2934 4334
L 2934 2869
L 2819 2869
Q 2763 3291 2617 3541
Q 2472 3791 2203 3937
Q 1934 4084 1647 4084
Q 1322 4084 1109 3886
Q 897 3688 897 3434
Q 897 3241 1031 3081
Q 1225 2847 1953 2456
Q 2547 2138 2764 1967
Q 2981 1797 3098 1565
Q 3216 1334 3216 1081
Q 3216 600 2842 251
Q 2469 -97 1881 -97
Q 1697 -97 1534 -69
Q 1438 -53 1133 45
Q 828 144 747 144
Q 669 144 623 97
Q 578 50 556 -97
L 441 -97
L 441 1356
L 556 1356
Q 638 900 775 673
Q 913 447 1195 297
Q 1478 147 1816 147
Q 2206 147 2432 353
Q 2659 559 2659 841
Q 2659 997 2573 1156
Q 2488 1316 2306 1453
Q 2184 1547 1640 1851
Q 1097 2156 867 2337
Q 638 2519 519 2737
Q 400 2956 400 3219
Q 400 3675 750 4004
Q 1100 4334 1641 4334
Q 1978 4334 2356 4169
Q 2531 4091 2603 4091
Q 2684 4091 2736 4139
Q 2788 4188 2819 4334
L 2934 4334
z
" transform="scale(0.015625)"/>
      </defs>
      <use xlink:href="#TimesNewRomanPSMT-35"/>
      <use xlink:href="#TimesNewRomanPSMT-30" transform="translate(66.703125 0)"/>
      <use xlink:href="#TimesNewRomanPSMT-36" transform="translate(155.625 0)"/>
      <use xlink:href="#TimesNewRomanPSMT-28" transform="translate(211.234375 0)"/>
     </g>
    </g>
   </g>
  </g>
  <g id="patch_16">
   <path d="M 3.6 360
L 645.12 360
L 645.12 3.6
L 3.6 3.6
L 3.6 360
z
" style="fill: none; stroke: #1a1a1a; stroke-width: 1.2; stroke-linejoin: miter"/>
  </g>
 </g>
 <defs>
  <clipPath id="p5680e73be8">
   <rect x="52.804844" y="13.68" width="583.675156" height="283.033617"/>
  </clipPath>
 </defs>
</svg>
