<?xml version="1.0" encoding="utf-8" standalone="no"?>
<!DOCTYPE svg PUBLIC "-//W3C//DTD SVG 1.1//EN"
  "http://www.w3.org/Graphics/SVG/1.1/DTD/svg11.dtd">
<svg xmlns:xlink="http://www.w3.org/1999/xlink" width="1005.12pt" height="506.16pt" viewBox="0 0 1005.12 506.16" xmlns="http://www.w3.org/2000/svg" version="1.1">
 <metadata>
  <rdf:RDF xmlns:dc="http://purl.org/dc/elements/1.1/" xmlns:cc="http://creativecommons.org/ns#" xmlns:rdf="http://www.w3.org/1999/02/22-rdf-syntax-ns#">
   <cc:Work>
    <dc:type rdf:resource="http://purl.org/dc/dcmitype/StillImage"/>
    <dc:date>2026-07-20T17:38:24.479902</dc:date>
    <dc:format>image/svg+xml</dc:format>
    <dc:creator>
     <cc:Agent>
      <dc:title>Matplotlib v3.11.1, https://matplotlib.org/</dc:title>
     </cc:Agent>
    </dc:creator>
   </cc:Work>
  </rdf:RDF>
 </metadata>
 <defs>
  <style type="text/css">*{stroke-linejoin: round; stroke-linecap: butt}</style>
 </defs>
 <g id="figure_1">
  <g id="patch_1">
   <path d="M 0 506.16
L 1005.12 506.16
L 1005.12 0
L 0 0
z
" style="fill: #ffffff"/>
  </g>
  <g id="axes_1">
   <g id="patch_2">
    <path d="M 40.404844 434.834597
L 993.6 434.834597
L 993.6 16.717567
L 40.404844 16.717567
z
" style="fill: #ffffff"/>
   </g>
   <g id="matplotlib.axis_1">
    <g id="xtick_1">
     <g id="line2d_1">
      <path d="M 83.731896 434.834597
L 83.731896 16.717567
" clip-path="url(#pb90ced6dbb)" style="fill: none; stroke: #b0b0b0; stroke-opacity: 0.3; stroke-width: 0.8; stroke-linecap: square"/>
     </g>
     <g id="line2d_2">
      <defs>
       <path id="m900d287bc4" d="M 0 0
L 0 -3.5
" style="stroke: #000000; stroke-width: 0.8"/>
      </defs>
      <g>
       <use xlink:href="#m900d287bc4" x="83.731896" y="434.834597" style="stroke: #000000; stroke-width: 0.8"/>
      </g>
     </g>
     <g id="text_1">
      <!-- 0 -->
      <g transform="translate(81.231896 445.268191) scale(0.1 -0.1)">
       <defs>
        <path id="TimesNewRomanPSMT-13" d="M 231 2094
Q 231 2819 450 3342
Q 669 3866 1031 4122
Q 1313 4325 1613 4325
Q 2100 4325 2488 3828
Q 2972 3213 2972 2159
Q 2972 1422 2759 906
Q 2547 391 2217 158
Q 1888 -75 1581 -75
Q 975 -75 572 641
Q 231 1244 231 2094
z
M 844 2016
Q 844 1141 1059 588
Q 1238 122 1591 122
Q 1759 122 1940 273
Q 2122 425 2216 781
Q 2359 1319 2359 2297
Q 2359 3022 2209 3506
Q 2097 3866 1919 4016
Q 1791 4119 1609 4119
Q 1397 4119 1231 3928
Q 1006 3669 925 3112
Q 844 2556 844 2016
z
" transform="scale(0.015625)"/>
       </defs>
       <use xlink:href="#TimesNewRomanPSMT-13"/>
      </g>
     </g>
    </g>
    <g id="xtick_2">
     <g id="line2d_3">
      <path d="M 280.226466 434.834597
L 280.226466 16.717567
" clip-path="url(#pb90ced6dbb)" style="fill: none; stroke: #b0b0b0; stroke-opacity: 0.3; stroke-width: 0.8; stroke-linecap: square"/>
     </g>
     <g id="line2d_4">
      <g>
       <use xlink:href="#m900d287bc4" x="280.226466" y="434.834597" style="stroke: #000000; stroke-width: 0.8"/>
      </g>
     </g>
     <g id="text_2">
      <!-- 20000 -->
      <g transform="translate(267.726466 445.268191) scale(0.1 -0.1)">
       <defs>
        <path id="TimesNewRomanPSMT-15" d="M 2934 816
L 2638 0
L 138 0
L 138 116
Q 1241 1122 1691 1759
Q 2141 2397 2141 2925
Q 2141 3328 1894 3587
Q 1647 3847 1303 3847
Q 991 3847 742 3664
Q 494 3481 375 3128
L 259 3128
Q 338 3706 661 4015
Q 984 4325 1469 4325
Q 1984 4325 2329 3994
Q 2675 3663 2675 3213
Q 2675 2891 2525 2569
Q 2294 2063 1775 1497
Q 997 647 803 472
L 1909 472
Q 2247 472 2383 497
Q 2519 522 2628 598
Q 2738 675 2819 816
L 2934 816
z
" transform="scale(0.015625)"/>
       </defs>
       <use xlink:href="#TimesNewRomanPSMT-15"/>
       <use xlink:href="#TimesNewRomanPSMT-13" transform="translate(50 0)"/>
       <use xlink:href="#TimesNewRomanPSMT-13" transform="translate(100 0)"/>
       <use xlink:href="#TimesNewRomanPSMT-13" transform="translate(150 0)"/>
       <use xlink:href="#TimesNewRomanPSMT-13" transform="translate(200 0)"/>
      </g>
     </g>
    </g>
    <g id="xtick_3">
     <g id="line2d_5">
      <path d="M 476.721035 434.834597
L 476.721035 16.717567
" clip-path="url(#pb90ced6dbb)" style="fill: none; stroke: #b0b0b0; stroke-opacity: 0.3; stroke-width: 0.8; stroke-linecap: square"/>
     </g>
     <g id="line2d_6">
      <g>
       <use xlink:href="#m900d287bc4" x="476.721035" y="434.834597" style="stroke: #000000; stroke-width: 0.8"/>
      </g>
     </g>
     <g id="text_3">
      <!-- 40000 -->
      <g transform="translate(464.221035 445.268191) scale(0.1 -0.1)">
       <defs>
        <path id="TimesNewRomanPSMT-17" d="M 2978 1563
L 2978 1119
L 2409 1119
L 2409 0
L 1894 0
L 1894 1119
L 100 1119
L 100 1519
L 2066 4325
L 2409 4325
L 2409 1563
L 2978 1563
z
M 1894 1563
L 1894 3666
L 406 1563
L 1894 1563
z
" transform="scale(0.015625)"/>
       </defs>
       <use xlink:href="#TimesNewRomanPSMT-17"/>
       <use xlink:href="#TimesNewRomanPSMT-13" transform="translate(50 0)"/>
       <use xlink:href="#TimesNewRomanPSMT-13" transform="translate(100 0)"/>
       <use xlink:href="#TimesNewRomanPSMT-13" transform="translate(150 0)"/>
       <use xlink:href="#TimesNewRomanPSMT-13" transform="translate(200 0)"/>
      </g>
     </g>
    </g>
    <g id="xtick_4">
     <g id="line2d_7">
      <path d="M 673.215605 434.834597
L 673.215605 16.717567
" clip-path="url(#pb90ced6dbb)" style="fill: none; stroke: #b0b0b0; stroke-opacity: 0.3; stroke-width: 0.8; stroke-linecap: square"/>
     </g>
     <g id="line2d_8">
      <g>
       <use xlink:href="#m900d287bc4" x="673.215605" y="434.834597" style="stroke: #000000; stroke-width: 0.8"/>
      </g>
     </g>
     <g id="text_4">
      <!-- 60000 -->
      <g transform="translate(660.715605 445.268191) scale(0.1 -0.1)">
       <defs>
        <path id="TimesNewRomanPSMT-19" d="M 2869 4325
L 2869 4209
Q 2456 4169 2195 4045
Q 1934 3922 1679 3669
Q 1425 3416 1258 3105
Q 1091 2794 978 2366
Q 1428 2675 1881 2675
Q 2316 2675 2634 2325
Q 2953 1975 2953 1425
Q 2953 894 2631 456
Q 2244 -75 1606 -75
Q 1172 -75 869 213
Q 275 772 275 1663
Q 275 2231 503 2743
Q 731 3256 1154 3653
Q 1578 4050 1965 4187
Q 2353 4325 2688 4325
L 2869 4325
z
M 925 2138
Q 869 1716 869 1456
Q 869 1156 980 804
Q 1091 453 1309 247
Q 1469 100 1697 100
Q 1969 100 2183 356
Q 2397 613 2397 1088
Q 2397 1622 2184 2012
Q 1972 2403 1581 2403
Q 1463 2403 1327 2353
Q 1191 2303 925 2138
z
" transform="scale(0.015625)"/>
       </defs>
       <use xlink:href="#TimesNewRomanPSMT-19"/>
       <use xlink:href="#TimesNewRomanPSMT-13" transform="translate(50 0)"/>
       <use xlink:href="#TimesNewRomanPSMT-13" transform="translate(100 0)"/>
       <use xlink:href="#TimesNewRomanPSMT-13" transform="translate(150 0)"/>
       <use xlink:href="#TimesNewRomanPSMT-13" transform="translate(200 0)"/>
      </g>
     </g>
    </g>
    <g id="xtick_5">
     <g id="line2d_9">
      <path d="M 869.710174 434.834597
L 869.710174 16.717567
" clip-path="url(#pb90ced6dbb)" style="fill: none; stroke: #b0b0b0; stroke-opacity: 0.3; stroke-width: 0.8; stroke-linecap: square"/>
     </g>
     <g id="line2d_10">
      <g>
       <use xlink:href="#m900d287bc4" x="869.710174" y="434.834597" style="stroke: #000000; stroke-width: 0.8"/>
      </g>
     </g>
     <g id="text_5">
      <!-- 80000 -->
      <g transform="translate(857.210174 445.268191) scale(0.1 -0.1)">
       <defs>
        <path id="TimesNewRomanPSMT-1b" d="M 1228 2134
Q 725 2547 579 2797
Q 434 3047 434 3316
Q 434 3728 753 4026
Q 1072 4325 1600 4325
Q 2113 4325 2425 4047
Q 2738 3769 2738 3413
Q 2738 3175 2569 2928
Q 2400 2681 1866 2347
Q 2416 1922 2594 1678
Q 2831 1359 2831 1006
Q 2831 559 2490 242
Q 2150 -75 1597 -75
Q 994 -75 656 303
Q 388 606 388 966
Q 388 1247 577 1523
Q 766 1800 1228 2134
z
M 1719 2469
Q 2094 2806 2194 3001
Q 2294 3197 2294 3444
Q 2294 3772 2109 3958
Q 1925 4144 1606 4144
Q 1288 4144 1088 3959
Q 888 3775 888 3528
Q 888 3366 970 3203
Q 1053 3041 1206 2894
L 1719 2469
z
M 1375 2016
Q 1116 1797 991 1539
Q 866 1281 866 981
Q 866 578 1086 336
Q 1306 94 1647 94
Q 1984 94 2187 284
Q 2391 475 2391 747
Q 2391 972 2272 1150
Q 2050 1481 1375 2016
z
" transform="scale(0.015625)"/>
       </defs>
       <use xlink:href="#TimesNewRomanPSMT-1b"/>
       <use xlink:href="#TimesNewRomanPSMT-13" transform="translate(50 0)"/>
       <use xlink:href="#TimesNewRomanPSMT-13" transform="translate(100 0)"/>
       <use xlink:href="#TimesNewRomanPSMT-13" transform="translate(150 0)"/>
       <use xlink:href="#TimesNewRomanPSMT-13" transform="translate(200 0)"/>
      </g>
     </g>
    </g>
    <g id="text_6">
     <!-- Time (s) -->
     <g transform="translate(495.949922 463.560144) scale(0.12 -0.12)">
      <defs>
       <path id="TimesNewRomanPS-BoldMT-37" d="M 4038 4238
L 4038 3091
L 3925 3091
Q 3825 3488 3703 3661
Q 3581 3834 3369 3938
Q 3250 3994 2953 3994
L 2638 3994
L 2638 725
Q 2638 400 2673 319
Q 2709 238 2814 177
Q 2919 116 3100 116
L 3241 116
L 3241 0
L 1022 0
L 1022 116
L 1163 116
Q 1347 116 1459 181
Q 1541 225 1588 331
Q 1622 406 1622 725
L 1622 3994
L 1316 3994
Q 888 3994 694 3813
Q 422 3559 350 3091
L 231 3091
L 231 4238
L 4038 4238
z
" transform="scale(0.015625)"/>
       <path id="TimesNewRomanPS-BoldMT-4c" d="M 919 4338
Q 1122 4338 1262 4195
Q 1403 4053 1403 3853
Q 1403 3653 1261 3512
Q 1119 3372 919 3372
Q 719 3372 578 3512
Q 438 3653 438 3853
Q 438 4053 578 4195
Q 719 4338 919 4338
z
M 1356 2922
L 1356 606
Q 1356 297 1428 211
Q 1500 125 1709 113
L 1709 0
L 131 0
L 131 113
Q 325 119 419 225
Q 481 297 481 606
L 481 2313
Q 481 2622 409 2708
Q 338 2794 131 2806
L 131 2922
L 1356 2922
z
" transform="scale(0.015625)"/>
       <path id="TimesNewRomanPS-BoldMT-50" d="M 1428 2922
L 1428 2538
Q 1669 2800 1873 2904
Q 2078 3009 2322 3009
Q 2603 3009 2793 2878
Q 2984 2747 3088 2478
Q 3338 2759 3567 2884
Q 3797 3009 4047 3009
Q 4350 3009 4529 2870
Q 4709 2731 4779 2517
Q 4850 2303 4850 1834
L 4850 638
Q 4850 300 4911 219
Q 4972 138 5166 113
L 5166 0
L 3656 0
L 3656 113
Q 3834 128 3919 250
Q 3975 334 3975 638
L 3975 1894
Q 3975 2284 3944 2390
Q 3913 2497 3845 2548
Q 3778 2600 3688 2600
Q 3553 2600 3415 2501
Q 3278 2403 3138 2206
L 3138 638
Q 3138 322 3191 241
Q 3263 125 3466 113
L 3466 0
L 1953 0
L 1953 113
Q 2075 119 2145 173
Q 2216 228 2239 304
Q 2263 381 2263 638
L 2263 1894
Q 2263 2291 2231 2391
Q 2200 2491 2126 2547
Q 2053 2603 1969 2603
Q 1844 2603 1741 2538
Q 1594 2441 1428 2206
L 1428 638
Q 1428 328 1489 229
Q 1550 131 1744 113
L 1744 0
L 238 0
L 238 113
Q 422 131 500 231
Q 553 300 553 638
L 553 2288
Q 553 2619 492 2700
Q 431 2781 238 2806
L 238 2922
L 1428 2922
z
" transform="scale(0.015625)"/>
       <path id="TimesNewRomanPS-BoldMT-48" d="M 2691 1566
L 1088 1566
Q 1116 984 1397 647
Q 1613 388 1916 388
Q 2103 388 2256 492
Q 2409 597 2584 869
L 2691 800
Q 2453 316 2165 114
Q 1878 -88 1500 -88
Q 850 -88 516 413
Q 247 816 247 1413
Q 247 2144 642 2576
Q 1038 3009 1569 3009
Q 2013 3009 2339 2645
Q 2666 2281 2691 1566
z
M 1922 1775
Q 1922 2278 1867 2465
Q 1813 2653 1697 2750
Q 1631 2806 1522 2806
Q 1359 2806 1256 2647
Q 1072 2369 1072 1884
L 1072 1775
L 1922 1775
z
" transform="scale(0.015625)"/>
       <path id="TimesNewRomanPS-BoldMT-3" transform="scale(0.015625)"/>
       <path id="TimesNewRomanPS-BoldMT-b" d="M 2056 4334
L 2056 4191
Q 1731 3978 1578 3775
Q 1366 3494 1247 3053
Q 1097 2506 1097 1525
Q 1097 600 1233 87
Q 1369 -425 1603 -741
Q 1766 -959 2056 -1125
L 2056 -1281
Q 1303 -1028 779 -248
Q 256 531 256 1544
Q 256 2544 778 3314
Q 1300 4084 2056 4334
z
" transform="scale(0.015625)"/>
       <path id="TimesNewRomanPS-BoldMT-56" d="M 2063 3003
L 2109 2006
L 2003 2006
Q 1813 2450 1608 2612
Q 1403 2775 1200 2775
Q 1072 2775 981 2689
Q 891 2603 891 2491
Q 891 2406 953 2328
Q 1053 2200 1512 1889
Q 1972 1578 2117 1361
Q 2263 1144 2263 875
Q 2263 631 2141 397
Q 2019 163 1797 37
Q 1575 -88 1306 -88
Q 1097 -88 747 44
Q 653 78 619 78
Q 516 78 447 -78
L 344 -78
L 294 972
L 400 972
Q 541 559 786 353
Q 1031 147 1250 147
Q 1400 147 1495 239
Q 1591 331 1591 463
Q 1591 613 1497 722
Q 1403 831 1078 1053
Q 600 1384 459 1559
Q 253 1816 253 2125
Q 253 2463 486 2736
Q 719 3009 1159 3009
Q 1397 3009 1619 2894
Q 1703 2847 1756 2847
Q 1813 2847 1847 2870
Q 1881 2894 1956 3003
L 2063 3003
z
" transform="scale(0.015625)"/>
       <path id="TimesNewRomanPS-BoldMT-c" d="M 78 -1281
L 78 -1138
Q 403 -922 556 -719
Q 766 -438 888 0
Q 1038 550 1038 1531
Q 1038 2456 902 2967
Q 766 3478 531 3794
Q 369 4013 78 4178
L 78 4334
Q 831 4081 1354 3301
Q 1878 2522 1878 1509
Q 1878 513 1354 -257
Q 831 -1028 78 -1281
z
" transform="scale(0.015625)"/>
      </defs>
      <use xlink:href="#TimesNewRomanPS-BoldMT-37"/>
      <use xlink:href="#TimesNewRomanPS-BoldMT-4c" transform="translate(64.890625 0)"/>
      <use xlink:href="#TimesNewRomanPS-BoldMT-50" transform="translate(92.671875 0)"/>
      <use xlink:href="#TimesNewRomanPS-BoldMT-48" transform="translate(175.96875 0)"/>
      <use xlink:href="#TimesNewRomanPS-BoldMT-3" transform="translate(220.359375 0)"/>
      <use xlink:href="#TimesNewRomanPS-BoldMT-b" transform="translate(245.359375 0)"/>
      <use xlink:href="#TimesNewRomanPS-BoldMT-56" transform="translate(278.65625 0)"/>
      <use xlink:href="#TimesNewRomanPS-BoldMT-c" transform="translate(317.578125 0)"/>
     </g>
    </g>
   </g>
   <g id="matplotlib.axis_2">
    <g id="ytick_1">
     <g id="line2d_11">
      <path d="M 40.404844 415.827936
L 993.6 415.827936
" clip-path="url(#pb90ced6dbb)" style="fill: none; stroke: #b0b0b0; stroke-opacity: 0.3; stroke-width: 0.8; stroke-linecap: square"/>
     </g>
     <g id="line2d_12">
      <defs>
       <path id="m7bd9fbdd77" d="M 0 0
L 3.5 0
" style="stroke: #000000; stroke-width: 0.8"/>
      </defs>
      <g>
       <use xlink:href="#m7bd9fbdd77" x="40.404844" y="415.827936" style="stroke: #000000; stroke-width: 0.8"/>
      </g>
     </g>
     <g id="text_7">
      <!-- 50 -->
      <g transform="translate(26.904844 419.294733) scale(0.1 -0.1)">
       <defs>
        <path id="TimesNewRomanPSMT-18" d="M 2778 4238
L 2534 3706
L 1259 3706
L 981 3138
Q 1809 3016 2294 2522
Q 2709 2097 2709 1522
Q 2709 1188 2573 903
Q 2438 619 2231 419
Q 2025 219 1772 97
Q 1413 -75 1034 -75
Q 653 -75 479 54
Q 306 184 306 341
Q 306 428 378 495
Q 450 563 559 563
Q 641 563 702 538
Q 763 513 909 409
Q 1144 247 1384 247
Q 1750 247 2026 523
Q 2303 800 2303 1197
Q 2303 1581 2056 1914
Q 1809 2247 1375 2428
Q 1034 2569 447 2591
L 1259 4238
L 2778 4238
z
" transform="scale(0.015625)"/>
       </defs>
       <use xlink:href="#TimesNewRomanPSMT-18"/>
       <use xlink:href="#TimesNewRomanPSMT-13" transform="translate(50 0)"/>
      </g>
     </g>
    </g>
    <g id="ytick_2">
     <g id="line2d_13">
      <path d="M 40.404844 366.045429
L 993.6 366.045429
" clip-path="url(#pb90ced6dbb)" style="fill: none; stroke: #b0b0b0; stroke-opacity: 0.3; stroke-width: 0.8; stroke-linecap: square"/>
     </g>
     <g id="line2d_14">
      <g>
       <use xlink:href="#m7bd9fbdd77" x="40.404844" y="366.045429" style="stroke: #000000; stroke-width: 0.8"/>
      </g>
     </g>
     <g id="text_8">
      <!-- 52 -->
      <g transform="translate(26.904844 369.512226) scale(0.1 -0.1)">
       <use xlink:href="#TimesNewRomanPSMT-18"/>
       <use xlink:href="#TimesNewRomanPSMT-15" transform="translate(50 0)"/>
      </g>
     </g>
    </g>
    <g id="ytick_3">
     <g id="line2d_15">
      <path d="M 40.404844 316.262923
L 993.6 316.262923
" clip-path="url(#pb90ced6dbb)" style="fill: none; stroke: #b0b0b0; stroke-opacity: 0.3; stroke-width: 0.8; stroke-linecap: square"/>
     </g>
     <g id="line2d_16">
      <g>
       <use xlink:href="#m7bd9fbdd77" x="40.404844" y="316.262923" style="stroke: #000000; stroke-width: 0.8"/>
      </g>
     </g>
     <g id="text_9">
      <!-- 54 -->
      <g transform="translate(26.904844 319.72972) scale(0.1 -0.1)">
       <use xlink:href="#TimesNewRomanPSMT-18"/>
       <use xlink:href="#TimesNewRomanPSMT-17" transform="translate(50 0)"/>
      </g>
     </g>
    </g>
    <g id="ytick_4">
     <g id="line2d_17">
      <path d="M 40.404844 266.480416
L 993.6 266.480416
" clip-path="url(#pb90ced6dbb)" style="fill: none; stroke: #b0b0b0; stroke-opacity: 0.3; stroke-width: 0.8; stroke-linecap: square"/>
     </g>
     <g id="line2d_18">
      <g>
       <use xlink:href="#m7bd9fbdd77" x="40.404844" y="266.480416" style="stroke: #000000; stroke-width: 0.8"/>
      </g>
     </g>
     <g id="text_10">
      <!-- 56 -->
      <g transform="translate(26.904844 269.947213) scale(0.1 -0.1)">
       <use xlink:href="#TimesNewRomanPSMT-18"/>
       <use xlink:href="#TimesNewRomanPSMT-19" transform="translate(50 0)"/>
      </g>
     </g>
    </g>
    <g id="ytick_5">
     <g id="line2d_19">
      <path d="M 40.404844 216.697909
L 993.6 216.697909
" clip-path="url(#pb90ced6dbb)" style="fill: none; stroke: #b0b0b0; stroke-opacity: 0.3; stroke-width: 0.8; stroke-linecap: square"/>
     </g>
     <g id="line2d_20">
      <g>
       <use xlink:href="#m7bd9fbdd77" x="40.404844" y="216.697909" style="stroke: #000000; stroke-width: 0.8"/>
      </g>
     </g>
     <g id="text_11">
      <!-- 58 -->
      <g transform="translate(26.904844 220.164706) scale(0.1 -0.1)">
       <use xlink:href="#TimesNewRomanPSMT-18"/>
       <use xlink:href="#TimesNewRomanPSMT-1b" transform="translate(50 0)"/>
      </g>
     </g>
    </g>
    <g id="ytick_6">
     <g id="line2d_21">
      <path d="M 40.404844 166.915403
L 993.6 166.915403
" clip-path="url(#pb90ced6dbb)" style="fill: none; stroke: #b0b0b0; stroke-opacity: 0.3; stroke-width: 0.8; stroke-linecap: square"/>
     </g>
     <g id="line2d_22">
      <g>
       <use xlink:href="#m7bd9fbdd77" x="40.404844" y="166.915403" style="stroke: #000000; stroke-width: 0.8"/>
      </g>
     </g>
     <g id="text_12">
      <!-- 60 -->
      <g transform="translate(26.904844 170.3822) scale(0.1 -0.1)">
       <use xlink:href="#TimesNewRomanPSMT-19"/>
       <use xlink:href="#TimesNewRomanPSMT-13" transform="translate(50 0)"/>
      </g>
     </g>
    </g>
    <g id="ytick_7">
     <g id="line2d_23">
      <path d="M 40.404844 117.132896
L 993.6 117.132896
" clip-path="url(#pb90ced6dbb)" style="fill: none; stroke: #b0b0b0; stroke-opacity: 0.3; stroke-width: 0.8; stroke-linecap: square"/>
     </g>
     <g id="line2d_24">
      <g>
       <use xlink:href="#m7bd9fbdd77" x="40.404844" y="117.132896" style="stroke: #000000; stroke-width: 0.8"/>
      </g>
     </g>
     <g id="text_13">
      <!-- 62 -->
      <g transform="translate(26.904844 120.599693) scale(0.1 -0.1)">
       <use xlink:href="#TimesNewRomanPSMT-19"/>
       <use xlink:href="#TimesNewRomanPSMT-15" transform="translate(50 0)"/>
      </g>
     </g>
    </g>
    <g id="ytick_8">
     <g id="line2d_25">
      <path d="M 40.404844 67.350389
L 993.6 67.350389
" clip-path="url(#pb90ced6dbb)" style="fill: none; stroke: #b0b0b0; stroke-opacity: 0.3; stroke-width: 0.8; stroke-linecap: square"/>
     </g>
     <g id="line2d_26">
      <g>
       <use xlink:href="#m7bd9fbdd77" x="40.404844" y="67.350389" style="stroke: #000000; stroke-width: 0.8"/>
      </g>
     </g>
     <g id="text_14">
      <!-- 64 -->
      <g transform="translate(26.904844 70.817186) scale(0.1 -0.1)">
       <use xlink:href="#TimesNewRomanPSMT-19"/>
       <use xlink:href="#TimesNewRomanPSMT-17" transform="translate(50 0)"/>
      </g>
     </g>
    </g>
    <g id="ytick_9">
     <g id="line2d_27">
      <path d="M 40.404844 17.567883
L 993.6 17.567883
" clip-path="url(#pb90ced6dbb)" style="fill: none; stroke: #b0b0b0; stroke-opacity: 0.3; stroke-width: 0.8; stroke-linecap: square"/>
     </g>
     <g id="line2d_28">
      <g>
       <use xlink:href="#m7bd9fbdd77" x="40.404844" y="17.567883" style="stroke: #000000; stroke-width: 0.8"/>
      </g>
     </g>
     <g id="text_15">
      <!-- 66 -->
      <g transform="translate(26.904844 21.034679) scale(0.1 -0.1)">
       <use xlink:href="#TimesNewRomanPSMT-19"/>
       <use xlink:href="#TimesNewRomanPSMT-19" transform="translate(50 0)"/>
      </g>
     </g>
    </g>
    <g id="text_16">
     <!-- Transmitter Output (%TO) -->
     <g transform="translate(20.315 296.774832) rotate(-90) scale(0.12 -0.12)">
      <defs>
       <path id="TimesNewRomanPS-BoldMT-55" d="M 1428 2922
L 1428 2259
Q 1719 2713 1937 2861
Q 2156 3009 2359 3009
Q 2534 3009 2639 2901
Q 2744 2794 2744 2597
Q 2744 2388 2642 2272
Q 2541 2156 2397 2156
Q 2231 2156 2109 2262
Q 1988 2369 1966 2381
Q 1934 2400 1894 2400
Q 1803 2400 1722 2331
Q 1594 2225 1528 2028
Q 1428 1725 1428 1359
L 1428 688
L 1431 513
Q 1431 334 1453 284
Q 1491 200 1564 161
Q 1638 122 1813 113
L 1813 0
L 234 0
L 234 113
Q 425 128 492 217
Q 559 306 559 688
L 559 2303
Q 559 2553 534 2622
Q 503 2709 443 2750
Q 384 2791 234 2806
L 234 2922
L 1428 2922
z
" transform="scale(0.015625)"/>
       <path id="TimesNewRomanPS-BoldMT-44" d="M 1828 431
Q 1294 -41 869 -41
Q 619 -41 453 123
Q 288 288 288 534
Q 288 869 575 1136
Q 863 1403 1828 1847
L 1828 2141
Q 1828 2472 1792 2558
Q 1756 2644 1656 2708
Q 1556 2772 1431 2772
Q 1228 2772 1097 2681
Q 1016 2625 1016 2550
Q 1016 2484 1103 2388
Q 1222 2253 1222 2128
Q 1222 1975 1108 1867
Q 994 1759 809 1759
Q 613 1759 480 1878
Q 347 1997 347 2156
Q 347 2381 525 2586
Q 703 2791 1022 2900
Q 1341 3009 1684 3009
Q 2100 3009 2342 2832
Q 2584 2656 2656 2450
Q 2700 2319 2700 1847
L 2700 713
Q 2700 513 2715 461
Q 2731 409 2762 384
Q 2794 359 2834 359
Q 2916 359 3000 475
L 3094 400
Q 2938 169 2770 64
Q 2603 -41 2391 -41
Q 2141 -41 2000 76
Q 1859 194 1828 431
z
M 1828 659
L 1828 1638
Q 1450 1416 1266 1163
Q 1144 994 1144 822
Q 1144 678 1247 569
Q 1325 484 1466 484
Q 1622 484 1828 659
z
" transform="scale(0.015625)"/>
       <path id="TimesNewRomanPS-BoldMT-51" d="M 1409 2922
L 1409 2544
Q 1634 2788 1840 2898
Q 2047 3009 2284 3009
Q 2569 3009 2756 2851
Q 2944 2694 3006 2459
Q 3056 2281 3056 1775
L 3056 638
Q 3056 300 3117 217
Q 3178 134 3372 113
L 3372 0
L 1894 0
L 1894 113
Q 2059 134 2131 250
Q 2181 328 2181 638
L 2181 1938
Q 2181 2297 2153 2390
Q 2125 2484 2058 2536
Q 1991 2588 1909 2588
Q 1641 2588 1409 2203
L 1409 638
Q 1409 309 1470 221
Q 1531 134 1697 113
L 1697 0
L 219 0
L 219 113
Q 403 131 481 231
Q 534 300 534 638
L 534 2288
Q 534 2619 473 2700
Q 413 2781 219 2806
L 219 2922
L 1409 2922
z
" transform="scale(0.015625)"/>
       <path id="TimesNewRomanPS-BoldMT-57" d="M 1375 3991
L 1375 2922
L 2069 2922
L 2069 2613
L 1375 2613
L 1375 809
Q 1375 556 1398 482
Q 1422 409 1481 364
Q 1541 319 1591 319
Q 1794 319 1975 628
L 2069 559
Q 1816 -41 1247 -41
Q 969 -41 776 114
Q 584 269 531 459
Q 500 566 500 1034
L 500 2613
L 119 2613
L 119 2722
Q 513 3000 789 3306
Q 1066 3613 1272 3991
L 1375 3991
z
" transform="scale(0.015625)"/>
       <path id="TimesNewRomanPS-BoldMT-32" d="M 2472 4297
Q 3484 4334 4117 3706
Q 4750 3078 4750 2134
Q 4750 1328 4278 716
Q 3653 -97 2513 -97
Q 1369 -97 744 678
Q 250 1291 250 2131
Q 250 3075 892 3704
Q 1534 4334 2472 4297
z
M 2509 4097
Q 1928 4097 1625 3503
Q 1378 3016 1378 2103
Q 1378 1019 1759 500
Q 2025 138 2503 138
Q 2825 138 3041 294
Q 3316 494 3469 933
Q 3622 1372 3622 2078
Q 3622 2919 3465 3336
Q 3309 3753 3067 3925
Q 2825 4097 2509 4097
z
" transform="scale(0.015625)"/>
       <path id="TimesNewRomanPS-BoldMT-58" d="M 3038 2922
L 3038 634
Q 3038 300 3100 217
Q 3163 134 3353 113
L 3353 0
L 2163 0
L 2163 391
Q 1953 141 1743 26
Q 1534 -88 1275 -88
Q 1028 -88 836 64
Q 644 216 578 419
Q 513 622 513 1128
L 513 2288
Q 513 2619 452 2700
Q 391 2781 197 2806
L 197 2922
L 1388 2922
L 1388 925
Q 1388 613 1417 522
Q 1447 431 1511 384
Q 1575 338 1659 338
Q 1772 338 1863 397
Q 1988 478 2163 725
L 2163 2288
Q 2163 2619 2102 2700
Q 2041 2781 1847 2806
L 1847 2922
L 3038 2922
z
" transform="scale(0.015625)"/>
       <path id="TimesNewRomanPS-BoldMT-53" d="M 1347 297
L 1347 -791
Q 1347 -1016 1383 -1097
Q 1419 -1178 1494 -1215
Q 1569 -1253 1788 -1253
L 1788 -1369
L 122 -1369
L 122 -1253
Q 316 -1247 409 -1144
Q 472 -1072 472 -772
L 472 2313
Q 472 2622 400 2708
Q 328 2794 122 2806
L 122 2922
L 1347 2922
L 1347 2538
Q 1500 2763 1659 2863
Q 1888 3009 2156 3009
Q 2478 3009 2742 2806
Q 3006 2603 3143 2245
Q 3281 1888 3281 1475
Q 3281 1031 3139 664
Q 2997 297 2726 104
Q 2456 -88 2125 -88
Q 1884 -88 1675 19
Q 1519 100 1347 297
z
M 1347 613
Q 1616 231 1922 231
Q 2091 231 2200 409
Q 2363 672 2363 1409
Q 2363 2166 2184 2444
Q 2066 2628 1866 2628
Q 1550 2628 1347 2172
L 1347 613
z
" transform="scale(0.015625)"/>
       <path id="TimesNewRomanPS-BoldMT-8" d="M 4916 4334
L 1906 -178
L 1488 -178
L 4494 4334
L 4916 4334
z
M 1494 4334
Q 1938 4334 2242 4020
Q 2547 3706 2547 3209
Q 2547 2700 2240 2383
Q 1934 2066 1481 2066
Q 1034 2066 739 2372
Q 444 2678 444 3178
Q 444 3694 747 4014
Q 1050 4334 1494 4334
z
M 1494 4169
Q 1425 4169 1381 4128
Q 1303 4056 1264 3879
Q 1225 3703 1225 3150
Q 1225 2709 1278 2469
Q 1309 2331 1384 2263
Q 1431 2222 1494 2222
Q 1563 2222 1603 2259
Q 1675 2325 1709 2472
Q 1763 2709 1763 3138
Q 1763 3663 1713 3897
Q 1678 4059 1600 4134
Q 1563 4169 1494 4169
z
M 4894 2097
Q 5347 2097 5651 1786
Q 5956 1475 5956 972
Q 5956 463 5647 144
Q 5338 -175 4900 -175
Q 4466 -175 4161 144
Q 3856 463 3856 963
Q 3856 1466 4153 1781
Q 4450 2097 4894 2097
z
M 4903 1934
Q 4841 1934 4797 1897
Q 4722 1828 4681 1658
Q 4641 1488 4641 1006
Q 4641 494 4688 269
Q 4722 109 4803 38
Q 4844 0 4909 0
Q 4969 0 5006 34
Q 5084 106 5122 269
Q 5175 497 5175 959
Q 5175 1447 5125 1672
Q 5088 1834 5013 1900
Q 4975 1934 4903 1934
z
" transform="scale(0.015625)"/>
      </defs>
      <use xlink:href="#TimesNewRomanPS-BoldMT-37"/>
      <use xlink:href="#TimesNewRomanPS-BoldMT-55" transform="translate(59.28125 0)"/>
      <use xlink:href="#TimesNewRomanPS-BoldMT-44" transform="translate(103.671875 0)"/>
      <use xlink:href="#TimesNewRomanPS-BoldMT-51" transform="translate(153.671875 0)"/>
      <use xlink:href="#TimesNewRomanPS-BoldMT-56" transform="translate(209.28125 0)"/>
      <use xlink:href="#TimesNewRomanPS-BoldMT-50" transform="translate(248.203125 0)"/>
      <use xlink:href="#TimesNewRomanPS-BoldMT-4c" transform="translate(331.5 0)"/>
      <use xlink:href="#TimesNewRomanPS-BoldMT-57" transform="translate(359.28125 0)"/>
      <use xlink:href="#TimesNewRomanPS-BoldMT-57" transform="translate(392.578125 0)"/>
      <use xlink:href="#TimesNewRomanPS-BoldMT-48" transform="translate(425.875 0)"/>
      <use xlink:href="#TimesNewRomanPS-BoldMT-55" transform="translate(470.265625 0)"/>
      <use xlink:href="#TimesNewRomanPS-BoldMT-3" transform="translate(512.84375 0)"/>
      <use xlink:href="#TimesNewRomanPS-BoldMT-32" transform="translate(537.84375 0)"/>
      <use xlink:href="#TimesNewRomanPS-BoldMT-58" transform="translate(615.625 0)"/>
      <use xlink:href="#TimesNewRomanPS-BoldMT-57" transform="translate(671.234375 0)"/>
      <use xlink:href="#TimesNewRomanPS-BoldMT-53" transform="translate(704.53125 0)"/>
      <use xlink:href="#TimesNewRomanPS-BoldMT-58" transform="translate(760.140625 0)"/>
      <use xlink:href="#TimesNewRomanPS-BoldMT-57" transform="translate(815.75 0)"/>
      <use xlink:href="#TimesNewRomanPS-BoldMT-3" transform="translate(849.046875 0)"/>
      <use xlink:href="#TimesNewRomanPS-BoldMT-b" transform="translate(874.046875 0)"/>
      <use xlink:href="#TimesNewRomanPS-BoldMT-8" transform="translate(907.34375 0)"/>
      <use xlink:href="#TimesNewRomanPS-BoldMT-37" transform="translate(1007.34375 0)"/>
      <use xlink:href="#TimesNewRomanPS-BoldMT-32" transform="translate(1072.234375 0)"/>
      <use xlink:href="#TimesNewRomanPS-BoldMT-c" transform="translate(1150.015625 0)"/>
     </g>
    </g>
   </g>
   <g id="line2d_29">
    <path d="M 83.731896 415.827936
L 119.22864 415.71661
L 119.503733 415.07874
L 120.063742 413.918606
L 120.481293 413.545201
L 121.026566 413.374026
L 122.072899 413.321831
L 132.0057 413.317062
L 331.432951 413.223708
L 331.678569 412.691519
L 332.287702 411.394257
L 332.705253 411.028459
L 333.255438 410.861179
L 334.355807 410.809733
L 352.831209 410.806308
L 437.54493 410.910704
L 437.805286 411.5004
L 438.37512 412.703686
L 438.797583 413.086442
L 439.337943 413.257825
L 440.325329 413.309973
L 492.754992 413.31707
L 596.710444 413.206929
L 596.970799 412.617826
L 597.535721 411.422803
L 597.958184 411.038431
L 598.493632 410.865624
L 599.54979 410.811173
L 611.457361 410.806307
L 702.817511 410.916373
L 703.082779 411.512722
L 703.652613 412.716312
L 704.070164 413.089323
L 704.610524 413.25906
L 705.691245 413.313006
L 718.841644 413.317053
L 915.036559 413.436835
L 915.311651 414.079627
L 915.856924 415.214229
L 916.279387 415.597492
L 916.819747 415.768877
L 917.816957 415.820304
L 932.372292 415.827833
L 950.272947 415.827833
L 950.272947 415.827833
" clip-path="url(#pb90ced6dbb)" style="fill: none; stroke: #0055cc; stroke-width: 2; stroke-linecap: square"/>
   </g>
   <g id="line2d_30">
    <path d="M 83.731896 415.827936
L 119.22864 415.709894
L 119.449697 415.140177
L 119.926196 413.132905
L 121.748683 403.949741
L 124.686277 389.789176
L 127.609134 376.78327
L 130.536903 364.757207
L 133.469584 353.638507
L 136.41209 343.343811
L 139.359509 333.830273
L 142.321665 325.012675
L 145.293645 316.855287
L 148.280362 309.298585
L 151.286729 302.290357
L 154.312746 295.794605
L 157.363324 289.768153
L 160.438464 284.182511
L 163.538166 279.007898
L 166.686991 274.181389
L 169.875116 269.700668
L 173.092714 265.557412
L 176.467508 261.576229
L 179.817741 257.955362
L 183.271133 254.555628
L 186.690138 251.476859
L 190.266339 248.562399
L 193.842541 245.908263
L 198.047524 243.089125
L 201.893906 240.748844
L 205.681338 238.702802
L 210.701775 236.285297
L 214.936233 234.48136
L 219.185428 232.913244
L 224.029019 231.286329
L 228.833311 229.906151
L 234.349896 228.569771
L 240.171048 227.39309
L 247.372574 226.17596
L 252.437221 225.49534
L 261.195967 224.53181
L 270.372263 223.723027
L 284.200568 222.789894
L 299.173455 222.069796
L 312.785616 221.598891
L 330.342406 221.19169
L 331.437863 221.062999
L 331.663832 220.48458
L 332.125594 218.528537
L 333.90387 209.540997
L 336.836551 195.330936
L 339.754496 182.278178
L 342.687177 170.167212
L 345.624771 158.961228
L 348.55254 148.649796
L 351.499958 139.068747
L 354.457202 130.201903
L 357.434094 121.973308
L 360.391338 114.446233
L 363.38788 107.422527
L 366.423721 100.871846
L 369.479212 94.804812
L 372.544527 89.205352
L 375.644229 84.000058
L 378.773405 79.174714
L 381.956617 74.671951
L 385.188952 70.484004
L 388.450762 66.617226
L 391.79117 62.998562
L 395.254387 59.576101
L 398.771639 56.40135
L 402.406789 53.424992
L 406.00264 50.750925
L 409.981655 48.083876
L 413.739613 45.825306
L 419.285673 42.814247
L 423.328548 40.912226
L 428.358809 38.821784
L 432.897834 37.151379
L 437.397559 35.731163
L 437.549843 35.798922
L 437.75125 36.241525
L 438.173713 37.848804
L 439.460752 43.944123
L 442.55063 58.244332
L 445.478399 70.727114
L 448.41108 82.26807
L 451.348674 92.936962
L 454.296092 102.813868
L 457.253336 111.95518
L 460.220404 120.413157
L 463.202209 128.24917
L 466.198751 135.505862
L 469.214943 142.233675
L 472.250784 148.467535
L 475.311187 154.249279
L 478.401064 159.615954
L 481.525327 164.600433
L 484.68889 169.231836
L 487.896664 173.536185
L 491.153561 177.536752
L 494.469407 181.259661
L 497.854026 184.726744
L 501.307418 187.9478
L 504.868882 190.965665
L 508.528594 193.774238
L 512.296377 196.386897
L 516.177145 198.808271
L 520.224933 201.064468
L 524.518339 203.201067
L 528.939467 205.156047
L 533.660249 206.986651
L 538.837881 208.751938
L 543.681472 210.184694
L 549.517361 211.68145
L 555.461321 212.984172
L 562.289508 214.242979
L 568.921199 215.253234
L 577.154322 216.275956
L 586.62536 217.227768
L 596.582722 218.005363
L 596.720269 217.886581
L 596.941325 217.314917
L 597.422737 215.308431
L 599.171538 206.601744
L 602.109132 192.596139
L 605.031989 179.732783
L 607.959758 167.838366
L 610.89244 156.841704
L 613.834946 146.660082
L 616.787277 137.235663
L 619.749432 128.514745
L 622.726325 120.434298
L 625.717955 112.95029
L 628.729234 106.010668
L 631.760163 99.579442
L 634.815653 93.613291
L 637.900618 88.073463
L 641.010145 82.94272
L 644.154058 78.180495
L 647.33727 73.758572
L 650.574518 69.63979
L 653.865802 65.809934
L 657.220947 62.244873
L 660.649777 58.924064
L 664.16703 55.826151
L 667.777617 52.941293
L 671.501189 50.249917
L 675.357395 47.737072
L 679.35606 45.396923
L 683.526657 43.214651
L 687.864275 41.195737
L 692.481897 39.294113
L 697.232153 37.57542
L 702.23294 35.997486
L 702.817511 35.936606
L 703.028743 36.411233
L 703.465944 38.089498
L 704.792282 44.378593
L 707.813386 58.338711
L 710.741155 70.816324
L 713.683661 82.393873
L 716.640904 93.130446
L 719.558849 102.901495
L 722.51118 112.019842
L 725.473335 120.457883
L 728.45514 128.28968
L 731.451683 135.542634
L 734.467874 142.26697
L 737.503715 148.497518
L 740.564118 154.27626
L 743.653995 159.64051
L 746.778259 164.62313
L 749.936909 169.246007
L 753.139771 173.542952
L 756.396668 177.542889
L 759.712514 181.265181
L 763.102045 184.737497
L 766.570174 187.975089
L 770.224973 191.077895
L 773.889597 193.925639
L 777.485448 196.440789
L 781.955699 199.262549
L 785.782431 201.410292
L 790.409878 203.725432
L 794.580475 205.571988
L 799.09985 207.319627
L 803.874668 208.927775
L 809.189847 210.480333
L 814.873452 211.880197
L 821.446195 213.265329
L 828.446314 214.480339
L 836.114515 215.589266
L 844.937121 216.619875
L 854.683252 217.526241
L 865.839231 218.324322
L 878.061193 218.961518
L 894.046026 219.554989
L 908.984526 219.905296
L 915.031646 220.109177
L 915.252703 220.68001
L 915.72429 222.669463
L 917.51239 231.703222
L 920.435247 245.845803
L 923.353191 258.882217
L 926.285873 270.977889
L 929.223467 282.170575
L 932.146323 292.454433
L 935.06918 301.948011
L 938.006774 310.752869
L 940.96893 318.941708
L 943.92126 326.45991
L 946.907978 333.464681
L 949.948731 340.031425
L 950.272947 340.700388
L 950.272947 340.700388
" clip-path="url(#pb90ced6dbb)" style="fill: none; stroke: #d65a00; stroke-width: 2; stroke-linecap: square"/>
   </g>
   <g id="line2d_31">
    <path d="M 83.731896 415.827936
L 950.272947 415.827936
L 950.272947 415.827936
" clip-path="url(#pb90ced6dbb)" style="fill: none; stroke-dasharray: 5.55,2.4; stroke-dashoffset: 0; stroke: #d65a00; stroke-width: 1.5"/>
   </g>
   <g id="patch_3">
    <path d="M 40.404844 434.834597
L 40.404844 16.717567
" style="fill: none; stroke: #1a1a1a; stroke-linejoin: miter; stroke-linecap: square"/>
   </g>
   <g id="patch_4">
    <path d="M 993.6 434.834597
L 993.6 16.717567
" style="fill: none; stroke: #1a1a1a; stroke-linejoin: miter; stroke-linecap: square"/>
   </g>
   <g id="patch_5">
    <path d="M 40.404844 434.834597
L 993.6 434.834597
" style="fill: none; stroke: #1a1a1a; stroke-linejoin: miter; stroke-linecap: square"/>
   </g>
   <g id="patch_6">
    <path d="M 40.404844 16.717567
L 993.6 16.717567
" style="fill: none; stroke: #1a1a1a; stroke-linejoin: miter; stroke-linecap: square"/>
   </g>
   <g id="legend_1">
    <g id="patch_7">
     <path d="M 404.946172 494.623333
L 629.058672 494.623333
Q 631.058672 494.623333 631.058672 492.623333
L 631.058672 479.46513
Q 631.058672 477.46513 629.058672 477.46513
L 404.946172 477.46513
Q 402.946172 477.46513 402.946172 479.46513
L 402.946172 492.623333
Q 402.946172 494.623333 404.946172 494.623333
z
" style="fill: #ffffff; opacity: 0.95; stroke: #808080; stroke-linejoin: miter"/>
    </g>
    <g id="line2d_32">
     <path d="M 406.946172 484.96513
L 416.946172 484.96513
L 426.946172 484.96513
" style="fill: none; stroke: #0055cc; stroke-width: 2; stroke-linecap: square"/>
    </g>
    <g id="text_17">
     <!-- Tight -->
     <g transform="translate(434.946172 488.46513) scale(0.1 -0.1)">
      <defs>
       <path id="TimesNewRomanPSMT-37" d="M 3703 4238
L 3750 3244
L 3631 3244
Q 3597 3506 3538 3619
Q 3441 3800 3280 3886
Q 3119 3972 2856 3972
L 2259 3972
L 2259 734
Q 2259 344 2344 247
Q 2463 116 2709 116
L 2856 116
L 2856 0
L 1059 0
L 1059 116
L 1209 116
Q 1478 116 1591 278
Q 1659 378 1659 734
L 1659 3972
L 1150 3972
Q 853 3972 728 3928
Q 566 3869 450 3700
Q 334 3531 313 3244
L 194 3244
L 244 4238
L 3703 4238
z
" transform="scale(0.015625)"/>
       <path id="TimesNewRomanPSMT-4c" d="M 928 4444
Q 1059 4444 1151 4351
Q 1244 4259 1244 4128
Q 1244 3997 1151 3903
Q 1059 3809 928 3809
Q 797 3809 703 3903
Q 609 3997 609 4128
Q 609 4259 701 4351
Q 794 4444 928 4444
z
M 1188 2947
L 1188 647
Q 1188 378 1227 289
Q 1266 200 1342 156
Q 1419 113 1622 113
L 1622 0
L 231 0
L 231 113
Q 441 113 512 153
Q 584 194 626 287
Q 669 381 669 647
L 669 1750
Q 669 2216 641 2353
Q 619 2453 572 2492
Q 525 2531 444 2531
Q 356 2531 231 2484
L 188 2597
L 1050 2947
L 1188 2947
z
" transform="scale(0.015625)"/>
       <path id="TimesNewRomanPSMT-4a" d="M 966 1044
Q 703 1172 562 1401
Q 422 1631 422 1909
Q 422 2334 742 2640
Q 1063 2947 1563 2947
Q 1972 2947 2272 2747
L 2878 2747
Q 3013 2747 3034 2739
Q 3056 2731 3066 2713
Q 3084 2684 3084 2613
Q 3084 2531 3069 2500
Q 3059 2484 3036 2475
Q 3013 2466 2878 2466
L 2506 2466
Q 2681 2241 2681 1891
Q 2681 1491 2375 1206
Q 2069 922 1553 922
Q 1341 922 1119 984
Q 981 866 932 777
Q 884 688 884 625
Q 884 572 936 522
Q 988 472 1138 450
Q 1225 438 1575 428
Q 2219 413 2409 384
Q 2700 344 2873 169
Q 3047 -6 3047 -263
Q 3047 -616 2716 -925
Q 2228 -1381 1444 -1381
Q 841 -1381 425 -1109
Q 191 -953 191 -784
Q 191 -709 225 -634
Q 278 -519 444 -313
Q 466 -284 763 25
Q 600 122 533 198
Q 466 275 466 372
Q 466 481 555 628
Q 644 775 966 1044
z
M 1509 2797
Q 1278 2797 1122 2612
Q 966 2428 966 2047
Q 966 1553 1178 1281
Q 1341 1075 1591 1075
Q 1828 1075 1981 1253
Q 2134 1431 2134 1813
Q 2134 2309 1919 2591
Q 1759 2797 1509 2797
z
M 934 0
Q 788 -159 713 -296
Q 638 -434 638 -550
Q 638 -700 819 -813
Q 1131 -1006 1722 -1006
Q 2284 -1006 2551 -807
Q 2819 -609 2819 -384
Q 2819 -222 2659 -153
Q 2497 -84 2016 -72
Q 1313 -53 934 0
z
" transform="scale(0.015625)"/>
       <path id="TimesNewRomanPSMT-4b" d="M 1041 4444
L 1041 2350
Q 1388 2731 1591 2839
Q 1794 2947 1997 2947
Q 2241 2947 2416 2812
Q 2591 2678 2675 2391
Q 2734 2191 2734 1659
L 2734 647
Q 2734 375 2778 275
Q 2809 200 2884 156
Q 2959 113 3159 113
L 3159 0
L 1753 0
L 1753 113
L 1819 113
Q 2019 113 2097 173
Q 2175 234 2206 353
Q 2216 403 2216 647
L 2216 1659
Q 2216 2128 2167 2275
Q 2119 2422 2012 2495
Q 1906 2569 1756 2569
Q 1603 2569 1437 2487
Q 1272 2406 1041 2159
L 1041 647
Q 1041 353 1073 281
Q 1106 209 1195 161
Q 1284 113 1503 113
L 1503 0
L 84 0
L 84 113
Q 275 113 384 172
Q 447 203 484 290
Q 522 378 522 647
L 522 3238
Q 522 3728 498 3840
Q 475 3953 426 3993
Q 378 4034 297 4034
Q 231 4034 84 3984
L 41 4094
L 897 4444
L 1041 4444
z
" transform="scale(0.015625)"/>
       <path id="TimesNewRomanPSMT-57" d="M 1031 3803
L 1031 2863
L 1700 2863
L 1700 2644
L 1031 2644
L 1031 788
Q 1031 509 1111 412
Q 1191 316 1316 316
Q 1419 316 1516 380
Q 1613 444 1666 569
L 1788 569
Q 1678 263 1478 108
Q 1278 -47 1066 -47
Q 922 -47 784 33
Q 647 113 581 261
Q 516 409 516 719
L 516 2644
L 63 2644
L 63 2747
Q 234 2816 414 2980
Q 594 3144 734 3369
Q 806 3488 934 3803
L 1031 3803
z
" transform="scale(0.015625)"/>
      </defs>
      <use xlink:href="#TimesNewRomanPSMT-37"/>
      <use xlink:href="#TimesNewRomanPSMT-4c" transform="translate(57.5625 0)"/>
      <use xlink:href="#TimesNewRomanPSMT-4a" transform="translate(85.34375 0)"/>
      <use xlink:href="#TimesNewRomanPSMT-4b" transform="translate(135.34375 0)"/>
      <use xlink:href="#TimesNewRomanPSMT-57" transform="translate(185.34375 0)"/>
     </g>
    </g>
    <g id="line2d_33">
     <path d="M 476.258672 484.96513
L 486.258672 484.96513
L 496.258672 484.96513
" style="fill: none; stroke: #d65a00; stroke-width: 2; stroke-linecap: square"/>
    </g>
    <g id="text_18">
     <!-- Averaging -->
     <g transform="translate(504.258672 488.46513) scale(0.1 -0.1)">
      <defs>
       <path id="TimesNewRomanPSMT-24" d="M 2928 1419
L 1288 1419
L 1000 750
Q 894 503 894 381
Q 894 284 986 211
Q 1078 138 1384 116
L 1384 0
L 50 0
L 50 116
Q 316 163 394 238
Q 553 388 747 847
L 2238 4334
L 2347 4334
L 3822 809
Q 4000 384 4145 257
Q 4291 131 4550 116
L 4550 0
L 2878 0
L 2878 116
Q 3131 128 3220 200
Q 3309 272 3309 375
Q 3309 513 3184 809
L 2928 1419
z
M 2841 1650
L 2122 3363
L 1384 1650
L 2841 1650
z
" transform="scale(0.015625)"/>
       <path id="TimesNewRomanPSMT-59" d="M 53 2863
L 1400 2863
L 1400 2747
L 1313 2747
Q 1191 2747 1127 2687
Q 1063 2628 1063 2528
Q 1063 2419 1128 2269
L 1794 688
L 2463 2328
Q 2534 2503 2534 2594
Q 2534 2638 2509 2666
Q 2475 2713 2422 2730
Q 2369 2747 2206 2747
L 2206 2863
L 3141 2863
L 3141 2747
Q 2978 2734 2916 2681
Q 2806 2588 2719 2369
L 1703 -88
L 1575 -88
L 553 2328
Q 484 2497 421 2570
Q 359 2644 263 2694
Q 209 2722 53 2747
L 53 2863
z
" transform="scale(0.015625)"/>
       <path id="TimesNewRomanPSMT-48" d="M 681 1784
Q 678 1147 991 784
Q 1303 422 1725 422
Q 2006 422 2214 576
Q 2422 731 2563 1106
L 2659 1044
Q 2594 616 2278 264
Q 1963 -88 1488 -88
Q 972 -88 605 314
Q 238 716 238 1394
Q 238 2128 614 2539
Q 991 2950 1559 2950
Q 2041 2950 2350 2633
Q 2659 2316 2659 1784
L 681 1784
z
M 681 1966
L 2006 1966
Q 1991 2241 1941 2353
Q 1863 2528 1708 2628
Q 1553 2728 1384 2728
Q 1125 2728 920 2526
Q 716 2325 681 1966
z
" transform="scale(0.015625)"/>
       <path id="TimesNewRomanPSMT-55" d="M 1038 2947
L 1038 2303
Q 1397 2947 1775 2947
Q 1947 2947 2059 2842
Q 2172 2738 2172 2600
Q 2172 2478 2090 2393
Q 2009 2309 1897 2309
Q 1788 2309 1652 2417
Q 1516 2525 1450 2525
Q 1394 2525 1328 2463
Q 1188 2334 1038 2041
L 1038 669
Q 1038 431 1097 309
Q 1138 225 1241 169
Q 1344 113 1538 113
L 1538 0
L 72 0
L 72 113
Q 291 113 397 181
Q 475 231 506 341
Q 522 394 522 644
L 522 1753
Q 522 2253 501 2348
Q 481 2444 426 2487
Q 372 2531 291 2531
Q 194 2531 72 2484
L 41 2597
L 906 2947
L 1038 2947
z
" transform="scale(0.015625)"/>
       <path id="TimesNewRomanPSMT-44" d="M 1822 413
Q 1381 72 1269 19
Q 1100 -59 909 -59
Q 613 -59 420 144
Q 228 347 228 678
Q 228 888 322 1041
Q 450 1253 767 1440
Q 1084 1628 1822 1897
L 1822 2009
Q 1822 2438 1686 2597
Q 1550 2756 1291 2756
Q 1094 2756 978 2650
Q 859 2544 859 2406
L 866 2225
Q 866 2081 792 2003
Q 719 1925 600 1925
Q 484 1925 411 2006
Q 338 2088 338 2228
Q 338 2497 613 2722
Q 888 2947 1384 2947
Q 1766 2947 2009 2819
Q 2194 2722 2281 2516
Q 2338 2381 2338 1966
L 2338 994
Q 2338 584 2353 492
Q 2369 400 2405 369
Q 2441 338 2488 338
Q 2538 338 2575 359
Q 2641 400 2828 588
L 2828 413
Q 2478 -56 2159 -56
Q 2006 -56 1915 50
Q 1825 156 1822 413
z
M 1822 616
L 1822 1706
Q 1350 1519 1213 1441
Q 966 1303 859 1153
Q 753 1003 753 825
Q 753 600 887 451
Q 1022 303 1197 303
Q 1434 303 1822 616
z
" transform="scale(0.015625)"/>
       <path id="TimesNewRomanPSMT-51" d="M 1034 2341
Q 1538 2947 1994 2947
Q 2228 2947 2397 2830
Q 2566 2713 2666 2444
Q 2734 2256 2734 1869
L 2734 647
Q 2734 375 2778 278
Q 2813 200 2889 156
Q 2966 113 3172 113
L 3172 0
L 1756 0
L 1756 113
L 1816 113
Q 2016 113 2095 173
Q 2175 234 2206 353
Q 2219 400 2219 647
L 2219 1819
Q 2219 2209 2117 2386
Q 2016 2563 1775 2563
Q 1403 2563 1034 2156
L 1034 647
Q 1034 356 1069 288
Q 1113 197 1189 155
Q 1266 113 1500 113
L 1500 0
L 84 0
L 84 113
L 147 113
Q 366 113 442 223
Q 519 334 519 647
L 519 1709
Q 519 2225 495 2337
Q 472 2450 423 2490
Q 375 2531 294 2531
Q 206 2531 84 2484
L 38 2597
L 900 2947
L 1034 2947
L 1034 2341
z
" transform="scale(0.015625)"/>
      </defs>
      <use xlink:href="#TimesNewRomanPSMT-24"/>
      <use xlink:href="#TimesNewRomanPSMT-59" transform="translate(64.796875 0)"/>
      <use xlink:href="#TimesNewRomanPSMT-48" transform="translate(114.796875 0)"/>
      <use xlink:href="#TimesNewRomanPSMT-55" transform="translate(159.1875 0)"/>
      <use xlink:href="#TimesNewRomanPSMT-44" transform="translate(192.484375 0)"/>
      <use xlink:href="#TimesNewRomanPSMT-4a" transform="translate(236.875 0)"/>
      <use xlink:href="#TimesNewRomanPSMT-4c" transform="translate(286.875 0)"/>
      <use xlink:href="#TimesNewRomanPSMT-51" transform="translate(314.65625 0)"/>
      <use xlink:href="#TimesNewRomanPSMT-4a" transform="translate(364.65625 0)"/>
     </g>
    </g>
    <g id="line2d_34">
     <path d="M 565.724297 484.96513
L 575.724297 484.96513
L 585.724297 484.96513
" style="fill: none; stroke-dasharray: 5.55,2.4; stroke-dashoffset: 0; stroke: #d65a00; stroke-width: 1.5"/>
    </g>
    <g id="text_19">
     <!-- Setpoint -->
     <g transform="translate(593.724297 488.46513) scale(0.1 -0.1)">
      <defs>
       <path id="TimesNewRomanPSMT-36" d="M 2934 4334
L 2934 2869
L 2819 2869
Q 2763 3291 2617 3541
Q 2472 3791 2203 3937
Q 1934 4084 1647 4084
Q 1322 4084 1109 3886
Q 897 3688 897 3434
Q 897 3241 1031 3081
Q 1225 2847 1953 2456
Q 2547 2138 2764 1967
Q 2981 1797 3098 1565
Q 3216 1334 3216 1081
Q 3216 600 2842 251
Q 2469 -97 1881 -97
Q 1697 -97 1534 -69
Q 1438 -53 1133 45
Q 828 144 747 144
Q 669 144 623 97
Q 578 50 556 -97
L 441 -97
L 441 1356
L 556 1356
Q 638 900 775 673
Q 913 447 1195 297
Q 1478 147 1816 147
Q 2206 147 2432 353
Q 2659 559 2659 841
Q 2659 997 2573 1156
Q 2488 1316 2306 1453
Q 2184 1547 1640 1851
Q 1097 2156 867 2337
Q 638 2519 519 2737
Q 400 2956 400 3219
Q 400 3675 750 4004
Q 1100 4334 1641 4334
Q 1978 4334 2356 4169
Q 2531 4091 2603 4091
Q 2684 4091 2736 4139
Q 2788 4188 2819 4334
L 2934 4334
z
" transform="scale(0.015625)"/>
       <path id="TimesNewRomanPSMT-53" d="M -6 2578
L 875 2934
L 994 2934
L 994 2266
Q 1216 2644 1439 2795
Q 1663 2947 1909 2947
Q 2341 2947 2628 2609
Q 2981 2197 2981 1534
Q 2981 794 2556 309
Q 2206 -88 1675 -88
Q 1444 -88 1275 -22
Q 1150 25 994 166
L 994 -706
Q 994 -1000 1030 -1079
Q 1066 -1159 1155 -1206
Q 1244 -1253 1478 -1253
L 1478 -1369
L -22 -1369
L -22 -1253
L 56 -1253
Q 228 -1256 350 -1188
Q 409 -1153 442 -1076
Q 475 -1000 475 -688
L 475 2019
Q 475 2297 450 2372
Q 425 2447 370 2484
Q 316 2522 222 2522
Q 147 2522 31 2478
L -6 2578
z
M 994 2081
L 994 1013
Q 994 666 1022 556
Q 1066 375 1236 237
Q 1406 100 1666 100
Q 1978 100 2172 344
Q 2425 663 2425 1241
Q 2425 1897 2138 2250
Q 1938 2494 1663 2494
Q 1513 2494 1366 2419
Q 1253 2363 994 2081
z
" transform="scale(0.015625)"/>
       <path id="TimesNewRomanPSMT-52" d="M 1600 2947
Q 2250 2947 2644 2453
Q 2978 2031 2978 1484
Q 2978 1100 2793 706
Q 2609 313 2286 112
Q 1963 -88 1566 -88
Q 919 -88 538 428
Q 216 863 216 1403
Q 216 1797 411 2186
Q 606 2575 925 2761
Q 1244 2947 1600 2947
z
M 1503 2744
Q 1338 2744 1170 2645
Q 1003 2547 900 2300
Q 797 2053 797 1666
Q 797 1041 1045 587
Q 1294 134 1700 134
Q 2003 134 2200 384
Q 2397 634 2397 1244
Q 2397 2006 2069 2444
Q 1847 2744 1503 2744
z
" transform="scale(0.015625)"/>
      </defs>
      <use xlink:href="#TimesNewRomanPSMT-36"/>
      <use xlink:href="#TimesNewRomanPSMT-48" transform="translate(55.609375 0)"/>
      <use xlink:href="#TimesNewRomanPSMT-57" transform="translate(100 0)"/>
      <use xlink:href="#TimesNewRomanPSMT-53" transform="translate(127.78125 0)"/>
      <use xlink:href="#TimesNewRomanPSMT-52" transform="translate(177.78125 0)"/>
      <use xlink:href="#TimesNewRomanPSMT-4c" transform="translate(227.78125 0)"/>
      <use xlink:href="#TimesNewRomanPSMT-51" transform="translate(255.5625 0)"/>
      <use xlink:href="#TimesNewRomanPSMT-57" transform="translate(305.5625 0)"/>
     </g>
    </g>
   </g>
  </g>
  <g id="patch_8">
   <path d="M 3.6 502.56
L 1001.52 502.56
L 1001.52 3.6
L 3.6 3.6
L 3.6 502.56
z
" style="fill: none; stroke: #1a1a1a; stroke-width: 1.2; stroke-linejoin: miter"/>
  </g>
 </g>
 <defs>
  <clipPath id="pb90ced6dbb">
   <rect x="40.404844" y="16.717567" width="953.195156" height="418.11703"/>
  </clipPath>
 </defs>
</svg>
