<?xml version="1.0" encoding="utf-8" standalone="no"?>
<!DOCTYPE svg PUBLIC "-//W3C//DTD SVG 1.1//EN"
  "http://www.w3.org/Graphics/SVG/1.1/DTD/svg11.dtd">
<svg xmlns:xlink="http://www.w3.org/1999/xlink" width="1005.12pt" height="506.16pt" viewBox="0 0 1005.12 506.16" xmlns="http://www.w3.org/2000/svg" version="1.1">
 <metadata>
  <rdf:RDF xmlns:dc="http://purl.org/dc/elements/1.1/" xmlns:cc="http://creativecommons.org/ns#" xmlns:rdf="http://www.w3.org/1999/02/22-rdf-syntax-ns#">
   <cc:Work>
    <dc:type rdf:resource="http://purl.org/dc/dcmitype/StillImage"/>
    <dc:date>2026-07-20T17:38:14.490534</dc:date>
    <dc:format>image/svg+xml</dc:format>
    <dc:creator>
     <cc:Agent>
      <dc:title>Matplotlib v3.11.1, https://matplotlib.org/</dc:title>
     </cc:Agent>
    </dc:creator>
   </cc:Work>
  </rdf:RDF>
 </metadata>
 <defs>
  <style type="text/css">*{stroke-linejoin: round; stroke-linecap: butt}</style>
 </defs>
 <g id="figure_1">
  <g id="patch_1">
   <path d="M 0 506.16
L 1005.12 506.16
L 1005.12 0
L 0 0
z
" style="fill: #ffffff"/>
  </g>
  <g id="axes_1">
   <g id="patch_2">
    <path d="M 40.404844 434.834597
L 993.6 434.834597
L 993.6 14.04
L 40.404844 14.04
z
" style="fill: #ffffff"/>
   </g>
   <g id="matplotlib.axis_1">
    <g id="xtick_1">
     <g id="line2d_1">
      <path d="M 83.731896 434.834597
L 83.731896 14.04
" clip-path="url(#p4980a3b3a9)" style="fill: none; stroke: #b0b0b0; stroke-opacity: 0.3; stroke-width: 0.8; stroke-linecap: square"/>
     </g>
     <g id="line2d_2">
      <defs>
       <path id="m908de6e676" d="M 0 0
L 0 -3.5
" style="stroke: #000000; stroke-width: 0.8"/>
      </defs>
      <g>
       <use xlink:href="#m908de6e676" x="83.731896" y="434.834597" style="stroke: #000000; stroke-width: 0.8"/>
      </g>
     </g>
     <g id="text_1">
      <!-- 0 -->
      <g transform="translate(81.231896 445.268191) scale(0.1 -0.1)">
       <defs>
        <path id="TimesNewRomanPSMT-13" d="M 231 2094
Q 231 2819 450 3342
Q 669 3866 1031 4122
Q 1313 4325 1613 4325
Q 2100 4325 2488 3828
Q 2972 3213 2972 2159
Q 2972 1422 2759 906
Q 2547 391 2217 158
Q 1888 -75 1581 -75
Q 975 -75 572 641
Q 231 1244 231 2094
z
M 844 2016
Q 844 1141 1059 588
Q 1238 122 1591 122
Q 1759 122 1940 273
Q 2122 425 2216 781
Q 2359 1319 2359 2297
Q 2359 3022 2209 3506
Q 2097 3866 1919 4016
Q 1791 4119 1609 4119
Q 1397 4119 1231 3928
Q 1006 3669 925 3112
Q 844 2556 844 2016
z
" transform="scale(0.015625)"/>
       </defs>
       <use xlink:href="#TimesNewRomanPSMT-13"/>
      </g>
     </g>
    </g>
    <g id="xtick_2">
     <g id="line2d_3">
      <path d="M 228.155405 434.834597
L 228.155405 14.04
" clip-path="url(#p4980a3b3a9)" style="fill: none; stroke: #b0b0b0; stroke-opacity: 0.3; stroke-width: 0.8; stroke-linecap: square"/>
     </g>
     <g id="line2d_4">
      <g>
       <use xlink:href="#m908de6e676" x="228.155405" y="434.834597" style="stroke: #000000; stroke-width: 0.8"/>
      </g>
     </g>
     <g id="text_2">
      <!-- 5000 -->
      <g transform="translate(218.155405 445.268191) scale(0.1 -0.1)">
       <defs>
        <path id="TimesNewRomanPSMT-18" d="M 2778 4238
L 2534 3706
L 1259 3706
L 981 3138
Q 1809 3016 2294 2522
Q 2709 2097 2709 1522
Q 2709 1188 2573 903
Q 2438 619 2231 419
Q 2025 219 1772 97
Q 1413 -75 1034 -75
Q 653 -75 479 54
Q 306 184 306 341
Q 306 428 378 495
Q 450 563 559 563
Q 641 563 702 538
Q 763 513 909 409
Q 1144 247 1384 247
Q 1750 247 2026 523
Q 2303 800 2303 1197
Q 2303 1581 2056 1914
Q 1809 2247 1375 2428
Q 1034 2569 447 2591
L 1259 4238
L 2778 4238
z
" transform="scale(0.015625)"/>
       </defs>
       <use xlink:href="#TimesNewRomanPSMT-18"/>
       <use xlink:href="#TimesNewRomanPSMT-13" transform="translate(50 0)"/>
       <use xlink:href="#TimesNewRomanPSMT-13" transform="translate(100 0)"/>
       <use xlink:href="#TimesNewRomanPSMT-13" transform="translate(150 0)"/>
      </g>
     </g>
    </g>
    <g id="xtick_3">
     <g id="line2d_5">
      <path d="M 372.578913 434.834597
L 372.578913 14.04
" clip-path="url(#p4980a3b3a9)" style="fill: none; stroke: #b0b0b0; stroke-opacity: 0.3; stroke-width: 0.8; stroke-linecap: square"/>
     </g>
     <g id="line2d_6">
      <g>
       <use xlink:href="#m908de6e676" x="372.578913" y="434.834597" style="stroke: #000000; stroke-width: 0.8"/>
      </g>
     </g>
     <g id="text_3">
      <!-- 10000 -->
      <g transform="translate(360.078913 445.268191) scale(0.1 -0.1)">
       <defs>
        <path id="TimesNewRomanPSMT-14" d="M 750 3822
L 1781 4325
L 1884 4325
L 1884 747
Q 1884 391 1914 303
Q 1944 216 2037 169
Q 2131 122 2419 116
L 2419 0
L 825 0
L 825 116
Q 1125 122 1212 167
Q 1300 213 1334 289
Q 1369 366 1369 747
L 1369 3034
Q 1369 3497 1338 3628
Q 1316 3728 1258 3775
Q 1200 3822 1119 3822
Q 1003 3822 797 3725
L 750 3822
z
" transform="scale(0.015625)"/>
       </defs>
       <use xlink:href="#TimesNewRomanPSMT-14"/>
       <use xlink:href="#TimesNewRomanPSMT-13" transform="translate(50 0)"/>
       <use xlink:href="#TimesNewRomanPSMT-13" transform="translate(100 0)"/>
       <use xlink:href="#TimesNewRomanPSMT-13" transform="translate(150 0)"/>
       <use xlink:href="#TimesNewRomanPSMT-13" transform="translate(200 0)"/>
      </g>
     </g>
    </g>
    <g id="xtick_4">
     <g id="line2d_7">
      <path d="M 517.002422 434.834597
L 517.002422 14.04
" clip-path="url(#p4980a3b3a9)" style="fill: none; stroke: #b0b0b0; stroke-opacity: 0.3; stroke-width: 0.8; stroke-linecap: square"/>
     </g>
     <g id="line2d_8">
      <g>
       <use xlink:href="#m908de6e676" x="517.002422" y="434.834597" style="stroke: #000000; stroke-width: 0.8"/>
      </g>
     </g>
     <g id="text_4">
      <!-- 15000 -->
      <g transform="translate(504.502422 445.268191) scale(0.1 -0.1)">
       <use xlink:href="#TimesNewRomanPSMT-14"/>
       <use xlink:href="#TimesNewRomanPSMT-18" transform="translate(50 0)"/>
       <use xlink:href="#TimesNewRomanPSMT-13" transform="translate(100 0)"/>
       <use xlink:href="#TimesNewRomanPSMT-13" transform="translate(150 0)"/>
       <use xlink:href="#TimesNewRomanPSMT-13" transform="translate(200 0)"/>
      </g>
     </g>
    </g>
    <g id="xtick_5">
     <g id="line2d_9">
      <path d="M 661.42593 434.834597
L 661.42593 14.04
" clip-path="url(#p4980a3b3a9)" style="fill: none; stroke: #b0b0b0; stroke-opacity: 0.3; stroke-width: 0.8; stroke-linecap: square"/>
     </g>
     <g id="line2d_10">
      <g>
       <use xlink:href="#m908de6e676" x="661.42593" y="434.834597" style="stroke: #000000; stroke-width: 0.8"/>
      </g>
     </g>
     <g id="text_5">
      <!-- 20000 -->
      <g transform="translate(648.92593 445.268191) scale(0.1 -0.1)">
       <defs>
        <path id="TimesNewRomanPSMT-15" d="M 2934 816
L 2638 0
L 138 0
L 138 116
Q 1241 1122 1691 1759
Q 2141 2397 2141 2925
Q 2141 3328 1894 3587
Q 1647 3847 1303 3847
Q 991 3847 742 3664
Q 494 3481 375 3128
L 259 3128
Q 338 3706 661 4015
Q 984 4325 1469 4325
Q 1984 4325 2329 3994
Q 2675 3663 2675 3213
Q 2675 2891 2525 2569
Q 2294 2063 1775 1497
Q 997 647 803 472
L 1909 472
Q 2247 472 2383 497
Q 2519 522 2628 598
Q 2738 675 2819 816
L 2934 816
z
" transform="scale(0.015625)"/>
       </defs>
       <use xlink:href="#TimesNewRomanPSMT-15"/>
       <use xlink:href="#TimesNewRomanPSMT-13" transform="translate(50 0)"/>
       <use xlink:href="#TimesNewRomanPSMT-13" transform="translate(100 0)"/>
       <use xlink:href="#TimesNewRomanPSMT-13" transform="translate(150 0)"/>
       <use xlink:href="#TimesNewRomanPSMT-13" transform="translate(200 0)"/>
      </g>
     </g>
    </g>
    <g id="xtick_6">
     <g id="line2d_11">
      <path d="M 805.849439 434.834597
L 805.849439 14.04
" clip-path="url(#p4980a3b3a9)" style="fill: none; stroke: #b0b0b0; stroke-opacity: 0.3; stroke-width: 0.8; stroke-linecap: square"/>
     </g>
     <g id="line2d_12">
      <g>
       <use xlink:href="#m908de6e676" x="805.849439" y="434.834597" style="stroke: #000000; stroke-width: 0.8"/>
      </g>
     </g>
     <g id="text_6">
      <!-- 25000 -->
      <g transform="translate(793.349439 445.268191) scale(0.1 -0.1)">
       <use xlink:href="#TimesNewRomanPSMT-15"/>
       <use xlink:href="#TimesNewRomanPSMT-18" transform="translate(50 0)"/>
       <use xlink:href="#TimesNewRomanPSMT-13" transform="translate(100 0)"/>
       <use xlink:href="#TimesNewRomanPSMT-13" transform="translate(150 0)"/>
       <use xlink:href="#TimesNewRomanPSMT-13" transform="translate(200 0)"/>
      </g>
     </g>
    </g>
    <g id="xtick_7">
     <g id="line2d_13">
      <path d="M 950.272947 434.834597
L 950.272947 14.04
" clip-path="url(#p4980a3b3a9)" style="fill: none; stroke: #b0b0b0; stroke-opacity: 0.3; stroke-width: 0.8; stroke-linecap: square"/>
     </g>
     <g id="line2d_14">
      <g>
       <use xlink:href="#m908de6e676" x="950.272947" y="434.834597" style="stroke: #000000; stroke-width: 0.8"/>
      </g>
     </g>
     <g id="text_7">
      <!-- 30000 -->
      <g transform="translate(937.772947 445.268191) scale(0.1 -0.1)">
       <defs>
        <path id="TimesNewRomanPSMT-16" d="M 325 3431
Q 506 3859 782 4092
Q 1059 4325 1472 4325
Q 1981 4325 2253 3994
Q 2459 3747 2459 3466
Q 2459 3003 1878 2509
Q 2269 2356 2469 2072
Q 2669 1788 2669 1403
Q 2669 853 2319 450
Q 1863 -75 997 -75
Q 569 -75 414 31
Q 259 138 259 259
Q 259 350 332 419
Q 406 488 509 488
Q 588 488 669 463
Q 722 447 909 348
Q 1097 250 1169 231
Q 1284 197 1416 197
Q 1734 197 1970 444
Q 2206 691 2206 1028
Q 2206 1275 2097 1509
Q 2016 1684 1919 1775
Q 1784 1900 1550 2001
Q 1316 2103 1072 2103
L 972 2103
L 972 2197
Q 1219 2228 1467 2375
Q 1716 2522 1828 2728
Q 1941 2934 1941 3181
Q 1941 3503 1739 3701
Q 1538 3900 1238 3900
Q 753 3900 428 3381
L 325 3431
z
" transform="scale(0.015625)"/>
       </defs>
       <use xlink:href="#TimesNewRomanPSMT-16"/>
       <use xlink:href="#TimesNewRomanPSMT-13" transform="translate(50 0)"/>
       <use xlink:href="#TimesNewRomanPSMT-13" transform="translate(100 0)"/>
       <use xlink:href="#TimesNewRomanPSMT-13" transform="translate(150 0)"/>
       <use xlink:href="#TimesNewRomanPSMT-13" transform="translate(200 0)"/>
      </g>
     </g>
    </g>
    <g id="text_8">
     <!-- Time (s) -->
     <g transform="translate(495.949922 463.560144) scale(0.12 -0.12)">
      <defs>
       <path id="TimesNewRomanPS-BoldMT-37" d="M 4038 4238
L 4038 3091
L 3925 3091
Q 3825 3488 3703 3661
Q 3581 3834 3369 3938
Q 3250 3994 2953 3994
L 2638 3994
L 2638 725
Q 2638 400 2673 319
Q 2709 238 2814 177
Q 2919 116 3100 116
L 3241 116
L 3241 0
L 1022 0
L 1022 116
L 1163 116
Q 1347 116 1459 181
Q 1541 225 1588 331
Q 1622 406 1622 725
L 1622 3994
L 1316 3994
Q 888 3994 694 3813
Q 422 3559 350 3091
L 231 3091
L 231 4238
L 4038 4238
z
" transform="scale(0.015625)"/>
       <path id="TimesNewRomanPS-BoldMT-4c" d="M 919 4338
Q 1122 4338 1262 4195
Q 1403 4053 1403 3853
Q 1403 3653 1261 3512
Q 1119 3372 919 3372
Q 719 3372 578 3512
Q 438 3653 438 3853
Q 438 4053 578 4195
Q 719 4338 919 4338
z
M 1356 2922
L 1356 606
Q 1356 297 1428 211
Q 1500 125 1709 113
L 1709 0
L 131 0
L 131 113
Q 325 119 419 225
Q 481 297 481 606
L 481 2313
Q 481 2622 409 2708
Q 338 2794 131 2806
L 131 2922
L 1356 2922
z
" transform="scale(0.015625)"/>
       <path id="TimesNewRomanPS-BoldMT-50" d="M 1428 2922
L 1428 2538
Q 1669 2800 1873 2904
Q 2078 3009 2322 3009
Q 2603 3009 2793 2878
Q 2984 2747 3088 2478
Q 3338 2759 3567 2884
Q 3797 3009 4047 3009
Q 4350 3009 4529 2870
Q 4709 2731 4779 2517
Q 4850 2303 4850 1834
L 4850 638
Q 4850 300 4911 219
Q 4972 138 5166 113
L 5166 0
L 3656 0
L 3656 113
Q 3834 128 3919 250
Q 3975 334 3975 638
L 3975 1894
Q 3975 2284 3944 2390
Q 3913 2497 3845 2548
Q 3778 2600 3688 2600
Q 3553 2600 3415 2501
Q 3278 2403 3138 2206
L 3138 638
Q 3138 322 3191 241
Q 3263 125 3466 113
L 3466 0
L 1953 0
L 1953 113
Q 2075 119 2145 173
Q 2216 228 2239 304
Q 2263 381 2263 638
L 2263 1894
Q 2263 2291 2231 2391
Q 2200 2491 2126 2547
Q 2053 2603 1969 2603
Q 1844 2603 1741 2538
Q 1594 2441 1428 2206
L 1428 638
Q 1428 328 1489 229
Q 1550 131 1744 113
L 1744 0
L 238 0
L 238 113
Q 422 131 500 231
Q 553 300 553 638
L 553 2288
Q 553 2619 492 2700
Q 431 2781 238 2806
L 238 2922
L 1428 2922
z
" transform="scale(0.015625)"/>
       <path id="TimesNewRomanPS-BoldMT-48" d="M 2691 1566
L 1088 1566
Q 1116 984 1397 647
Q 1613 388 1916 388
Q 2103 388 2256 492
Q 2409 597 2584 869
L 2691 800
Q 2453 316 2165 114
Q 1878 -88 1500 -88
Q 850 -88 516 413
Q 247 816 247 1413
Q 247 2144 642 2576
Q 1038 3009 1569 3009
Q 2013 3009 2339 2645
Q 2666 2281 2691 1566
z
M 1922 1775
Q 1922 2278 1867 2465
Q 1813 2653 1697 2750
Q 1631 2806 1522 2806
Q 1359 2806 1256 2647
Q 1072 2369 1072 1884
L 1072 1775
L 1922 1775
z
" transform="scale(0.015625)"/>
       <path id="TimesNewRomanPS-BoldMT-3" transform="scale(0.015625)"/>
       <path id="TimesNewRomanPS-BoldMT-b" d="M 2056 4334
L 2056 4191
Q 1731 3978 1578 3775
Q 1366 3494 1247 3053
Q 1097 2506 1097 1525
Q 1097 600 1233 87
Q 1369 -425 1603 -741
Q 1766 -959 2056 -1125
L 2056 -1281
Q 1303 -1028 779 -248
Q 256 531 256 1544
Q 256 2544 778 3314
Q 1300 4084 2056 4334
z
" transform="scale(0.015625)"/>
       <path id="TimesNewRomanPS-BoldMT-56" d="M 2063 3003
L 2109 2006
L 2003 2006
Q 1813 2450 1608 2612
Q 1403 2775 1200 2775
Q 1072 2775 981 2689
Q 891 2603 891 2491
Q 891 2406 953 2328
Q 1053 2200 1512 1889
Q 1972 1578 2117 1361
Q 2263 1144 2263 875
Q 2263 631 2141 397
Q 2019 163 1797 37
Q 1575 -88 1306 -88
Q 1097 -88 747 44
Q 653 78 619 78
Q 516 78 447 -78
L 344 -78
L 294 972
L 400 972
Q 541 559 786 353
Q 1031 147 1250 147
Q 1400 147 1495 239
Q 1591 331 1591 463
Q 1591 613 1497 722
Q 1403 831 1078 1053
Q 600 1384 459 1559
Q 253 1816 253 2125
Q 253 2463 486 2736
Q 719 3009 1159 3009
Q 1397 3009 1619 2894
Q 1703 2847 1756 2847
Q 1813 2847 1847 2870
Q 1881 2894 1956 3003
L 2063 3003
z
" transform="scale(0.015625)"/>
       <path id="TimesNewRomanPS-BoldMT-c" d="M 78 -1281
L 78 -1138
Q 403 -922 556 -719
Q 766 -438 888 0
Q 1038 550 1038 1531
Q 1038 2456 902 2967
Q 766 3478 531 3794
Q 369 4013 78 4178
L 78 4334
Q 831 4081 1354 3301
Q 1878 2522 1878 1509
Q 1878 513 1354 -257
Q 831 -1028 78 -1281
z
" transform="scale(0.015625)"/>
      </defs>
      <use xlink:href="#TimesNewRomanPS-BoldMT-37"/>
      <use xlink:href="#TimesNewRomanPS-BoldMT-4c" transform="translate(64.890625 0)"/>
      <use xlink:href="#TimesNewRomanPS-BoldMT-50" transform="translate(92.671875 0)"/>
      <use xlink:href="#TimesNewRomanPS-BoldMT-48" transform="translate(175.96875 0)"/>
      <use xlink:href="#TimesNewRomanPS-BoldMT-3" transform="translate(220.359375 0)"/>
      <use xlink:href="#TimesNewRomanPS-BoldMT-b" transform="translate(245.359375 0)"/>
      <use xlink:href="#TimesNewRomanPS-BoldMT-56" transform="translate(278.65625 0)"/>
      <use xlink:href="#TimesNewRomanPS-BoldMT-c" transform="translate(317.578125 0)"/>
     </g>
    </g>
   </g>
   <g id="matplotlib.axis_2">
    <g id="ytick_1">
     <g id="line2d_15">
      <path d="M 40.404844 415.70757
L 993.6 415.70757
" clip-path="url(#p4980a3b3a9)" style="fill: none; stroke: #b0b0b0; stroke-opacity: 0.3; stroke-width: 0.8; stroke-linecap: square"/>
     </g>
     <g id="line2d_16">
      <defs>
       <path id="mcaca387d4e" d="M 0 0
L 3.5 0
" style="stroke: #000000; stroke-width: 0.8"/>
      </defs>
      <g>
       <use xlink:href="#mcaca387d4e" x="40.404844" y="415.70757" style="stroke: #000000; stroke-width: 0.8"/>
      </g>
     </g>
     <g id="text_9">
      <!-- 0 -->
      <g transform="translate(31.904844 419.174367) scale(0.1 -0.1)">
       <use xlink:href="#TimesNewRomanPSMT-13"/>
      </g>
     </g>
    </g>
    <g id="ytick_2">
     <g id="line2d_17">
      <path d="M 40.404844 339.204451
L 993.6 339.204451
" clip-path="url(#p4980a3b3a9)" style="fill: none; stroke: #b0b0b0; stroke-opacity: 0.3; stroke-width: 0.8; stroke-linecap: square"/>
     </g>
     <g id="line2d_18">
      <g>
       <use xlink:href="#mcaca387d4e" x="40.404844" y="339.204451" style="stroke: #000000; stroke-width: 0.8"/>
      </g>
     </g>
     <g id="text_10">
      <!-- 10 -->
      <g transform="translate(26.904844 342.671248) scale(0.1 -0.1)">
       <use xlink:href="#TimesNewRomanPSMT-14"/>
       <use xlink:href="#TimesNewRomanPSMT-13" transform="translate(50 0)"/>
      </g>
     </g>
    </g>
    <g id="ytick_3">
     <g id="line2d_19">
      <path d="M 40.404844 262.701332
L 993.6 262.701332
" clip-path="url(#p4980a3b3a9)" style="fill: none; stroke: #b0b0b0; stroke-opacity: 0.3; stroke-width: 0.8; stroke-linecap: square"/>
     </g>
     <g id="line2d_20">
      <g>
       <use xlink:href="#mcaca387d4e" x="40.404844" y="262.701332" style="stroke: #000000; stroke-width: 0.8"/>
      </g>
     </g>
     <g id="text_11">
      <!-- 20 -->
      <g transform="translate(26.904844 266.168129) scale(0.1 -0.1)">
       <use xlink:href="#TimesNewRomanPSMT-15"/>
       <use xlink:href="#TimesNewRomanPSMT-13" transform="translate(50 0)"/>
      </g>
     </g>
    </g>
    <g id="ytick_4">
     <g id="line2d_21">
      <path d="M 40.404844 186.198213
L 993.6 186.198213
" clip-path="url(#p4980a3b3a9)" style="fill: none; stroke: #b0b0b0; stroke-opacity: 0.3; stroke-width: 0.8; stroke-linecap: square"/>
     </g>
     <g id="line2d_22">
      <g>
       <use xlink:href="#mcaca387d4e" x="40.404844" y="186.198213" style="stroke: #000000; stroke-width: 0.8"/>
      </g>
     </g>
     <g id="text_12">
      <!-- 30 -->
      <g transform="translate(26.904844 189.66501) scale(0.1 -0.1)">
       <use xlink:href="#TimesNewRomanPSMT-16"/>
       <use xlink:href="#TimesNewRomanPSMT-13" transform="translate(50 0)"/>
      </g>
     </g>
    </g>
    <g id="ytick_5">
     <g id="line2d_23">
      <path d="M 40.404844 109.695094
L 993.6 109.695094
" clip-path="url(#p4980a3b3a9)" style="fill: none; stroke: #b0b0b0; stroke-opacity: 0.3; stroke-width: 0.8; stroke-linecap: square"/>
     </g>
     <g id="line2d_24">
      <g>
       <use xlink:href="#mcaca387d4e" x="40.404844" y="109.695094" style="stroke: #000000; stroke-width: 0.8"/>
      </g>
     </g>
     <g id="text_13">
      <!-- 40 -->
      <g transform="translate(26.904844 113.161891) scale(0.1 -0.1)">
       <defs>
        <path id="TimesNewRomanPSMT-17" d="M 2978 1563
L 2978 1119
L 2409 1119
L 2409 0
L 1894 0
L 1894 1119
L 100 1119
L 100 1519
L 2066 4325
L 2409 4325
L 2409 1563
L 2978 1563
z
M 1894 1563
L 1894 3666
L 406 1563
L 1894 1563
z
" transform="scale(0.015625)"/>
       </defs>
       <use xlink:href="#TimesNewRomanPSMT-17"/>
       <use xlink:href="#TimesNewRomanPSMT-13" transform="translate(50 0)"/>
      </g>
     </g>
    </g>
    <g id="ytick_6">
     <g id="line2d_25">
      <path d="M 40.404844 33.191975
L 993.6 33.191975
" clip-path="url(#p4980a3b3a9)" style="fill: none; stroke: #b0b0b0; stroke-opacity: 0.3; stroke-width: 0.8; stroke-linecap: square"/>
     </g>
     <g id="line2d_26">
      <g>
       <use xlink:href="#mcaca387d4e" x="40.404844" y="33.191975" style="stroke: #000000; stroke-width: 0.8"/>
      </g>
     </g>
     <g id="text_14">
      <!-- 50 -->
      <g transform="translate(26.904844 36.658772) scale(0.1 -0.1)">
       <use xlink:href="#TimesNewRomanPSMT-18"/>
       <use xlink:href="#TimesNewRomanPSMT-13" transform="translate(50 0)"/>
      </g>
     </g>
    </g>
    <g id="text_15">
     <!-- Controller Output (%CO) -->
     <g transform="translate(20.315 291.879173) rotate(-90) scale(0.12 -0.12)">
      <defs>
       <path id="TimesNewRomanPS-BoldMT-26" d="M 4272 4334
L 4272 2866
L 4150 2866
Q 4013 3441 3638 3747
Q 3263 4053 2788 4053
Q 2391 4053 2059 3825
Q 1728 3597 1575 3228
Q 1378 2756 1378 2178
Q 1378 1609 1522 1142
Q 1666 675 1972 436
Q 2278 197 2766 197
Q 3166 197 3498 372
Q 3831 547 4200 975
L 4200 609
Q 3844 238 3458 70
Q 3072 -97 2556 -97
Q 1878 -97 1351 175
Q 825 447 539 956
Q 253 1466 253 2041
Q 253 2647 570 3190
Q 888 3734 1427 4034
Q 1966 4334 2572 4334
Q 3019 4334 3516 4141
Q 3803 4028 3881 4028
Q 3981 4028 4054 4101
Q 4128 4175 4150 4334
L 4272 4334
z
" transform="scale(0.015625)"/>
       <path id="TimesNewRomanPS-BoldMT-52" d="M 1594 3009
Q 1975 3009 2303 2812
Q 2631 2616 2801 2253
Q 2972 1891 2972 1459
Q 2972 838 2656 419
Q 2275 -88 1603 -88
Q 944 -88 587 375
Q 231 838 231 1447
Q 231 2075 595 2542
Q 959 3009 1594 3009
z
M 1606 2788
Q 1447 2788 1333 2667
Q 1219 2547 1183 2192
Q 1147 1838 1147 1206
Q 1147 872 1191 581
Q 1225 359 1337 243
Q 1450 128 1594 128
Q 1734 128 1828 206
Q 1950 313 1991 503
Q 2053 800 2053 1703
Q 2053 2234 1993 2432
Q 1934 2631 1819 2722
Q 1738 2788 1606 2788
z
" transform="scale(0.015625)"/>
       <path id="TimesNewRomanPS-BoldMT-51" d="M 1409 2922
L 1409 2544
Q 1634 2788 1840 2898
Q 2047 3009 2284 3009
Q 2569 3009 2756 2851
Q 2944 2694 3006 2459
Q 3056 2281 3056 1775
L 3056 638
Q 3056 300 3117 217
Q 3178 134 3372 113
L 3372 0
L 1894 0
L 1894 113
Q 2059 134 2131 250
Q 2181 328 2181 638
L 2181 1938
Q 2181 2297 2153 2390
Q 2125 2484 2058 2536
Q 1991 2588 1909 2588
Q 1641 2588 1409 2203
L 1409 638
Q 1409 309 1470 221
Q 1531 134 1697 113
L 1697 0
L 219 0
L 219 113
Q 403 131 481 231
Q 534 300 534 638
L 534 2288
Q 534 2619 473 2700
Q 413 2781 219 2806
L 219 2922
L 1409 2922
z
" transform="scale(0.015625)"/>
       <path id="TimesNewRomanPS-BoldMT-57" d="M 1375 3991
L 1375 2922
L 2069 2922
L 2069 2613
L 1375 2613
L 1375 809
Q 1375 556 1398 482
Q 1422 409 1481 364
Q 1541 319 1591 319
Q 1794 319 1975 628
L 2069 559
Q 1816 -41 1247 -41
Q 969 -41 776 114
Q 584 269 531 459
Q 500 566 500 1034
L 500 2613
L 119 2613
L 119 2722
Q 513 3000 789 3306
Q 1066 3613 1272 3991
L 1375 3991
z
" transform="scale(0.015625)"/>
       <path id="TimesNewRomanPS-BoldMT-55" d="M 1428 2922
L 1428 2259
Q 1719 2713 1937 2861
Q 2156 3009 2359 3009
Q 2534 3009 2639 2901
Q 2744 2794 2744 2597
Q 2744 2388 2642 2272
Q 2541 2156 2397 2156
Q 2231 2156 2109 2262
Q 1988 2369 1966 2381
Q 1934 2400 1894 2400
Q 1803 2400 1722 2331
Q 1594 2225 1528 2028
Q 1428 1725 1428 1359
L 1428 688
L 1431 513
Q 1431 334 1453 284
Q 1491 200 1564 161
Q 1638 122 1813 113
L 1813 0
L 234 0
L 234 113
Q 425 128 492 217
Q 559 306 559 688
L 559 2303
Q 559 2553 534 2622
Q 503 2709 443 2750
Q 384 2791 234 2806
L 234 2922
L 1428 2922
z
" transform="scale(0.015625)"/>
       <path id="TimesNewRomanPS-BoldMT-4f" d="M 1359 4238
L 1359 606
Q 1359 297 1431 211
Q 1503 125 1713 113
L 1713 0
L 134 0
L 134 113
Q 328 119 422 225
Q 484 297 484 606
L 484 3631
Q 484 3938 412 4023
Q 341 4109 134 4122
L 134 4238
L 1359 4238
z
" transform="scale(0.015625)"/>
       <path id="TimesNewRomanPS-BoldMT-32" d="M 2472 4297
Q 3484 4334 4117 3706
Q 4750 3078 4750 2134
Q 4750 1328 4278 716
Q 3653 -97 2513 -97
Q 1369 -97 744 678
Q 250 1291 250 2131
Q 250 3075 892 3704
Q 1534 4334 2472 4297
z
M 2509 4097
Q 1928 4097 1625 3503
Q 1378 3016 1378 2103
Q 1378 1019 1759 500
Q 2025 138 2503 138
Q 2825 138 3041 294
Q 3316 494 3469 933
Q 3622 1372 3622 2078
Q 3622 2919 3465 3336
Q 3309 3753 3067 3925
Q 2825 4097 2509 4097
z
" transform="scale(0.015625)"/>
       <path id="TimesNewRomanPS-BoldMT-58" d="M 3038 2922
L 3038 634
Q 3038 300 3100 217
Q 3163 134 3353 113
L 3353 0
L 2163 0
L 2163 391
Q 1953 141 1743 26
Q 1534 -88 1275 -88
Q 1028 -88 836 64
Q 644 216 578 419
Q 513 622 513 1128
L 513 2288
Q 513 2619 452 2700
Q 391 2781 197 2806
L 197 2922
L 1388 2922
L 1388 925
Q 1388 613 1417 522
Q 1447 431 1511 384
Q 1575 338 1659 338
Q 1772 338 1863 397
Q 1988 478 2163 725
L 2163 2288
Q 2163 2619 2102 2700
Q 2041 2781 1847 2806
L 1847 2922
L 3038 2922
z
" transform="scale(0.015625)"/>
       <path id="TimesNewRomanPS-BoldMT-53" d="M 1347 297
L 1347 -791
Q 1347 -1016 1383 -1097
Q 1419 -1178 1494 -1215
Q 1569 -1253 1788 -1253
L 1788 -1369
L 122 -1369
L 122 -1253
Q 316 -1247 409 -1144
Q 472 -1072 472 -772
L 472 2313
Q 472 2622 400 2708
Q 328 2794 122 2806
L 122 2922
L 1347 2922
L 1347 2538
Q 1500 2763 1659 2863
Q 1888 3009 2156 3009
Q 2478 3009 2742 2806
Q 3006 2603 3143 2245
Q 3281 1888 3281 1475
Q 3281 1031 3139 664
Q 2997 297 2726 104
Q 2456 -88 2125 -88
Q 1884 -88 1675 19
Q 1519 100 1347 297
z
M 1347 613
Q 1616 231 1922 231
Q 2091 231 2200 409
Q 2363 672 2363 1409
Q 2363 2166 2184 2444
Q 2066 2628 1866 2628
Q 1550 2628 1347 2172
L 1347 613
z
" transform="scale(0.015625)"/>
       <path id="TimesNewRomanPS-BoldMT-8" d="M 4916 4334
L 1906 -178
L 1488 -178
L 4494 4334
L 4916 4334
z
M 1494 4334
Q 1938 4334 2242 4020
Q 2547 3706 2547 3209
Q 2547 2700 2240 2383
Q 1934 2066 1481 2066
Q 1034 2066 739 2372
Q 444 2678 444 3178
Q 444 3694 747 4014
Q 1050 4334 1494 4334
z
M 1494 4169
Q 1425 4169 1381 4128
Q 1303 4056 1264 3879
Q 1225 3703 1225 3150
Q 1225 2709 1278 2469
Q 1309 2331 1384 2263
Q 1431 2222 1494 2222
Q 1563 2222 1603 2259
Q 1675 2325 1709 2472
Q 1763 2709 1763 3138
Q 1763 3663 1713 3897
Q 1678 4059 1600 4134
Q 1563 4169 1494 4169
z
M 4894 2097
Q 5347 2097 5651 1786
Q 5956 1475 5956 972
Q 5956 463 5647 144
Q 5338 -175 4900 -175
Q 4466 -175 4161 144
Q 3856 463 3856 963
Q 3856 1466 4153 1781
Q 4450 2097 4894 2097
z
M 4903 1934
Q 4841 1934 4797 1897
Q 4722 1828 4681 1658
Q 4641 1488 4641 1006
Q 4641 494 4688 269
Q 4722 109 4803 38
Q 4844 0 4909 0
Q 4969 0 5006 34
Q 5084 106 5122 269
Q 5175 497 5175 959
Q 5175 1447 5125 1672
Q 5088 1834 5013 1900
Q 4975 1934 4903 1934
z
" transform="scale(0.015625)"/>
      </defs>
      <use xlink:href="#TimesNewRomanPS-BoldMT-26"/>
      <use xlink:href="#TimesNewRomanPS-BoldMT-52" transform="translate(72.21875 0)"/>
      <use xlink:href="#TimesNewRomanPS-BoldMT-51" transform="translate(122.21875 0)"/>
      <use xlink:href="#TimesNewRomanPS-BoldMT-57" transform="translate(177.828125 0)"/>
      <use xlink:href="#TimesNewRomanPS-BoldMT-55" transform="translate(211.125 0)"/>
      <use xlink:href="#TimesNewRomanPS-BoldMT-52" transform="translate(253.703125 0)"/>
      <use xlink:href="#TimesNewRomanPS-BoldMT-4f" transform="translate(303.703125 0)"/>
      <use xlink:href="#TimesNewRomanPS-BoldMT-4f" transform="translate(331.484375 0)"/>
      <use xlink:href="#TimesNewRomanPS-BoldMT-48" transform="translate(359.265625 0)"/>
      <use xlink:href="#TimesNewRomanPS-BoldMT-55" transform="translate(403.65625 0)"/>
      <use xlink:href="#TimesNewRomanPS-BoldMT-3" transform="translate(446.234375 0)"/>
      <use xlink:href="#TimesNewRomanPS-BoldMT-32" transform="translate(471.234375 0)"/>
      <use xlink:href="#TimesNewRomanPS-BoldMT-58" transform="translate(549.015625 0)"/>
      <use xlink:href="#TimesNewRomanPS-BoldMT-57" transform="translate(604.625 0)"/>
      <use xlink:href="#TimesNewRomanPS-BoldMT-53" transform="translate(637.921875 0)"/>
      <use xlink:href="#TimesNewRomanPS-BoldMT-58" transform="translate(693.53125 0)"/>
      <use xlink:href="#TimesNewRomanPS-BoldMT-57" transform="translate(749.140625 0)"/>
      <use xlink:href="#TimesNewRomanPS-BoldMT-3" transform="translate(782.4375 0)"/>
      <use xlink:href="#TimesNewRomanPS-BoldMT-b" transform="translate(807.4375 0)"/>
      <use xlink:href="#TimesNewRomanPS-BoldMT-8" transform="translate(840.734375 0)"/>
      <use xlink:href="#TimesNewRomanPS-BoldMT-26" transform="translate(940.734375 0)"/>
      <use xlink:href="#TimesNewRomanPS-BoldMT-32" transform="translate(1012.953125 0)"/>
      <use xlink:href="#TimesNewRomanPS-BoldMT-c" transform="translate(1090.734375 0)"/>
     </g>
    </g>
   </g>
   <g id="line2d_27">
    <path d="M 83.731896 33.191975
L 101.048275 33.189502
L 101.163814 415.70757
L 121.570856 415.70757
L 121.643067 398.364881
L 122.408512 218.157731
L 122.957321 137.748573
L 123.477246 91.82612
L 123.968286 66.295674
L 124.459326 51.602696
L 124.935923 43.520628
L 125.412521 38.918125
L 125.889118 36.331458
L 126.336831 35.000237
L 126.813429 34.242416
L 127.420008 33.745985
L 128.272106 33.380208
L 129.124205 33.23203
L 130.640652 33.226421
L 164.392426 33.189079
L 931.656757 33.189504
L 950.272947 33.189504
L 950.272947 33.189504
" clip-path="url(#p4980a3b3a9)" style="fill: none; stroke: #0055cc; stroke-width: 2; stroke-linecap: square"/>
   </g>
   <g id="line2d_28">
    <path d="M 83.731896 33.191975
L 101.048275 33.191605
L 101.062717 109.694539
L 101.163814 109.68323
L 101.640411 109.479299
L 103.084646 108.506719
L 109.150434 104.407536
L 117.916941 98.84061
L 124.748173 94.796519
L 131.738271 90.917999
L 138.930561 87.183053
L 146.325045 83.59468
L 153.892837 80.169653
L 161.720591 76.871675
L 169.721653 73.740775
L 178.083774 70.707679
L 186.734743 67.809228
L 195.689 65.044358
L 205.033201 62.394092
L 214.724019 59.880001
L 224.876991 57.477135
L 235.492119 55.197011
L 246.569402 53.045273
L 258.325476 50.991057
L 270.70257 49.058236
L 283.671802 47.258244
L 297.637555 45.546803
L 312.59983 43.940097
L 328.544186 42.452277
L 345.615044 41.08632
L 364.014599 39.834614
L 384.190563 38.691087
L 406.114052 37.671752
L 430.73826 36.751573
L 458.583113 35.938802
L 490.356285 35.238638
L 528.007493 34.640198
L 573.934169 34.144288
L 634.245426 33.73041
L 716.682365 33.423169
L 802.556583 33.320811
L 950.272947 33.235747
L 950.272947 33.235747
" clip-path="url(#p4980a3b3a9)" style="fill: none; stroke: #d65a00; stroke-width: 2; stroke-linecap: square"/>
   </g>
   <g id="patch_3">
    <path d="M 40.404844 434.834597
L 40.404844 14.04
" style="fill: none; stroke: #1a1a1a; stroke-linejoin: miter; stroke-linecap: square"/>
   </g>
   <g id="patch_4">
    <path d="M 993.6 434.834597
L 993.6 14.04
" style="fill: none; stroke: #1a1a1a; stroke-linejoin: miter; stroke-linecap: square"/>
   </g>
   <g id="patch_5">
    <path d="M 40.404844 434.834597
L 993.6 434.834597
" style="fill: none; stroke: #1a1a1a; stroke-linejoin: miter; stroke-linecap: square"/>
   </g>
   <g id="patch_6">
    <path d="M 40.404844 14.04
L 993.6 14.04
" style="fill: none; stroke: #1a1a1a; stroke-linejoin: miter; stroke-linecap: square"/>
   </g>
   <g id="legend_1">
    <g id="patch_7">
     <path d="M 445.613359 494.864314
L 588.391484 494.864314
Q 590.391484 494.864314 590.391484 492.864314
L 590.391484 479.706111
Q 590.391484 477.706111 588.391484 477.706111
L 445.613359 477.706111
Q 443.613359 477.706111 443.613359 479.706111
L 443.613359 492.864314
Q 443.613359 494.864314 445.613359 494.864314
z
" style="fill: #ffffff; opacity: 0.95; stroke: #808080; stroke-linejoin: miter"/>
    </g>
    <g id="line2d_29">
     <path d="M 447.613359 485.206111
L 457.613359 485.206111
L 467.613359 485.206111
" style="fill: none; stroke: #0055cc; stroke-width: 2; stroke-linecap: square"/>
    </g>
    <g id="text_16">
     <!-- Tight -->
     <g transform="translate(475.613359 488.706111) scale(0.1 -0.1)">
      <defs>
       <path id="TimesNewRomanPSMT-37" d="M 3703 4238
L 3750 3244
L 3631 3244
Q 3597 3506 3538 3619
Q 3441 3800 3280 3886
Q 3119 3972 2856 3972
L 2259 3972
L 2259 734
Q 2259 344 2344 247
Q 2463 116 2709 116
L 2856 116
L 2856 0
L 1059 0
L 1059 116
L 1209 116
Q 1478 116 1591 278
Q 1659 378 1659 734
L 1659 3972
L 1150 3972
Q 853 3972 728 3928
Q 566 3869 450 3700
Q 334 3531 313 3244
L 194 3244
L 244 4238
L 3703 4238
z
" transform="scale(0.015625)"/>
       <path id="TimesNewRomanPSMT-4c" d="M 928 4444
Q 1059 4444 1151 4351
Q 1244 4259 1244 4128
Q 1244 3997 1151 3903
Q 1059 3809 928 3809
Q 797 3809 703 3903
Q 609 3997 609 4128
Q 609 4259 701 4351
Q 794 4444 928 4444
z
M 1188 2947
L 1188 647
Q 1188 378 1227 289
Q 1266 200 1342 156
Q 1419 113 1622 113
L 1622 0
L 231 0
L 231 113
Q 441 113 512 153
Q 584 194 626 287
Q 669 381 669 647
L 669 1750
Q 669 2216 641 2353
Q 619 2453 572 2492
Q 525 2531 444 2531
Q 356 2531 231 2484
L 188 2597
L 1050 2947
L 1188 2947
z
" transform="scale(0.015625)"/>
       <path id="TimesNewRomanPSMT-4a" d="M 966 1044
Q 703 1172 562 1401
Q 422 1631 422 1909
Q 422 2334 742 2640
Q 1063 2947 1563 2947
Q 1972 2947 2272 2747
L 2878 2747
Q 3013 2747 3034 2739
Q 3056 2731 3066 2713
Q 3084 2684 3084 2613
Q 3084 2531 3069 2500
Q 3059 2484 3036 2475
Q 3013 2466 2878 2466
L 2506 2466
Q 2681 2241 2681 1891
Q 2681 1491 2375 1206
Q 2069 922 1553 922
Q 1341 922 1119 984
Q 981 866 932 777
Q 884 688 884 625
Q 884 572 936 522
Q 988 472 1138 450
Q 1225 438 1575 428
Q 2219 413 2409 384
Q 2700 344 2873 169
Q 3047 -6 3047 -263
Q 3047 -616 2716 -925
Q 2228 -1381 1444 -1381
Q 841 -1381 425 -1109
Q 191 -953 191 -784
Q 191 -709 225 -634
Q 278 -519 444 -313
Q 466 -284 763 25
Q 600 122 533 198
Q 466 275 466 372
Q 466 481 555 628
Q 644 775 966 1044
z
M 1509 2797
Q 1278 2797 1122 2612
Q 966 2428 966 2047
Q 966 1553 1178 1281
Q 1341 1075 1591 1075
Q 1828 1075 1981 1253
Q 2134 1431 2134 1813
Q 2134 2309 1919 2591
Q 1759 2797 1509 2797
z
M 934 0
Q 788 -159 713 -296
Q 638 -434 638 -550
Q 638 -700 819 -813
Q 1131 -1006 1722 -1006
Q 2284 -1006 2551 -807
Q 2819 -609 2819 -384
Q 2819 -222 2659 -153
Q 2497 -84 2016 -72
Q 1313 -53 934 0
z
" transform="scale(0.015625)"/>
       <path id="TimesNewRomanPSMT-4b" d="M 1041 4444
L 1041 2350
Q 1388 2731 1591 2839
Q 1794 2947 1997 2947
Q 2241 2947 2416 2812
Q 2591 2678 2675 2391
Q 2734 2191 2734 1659
L 2734 647
Q 2734 375 2778 275
Q 2809 200 2884 156
Q 2959 113 3159 113
L 3159 0
L 1753 0
L 1753 113
L 1819 113
Q 2019 113 2097 173
Q 2175 234 2206 353
Q 2216 403 2216 647
L 2216 1659
Q 2216 2128 2167 2275
Q 2119 2422 2012 2495
Q 1906 2569 1756 2569
Q 1603 2569 1437 2487
Q 1272 2406 1041 2159
L 1041 647
Q 1041 353 1073 281
Q 1106 209 1195 161
Q 1284 113 1503 113
L 1503 0
L 84 0
L 84 113
Q 275 113 384 172
Q 447 203 484 290
Q 522 378 522 647
L 522 3238
Q 522 3728 498 3840
Q 475 3953 426 3993
Q 378 4034 297 4034
Q 231 4034 84 3984
L 41 4094
L 897 4444
L 1041 4444
z
" transform="scale(0.015625)"/>
       <path id="TimesNewRomanPSMT-57" d="M 1031 3803
L 1031 2863
L 1700 2863
L 1700 2644
L 1031 2644
L 1031 788
Q 1031 509 1111 412
Q 1191 316 1316 316
Q 1419 316 1516 380
Q 1613 444 1666 569
L 1788 569
Q 1678 263 1478 108
Q 1278 -47 1066 -47
Q 922 -47 784 33
Q 647 113 581 261
Q 516 409 516 719
L 516 2644
L 63 2644
L 63 2747
Q 234 2816 414 2980
Q 594 3144 734 3369
Q 806 3488 934 3803
L 1031 3803
z
" transform="scale(0.015625)"/>
      </defs>
      <use xlink:href="#TimesNewRomanPSMT-37"/>
      <use xlink:href="#TimesNewRomanPSMT-4c" transform="translate(57.5625 0)"/>
      <use xlink:href="#TimesNewRomanPSMT-4a" transform="translate(85.34375 0)"/>
      <use xlink:href="#TimesNewRomanPSMT-4b" transform="translate(135.34375 0)"/>
      <use xlink:href="#TimesNewRomanPSMT-57" transform="translate(185.34375 0)"/>
     </g>
    </g>
    <g id="line2d_30">
     <path d="M 516.925859 485.206111
L 526.925859 485.206111
L 536.925859 485.206111
" style="fill: none; stroke: #d65a00; stroke-width: 2; stroke-linecap: square"/>
    </g>
    <g id="text_17">
     <!-- Averaging -->
     <g transform="translate(544.925859 488.706111) scale(0.1 -0.1)">
      <defs>
       <path id="TimesNewRomanPSMT-24" d="M 2928 1419
L 1288 1419
L 1000 750
Q 894 503 894 381
Q 894 284 986 211
Q 1078 138 1384 116
L 1384 0
L 50 0
L 50 116
Q 316 163 394 238
Q 553 388 747 847
L 2238 4334
L 2347 4334
L 3822 809
Q 4000 384 4145 257
Q 4291 131 4550 116
L 4550 0
L 2878 0
L 2878 116
Q 3131 128 3220 200
Q 3309 272 3309 375
Q 3309 513 3184 809
L 2928 1419
z
M 2841 1650
L 2122 3363
L 1384 1650
L 2841 1650
z
" transform="scale(0.015625)"/>
       <path id="TimesNewRomanPSMT-59" d="M 53 2863
L 1400 2863
L 1400 2747
L 1313 2747
Q 1191 2747 1127 2687
Q 1063 2628 1063 2528
Q 1063 2419 1128 2269
L 1794 688
L 2463 2328
Q 2534 2503 2534 2594
Q 2534 2638 2509 2666
Q 2475 2713 2422 2730
Q 2369 2747 2206 2747
L 2206 2863
L 3141 2863
L 3141 2747
Q 2978 2734 2916 2681
Q 2806 2588 2719 2369
L 1703 -88
L 1575 -88
L 553 2328
Q 484 2497 421 2570
Q 359 2644 263 2694
Q 209 2722 53 2747
L 53 2863
z
" transform="scale(0.015625)"/>
       <path id="TimesNewRomanPSMT-48" d="M 681 1784
Q 678 1147 991 784
Q 1303 422 1725 422
Q 2006 422 2214 576
Q 2422 731 2563 1106
L 2659 1044
Q 2594 616 2278 264
Q 1963 -88 1488 -88
Q 972 -88 605 314
Q 238 716 238 1394
Q 238 2128 614 2539
Q 991 2950 1559 2950
Q 2041 2950 2350 2633
Q 2659 2316 2659 1784
L 681 1784
z
M 681 1966
L 2006 1966
Q 1991 2241 1941 2353
Q 1863 2528 1708 2628
Q 1553 2728 1384 2728
Q 1125 2728 920 2526
Q 716 2325 681 1966
z
" transform="scale(0.015625)"/>
       <path id="TimesNewRomanPSMT-55" d="M 1038 2947
L 1038 2303
Q 1397 2947 1775 2947
Q 1947 2947 2059 2842
Q 2172 2738 2172 2600
Q 2172 2478 2090 2393
Q 2009 2309 1897 2309
Q 1788 2309 1652 2417
Q 1516 2525 1450 2525
Q 1394 2525 1328 2463
Q 1188 2334 1038 2041
L 1038 669
Q 1038 431 1097 309
Q 1138 225 1241 169
Q 1344 113 1538 113
L 1538 0
L 72 0
L 72 113
Q 291 113 397 181
Q 475 231 506 341
Q 522 394 522 644
L 522 1753
Q 522 2253 501 2348
Q 481 2444 426 2487
Q 372 2531 291 2531
Q 194 2531 72 2484
L 41 2597
L 906 2947
L 1038 2947
z
" transform="scale(0.015625)"/>
       <path id="TimesNewRomanPSMT-44" d="M 1822 413
Q 1381 72 1269 19
Q 1100 -59 909 -59
Q 613 -59 420 144
Q 228 347 228 678
Q 228 888 322 1041
Q 450 1253 767 1440
Q 1084 1628 1822 1897
L 1822 2009
Q 1822 2438 1686 2597
Q 1550 2756 1291 2756
Q 1094 2756 978 2650
Q 859 2544 859 2406
L 866 2225
Q 866 2081 792 2003
Q 719 1925 600 1925
Q 484 1925 411 2006
Q 338 2088 338 2228
Q 338 2497 613 2722
Q 888 2947 1384 2947
Q 1766 2947 2009 2819
Q 2194 2722 2281 2516
Q 2338 2381 2338 1966
L 2338 994
Q 2338 584 2353 492
Q 2369 400 2405 369
Q 2441 338 2488 338
Q 2538 338 2575 359
Q 2641 400 2828 588
L 2828 413
Q 2478 -56 2159 -56
Q 2006 -56 1915 50
Q 1825 156 1822 413
z
M 1822 616
L 1822 1706
Q 1350 1519 1213 1441
Q 966 1303 859 1153
Q 753 1003 753 825
Q 753 600 887 451
Q 1022 303 1197 303
Q 1434 303 1822 616
z
" transform="scale(0.015625)"/>
       <path id="TimesNewRomanPSMT-51" d="M 1034 2341
Q 1538 2947 1994 2947
Q 2228 2947 2397 2830
Q 2566 2713 2666 2444
Q 2734 2256 2734 1869
L 2734 647
Q 2734 375 2778 278
Q 2813 200 2889 156
Q 2966 113 3172 113
L 3172 0
L 1756 0
L 1756 113
L 1816 113
Q 2016 113 2095 173
Q 2175 234 2206 353
Q 2219 400 2219 647
L 2219 1819
Q 2219 2209 2117 2386
Q 2016 2563 1775 2563
Q 1403 2563 1034 2156
L 1034 647
Q 1034 356 1069 288
Q 1113 197 1189 155
Q 1266 113 1500 113
L 1500 0
L 84 0
L 84 113
L 147 113
Q 366 113 442 223
Q 519 334 519 647
L 519 1709
Q 519 2225 495 2337
Q 472 2450 423 2490
Q 375 2531 294 2531
Q 206 2531 84 2484
L 38 2597
L 900 2947
L 1034 2947
L 1034 2341
z
" transform="scale(0.015625)"/>
      </defs>
      <use xlink:href="#TimesNewRomanPSMT-24"/>
      <use xlink:href="#TimesNewRomanPSMT-59" transform="translate(64.796875 0)"/>
      <use xlink:href="#TimesNewRomanPSMT-48" transform="translate(114.796875 0)"/>
      <use xlink:href="#TimesNewRomanPSMT-55" transform="translate(159.1875 0)"/>
      <use xlink:href="#TimesNewRomanPSMT-44" transform="translate(192.484375 0)"/>
      <use xlink:href="#TimesNewRomanPSMT-4a" transform="translate(236.875 0)"/>
      <use xlink:href="#TimesNewRomanPSMT-4c" transform="translate(286.875 0)"/>
      <use xlink:href="#TimesNewRomanPSMT-51" transform="translate(314.65625 0)"/>
      <use xlink:href="#TimesNewRomanPSMT-4a" transform="translate(364.65625 0)"/>
     </g>
    </g>
   </g>
  </g>
  <g id="patch_8">
   <path d="M 3.6 502.56
L 1001.52 502.56
L 1001.52 3.6
L 3.6 3.6
L 3.6 502.56
z
" style="fill: none; stroke: #1a1a1a; stroke-width: 1.2; stroke-linejoin: miter"/>
  </g>
 </g>
 <defs>
  <clipPath id="p4980a3b3a9">
   <rect x="40.404844" y="14.04" width="953.195156" height="420.794597"/>
  </clipPath>
 </defs>
</svg>
