<svg id="my-svg" width="100%" xmlns="http://www.w3.org/2000/svg" xmlns:xlink="http://www.w3.org/1999/xlink" class="flowchart" style="max-width: 253.048px; background-color: white;" viewBox="4 4 253.0478515625 148.39999389648438" role="graphics-document document" aria-roledescription="flowchart-v2"><style>#my-svg{font-family:'Source Code Pro Variable',monospace;font-size:14px;fill:#28253D;}@keyframes edge-animation-frame{from{stroke-dashoffset:0;}}@keyframes dash{to{stroke-dashoffset:0;}}#my-svg .edge-animation-slow{stroke-dasharray:9,5!important;stroke-dashoffset:900;animation:dash 50s linear infinite;stroke-linecap:round;}#my-svg .edge-animation-fast{stroke-dasharray:9,5!important;stroke-dashoffset:900;animation:dash 20s linear infinite;stroke-linecap:round;}#my-svg .error-icon{fill:#ffffff;}#my-svg .error-text{fill:#000000;stroke:#000000;}#my-svg .edge-thickness-normal{stroke-width:2px;}#my-svg .edge-thickness-thick{stroke-width:3.5px;}#my-svg .edge-pattern-solid{stroke-dasharray:0;}#my-svg .edge-thickness-invisible{stroke-width:0;fill:none;}#my-svg .edge-pattern-dashed{stroke-dasharray:3;}#my-svg .edge-pattern-dotted{stroke-dasharray:2;}#my-svg .marker{fill:#000000;stroke:#000000;}#my-svg .marker.cross{stroke:#000000;}#my-svg svg{font-family:'Source Code Pro Variable',monospace;font-size:14px;}#my-svg p{margin:0;}#my-svg .label{font-family:'Source Code Pro Variable',monospace;color:#28253D;}#my-svg .cluster-label text{fill:#000000;}#my-svg .cluster-label span{color:#000000;}#my-svg .cluster-label span p{background-color:transparent;}#my-svg .label text,#my-svg span{fill:#28253D;color:#28253D;}#my-svg .node rect,#my-svg .node circle,#my-svg .node ellipse,#my-svg .node polygon,#my-svg .node path{fill:#ffffff;stroke:#28253D;stroke-width:2px;}#my-svg .rough-node .label text,#my-svg .node .label text,#my-svg .image-shape .label,#my-svg .icon-shape .label{text-anchor:middle;}#my-svg .node .katex path{fill:#000;stroke:#000;stroke-width:1px;}#my-svg .rough-node .label,#my-svg .node .label,#my-svg .image-shape .label,#my-svg .icon-shape .label{text-align:center;}#my-svg .node.clickable{cursor:pointer;}#my-svg .root .anchor path{fill:#000000!important;stroke-width:0;stroke:#000000;}#my-svg .arrowheadPath{fill:#000000;}#my-svg .edgePath .path{stroke:#000000;stroke-width:2px;}#my-svg .flowchart-link{stroke:#000000;fill:none;}#my-svg .edgeLabel{background-color:hsl(-120, 0%, 80%);text-align:center;}#my-svg .edgeLabel p{background-color:hsl(-120, 0%, 80%);}#my-svg .edgeLabel rect{opacity:0.5;background-color:hsl(-120, 0%, 80%);fill:hsl(-120, 0%, 80%);}#my-svg .labelBkg{background-color:rgba(204, 204, 204, 0.5);}#my-svg .cluster rect{fill:#F9F9FB;stroke:#BDBCCC;stroke-width:1px;}#my-svg .cluster text{fill:#000000;}#my-svg .cluster span{color:#000000;}#my-svg div.mermaidTooltip{position:absolute;text-align:center;max-width:200px;padding:2px;font-family:'Source Code Pro Variable',monospace;font-size:12px;background:#ffffff;border:1px solid hsl(0, 0%, 90%);border-radius:2px;pointer-events:none;z-index:100;}#my-svg .flowchartTitleText{text-anchor:middle;font-size:18px;fill:#28253D;}#my-svg rect.text{fill:none;stroke-width:0;}#my-svg .icon-shape,#my-svg .image-shape{background-color:hsl(-120, 0%, 80%);text-align:center;}#my-svg .icon-shape p,#my-svg .image-shape p{background-color:hsl(-120, 0%, 80%);padding:2px;}#my-svg .icon-shape .label rect,#my-svg .image-shape .label rect{opacity:0.5;background-color:hsl(-120, 0%, 80%);fill:hsl(-120, 0%, 80%);}#my-svg .label-icon{display:inline-block;height:1em;overflow:visible;vertical-align:-0.125em;}#my-svg .node .label-icon path{fill:currentColor;stroke:revert;stroke-width:revert;}#my-svg .node .neo-node{stroke:#28253D;}#my-svg [data-look="neo"].node rect,#my-svg [data-look="neo"].cluster rect,#my-svg [data-look="neo"].node polygon{stroke:#28253D;filter:url(#my-svg-drop-shadow);}#my-svg [data-look="neo"].swimlane.cluster rect{filter:none;}#my-svg [data-look="neo"].node path{stroke:#28253D;stroke-width:2px;}#my-svg [data-look="neo"].node .outer-path{filter:url(#my-svg-drop-shadow);}#my-svg [data-look="neo"].node .neo-line path{stroke:#28253D;filter:none;}#my-svg [data-look="neo"].node circle{stroke:#28253D;filter:url(#my-svg-drop-shadow);}#my-svg [data-look="neo"].node circle .state-start{fill:#000000;}#my-svg [data-look="neo"].icon-shape .icon{fill:#28253D;filter:url(#my-svg-drop-shadow);}#my-svg [data-look="neo"].icon-shape .icon-neo path{stroke:#28253D;filter:url(#my-svg-drop-shadow);}#my-svg svg{border:2px solid rgb(204, 204, 204);border-radius:8px;}#my-svg .edgeLabel rect{opacity:1!important;fill:rgb(229, 229, 229)!important;}#my-svg :root{--mermaid-font-family:'Source Code Pro Variable',monospace;}</style><g><marker id="my-svg_flowchart-v2-pointEnd" class="marker flowchart-v2" viewBox="0 0 10 10" refX="5" refY="5" markerUnits="userSpaceOnUse" markerWidth="8" markerHeight="8" orient="auto"><path d="M 0 0 L 10 5 L 0 10 z" class="arrowMarkerPath" style="stroke-width: 1; stroke-dasharray: 1, 0;"/></marker><marker id="my-svg_flowchart-v2-pointStart" class="marker flowchart-v2" viewBox="0 0 10 10" refX="4.5" refY="5" markerUnits="userSpaceOnUse" markerWidth="8" markerHeight="8" orient="auto"><path d="M 0 5 L 10 10 L 10 0 z" class="arrowMarkerPath" style="stroke-width: 1; stroke-dasharray: 1, 0;"/></marker><marker id="my-svg_flowchart-v2-pointEnd-margin" class="marker flowchart-v2" viewBox="0 0 11.5 14" refX="11.5" refY="7" markerUnits="userSpaceOnUse" markerWidth="10.5" markerHeight="14" orient="auto"><path d="M 0 0 L 11.5 7 L 0 14 z" class="arrowMarkerPath" style="stroke-width: 0; stroke-dasharray: 1, 0;"/></marker><marker id="my-svg_flowchart-v2-pointStart-margin" class="marker flowchart-v2" viewBox="0 0 11.5 14" refX="1" refY="7" markerUnits="userSpaceOnUse" markerWidth="11.5" markerHeight="14" orient="auto"><polygon points="0,7 11.5,14 11.5,0" class="arrowMarkerPath" style="stroke-width: 0; stroke-dasharray: 1, 0;"/></marker><marker id="my-svg_flowchart-v2-circleEnd" class="marker flowchart-v2" viewBox="0 0 10 10" refX="11" refY="5" markerUnits="userSpaceOnUse" markerWidth="11" markerHeight="11" orient="auto"><circle cx="5" cy="5" r="5" class="arrowMarkerPath" style="stroke-width: 1; stroke-dasharray: 1, 0;"/></marker><marker id="my-svg_flowchart-v2-circleStart" class="marker flowchart-v2" viewBox="0 0 10 10" refX="-1" refY="5" markerUnits="userSpaceOnUse" markerWidth="11" markerHeight="11" orient="auto"><circle cx="5" cy="5" r="5" class="arrowMarkerPath" style="stroke-width: 1; stroke-dasharray: 1, 0;"/></marker><marker id="my-svg_flowchart-v2-circleEnd-margin" class="marker flowchart-v2" viewBox="0 0 10 10" refY="5" refX="12.25" markerUnits="userSpaceOnUse" markerWidth="14" markerHeight="14" orient="auto"><circle cx="5" cy="5" r="5" class="arrowMarkerPath" style="stroke-width: 0; stroke-dasharray: 1, 0;"/></marker><marker id="my-svg_flowchart-v2-circleStart-margin" class="marker flowchart-v2" viewBox="0 0 10 10" refX="-2" refY="5" markerUnits="userSpaceOnUse" markerWidth="14" markerHeight="14" orient="auto"><circle cx="5" cy="5" r="5" class="arrowMarkerPath" style="stroke-width: 0; stroke-dasharray: 1, 0;"/></marker><marker id="my-svg_flowchart-v2-crossEnd" class="marker cross flowchart-v2" viewBox="0 0 11 11" refX="12" refY="5.2" markerUnits="userSpaceOnUse" markerWidth="11" markerHeight="11" orient="auto"><path d="M 1,1 l 9,9 M 10,1 l -9,9" class="arrowMarkerPath" style="stroke-width: 2; stroke-dasharray: 1, 0;"/></marker><marker id="my-svg_flowchart-v2-crossStart" class="marker cross flowchart-v2" viewBox="0 0 11 11" refX="-1" refY="5.2" markerUnits="userSpaceOnUse" markerWidth="11" markerHeight="11" orient="auto"><path d="M 1,1 l 9,9 M 10,1 l -9,9" class="arrowMarkerPath" style="stroke-width: 2; stroke-dasharray: 1, 0;"/></marker><marker id="my-svg_flowchart-v2-crossEnd-margin" class="marker cross flowchart-v2" viewBox="0 0 15 15" refX="17.7" refY="7.5" markerUnits="userSpaceOnUse" markerWidth="12" markerHeight="12" orient="auto"><path d="M 1,1 L 14,14 M 1,14 L 14,1" class="arrowMarkerPath" style="stroke-width: 2.5;"/></marker><marker id="my-svg_flowchart-v2-crossStart-margin" class="marker cross flowchart-v2" viewBox="0 0 15 15" refX="-3.5" refY="7.5" markerUnits="userSpaceOnUse" markerWidth="12" markerHeight="12" orient="auto"><path d="M 1,1 L 14,14 M 1,14 L 14,1" class="arrowMarkerPath" style="stroke-width: 2.5; stroke-dasharray: 1, 0;"/></marker></g><defs><filter id="my-svg-drop-shadow" height="130%" width="130%"><feDropShadow dx="4" dy="4" stdDeviation="0" flood-opacity="0.06" flood-color="#000000"/></filter></defs><defs><filter id="my-svg-drop-shadow-small" height="150%" width="150%"><feDropShadow dx="2" dy="2" stdDeviation="0" flood-opacity="0.06" flood-color="#000000"/></filter></defs><g class="subgraphs"/><g class="nodes"><g class="node default" id="my-svg-flowchart-S-0" data-look="classic" transform="translate(130.52392578125, 27.5)"><g class="basic label-container outer-path"><path d="M-17.38281285762787 -15.499999523162842 C-5.946834548275708 -15.499999523162842, 5.489143761076452 -15.499999523162842, 17.38281285762787 -15.499999523162842 C17.38281285762787 -15.499999523162842, 17.38281285762787 -15.499999523162842, 17.38281285762787 -15.499999523162842 C17.591224008926403 -15.493316183188394, 17.79963516022494 -15.486632843213947, 18.375901236777857 -15.468153111772768 C18.60018878744358 -15.44651636150529, 18.82447633810931 -15.424879611237813, 19.36490880276113 -15.372744741337984 C19.659743570460915 -15.325078142574055, 19.954578338160697 -15.277411543810127, 20.3457715113476 -15.214166465317636 C20.597961785460726 -15.156605680946651, 20.85015205957385 -15.099044896575666, 21.3144587872733 -14.993069915862822 C21.661714816696684 -14.890006149114058, 22.008970846120068 -14.786942382365291, 22.26699008673868 -14.71036362612032 C22.54214434073011 -14.609104317153431, 22.817298594721542 -14.507845008186543, 23.199451254316916 -14.367209296874984 C23.385030640866518 -14.285058807466383, 23.570610027416123 -14.202908318057784, 24.10801060705813 -13.965017022872063 C24.36173845646603 -13.832647366356406, 24.615466305873923 -13.70027770984075, 24.988934679696538 -13.505439498435402 C25.310962237786846 -13.310224500277068, 25.632989795877158 -13.115009502118733, 25.838603566260062 -12.990365226191981 C26.04868708494194 -12.84382005792845, 26.258770603623816 -12.697274889664921, 26.65352579504039 -12.421910756809533 C26.925915421799623 -12.204687278061437, 27.19830504855885 -11.987463799313339, 27.4303526757992 -11.802411991635859 C27.586947047809325 -11.660197126236303, 27.74354141981945 -11.517982260836748, 28.165892060254617 -11.134414583979115 C28.323181334214027 -10.972000494926471, 28.480470608173437 -10.809586405873825, 28.8571214593032 -10.420663478472367 C29.051034690222092 -10.192881963459618, 29.244947921140984 -9.965100448446869, 29.501200463076028 -9.664091631507265 C29.634810669180126 -9.485066127467952, 29.768420875284225 -9.306040623428641, 30.095482412792073 -8.86780795908715 C30.25936258687467 -8.61604400370784, 30.42324276095727 -8.36428004832853, 30.637525276446887 -8.0350845616243 C30.760632437011715 -7.816495332089683, 30.88373959757654 -7.597906102555064, 31.125101683645877 -7.169343278177503 C31.265611148833912 -6.877572367293613, 31.406120614021948 -6.585801456409723, 31.556208078347044 -6.274141625381369 C31.64268174294095 -6.060550001979847, 31.72915540753486 -5.846958378578325, 31.929072951902537 -5.3531581788473845 C32.00790589563324 -5.115725912654362, 32.086738839363946 -4.87829364646134, 32.24216412256765 -4.4101774571076815 C32.323524070968844 -4.099916712229242, 32.40488401937004 -3.7896559673508032, 32.49419503156428 -3.449074370216625 C32.55029487205043 -3.161013546025734, 32.60639471253658 -2.872952721834843, 32.68413002982689 -2.4737982969142234 C32.71993551357184 -2.1960980355808823, 32.75574099731679 -1.9183977742475415, 32.81118863370669 -1.4883568557817233 C32.828937473679034 -1.2119043466067856, 32.84668631365137 -0.9354518374318479, 32.87484873214636 -0.4967994370772719 C32.87484873214636 -0.18268732082345163, 32.87484873214636 0.13142479543036867, 32.87484873214636 0.49679943707726815 C32.8564790309658 0.7829223607203841, 32.83810932978525 1.0690452843635003, 32.81118863370669 1.4883568557817128 C32.76795979760385 1.8236311720961207, 32.72473096150101 2.1589054884105288, 32.68413002982689 2.4737982969142127 C32.637167153059615 2.714942743506646, 32.59020427629234 2.9560871900990793, 32.49419503156428 3.4490743702166218 C32.433296960096 3.6813051101163166, 32.372398888627714 3.9135358500160113, 32.24216412256766 4.410177457107671 C32.12617072100832 4.759531101565616, 32.01017731944899 5.108884746023562, 31.92907295190254 5.353158178847374 C31.83673482484025 5.581235137927474, 31.744396697777958 5.809312097007576, 31.556208078347048 6.274141625381365 C31.402038973714294 6.594277069841678, 31.24786986908154 6.914412514301991, 31.12510168364588 7.169343278177499 C30.980820612512783 7.4255289300170215, 30.836539541379686 7.681714581856545, 30.63752527644689 8.035084561624297 C30.52420399222776 8.209176485210437, 30.410882708008632 8.383268408796578, 30.09548241279208 8.867807959087143 C29.961253715829255 9.04766218453147, 29.827025018866433 9.227516409975799, 29.50120046307603 9.664091631507262 C29.341692662265153 9.851458570590706, 29.18218486145427 10.038825509674151, 28.857121459303208 10.42066347847236 C28.60503380529695 10.680964678015123, 28.35294615129069 10.941265877557885, 28.16589206025462 11.134414583979112 C27.97327350825549 11.30934565649711, 27.780654956256363 11.484276729015106, 27.430352675799213 11.802411991635848 C27.161295143148116 12.016978214003457, 26.892237610497016 12.231544436371067, 26.653525795040395 12.421910756809531 C26.368893179605653 12.620458147789472, 26.084260564170915 12.819005538769416, 25.83860356626007 12.990365226191976 C25.614603510707585 13.126155376238332, 25.390603455155105 13.261945526284688, 24.98893467969654 13.5054394984354 C24.675057951686632 13.669188786390531, 24.361181223676724 13.83293807434566, 24.108010607058134 13.965017022872061 C23.89406117810922 14.05972608848343, 23.680111749160304 14.154435154094799, 23.199451254316923 14.367209296874982 C22.897429081542402 14.478356248318367, 22.595406908767885 14.589503199761749, 22.26699008673869 14.710363626120316 C21.996763240780528 14.790565535551039, 21.72653639482236 14.870767444981764, 21.314458787273317 14.993069915862819 C21.079689174788886 15.046654547897495, 20.844919562304458 15.10023917993217, 20.345771511347607 15.214166465317634 C19.979317906209086 15.273411842306277, 19.61286430107057 15.332657219294921, 19.36490880276114 15.372744741337982 C19.14887984012457 15.393584795550693, 18.932850877488008 15.414424849763403, 18.375901236777857 15.468153111772768 C18.11593775432701 15.476489634666745, 17.855974271876168 15.484826157560722, 17.382812857627872 15.499999523162842 C17.382812857627872 15.499999523162842, 17.38281285762787 15.499999523162842, 17.38281285762787 15.499999523162842 C3.7223517792692107 15.499999523162842, -9.938109299089447 15.499999523162842, -17.382812857627865 15.499999523162842 C-17.776162894464747 15.487385553090883, -18.16951293130163 15.474771583018924, -18.37590123677785 15.468153111772768 C-18.702455607259132 15.43665080439153, -19.029009977740415 15.40514849701029, -19.364908802761132 15.372744741337982 C-19.69628444907394 15.319170496698646, -20.027660095386743 15.265596252059309, -20.3457715113476 15.214166465317634 C-20.61758151860003 15.152127604888328, -20.889391525852457 15.09008874445902, -21.314458787273296 14.993069915862822 C-21.665030614515253 14.889022037726484, -22.015602441757206 14.784974159590146, -22.266990086738673 14.710363626120323 C-22.585278794281212 14.593230439516107, -22.903567501823755 14.476097252911893, -23.199451254316916 14.367209296874984 C-23.42102924954524 14.2691232912651, -23.64260724477356 14.171037285655215, -24.108010607058127 13.965017022872065 C-24.444381863020617 13.789532354092506, -24.780753118983103 13.614047685312947, -24.988934679696534 13.505439498435404 C-25.227322877902637 13.360927171758313, -25.46571107610874 13.216414845081221, -25.83860356626005 12.990365226191987 C-26.130605117950857 12.786677584275921, -26.422606669641667 12.582989942359857, -26.653525795040387 12.421910756809535 C-26.869197658562655 12.24991818491985, -27.084869522084922 12.077925613030166, -27.4303526757992 11.80241199163586 C-27.719804323796726 11.53953966339544, -28.009255971794257 11.276667335155018, -28.16589206025461 11.134414583979122 C-28.39068397316921 10.902298478135519, -28.615475886083807 10.670182372291915, -28.857121459303205 10.420663478472365 C-28.989546141825866 10.265109911203348, -29.12197082434853 10.10955634393433, -29.501200463076025 9.664091631507267 C-29.686066684781036 9.416387736081816, -29.870932906486047 9.168683840656366, -30.095482412792073 8.867807959087152 C-30.266429199624703 8.605187788872573, -30.437375986457333 8.342567618657995, -30.637525276446883 8.035084561624307 C-30.794353469199816 7.7566202248149265, -30.951181661952752 7.478155888005546, -31.125101683645873 7.169343278177505 C-31.285552669667705 6.836163372602044, -31.446003655689537 6.502983467026584, -31.556208078347044 6.274141625381371 C-31.633595809822285 6.082992432447525, -31.710983541297523 5.891843239513679, -31.929072951902537 5.353158178847386 C-32.020858092537004 5.076715959232556, -32.11264323317147 4.800273739617724, -32.24216412256765 4.410177457107677 C-32.340330016881374 4.035828356721713, -32.438495911195105 3.661479256335749, -32.494195031564274 3.449074370216627 C-32.55541346740646 3.134730640688019, -32.61663190324864 2.8203869111594106, -32.68413002982689 2.473798296914225 C-32.73327828287466 2.092614151696059, -32.782426535922426 1.7114300064778927, -32.81118863370669 1.4883568557817322 C-32.83147220825243 1.172423809625187, -32.851755782798165 0.8564907634686418, -32.87484873214636 0.4967994370772738 C-32.87484873214636 0.2864375008156546, -32.87484873214636 0.07607556455403541, -32.87484873214636 -0.4967994370772663 C-32.85904356652051 -0.7429776493999685, -32.84323840089466 -0.9891558617226706, -32.81118863370669 -1.4883568557817108 C-32.77238752340277 -1.7892906051530413, -32.733586413098855 -2.0902243545243717, -32.68413002982689 -2.4737982969142176 C-32.63780173369423 -2.7116843060665516, -32.591473437561575 -2.9495703152188857, -32.49419503156428 -3.44907437021662 C-32.40610588166675 -3.7849964768549924, -32.31801673176921 -4.120918583493365, -32.24216412256766 -4.410177457107669 C-32.1762086971775 -4.608824689812881, -32.11025327178734 -4.807471922518093, -31.929072951902544 -5.353158178847367 C-31.80886210551119 -5.650081293552623, -31.688651259119833 -5.947004408257881, -31.556208078347048 -6.274141625381363 C-31.39863475276428 -6.601346007483038, -31.241061427181513 -6.928550389584713, -31.12510168364588 -7.1693432781774975 C-31.014029058621546 -7.366563971231104, -30.90295643359721 -7.56378466428471, -30.637525276446887 -8.035084561624302 C-30.501087950270747 -8.244688933182813, -30.364650624094605 -8.454293304741325, -30.095482412792077 -8.867807959087147 C-29.873978698882603 -9.164602756322378, -29.652474984973125 -9.461397553557608, -29.50120046307603 -9.664091631507262 C-29.252259026591865 -9.95651240797058, -29.003317590107702 -10.248933184433897, -28.857121459303208 -10.42066347847236 C-28.68958832544284 -10.59365519390928, -28.522055191582478 -10.7666469093462, -28.165892060254627 -11.134414583979106 C-27.990355452973606 -11.29383228626761, -27.81481884569258 -11.453249988556113, -27.430352675799213 -11.802411991635847 C-27.17236566264774 -12.008149769301403, -26.914378649496264 -12.213887546966959, -26.653525795040395 -12.42191075680953 C-26.41810465727628 -12.586130351296976, -26.182683519512164 -12.750349945784423, -25.83860356626007 -12.990365226191974 C-25.638295044008792 -13.111793429524237, -25.437986521757512 -13.233221632856498, -24.98893467969654 -13.505439498435399 C-24.778814534991863 -13.615059043339455, -24.568694390287185 -13.72467858824351, -24.108010607058134 -13.965017022872061 C-23.91050111492694 -14.052448616127624, -23.712991622795744 -14.139880209383186, -23.199451254316923 -14.36720929687498 C-23.000019817901354 -14.4406019089999, -22.80058838148578 -14.51399452112482, -22.266990086738694 -14.710363626120316 C-21.952632710849034 -14.803663245188828, -21.63827533495937 -14.896962864257342, -21.314458787273317 -14.993069915862817 C-20.952583522478175 -15.075665583595516, -20.590708257683033 -15.158261251328215, -20.345771511347607 -15.214166465317632 C-20.108217385686274 -15.252572374094798, -19.870663260024944 -15.290978282871963, -19.36490880276114 -15.372744741337982 C-19.057491774817702 -15.402400892300617, -18.750074746874265 -15.432057043263253, -18.375901236777857 -15.468153111772768 C-18.101521798955332 -15.47695192629656, -17.827142361132804 -15.48575074082035, -17.382812857627872 -15.499999523162842 C-17.382812857627872 -15.499999523162842, -17.38281285762787 -15.499999523162842, -17.38281285762787 -15.499999523162842" stroke="none" stroke-width="0" fill="#ffffff" style=""/><path d="M-17.38281285762787 -15.499999523162842 C-3.7839241332191875 -15.499999523162842, 9.814964591189494 -15.499999523162842, 17.38281285762787 -15.499999523162842 M-17.38281285762787 -15.499999523162842 C-5.732719812203083 -15.499999523162842, 5.917373233221703 -15.499999523162842, 17.38281285762787 -15.499999523162842 M17.38281285762787 -15.499999523162842 C17.38281285762787 -15.499999523162842, 17.38281285762787 -15.499999523162842, 17.38281285762787 -15.499999523162842 M17.38281285762787 -15.499999523162842 C17.38281285762787 -15.499999523162842, 17.38281285762787 -15.499999523162842, 17.38281285762787 -15.499999523162842 M17.38281285762787 -15.499999523162842 C17.765609061347586 -15.487723993977161, 18.1484052650673 -15.47544846479148, 18.375901236777857 -15.468153111772768 M17.38281285762787 -15.499999523162842 C17.76586555581153 -15.487715768698939, 18.14891825399519 -15.475432014235034, 18.375901236777857 -15.468153111772768 M18.375901236777857 -15.468153111772768 C18.63218379460781 -15.443429841643784, 18.88846635243776 -15.418706571514798, 19.36490880276113 -15.372744741337984 M18.375901236777857 -15.468153111772768 C18.713866840709326 -15.435549976424605, 19.05183244464079 -15.402946841076444, 19.36490880276113 -15.372744741337984 M19.36490880276113 -15.372744741337984 C19.706033411552035 -15.317594360049522, 20.047158020342945 -15.262443978761059, 20.3457715113476 -15.214166465317636 M19.36490880276113 -15.372744741337984 C19.662828537779074 -15.324579388982334, 19.96074827279702 -15.276414036626683, 20.3457715113476 -15.214166465317636 M20.3457715113476 -15.214166465317636 C20.58969004823728 -15.158493650989772, 20.83360858512696 -15.10282083666191, 21.3144587872733 -14.993069915862822 M20.3457715113476 -15.214166465317636 C20.64093279053807 -15.146797829449762, 20.936094069728536 -15.079429193581888, 21.3144587872733 -14.993069915862822 M21.3144587872733 -14.993069915862822 C21.539722356969403 -14.926212870809625, 21.76498592666551 -14.859355825756428, 22.26699008673868 -14.71036362612032 M21.3144587872733 -14.993069915862822 C21.546602577715497 -14.9241708574072, 21.778746368157694 -14.855271798951579, 22.26699008673868 -14.71036362612032 M22.26699008673868 -14.71036362612032 C22.57788537838233 -14.595951284910884, 22.888780670025984 -14.481538943701448, 23.199451254316916 -14.367209296874984 M22.26699008673868 -14.71036362612032 C22.622990498379245 -14.57935218380486, 22.978990910019814 -14.448340741489401, 23.199451254316916 -14.367209296874984 M23.199451254316916 -14.367209296874984 C23.519531736192743 -14.2255191623987, 23.83961221806857 -14.083829027922413, 24.10801060705813 -13.965017022872063 M23.199451254316916 -14.367209296874984 C23.42105328667101 -14.269112650742557, 23.642655319025106 -14.171016004610129, 24.10801060705813 -13.965017022872063 M24.10801060705813 -13.965017022872063 C24.32016003114525 -13.854338804214002, 24.532309455232372 -13.743660585555943, 24.988934679696538 -13.505439498435402 M24.10801060705813 -13.965017022872063 C24.383497456820802 -13.821295709808625, 24.658984306583477 -13.677574396745186, 24.988934679696538 -13.505439498435402 M24.988934679696538 -13.505439498435402 C25.227332416034194 -13.36092138968691, 25.465730152371854 -13.216403280938417, 25.838603566260062 -12.990365226191981 M24.988934679696538 -13.505439498435402 C25.291157960276493 -13.322229969686697, 25.59338124085645 -13.139020440937994, 25.838603566260062 -12.990365226191981 M25.838603566260062 -12.990365226191981 C26.02046024419017 -12.863509880116643, 26.202316922120275 -12.736654534041307, 26.65352579504039 -12.421910756809533 M25.838603566260062 -12.990365226191981 C26.038467788432065 -12.850948596787523, 26.23833201060407 -12.711531967383065, 26.65352579504039 -12.421910756809533 M26.65352579504039 -12.421910756809533 C26.814680961613625 -12.293393799986468, 26.97583612818686 -12.164876843163404, 27.4303526757992 -11.802411991635859 M26.65352579504039 -12.421910756809533 C26.947448087573893 -12.187515550114755, 27.241370380107394 -11.953120343419979, 27.4303526757992 -11.802411991635859 M27.4303526757992 -11.802411991635859 C27.606802422651665 -11.64216500014892, 27.78325216950413 -11.481918008661978, 28.165892060254617 -11.134414583979115 M27.4303526757992 -11.802411991635859 C27.723485648284814 -11.536196381897867, 28.01661862077043 -11.269980772159872, 28.165892060254617 -11.134414583979115 M28.165892060254617 -11.134414583979115 C28.39392946462576 -10.898947241746825, 28.621966868996903 -10.663479899514536, 28.8571214593032 -10.420663478472367 M28.165892060254617 -11.134414583979115 C28.398173424380023 -10.894565004864972, 28.63045478850543 -10.65471542575083, 28.8571214593032 -10.420663478472367 M28.8571214593032 -10.420663478472367 C29.097243195912778 -10.138602823336878, 29.33736493252236 -9.85654216820139, 29.501200463076028 -9.664091631507265 M28.8571214593032 -10.420663478472367 C29.0308087185469 -10.216640540679691, 29.2044959777906 -10.012617602887016, 29.501200463076028 -9.664091631507265 M29.501200463076028 -9.664091631507265 C29.661370259220227 -9.449478696442648, 29.821540055364427 -9.234865761378032, 30.095482412792073 -8.86780795908715 M29.501200463076028 -9.664091631507265 C29.708181021936536 -9.386756538951005, 29.915161580797047 -9.109421446394746, 30.095482412792073 -8.86780795908715 M30.095482412792073 -8.86780795908715 C30.226579351085856 -8.666407857410881, 30.357676289379636 -8.465007755734613, 30.637525276446887 -8.0350845616243 M30.095482412792073 -8.86780795908715 C30.233926582804333 -8.655120536483334, 30.372370752816593 -8.44243311387952, 30.637525276446887 -8.0350845616243 M30.637525276446887 -8.0350845616243 C30.792975410140247 -7.759067108218805, 30.948425543833608 -7.4830496548133105, 31.125101683645877 -7.169343278177503 M30.637525276446887 -8.0350845616243 C30.773526466220908 -7.793600677566723, 30.909527655994925 -7.552116793509146, 31.125101683645877 -7.169343278177503 M31.125101683645877 -7.169343278177503 C31.243424041654187 -6.923644370080357, 31.361746399662493 -6.677945461983211, 31.556208078347044 -6.274141625381369 M31.125101683645877 -7.169343278177503 C31.226827260363816 -6.9581079415440374, 31.32855283708176 -6.746872604910573, 31.556208078347044 -6.274141625381369 M31.556208078347044 -6.274141625381369 C31.639800684743953 -6.067666271427905, 31.723393291140862 -5.861190917474441, 31.929072951902537 -5.3531581788473845 M31.556208078347044 -6.274141625381369 C31.63478638491211 -6.080051688957445, 31.713364691477178 -5.885961752533522, 31.929072951902537 -5.3531581788473845 M31.929072951902537 -5.3531581788473845 C32.04136528021134 -5.014951577334091, 32.15365760852014 -4.676744975820797, 32.24216412256765 -4.4101774571076815 M31.929072951902537 -5.3531581788473845 C31.996711320795498 -5.14944218845236, 32.06434968968846 -4.945726198057336, 32.24216412256765 -4.4101774571076815 M32.24216412256765 -4.4101774571076815 C32.30275013888144 -4.179136718757614, 32.36333615519524 -3.9480959804075466, 32.49419503156428 -3.449074370216625 M32.24216412256765 -4.4101774571076815 C32.31241427451826 -4.142283181111567, 32.382664426468864 -3.8743889051154508, 32.49419503156428 -3.449074370216625 M32.49419503156428 -3.449074370216625 C32.55060148923701 -3.1594391315761956, 32.60700794690975 -2.8698038929357663, 32.68413002982689 -2.4737982969142234 M32.49419503156428 -3.449074370216625 C32.554522925676814 -3.1393033842536866, 32.61485081978935 -2.829532398290748, 32.68413002982689 -2.4737982969142234 M32.68413002982689 -2.4737982969142234 C32.73016640872 -2.116749233130477, 32.77620278761312 -1.7597001693467307, 32.81118863370669 -1.4883568557817233 M32.68413002982689 -2.4737982969142234 C32.723422112857676 -2.1690566600268597, 32.76271419588846 -1.8643150231394963, 32.81118863370669 -1.4883568557817233 M32.81118863370669 -1.4883568557817233 C32.8299581763546 -1.1960060785383515, 32.84872771900252 -0.9036553012949795, 32.87484873214636 -0.4967994370772719 M32.81118863370669 -1.4883568557817233 C32.83100411678441 -1.1797147120761244, 32.85081959986214 -0.8710725683705255, 32.87484873214636 -0.4967994370772719 M32.87484873214636 -0.4967994370772719 C32.87484873214636 -0.18395980957897895, 32.87484873214636 0.12887981791931402, 32.87484873214636 0.49679943707726815 M32.87484873214636 -0.4967994370772719 C32.87484873214636 -0.11534435166759305, 32.87484873214636 0.2661107337420858, 32.87484873214636 0.49679943707726815 M32.87484873214636 0.49679943707726815 C32.86069169633853 0.7173066971378907, 32.84653466053069 0.9378139571985133, 32.81118863370669 1.4883568557817128 M32.87484873214636 0.49679943707726815 C32.851979914449636 0.8529997320811182, 32.82911109675292 1.209200027084968, 32.81118863370669 1.4883568557817128 M32.81118863370669 1.4883568557817128 C32.770551343267975 1.803531655683734, 32.729914052829265 2.1187064555857553, 32.68413002982689 2.4737982969142127 M32.81118863370669 1.4883568557817128 C32.774688698956496 1.771443141976893, 32.73818876420629 2.054529428172073, 32.68413002982689 2.4737982969142127 M32.68413002982689 2.4737982969142127 C32.630277709543144 2.750318579879311, 32.576425389259406 3.026838862844409, 32.49419503156428 3.4490743702166218 M32.68413002982689 2.4737982969142127 C32.645853483488104 2.670340272612934, 32.607576937149325 2.8668822483116547, 32.49419503156428 3.4490743702166218 M32.49419503156428 3.4490743702166218 C32.42374796433766 3.717719569503811, 32.35330089711103 3.9863647687909998, 32.24216412256766 4.410177457107671 M32.49419503156428 3.4490743702166218 C32.416055681916696 3.7470535762312176, 32.33791633226912 4.045032782245813, 32.24216412256766 4.410177457107671 M32.24216412256766 4.410177457107671 C32.15024148691111 4.687033789822142, 32.05831885125457 4.963890122536614, 31.92907295190254 5.353158178847374 M32.24216412256766 4.410177457107671 C32.1654404742508 4.641256861584781, 32.088716825933936 4.8723362660618905, 31.92907295190254 5.353158178847374 M31.92907295190254 5.353158178847374 C31.851489050096077 5.544791916292035, 31.773905148289618 5.736425653736696, 31.556208078347048 6.274141625381365 M31.92907295190254 5.353158178847374 C31.804608694476567 5.660587301042242, 31.680144437050597 5.96801642323711, 31.556208078347048 6.274141625381365 M31.556208078347048 6.274141625381365 C31.402528767435214 6.593260002700277, 31.248849456523384 6.91237838001919, 31.12510168364588 7.169343278177499 M31.556208078347048 6.274141625381365 C31.406099462104674 6.585845378818523, 31.255990845862296 6.897549132255683, 31.12510168364588 7.169343278177499 M31.12510168364588 7.169343278177499 C31.024735602876042 7.347553417752078, 30.924369522106208 7.525763557326657, 30.63752527644689 8.035084561624297 M31.12510168364588 7.169343278177499 C30.967344800769467 7.449456598341191, 30.80958791789305 7.729569918504883, 30.63752527644689 8.035084561624297 M30.63752527644689 8.035084561624297 C30.4773263782078 8.281193088747008, 30.317127479968708 8.527301615869717, 30.09548241279208 8.867807959087143 M30.63752527644689 8.035084561624297 C30.511397960908212 8.228849988218165, 30.385270645369534 8.422615414812036, 30.09548241279208 8.867807959087143 M30.09548241279208 8.867807959087143 C29.91552567406101 9.108933594590615, 29.735568935329937 9.35005923009409, 29.50120046307603 9.664091631507262 M30.09548241279208 8.867807959087143 C29.954995617976373 9.056047465529891, 29.814508823160665 9.244286971972638, 29.50120046307603 9.664091631507262 M29.50120046307603 9.664091631507262 C29.325090430994486 9.870960496134952, 29.14898039891294 10.077829360762642, 28.857121459303208 10.42066347847236 M29.50120046307603 9.664091631507262 C29.269030443867827 9.93681174691756, 29.036860424659622 10.209531862327859, 28.857121459303208 10.42066347847236 M28.857121459303208 10.42066347847236 C28.68931908799154 10.593933203682559, 28.521516716679866 10.767202928892758, 28.16589206025462 11.134414583979112 M28.857121459303208 10.42066347847236 C28.65895124511859 10.625290494695143, 28.460781030933976 10.829917510917925, 28.16589206025462 11.134414583979112 M28.16589206025462 11.134414583979112 C27.876681736195493 11.397067748203757, 27.587471412136367 11.659720912428403, 27.430352675799213 11.802411991635848 M28.16589206025462 11.134414583979112 C27.917533088183323 11.359967631195955, 27.66917411611203 11.585520678412797, 27.430352675799213 11.802411991635848 M27.430352675799213 11.802411991635848 C27.12578337272964 12.045297905904294, 26.821214069660066 12.288183820172737, 26.653525795040395 12.421910756809531 M27.430352675799213 11.802411991635848 C27.234818283998646 11.958345465708108, 27.039283892198075 12.114278939780366, 26.653525795040395 12.421910756809531 M26.653525795040395 12.421910756809531 C26.447040650234932 12.565945855227968, 26.24055550542947 12.709980953646404, 25.83860356626007 12.990365226191976 M26.653525795040395 12.421910756809531 C26.38981740602904 12.605862313231682, 26.126109017017683 12.789813869653836, 25.83860356626007 12.990365226191976 M25.83860356626007 12.990365226191976 C25.503354837236483 13.193594975866288, 25.168106108212893 13.3968247255406, 24.98893467969654 13.5054394984354 M25.83860356626007 12.990365226191976 C25.535701072535446 13.173986497940477, 25.232798578810822 13.35760776968898, 24.98893467969654 13.5054394984354 M24.98893467969654 13.5054394984354 C24.746790771918427 13.631765820022668, 24.50464686414031 13.758092141609938, 24.108010607058134 13.965017022872061 M24.98893467969654 13.5054394984354 C24.67286420492564 13.670333262670578, 24.35679373015474 13.835227026905756, 24.108010607058134 13.965017022872061 M24.108010607058134 13.965017022872061 C23.791675396449318 14.105049236857965, 23.4753401858405 14.245081450843871, 23.199451254316923 14.367209296874982 M24.108010607058134 13.965017022872061 C23.84543152654147 14.081252992685112, 23.582852446024805 14.197488962498165, 23.199451254316923 14.367209296874982 M23.199451254316923 14.367209296874982 C22.915485963702345 14.471711148767518, 22.631520673087767 14.576213000660054, 22.26699008673869 14.710363626120316 M23.199451254316923 14.367209296874982 C22.845318667128563 14.497533362526049, 22.491186079940203 14.627857428177116, 22.26699008673869 14.710363626120316 M22.26699008673869 14.710363626120316 C22.047025582038444 14.775647936498101, 21.8270610773382 14.840932246875889, 21.314458787273317 14.993069915862819 M22.26699008673869 14.710363626120316 C21.97017289426821 14.798457410820317, 21.673355701797732 14.886551195520319, 21.314458787273317 14.993069915862819 M21.314458787273317 14.993069915862819 C21.083943362569194 15.045683557297808, 20.85342793786507 15.0982971987328, 20.345771511347607 15.214166465317634 M21.314458787273317 14.993069915862819 C21.067901858098878 15.049344926012559, 20.821344928924436 15.1056199361623, 20.345771511347607 15.214166465317634 M20.345771511347607 15.214166465317634 C20.141037010118918 15.247266351736519, 19.93630250889023 15.280366238155402, 19.36490880276114 15.372744741337982 M20.345771511347607 15.214166465317634 C20.07272346798343 15.258310755449552, 19.799675424619256 15.302455045581471, 19.36490880276114 15.372744741337982 M19.36490880276114 15.372744741337982 C19.032303121049974 15.4048308114358, 18.699697439338813 15.436916881533621, 18.375901236777857 15.468153111772768 M19.36490880276114 15.372744741337982 C19.142494470272922 15.39420078450075, 18.920080137784705 15.415656827663518, 18.375901236777857 15.468153111772768 M18.375901236777857 15.468153111772768 C18.001206587855666 15.480168839864813, 17.62651193893348 15.492184567956857, 17.382812857627872 15.499999523162842 M18.375901236777857 15.468153111772768 C18.126585415215825 15.476148184906455, 17.877269593653793 15.484143258040142, 17.382812857627872 15.499999523162842 M17.382812857627872 15.499999523162842 C17.382812857627872 15.499999523162842, 17.382812857627872 15.499999523162842, 17.38281285762787 15.499999523162842 M17.382812857627872 15.499999523162842 C17.382812857627872 15.499999523162842, 17.38281285762787 15.499999523162842, 17.38281285762787 15.499999523162842 M17.38281285762787 15.499999523162842 C9.328785488814374 15.499999523162842, 1.2747581200008788 15.499999523162842, -17.382812857627865 15.499999523162842 M17.38281285762787 15.499999523162842 C5.345159314878183 15.499999523162842, -6.692494227871503 15.499999523162842, -17.382812857627865 15.499999523162842 M-17.382812857627865 15.499999523162842 C-17.586252968099846 15.493475594792159, -17.789693078571826 15.486951666421474, -18.37590123677785 15.468153111772768 M-17.382812857627865 15.499999523162842 C-17.58764360091918 15.493430999904344, -17.792474344210493 15.486862476645848, -18.37590123677785 15.468153111772768 M-18.37590123677785 15.468153111772768 C-18.745821690300865 15.432467330515838, -19.115742143823876 15.39678154925891, -19.364908802761132 15.372744741337982 M-18.37590123677785 15.468153111772768 C-18.76849739091464 15.430279832949148, -19.161093545051425 15.392406554125527, -19.364908802761132 15.372744741337982 M-19.364908802761132 15.372744741337982 C-19.57819025972815 15.338263049397955, -19.791471716695167 15.30378135745793, -20.3457715113476 15.214166465317634 M-19.364908802761132 15.372744741337982 C-19.57087609269017 15.339445547202445, -19.77684338261921 15.306146353066907, -20.3457715113476 15.214166465317634 M-20.3457715113476 15.214166465317634 C-20.61280705736876 15.153217344508093, -20.87984260338992 15.092268223698552, -21.314458787273296 14.993069915862822 M-20.3457715113476 15.214166465317634 C-20.621264486315734 15.151286991540827, -20.89675746128387 15.088407517764022, -21.314458787273296 14.993069915862822 M-21.314458787273296 14.993069915862822 C-21.630909762231376 14.89914892758033, -21.947360737189456 14.805227939297836, -22.266990086738673 14.710363626120323 M-21.314458787273296 14.993069915862822 C-21.53792926613258 14.926745050757868, -21.761399744991863 14.860420185652913, -22.266990086738673 14.710363626120323 M-22.266990086738673 14.710363626120323 C-22.575476895052205 14.596837629040147, -22.883963703365737 14.48331163195997, -23.199451254316916 14.367209296874984 M-22.266990086738673 14.710363626120323 C-22.561811173373055 14.60186674094262, -22.856632260007437 14.493369855764916, -23.199451254316916 14.367209296874984 M-23.199451254316916 14.367209296874984 C-23.384785974151125 14.285167114163508, -23.570120693985334 14.203124931452033, -24.108010607058127 13.965017022872065 M-23.199451254316916 14.367209296874984 C-23.41400610562439 14.272232228744697, -23.628560956931864 14.17725516061441, -24.108010607058127 13.965017022872065 M-24.108010607058127 13.965017022872065 C-24.288300799541226 13.870959744935012, -24.46859099202432 13.77690246699796, -24.988934679696534 13.505439498435404 M-24.108010607058127 13.965017022872065 C-24.40772409251949 13.80865668948252, -24.70743757798086 13.652296356092974, -24.988934679696534 13.505439498435404 M-24.988934679696534 13.505439498435404 C-25.165972978461504 13.398117841331555, -25.34301127722647 13.290796184227707, -25.83860356626005 12.990365226191987 M-24.988934679696534 13.505439498435404 C-25.191807947879123 13.38245653104746, -25.394681216061716 13.259473563659515, -25.83860356626005 12.990365226191987 M-25.83860356626005 12.990365226191987 C-26.088702127587528 12.815907296402164, -26.338800688915004 12.641449366612342, -26.653525795040387 12.421910756809535 M-25.83860356626005 12.990365226191987 C-26.060330601548877 12.83569804478316, -26.282057636837706 12.681030863374332, -26.653525795040387 12.421910756809535 M-26.653525795040387 12.421910756809535 C-26.836516789764982 12.275980308111553, -27.019507784489573 12.13004985941357, -27.4303526757992 11.80241199163586 M-26.653525795040387 12.421910756809535 C-26.876984770086818 12.24370817070307, -27.10044374513325 12.065505584596602, -27.4303526757992 11.80241199163586 M-27.4303526757992 11.80241199163586 C-27.63095097922403 11.620233920005694, -27.83154928264886 11.438055848375527, -28.16589206025461 11.134414583979122 M-27.4303526757992 11.80241199163586 C-27.615962928307873 11.633845671285652, -27.801573180816547 11.465279350935441, -28.16589206025461 11.134414583979122 M-28.16589206025461 11.134414583979122 C-28.358649754957284 10.935376438497558, -28.551407449659962 10.736338293015994, -28.857121459303205 10.420663478472365 M-28.16589206025461 11.134414583979122 C-28.413810849800857 10.878418079261458, -28.661729639347104 10.622421574543795, -28.857121459303205 10.420663478472365 M-28.857121459303205 10.420663478472365 C-29.044255057836263 10.200845705432025, -29.231388656369326 9.981027932391683, -29.501200463076025 9.664091631507267 M-28.857121459303205 10.420663478472365 C-29.024643168204857 10.223882946941208, -29.19216487710651 10.027102415410052, -29.501200463076025 9.664091631507267 M-29.501200463076025 9.664091631507267 C-29.670002706104725 9.437912004049508, -29.838804949133426 9.21173237659175, -30.095482412792073 8.867807959087152 M-29.501200463076025 9.664091631507267 C-29.702490532931904 9.394381275803001, -29.90378060278778 9.124670920098735, -30.095482412792073 8.867807959087152 M-30.095482412792073 8.867807959087152 C-30.219334652495064 8.677537659920302, -30.34318689219805 8.487267360753455, -30.637525276446883 8.035084561624307 M-30.095482412792073 8.867807959087152 C-30.265619354115906 8.606431929048053, -30.435756295439738 8.345055899008957, -30.637525276446883 8.035084561624307 M-30.637525276446883 8.035084561624307 C-30.76165082065582 7.814687088807043, -30.88577636486476 7.594289615989778, -31.125101683645873 7.169343278177505 M-30.637525276446883 8.035084561624307 C-30.802261997743777 7.742577831559771, -30.96699871904067 7.450071101495234, -31.125101683645873 7.169343278177505 M-31.125101683645873 7.169343278177505 C-31.27868033467053 6.850433923268091, -31.43225898569519 6.531524568358678, -31.556208078347044 6.274141625381371 M-31.125101683645873 7.169343278177505 C-31.267992544124894 6.872627349018186, -31.410883404603915 6.575911419858868, -31.556208078347044 6.274141625381371 M-31.556208078347044 6.274141625381371 C-31.655095849331488 6.029886919184806, -31.753983620315932 5.785632212988241, -31.929072951902537 5.353158178847386 M-31.556208078347044 6.274141625381371 C-31.668363430914745 5.997115736162921, -31.780518783482446 5.72008984694447, -31.929072951902537 5.353158178847386 M-31.929072951902537 5.353158178847386 C-32.051209981315004 4.985300906149972, -32.17334701072747 4.617443633452556, -32.24216412256765 4.410177457107677 M-31.929072951902537 5.353158178847386 C-32.01418248359328 5.096821829757213, -32.09929201528402 4.840485480667041, -32.24216412256765 4.410177457107677 M-32.24216412256765 4.410177457107677 C-32.29428440813364 4.211420219169901, -32.34640469369963 4.0126629812321255, -32.494195031564274 3.449074370216627 M-32.24216412256765 4.410177457107677 C-32.33756120150306 4.046387049771435, -32.432958280438456 3.6825966424351932, -32.494195031564274 3.449074370216627 M-32.494195031564274 3.449074370216627 C-32.55708344779856 3.1261556443250416, -32.61997186403285 2.8032369184334556, -32.68413002982689 2.473798296914225 M-32.494195031564274 3.449074370216627 C-32.55581278034297 3.1326802531538465, -32.61743052912167 2.8162861360910654, -32.68413002982689 2.473798296914225 M-32.68413002982689 2.473798296914225 C-32.71306439268359 2.249389092333864, -32.741998755540294 2.0249798877535032, -32.81118863370669 1.4883568557817322 M-32.68413002982689 2.473798296914225 C-32.72421929159449 2.162873899164872, -32.76430855336209 1.8519495014155187, -32.81118863370669 1.4883568557817322 M-32.81118863370669 1.4883568557817322 C-32.82739963653957 1.2358574013737258, -32.84361063937244 0.9833579469657195, -32.87484873214636 0.4967994370772738 M-32.81118863370669 1.4883568557817322 C-32.8263632515738 1.2519999337704222, -32.84153786944091 1.0156430117591122, -32.87484873214636 0.4967994370772738 M-32.87484873214636 0.4967994370772738 C-32.87484873214636 0.286614654769634, -32.87484873214636 0.07642987246199412, -32.87484873214636 -0.4967994370772663 M-32.87484873214636 0.4967994370772738 C-32.87484873214636 0.12633861533043067, -32.87484873214636 -0.24412220641641247, -32.87484873214636 -0.4967994370772663 M-32.87484873214636 -0.4967994370772663 C-32.8560377627152 -0.7897954699088854, -32.83722679328403 -1.0827915027405044, -32.81118863370669 -1.4883568557817108 M-32.87484873214636 -0.4967994370772663 C-32.853191566189146 -0.8341272782106186, -32.83153440023193 -1.1714551193439708, -32.81118863370669 -1.4883568557817108 M-32.81118863370669 -1.4883568557817108 C-32.76614288991935 -1.8377227493080883, -32.72109714613201 -2.187088642834466, -32.68413002982689 -2.4737982969142176 M-32.81118863370669 -1.4883568557817108 C-32.77424108126913 -1.774914776367936, -32.73729352883158 -2.0614726969541612, -32.68413002982689 -2.4737982969142176 M-32.68413002982689 -2.4737982969142176 C-32.639683218652465 -2.7020232784580367, -32.59523640747803 -2.9302482600018553, -32.49419503156428 -3.44907437021662 M-32.68413002982689 -2.4737982969142176 C-32.63956304271111 -2.7026403565176675, -32.59499605559534 -2.931482416121118, -32.49419503156428 -3.44907437021662 M-32.49419503156428 -3.44907437021662 C-32.41915683576575 -3.7352275325562125, -32.34411863996721 -4.0213806948958055, -32.24216412256766 -4.410177457107669 M-32.49419503156428 -3.44907437021662 C-32.39617857392593 -3.8228536037931145, -32.29816211628758 -4.1966328373696085, -32.24216412256766 -4.410177457107669 M-32.24216412256766 -4.410177457107669 C-32.16334368774912 -4.647572048450271, -32.08452325293058 -4.884966639792873, -31.929072951902544 -5.353158178847367 M-32.24216412256766 -4.410177457107669 C-32.1666796622521 -4.637524624762652, -32.09119520193654 -4.8648717924176355, -31.929072951902544 -5.353158178847367 M-31.929072951902544 -5.353158178847367 C-31.795341707236176 -5.683476938691019, -31.66161046256981 -6.01379569853467, -31.556208078347048 -6.274141625381363 M-31.929072951902544 -5.353158178847367 C-31.795036124036507 -5.684231735102256, -31.660999296170466 -6.015305291357145, -31.556208078347048 -6.274141625381363 M-31.556208078347048 -6.274141625381363 C-31.406459729954275 -6.585097274920322, -31.256711381561505 -6.896052924459282, -31.12510168364588 -7.1693432781774975 M-31.556208078347048 -6.274141625381363 C-31.43590108707204 -6.523961666921156, -31.315594095797035 -6.77378170846095, -31.12510168364588 -7.1693432781774975 M-31.12510168364588 -7.1693432781774975 C-30.967865518238842 -7.448532011745952, -30.810629352831803 -7.727720745314407, -30.637525276446887 -8.035084561624302 M-31.12510168364588 -7.1693432781774975 C-31.01060766328069 -7.3726390051126405, -30.8961136429155 -7.575934732047783, -30.637525276446887 -8.035084561624302 M-30.637525276446887 -8.035084561624302 C-30.516749806695433 -8.220628115917176, -30.395974336943983 -8.40617167021005, -30.095482412792077 -8.867807959087147 M-30.637525276446887 -8.035084561624302 C-30.482643443796096 -8.273024648171354, -30.327761611145306 -8.510964734718407, -30.095482412792077 -8.867807959087147 M-30.095482412792077 -8.867807959087147 C-29.902625895494094 -9.12621812267628, -29.70976937819611 -9.384628286265412, -29.50120046307603 -9.664091631507262 M-30.095482412792077 -8.867807959087147 C-29.973747797225222 -9.030921253695105, -29.852013181658368 -9.194034548303064, -29.50120046307603 -9.664091631507262 M-29.50120046307603 -9.664091631507262 C-29.309491059936253 -9.88928440500931, -29.117781656796478 -10.114477178511358, -28.857121459303208 -10.42066347847236 M-29.50120046307603 -9.664091631507262 C-29.35609078680459 -9.834545714230188, -29.210981110533144 -10.004999796953117, -28.857121459303208 -10.42066347847236 M-28.857121459303208 -10.42066347847236 C-28.683268869402294 -10.600180551108135, -28.509416279501384 -10.77969762374391, -28.165892060254627 -11.134414583979106 M-28.857121459303208 -10.42066347847236 C-28.617828391500236 -10.667753217305165, -28.378535323697268 -10.91484295613797, -28.165892060254627 -11.134414583979106 M-28.165892060254627 -11.134414583979106 C-27.92633497344688 -11.351973991884714, -27.686777886639135 -11.569533399790322, -27.430352675799213 -11.802411991635847 M-28.165892060254627 -11.134414583979106 C-27.9072066822647 -11.369345799829519, -27.648521304274777 -11.604277015679932, -27.430352675799213 -11.802411991635847 M-27.430352675799213 -11.802411991635847 C-27.230984130767375 -11.961403100878941, -27.031615585735537 -12.120394210122035, -26.653525795040395 -12.42191075680953 M-27.430352675799213 -11.802411991635847 C-27.143029586386177 -12.031544509454221, -26.85570649697314 -12.260677027272598, -26.653525795040395 -12.42191075680953 M-26.653525795040395 -12.42191075680953 C-26.45185973850539 -12.562584267865462, -26.25019368197039 -12.703257778921396, -25.83860356626007 -12.990365226191974 M-26.653525795040395 -12.42191075680953 C-26.395530687407295 -12.601876975466176, -26.13753557977419 -12.781843194122821, -25.83860356626007 -12.990365226191974 M-25.83860356626007 -12.990365226191974 C-25.61117148683388 -13.128235889279383, -25.383739407407692 -13.26610655236679, -24.98893467969654 -13.505439498435399 M-25.83860356626007 -12.990365226191974 C-25.5944603259933 -13.138366293186625, -25.350317085726527 -13.286367360181274, -24.98893467969654 -13.505439498435399 M-24.98893467969654 -13.505439498435399 C-24.67469931090938 -13.669375889054303, -24.36046394212222 -13.833312279673205, -24.108010607058134 -13.965017022872061 M-24.98893467969654 -13.505439498435399 C-24.650522292820757 -13.681989023905018, -24.312109905944972 -13.858538549374638, -24.108010607058134 -13.965017022872061 M-24.108010607058134 -13.965017022872061 C-23.878101225475014 -14.066791086079418, -23.648191843891897 -14.168565149286774, -23.199451254316923 -14.36720929687498 M-24.108010607058134 -13.965017022872061 C-23.878300257509096 -14.066702980502006, -23.648589907960055 -14.168388938131953, -23.199451254316923 -14.36720929687498 M-23.199451254316923 -14.36720929687498 C-22.9449273989019 -14.460876428460438, -22.690403543486877 -14.554543560045895, -22.266990086738694 -14.710363626120316 M-23.199451254316923 -14.36720929687498 C-22.95396469689824 -14.457550619257917, -22.708478139479556 -14.547891941640854, -22.266990086738694 -14.710363626120316 M-22.266990086738694 -14.710363626120316 C-22.041791631753185 -14.777201345469203, -21.81659317676767 -14.844039064818089, -21.314458787273317 -14.993069915862817 M-22.266990086738694 -14.710363626120316 C-22.073416242122782 -14.767815327112473, -21.879842397506867 -14.825267028104632, -21.314458787273317 -14.993069915862817 M-21.314458787273317 -14.993069915862817 C-21.07427930456516 -15.047889315473356, -20.834099821857002 -15.102708715083894, -20.345771511347607 -15.214166465317632 M-21.314458787273317 -14.993069915862817 C-21.076997129823884 -15.047268989593519, -20.83953547237445 -15.101468063324221, -20.345771511347607 -15.214166465317632 M-20.345771511347607 -15.214166465317632 C-20.064553076391153 -15.259631680999858, -19.783334641434696 -15.305096896682082, -19.36490880276114 -15.372744741337982 M-20.345771511347607 -15.214166465317632 C-20.123619142922987 -15.250082337427179, -19.901466774498363 -15.285998209536723, -19.36490880276114 -15.372744741337982 M-19.36490880276114 -15.372744741337982 C-19.044594004638324 -15.403645124677984, -18.724279206515504 -15.434545508017985, -18.375901236777857 -15.468153111772768 M-19.36490880276114 -15.372744741337982 C-19.055773891040534 -15.402566614482543, -18.74663897931993 -15.432388487627104, -18.375901236777857 -15.468153111772768 M-18.375901236777857 -15.468153111772768 C-18.091450733815094 -15.477274885753468, -17.807000230852328 -15.486396659734167, -17.382812857627872 -15.499999523162842 M-18.375901236777857 -15.468153111772768 C-18.14766679266544 -15.475472146164057, -17.919432348553023 -15.482791180555347, -17.382812857627872 -15.499999523162842 M-17.382812857627872 -15.499999523162842 C-17.382812857627872 -15.499999523162842, -17.38281285762787 -15.499999523162842, -17.38281285762787 -15.499999523162842 M-17.382812857627872 -15.499999523162842 C-17.382812857627872 -15.499999523162842, -17.38281285762787 -15.499999523162842, -17.38281285762787 -15.499999523162842" stroke="#28253D" stroke-width="1.3" fill="none" stroke-dasharray="0 0" style=""/></g><g class="label" style="" transform="translate(0, -7.999999523162842)"><rect/><g><rect class="background" style="stroke: none"/><text y="-10.1" style=""><tspan class="text-outer-tspan row" x="0" y="-0.1em" dy="1.1em"><tspan font-style="normal" class="text-inner-tspan" font-weight="normal">Mulai</tspan></tspan></text></g></g></g><g class="node default" id="my-svg-flowchart-A-1" data-look="classic" transform="translate(130.52392578125, 113.70000076293945)"><rect class="basic label-container" style="" x="-118.52392578125" y="-30.700000762939453" width="237.0478515625" height="61.400001525878906"/><g class="label" style="" transform="translate(0, -15.700000762939453)"><rect/><g><rect class="background" style="stroke: none"/><text y="-10.1" style=""><tspan class="text-outer-tspan row" x="0" y="-0.1em" dy="1.1em"><tspan font-style="normal" class="text-inner-tspan" font-weight="normal">Fase</tspan><tspan font-style="normal" class="text-inner-tspan" font-weight="normal"> A:</tspan><tspan font-style="normal" class="text-inner-tspan" font-weight="normal"> Pemodelan</tspan><tspan font-style="normal" class="text-inner-tspan" font-weight="normal"> dan</tspan></tspan><tspan class="text-outer-tspan row" x="0" y="1em" dy="1.1em"><tspan font-style="normal" class="text-inner-tspan" font-weight="normal">Analisis</tspan><tspan font-style="normal" class="text-inner-tspan" font-weight="normal"> Sistem</tspan></tspan></text></g></g></g></g><g class="edges edgePaths"><path d="M131.02392578125,43.49999904632568L130.77392578125,43.24999952316284Q130.52392578125,43 130.52392578125,43.35355305341864L130.52392578125,79" id="my-svg-L_S_A_0" class="edge-thickness-normal edge-pattern-solid edge-thickness-normal edge-pattern-solid flowchart-link" style=";" data-edge="true" data-et="edge" data-id="L_S_A_0" data-points="W3sieCI6MTMxLjAyMzkyNTc4MTI1LCJ5Ijo0My40OTk5OTkwNDYzMjU2OH0seyJ4IjoxMzAuNTIzOTI1NzgxMjUsInkiOjQzfSx7IngiOjEzMC41MjM5MjU3ODEyNSwieSI6ODN9XQ==" data-look="classic" marker-end="url(#my-svg_flowchart-v2-pointEnd)"/></g><g class="edgeLabels"><g class="edgeLabel"><g class="label" data-id="L_S_A_0" transform="translate(0, 0)"><text y="-10.1" text-anchor="middle"><tspan class="text-outer-tspan row" x="0" y="-0.1em" dy="1.1em" text-anchor="middle"/></text></g></g><g><rect class="background" style="stroke: none"/></g></g></svg>